/* XPM */
static char * bottom_right_active_xpm[] = {
"24 16 5 1",
" 	c None",
".	c #414141",
"+	c #373737",
"@	c #2B2B2B",
"#	c #191919",
"                    .+@#",
"                    .+@#",
"                    .+@#",
"                    .+@#",
"                    .+@#",
"                    .+@#",
"                    .+@#",
"                    .+@#",
"                    .+@#",
"                    .+@#",
"                    .+@#",
"                    .+@#",
".....................+@#",
"++++++++++++++++++++++@#",
"@@@@@@@@@@@@@@@@@@@@@@@ ",
"######################  "};
