/* XPM */
static char * close_active_xpm[] = {
"20 25 197 2",
"  	c None",
". 	c #131313",
"+ 	c #595959",
"@ 	c #444444",
"# 	c #434343",
"$ 	c #414141",
"% 	c #4C4C4C",
"& 	c #575757",
"* 	c #585757",
"= 	c #575758",
"- 	c #404040",
"; 	c #505050",
"> 	c #6D6D6D",
", 	c #8B5F54",
"' 	c #AA7B68",
") 	c #3E3E3E",
"! 	c #5B5A5B",
"~ 	c #737373",
"{ 	c #944A41",
"] 	c #F17F6C",
"^ 	c #FFA088",
"/ 	c #FFAF95",
"( 	c #F17F6B",
"_ 	c #954A41",
": 	c #5A5B5A",
"< 	c #3D3D3D",
"[ 	c #545454",
"} 	c #7C7C7C",
"| 	c #9D3B32",
"1 	c #DD5B4C",
"2 	c #FA7563",
"3 	c #FF8D78",
"4 	c #FF9B84",
"5 	c #FB7563",
"6 	c #E05B4C",
"7 	c #9F3B33",
"8 	c #3B3B3B",
"9 	c #898989",
"0 	c #753C3A",
"a 	c #BA362C",
"b 	c #D54B3E",
"c 	c #F26152",
"d 	c #FF7564",
"e 	c #FF826E",
"f 	c #FF7664",
"g 	c #F46152",
"h 	c #D94B3E",
"i 	c #BE362C",
"j 	c #783C3A",
"k 	c #3A3A3A",
"l 	c #5A5A5A",
"m 	c #7E7F7F",
"n 	c #A0241D",
"o 	c #B62921",
"p 	c #CD3A2F",
"q 	c #E64C3F",
"r 	c #FA5D4E",
"s 	c #FF6656",
"t 	c #FB5D4E",
"u 	c #E84C3F",
"v 	c #D13A2F",
"w 	c #BB2921",
"x 	c #A4241D",
"y 	c #7F7F7E",
"z 	c #383838",
"A 	c #7F7F7F",
"B 	c #795B5A",
"C 	c #A3140F",
"D 	c #B41D17",
"E 	c #C62A22",
"F 	c #DB3A30",
"G 	c #ED4B3E",
"H 	c #F85547",
"I 	c #EF4B3E",
"J 	c #DE3A30",
"K 	c #CA2A22",
"L 	c #B81D17",
"M 	c #A9140F",
"N 	c #7B5B5A",
"O 	c #363636",
"P 	c #959595",
"Q 	c #774140",
"R 	c #A50D0A",
"S 	c #B3140F",
"T 	c #C6241D",
"U 	c #DA392F",
"V 	c #E9493C",
"W 	c #F15144",
"X 	c #EB493D",
"Y 	c #DD392F",
"Z 	c #CA251D",
"` 	c #B9140F",
" .	c #AB0D0A",
"..	c #7A4140",
"+.	c #343434",
"@.	c #9C9C9C",
"#.	c #7B4545",
"$.	c #A80906",
"%.	c #B81510",
"&.	c #CD2B23",
"*.	c #DE3F34",
"=.	c #EA4F42",
"-.	c #F15849",
";.	c #EC4F42",
">.	c #E14035",
",.	c #D22C23",
"'.	c #BE1510",
").	c #AF0906",
"!.	c #7F4545",
"~.	c #9C9D9C",
"{.	c #323232",
"].	c #919191",
"^.	c #896D6C",
"/.	c #AD0705",
"(.	c #C21C16",
"_.	c #D5342A",
":.	c #E54A3D",
"<.	c #F05B4C",
"[.	c #F56656",
"}.	c #F66656",
"|.	c #F15C4D",
"1.	c #E74A3E",
"2.	c #D9342B",
"3.	c #C81C16",
"4.	c #B50705",
"5.	c #8C6D6C",
"6.	c #313131",
"7.	c #303030",
"8.	c #676767",
"9.	c #A4A4A4",
"0.	c #B12920",
"a.	c #C9211B",
"b.	c #DC3B30",
"c.	c #EA5345",
"d.	c #F46858",
"e.	c #FB7966",
"f.	c #F46959",
"g.	c #EA5346",
"h.	c #DF3B31",
"i.	c #CF221B",
"j.	c #B82920",
"k.	c #2F2F2F",
"l.	c #BDBDBD",
"m.	c #935F5C",
"n.	c #CE231C",
"o.	c #DF3D32",
"p.	c #EB5748",
"q.	c #F66F5E",
"r.	c #FE8773",
"s.	c #FE8874",
"t.	c #F6705F",
"u.	c #EB5849",
"v.	c #E03E33",
"w.	c #D3241D",
"x.	c #97605C",
"y.	c #2E2E2E",
"z.	c #2D2D2D",
"A.	c #6A6A6A",
"B.	c #C2C2C2",
"C.	c #B2504B",
"D.	c #E85244",
"E.	c #F26959",
"F.	c #FA7B69",
"G.	c #FA7C69",
"H.	c #F36A59",
"I.	c #E85345",
"J.	c #DD3A30",
"K.	c #B4504B",
"L.	c #2C2C2C",
"M.	c #2A2A2A",
"N.	c #828282",
"O.	c #C9C9C9",
"P.	c #A66C68",
"Q.	c #DC5243",
"R.	c #EA584A",
"S.	c #EF6454",
"T.	c #F06454",
"U.	c #EA594A",
"V.	c #DC5344",
"W.	c #A76C68",
"X.	c #CAC9C9",
"Y.	c #282828",
"Z.	c #6F6F6F",
"`.	c #D2D2D2",
" +	c #BFBFC0",
".+	c #AE8C89",
"++	c #AF6B67",
"@+	c #B06B67",
"#+	c #C0BFBF",
"$+	c #262626",
"%+	c #757575",
"&+	c #B1B1B1",
"*+	c #232323",
"=+	c #202020",
"-+	c #1D1D1D",
";+	c #191919",
">+	c #151515",
". . . . . . . . . . . . . . . . . . . . ",
"+ + + + + + + + + + + + + + + + + + + + ",
"@ @ @ @ @ @ @ @ @ @ @ @ @ @ @ @ @ @ @ @ ",
"# # # # # # # # # # # # # # # # # # # # ",
"$ $ $ $ $ $ $ % & * = & % $ $ $ $ $ $ $ ",
"- - - - - ; > & , ' ' , & > ; - - - - - ",
") ) ) ) ! ~ { ] ^ / / ^ ( _ ~ : ) ) ) ) ",
"< < < [ } | 1 2 3 4 4 3 5 6 7 } [ < < < ",
"8 8 8 9 0 a b c d e e f g h i j 9 8 8 8 ",
"k k l m n o p q r s s t u v w x y l k k ",
"z z A B C D E F G H H I J K L M N A z z ",
"O O P Q R S T U V W W X Y Z `  ...P O O ",
"+.+.@.#.$.%.&.*.=.-.-.;.>.,.'.).!.~.+.+.",
"{.{.].^./.(._.:.<.[.}.|.1.2.3.4.5.].{.{.",
"6.7.8.9.0.a.b.c.d.e.e.f.g.h.i.j.9.8.7.7.",
"k.k.k.l.m.n.o.p.q.r.s.t.u.v.w.x.l.y.y.y.",
"z.z.z.A.B.C.Y D.E.F.G.H.I.J.K.B.A.z.L.L.",
"M.M.M.M.N.O.P.Q.R.S.T.U.V.W.X.N.M.M.M.M.",
"Y.Y.Y.Y.Y.Z.`. +.+++@+.+#+`.Z.Y.Y.Y.Y.Y.",
"$+$+$+$+$+$+$+%+&+O.O.&+%+$+$+$+$+$+$+$+",
"*+*+*+*+*+*+*+*+*+*+*+*+*+*+*+*+*+*+*+*+",
"=+=+=+=+=+=+=+=+=+=+=+=+=+=+=+=+=+=+=+=+",
"-+-+-+-+-+-+-+-+-+-+-+-+-+-+-+-+-+-+-+-+",
";+;+;+;+;+;+;+;+;+;+;+;+;+;+;+;+;+;+;+;+",
">+>+>+>+>+>+>+>+>+>+>+>+>+>+>+>+>+>+>+>+"};
