/* XPM */
static char * button_inactive_xpm[] = {
"20 25 75 1",
" 	c None",
".	c #131313",
"+	c #595959",
"@	c #444444",
"#	c #434343",
"$	c #414141",
"%	c #3B3B3B",
"&	c #303030",
"*	c #282828",
"=	c #404040",
"-	c #242424",
";	c #2D2D2D",
">	c #3C3C3C",
",	c #3E3E3E",
"'	c #363636",
")	c #3A3A3A",
"!	c #424242",
"~	c #3D3D3D",
"{	c #383838",
"]	c #222222",
"^	c #464646",
"/	c #333333",
"(	c #4B4B4B",
"_	c #4F4F4F",
":	c #272727",
"<	c #323232",
"[	c #4C4C4C",
"}	c #555555",
"|	c #2F2F2F",
"1	c #2C2C2C",
"2	c #535353",
"3	c #5C5C5C",
"4	c #606060",
"5	c #2F2E2E",
"6	c #2B2B2B",
"7	c #393939",
"8	c #494949",
"9	c #565656",
"0	c #5F5F5F",
"a	c #656565",
"b	c #343434",
"c	c #373737",
"d	c #484848",
"e	c #666666",
"f	c #292929",
"g	c #313131",
"h	c #505050",
"i	c #333232",
"j	c #232323",
"k	c #545454",
"l	c #403F3F",
"m	c #212121",
"n	c #3F3F3F",
"o	c #2E2E2E",
"p	c #343333",
"q	c #424241",
"r	c #1D1D1D",
"s	c #1E1E1E",
"t	c #2A2A2A",
"u	c #4A4949",
"v	c #20201F",
"w	c #1A1A1A",
"x	c #1B1B1B",
"y	c #1C1C1C",
"z	c #202020",
"A	c #363535",
"B	c #565454",
"C	c #4D4C4C",
"D	c #161616",
"E	c #555554",
"F	c #262626",
"G	c #545353",
"H	c #636161",
"I	c #191919",
"J	c #151515",
"....................",
"++++++++++++++++++++",
"@@@@@@@@@@@@@@@@@@@@",
"####################",
"$$$$$$$%&**&%$$$$$$$",
"=====%-;>##>;-%=====",
",,,,'-),=!!=,)-',,,,",
"~~~{]{),#^^#,){]{~~~",
"%%%-/'>@(__(@>'/-%%%",
"))':<'$[}++}[$'<:'))",
"{{|1&{^234432^{&1|{{",
"''56;7890aa0987;65''",
"bb<*6cd}0ee0}dc6*<bb",
"<<bf:g!h+00+h!g:fb<<",
"g&<ij*c^hkkh^c*ji<&&",
"|||l]mf'$^^$'fm]nooo",
";;;pqrsjt&&tjsrqp;11",
"tttt7uvwxyyxwzu7tttt",
"*****ABCiDDiCEA*****",
"FFFFFFF)GHHG)FFFFFFF",
"jjjjjjjjjjjjjjjjjjjj",
"zzzzzzzzzzzzzzzzzzzz",
"rrrrrrrrrrrrrrrrrrrr",
"IIIIIIIIIIIIIIIIIIII",
"JJJJJJJJJJJJJJJJJJJJ"};
