/* XPM */
static char * close_pressed_xpm[] = {
"20 25 188 2",
"  	c None",
". 	c #131313",
"+ 	c #595959",
"@ 	c #444444",
"# 	c #434343",
"$ 	c #414141",
"% 	c #4C4C4C",
"& 	c #575757",
"* 	c #585757",
"= 	c #575758",
"- 	c #404040",
"; 	c #505050",
"> 	c #6D6D6D",
", 	c #555555",
"' 	c #393939",
") 	c #34302E",
"! 	c #3E3E3E",
"~ 	c #5B5A5B",
"{ 	c #6E6E6E",
"] 	c #593E3C",
"^ 	c #C76D5E",
"/ 	c #F39982",
"( 	c #FFAF95",
"_ 	c #F39983",
": 	c #5A5B5A",
"< 	c #3D3D3D",
"[ 	c #545454",
"} 	c #777777",
"| 	c #6A4543",
"1 	c #D45B4E",
"2 	c #FA7968",
"3 	c #FF9683",
"4 	c #FFA592",
"5 	c #FF9583",
"6 	c #FB7968",
"7 	c #D75B4E",
"8 	c #6B4543",
"9 	c #3B3B3B",
"0 	c #878787",
"a 	c #5C4F4F",
"b 	c #B43C35",
"c 	c #D7584E",
"d 	c #F37E74",
"e 	c #FF988E",
"f 	c #FFA79C",
"g 	c #F57E74",
"h 	c #DA584E",
"i 	c #B73C35",
"j 	c #5D4F4F",
"k 	c #3A3A3A",
"l 	c #5A5A5A",
"m 	c #818181",
"n 	c #8D4846",
"o 	c #B83731",
"p 	c #CF6662",
"q 	c #623A39",
"r 	c #6E4946",
"s 	c #FBB1AC",
"t 	c #FAB0AC",
"u 	c #654240",
"v 	c #683D3B",
"w 	c #D26662",
"x 	c #BC3631",
"y 	c #914846",
"z 	c #383838",
"A 	c #7F7F7F",
"B 	c #717171",
"C 	c #9F2D2B",
"D 	c #B84745",
"E 	c #D27978",
"F 	c #D08F8E",
"G 	c #1A1717",
"H 	c #B18886",
"I 	c #A98280",
"J 	c #2D2323",
"K 	c #D4918F",
"L 	c #D47978",
"M 	c #BD4644",
"N 	c #A42D2B",
"O 	c #363636",
"P 	c #959595",
"Q 	c #6D6C6C",
"R 	c #A5110E",
"S 	c #BA504F",
"T 	c #D58786",
"U 	c #E9ACAB",
"V 	c #B18B8A",
"W 	c #B58F8D",
"X 	c #EBACAB",
"Y 	c #D88786",
"Z 	c #BF504F",
"` 	c #AB110E",
" .	c #343434",
"..	c #9C9C9C",
"+.	c #757474",
"@.	c #A80D0B",
"#.	c #BF5150",
"$.	c #DA8A89",
"%.	c #ECAFAD",
"&.	c #D6ACAA",
"*.	c #DDB1B0",
"=.	c #EDAFAD",
"-.	c #DD8A89",
";.	c #C45150",
">.	c #AF0D0B",
",.	c #9C9D9C",
"'.	c #323232",
").	c #919191",
"!.	c #8B8B8B",
"~.	c #AA3231",
"{.	c #C54644",
"].	c #DE8280",
"^.	c #EAA5A3",
"/.	c #644C4C",
"(.	c #715A59",
"_.	c #6B5654",
":.	c #6B5251",
"<.	c #ECA6A3",
"[.	c #E18280",
"}.	c #CB4644",
"|.	c #B13231",
"1.	c #313131",
"2.	c #303030",
"3.	c #676767",
"4.	c #ADADAD",
"5.	c #A66160",
"6.	c #CA312D",
"7.	c #E06D69",
"8.	c #A06360",
"9.	c #251D1C",
"0.	c #E6AFAA",
"a.	c #E4ADA8",
"b.	c #181615",
"c.	c #A86865",
"d.	c #E36D69",
"e.	c #D0322D",
"f.	c #AA6160",
"g.	c #2F2F2F",
"h.	c #BDBDBD",
"i.	c #938A8A",
"j.	c #CA403D",
"k.	c #D74942",
"l.	c #9D4B45",
"m.	c #C97E77",
"n.	c #FFB2A8",
"o.	c #C77D76",
"p.	c #9E4B45",
"q.	c #DA4B43",
"r.	c #CE413D",
"s.	c #948A8A",
"t.	c #2E2E2E",
"u.	c #2D2D2D",
"v.	c #6A6A6A",
"w.	c #C5C5C5",
"x.	c #A18888",
"y.	c #D84F48",
"z.	c #E8594C",
"A.	c #F3786B",
"B.	c #FA8D80",
"C.	c #FB8E80",
"D.	c #F3786C",
"E.	c #E9594D",
"F.	c #D84F49",
"G.	c #2C2C2C",
"H.	c #2A2A2A",
"I.	c #828282",
"J.	c #CCCCCC",
"K.	c #A19797",
"L.	c #C97976",
"M.	c #E4655A",
"N.	c #EF6455",
"O.	c #F06455",
"P.	c #E4665B",
"Q.	c #A29797",
"R.	c #282828",
"S.	c #6F6F6F",
"T.	c #D1D1D1",
"U.	c #CBCBCB",
"V.	c #9C9B9B",
"W.	c #262626",
"X.	c #757575",
"Y.	c #B1B1B1",
"Z.	c #C9C9C9",
"`.	c #232323",
" +	c #202020",
".+	c #1D1D1D",
"++	c #191919",
"@+	c #151515",
". . . . . . . . . . . . . . . . . . . . ",
"+ + + + + + + + + + + + + + + + + + + + ",
"@ @ @ @ @ @ @ @ @ @ @ @ @ @ @ @ @ @ @ @ ",
"# # # # # # # # # # # # # # # # # # # # ",
"$ $ $ $ $ $ $ % & * = & % $ $ $ $ $ $ $ ",
"- - - - - ; > , ' ) ) ' , > ; - - - - - ",
"! ! ! ! ~ { ] ^ / ( ( _ ^ ] { : ! ! ! ! ",
"< < < [ } | 1 2 3 4 4 5 6 7 8 } [ < < < ",
"9 9 9 0 a b c d e f f e g h i j 0 9 9 9 ",
"k k l m n o p q r s t u v w x y m l k k ",
"z z A B C D E F G H I J K L M N B A z z ",
"O O P Q R S T U V . . W X Y Z ` Q P O O ",
" . ...+.@.#.$.%.&.. . *.=.-.;.>.+.,. . .",
"'.'.).!.~.{.].^./.(._.:.<.[.}.|.!.).'.'.",
"1.2.3.4.5.6.7.8.9.0.a.b.c.d.e.f.4.3.2.2.",
"g.g.g.h.i.j.k.l.m.n.n.o.p.q.r.s.h.t.t.t.",
"u.u.u.v.w.x.y.z.A.B.C.D.E.F.x.w.v.u.G.G.",
"H.H.H.H.I.J.K.L.M.N.O.P.L.Q.J.I.H.H.H.H.",
"R.R.R.R.R.S.T.U.4.V.V.4.U.T.S.R.R.R.R.R.",
"W.W.W.W.W.W.W.X.Y.Z.Z.Y.X.W.W.W.W.W.W.W.",
"`.`.`.`.`.`.`.`.`.`.`.`.`.`.`.`.`.`.`.`.",
" + + + + + + + + + + + + + + + + + + + +",
".+.+.+.+.+.+.+.+.+.+.+.+.+.+.+.+.+.+.+.+",
"++++++++++++++++++++++++++++++++++++++++",
"@+@+@+@+@+@+@+@+@+@+@+@+@+@+@+@+@+@+@+@+"};
