/* XPM */
static char * close_prelight_xpm[] = {
"20 25 198 2",
"  	c None",
". 	c #131313",
"+ 	c #595959",
"@ 	c #444444",
"# 	c #434343",
"$ 	c #414141",
"% 	c #4C4C4C",
"& 	c #575757",
"* 	c #585757",
"= 	c #575758",
"- 	c #404040",
"; 	c #505050",
"> 	c #707070",
", 	c #6F6F6F",
"' 	c #A07D76",
") 	c #BC9587",
"! 	c #BC9586",
"~ 	c #9F7B74",
"{ 	c #6D6D6D",
"] 	c #3E3E3E",
"^ 	c #5B5A5B",
"/ 	c #7A7A7A",
"( 	c #A66C67",
"_ 	c #F48573",
": 	c #FFA088",
"< 	c #FFAF95",
"[ 	c #F38471",
"} 	c #A56963",
"| 	c #787878",
"1 	c #5A5B5A",
"2 	c #3D3D3D",
"3 	c #545454",
"4 	c #808080",
"5 	c #A75752",
"6 	c #DD5B4C",
"7 	c #FA7563",
"8 	c #FF8D78",
"9 	c #FF9B84",
"0 	c #FB7563",
"a 	c #E05B4C",
"b 	c #A8534E",
"c 	c #7F7F7F",
"d 	c #3B3B3B",
"e 	c #8A8A8A",
"f 	c #825452",
"g 	c #BA362C",
"h 	c #CB473B",
"i 	c #DB584A",
"j 	c #F67160",
"k 	c #FF826E",
"l 	c #F4715F",
"m 	c #DD584A",
"n 	c #D1483C",
"o 	c #BE362C",
"p 	c #82504E",
"q 	c #3A3A3A",
"r 	c #5A5A5A",
"s 	c #808181",
"t 	c #A22F29",
"u 	c #B62921",
"v 	c #C2372D",
"w 	c #451B18",
"x 	c #662722",
"y 	c #FA6454",
"z 	c #F76353",
"A 	c #622621",
"B 	c #4E1D1A",
"C 	c #C7372D",
"D 	c #BB2921",
"E 	c #A52D28",
"F 	c #80807F",
"G 	c #383838",
"H 	c #795B5B",
"I 	c #A3140F",
"J 	c #B41D17",
"K 	c #C62A22",
"L 	c #BC322A",
"M 	c #97342C",
"N 	c #91322A",
"O 	c #C2332A",
"P 	c #CA2A22",
"Q 	c #B81D17",
"R 	c #A9140F",
"S 	c #7A5959",
"T 	c #363636",
"U 	c #959595",
"V 	c #763E3E",
"W 	c #A50D0A",
"X 	c #B3140F",
"Y 	c #C6241D",
"Z 	c #DA392F",
"` 	c #A8352C",
" .	c #AD362D",
"..	c #DD392F",
"+.	c #CA251D",
"@.	c #B9140F",
"#.	c #AB0D0A",
"$.	c #793C3B",
"%.	c #343434",
"&.	c #9C9C9C",
"*.	c #773B3A",
"=.	c #A80906",
"-.	c #B81510",
";.	c #CD2B23",
">.	c #DE3F34",
",.	c #AA3930",
"'.	c #B03B31",
").	c #E14035",
"!.	c #D22C23",
"~.	c #BE1510",
"{.	c #AF0906",
"].	c #7A3939",
"^.	c #9C9D9C",
"/.	c #323232",
"(.	c #919191",
"_.	c #7F5E5D",
":.	c #AD0705",
"<.	c #C21C16",
"[.	c #D5342A",
"}.	c #C74035",
"|.	c #913C33",
"1.	c #8B3931",
"2.	c #191414",
"3.	c #CB4137",
"4.	c #D9342B",
"5.	c #C81C16",
"6.	c #B50705",
"7.	c #815E5D",
"8.	c #313131",
"9.	c #303030",
"0.	c #676767",
"a.	c #9B9B9B",
"b.	c #B1251C",
"c.	c #C9211B",
"d.	c #D1382E",
"e.	c #4B1E1B",
"f.	c #5F2924",
"g.	c #F47663",
"h.	c #F27562",
"i.	c #5E2924",
"j.	c #54201D",
"k.	c #D6392F",
"l.	c #CF221B",
"m.	c #B7251B",
"n.	c #2F2F2F",
"o.	c #BCBCBC",
"p.	c #864541",
"q.	c #CE231C",
"r.	c #C9372D",
"s.	c #BC4539",
"t.	c #E36656",
"u.	c #FE8773",
"v.	c #FE8874",
"w.	c #E16657",
"x.	c #BC463A",
"y.	c #CB382E",
"z.	c #D3241D",
"A.	c #8A4541",
"B.	c #2E2E2E",
"C.	c #2D2D2D",
"D.	c #6A6A6A",
"E.	c #B9B9B9",
"F.	c #AB3832",
"G.	c #E85244",
"H.	c #F26959",
"I.	c #FA7B69",
"J.	c #FA7C69",
"K.	c #F36A59",
"L.	c #E85345",
"M.	c #DD3A30",
"N.	c #AD3932",
"O.	c #2C2C2C",
"P.	c #2A2A2A",
"Q.	c #828282",
"R.	c #BFBFBF",
"S.	c #964C45",
"T.	c #DA4E3D",
"U.	c #EA584A",
"V.	c #EF6454",
"W.	c #F06454",
"X.	c #EA594A",
"Y.	c #DA4F3E",
"Z.	c #C0BFBF",
"`.	c #282828",
" +	c #D0D0D0",
".+	c #B1B1B2",
"++	c #9A706B",
"@+	c #9F463F",
"#+	c #B2B1B1",
"$+	c #262626",
"%+	c #757575",
"&+	c #B1B1B1",
"*+	c #C9C9C9",
"=+	c #232323",
"-+	c #202020",
";+	c #1D1D1D",
">+	c #191919",
",+	c #151515",
". . . . . . . . . . . . . . . . . . . . ",
"+ + + + + + + + + + + + + + + + + + + + ",
"@ @ @ @ @ @ @ @ @ @ @ @ @ @ @ @ @ @ @ @ ",
"# # # # # # # # # # # # # # # # # # # # ",
"$ $ $ $ $ $ $ % & * = & % $ $ $ $ $ $ $ ",
"- - - - - ; > , ' ) ! ~ { > ; - - - - - ",
"] ] ] ] ^ / ( _ : < < : [ } | 1 ] ] ] ] ",
"2 2 2 3 4 5 6 7 8 9 9 8 0 a b c 3 2 2 2 ",
"d d d e f g h i j k k l m n o p e d d d ",
"q q r s t u v w x y z A B C D E F r q q ",
"G G c H I J K L . M N . O P Q R S c G G ",
"T T U V W X Y Z ` . .  ...+.@.#.$.U T T ",
"%.%.&.*.=.-.;.>.,.. . '.).!.~.{.].^.%.%.",
"/./.(._.:.<.[.}.. |.1.2.3.4.5.6.7.(././.",
"8.9.0.a.b.c.d.e.f.g.h.i.j.k.l.m.a.0.9.9.",
"n.n.n.o.p.q.r.s.t.u.v.w.x.y.z.A.o.B.B.B.",
"C.C.C.D.E.F...G.H.I.J.K.L.M.N.E.D.C.O.O.",
"P.P.P.P.Q.R.S.T.U.V.W.X.Y.S.Z.Q.P.P.P.P.",
"`.`.`.`.`.,  +.+++@+@+++#+ +, `.`.`.`.`.",
"$+$+$+$+$+$+$+%+&+*+*+&+%+$+$+$+$+$+$+$+",
"=+=+=+=+=+=+=+=+=+=+=+=+=+=+=+=+=+=+=+=+",
"-+-+-+-+-+-+-+-+-+-+-+-+-+-+-+-+-+-+-+-+",
";+;+;+;+;+;+;+;+;+;+;+;+;+;+;+;+;+;+;+;+",
">+>+>+>+>+>+>+>+>+>+>+>+>+>+>+>+>+>+>+>+",
",+,+,+,+,+,+,+,+,+,+,+,+,+,+,+,+,+,+,+,+"};
