/* XPM */
static char * close_pressed_xpm[] = {
"20 25 187 2",
"  	c #131313",
". 	c #595959",
"+ 	c #444444",
"@ 	c #434343",
"# 	c #414141",
"$ 	c #4C4C4C",
"% 	c #575757",
"& 	c #585757",
"* 	c #575758",
"= 	c #404040",
"- 	c #505050",
"; 	c #6D6D6D",
"> 	c #555555",
", 	c #393939",
"' 	c #34302E",
") 	c #3E3E3E",
"! 	c #5B5A5B",
"~ 	c #6E6E6E",
"{ 	c #593E3C",
"] 	c #C76D5E",
"^ 	c #F39982",
"/ 	c #FFAF95",
"( 	c #5A5B5A",
"_ 	c #3D3D3D",
": 	c #545454",
"< 	c #777777",
"[ 	c #6A4543",
"} 	c #D45A4E",
"| 	c #FA7563",
"1 	c #FF8D78",
"2 	c #FF9B84",
"3 	c #FB7563",
"4 	c #D75A4E",
"5 	c #6B4543",
"6 	c #3B3B3B",
"7 	c #878787",
"8 	c #5C4F4F",
"9 	c #B43C35",
"0 	c #D54B3E",
"a 	c #F26152",
"b 	c #FF7564",
"c 	c #FF826E",
"d 	c #FF7664",
"e 	c #F46152",
"f 	c #D94B3E",
"g 	c #B73C35",
"h 	c #5D4F4F",
"i 	c #3A3A3A",
"j 	c #5A5A5A",
"k 	c #818181",
"l 	c #8D4846",
"m 	c #B62921",
"n 	c #C9382E",
"o 	c #5F1F1B",
"p 	c #6E2D27",
"q 	c #FB6555",
"r 	c #FA6555",
"s 	c #652A25",
"t 	c #64201C",
"u 	c #CD382E",
"v 	c #BB2921",
"w 	c #914846",
"x 	c #383838",
"y 	c #7F7F7F",
"z 	c #717171",
"A 	c #9F2D2B",
"B 	c #B41D17",
"C 	c #C62A22",
"D 	c #C4332A",
"E 	c #1A1313",
"F 	c #AF3D33",
"G 	c #A83A31",
"H 	c #2B1514",
"I 	c #C9332A",
"J 	c #CA2A22",
"K 	c #B81D17",
"L 	c #A42D2B",
"M 	c #363636",
"N 	c #959595",
"O 	c #6D6C6C",
"P 	c #A50D0A",
"Q 	c #B3140F",
"R 	c #C6241D",
"S 	c #DA392F",
"T 	c #A7332B",
"U 	c #AD352C",
"V 	c #DD392F",
"W 	c #CA251D",
"X 	c #B9140F",
"Y 	c #AB0D0A",
"Z 	c #343434",
"` 	c #9C9C9C",
" .	c #757474",
"..	c #A80906",
"+.	c #B81510",
"@.	c #CD2B23",
"#.	c #DE3F34",
"$.	c #CC4338",
"%.	c #D4463A",
"&.	c #E14035",
"*.	c #D22C23",
"=.	c #BE1510",
"-.	c #AF0906",
";.	c #9C9D9C",
">.	c #323232",
",.	c #919191",
"'.	c #8B8B8B",
").	c #AA3231",
"!.	c #C21C16",
"~.	c #D5342A",
"{.	c #E0483B",
"].	c #60231F",
"^.	c #6F3029",
"/.	c #692E28",
"(.	c #682520",
"_.	c #E3483C",
":.	c #D9342B",
"<.	c #C81C16",
"[.	c #B13231",
"}.	c #313131",
"|.	c #303030",
"1.	c #676767",
"2.	c #ADADAD",
"3.	c #A66160",
"4.	c #C9211B",
"5.	c #DC3B30",
"6.	c #9C332B",
"7.	c #251716",
"8.	c #E56F5E",
"9.	c #E36E5E",
"0.	c #181414",
"a.	c #A4362E",
"b.	c #DF3B31",
"c.	c #CF221B",
"d.	c #AA6160",
"e.	c #2F2F2F",
"f.	c #BDBDBD",
"g.	c #938A8A",
"h.	c #CA403D",
"i.	c #D73A30",
"j.	c #9C3A30",
"k.	c #C85C4E",
"l.	c #FE8773",
"m.	c #FE8874",
"n.	c #C65C4E",
"o.	c #9D3A31",
"p.	c #D93B31",
"q.	c #CE413D",
"r.	c #948A8A",
"s.	c #2E2E2E",
"t.	c #2D2D2D",
"u.	c #6A6A6A",
"v.	c #C5C5C5",
"w.	c #A18888",
"x.	c #D84F48",
"y.	c #E85244",
"z.	c #F26959",
"A.	c #FA7B69",
"B.	c #FA7C69",
"C.	c #F36A59",
"D.	c #E85345",
"E.	c #D84F49",
"F.	c #2C2C2C",
"G.	c #2A2A2A",
"H.	c #828282",
"I.	c #CCCCCC",
"J.	c #A19797",
"K.	c #C97976",
"L.	c #E4655A",
"M.	c #EF6454",
"N.	c #F06454",
"O.	c #E4665B",
"P.	c #A29797",
"Q.	c #282828",
"R.	c #6F6F6F",
"S.	c #D1D1D1",
"T.	c #CBCBCB",
"U.	c #9C9B9B",
"V.	c #262626",
"W.	c #757575",
"X.	c #B1B1B1",
"Y.	c #C9C9C9",
"Z.	c #232323",
"`.	c #202020",
" +	c #1D1D1D",
".+	c #191919",
"++	c #151515",
"                                        ",
". . . . . . . . . . . . . . . . . . . . ",
"+ + + + + + + + + + + + + + + + + + + + ",
"@ @ @ @ @ @ @ @ @ @ @ @ @ @ @ @ @ @ @ @ ",
"# # # # # # # $ % & * % $ # # # # # # # ",
"= = = = = - ; > , ' ' , > ; - = = = = = ",
") ) ) ) ! ~ { ] ^ / / ^ ] { ~ ( ) ) ) ) ",
"_ _ _ : < [ } | 1 2 2 1 3 4 5 < : _ _ _ ",
"6 6 6 7 8 9 0 a b c c d e f g h 7 6 6 6 ",
"i i j k l m n o p q r s t u v w k j i i ",
"x x y z A B C D E F G H I J K L z y x x ",
"M M N O P Q R S T     U V W X Y O N M M ",
"Z Z `  ...+.@.#.$.    %.&.*.=.-. .;.Z Z ",
">.>.,.'.).!.~.{.].^./.(._.:.<.[.'.,.>.>.",
"}.|.1.2.3.4.5.6.7.8.9.0.a.b.c.d.2.1.|.|.",
"e.e.e.f.g.h.i.j.k.l.m.n.o.p.q.r.f.s.s.s.",
"t.t.t.u.v.w.x.y.z.A.B.C.D.E.w.v.u.t.F.F.",
"G.G.G.G.H.I.J.K.L.M.N.O.K.P.I.H.G.G.G.G.",
"Q.Q.Q.Q.Q.R.S.T.2.U.U.2.T.S.R.Q.Q.Q.Q.Q.",
"V.V.V.V.V.V.V.W.X.Y.Y.X.W.V.V.V.V.V.V.V.",
"Z.Z.Z.Z.Z.Z.Z.Z.Z.Z.Z.Z.Z.Z.Z.Z.Z.Z.Z.Z.",
"`.`.`.`.`.`.`.`.`.`.`.`.`.`.`.`.`.`.`.`.",
" + + + + + + + + + + + + + + + + + + + +",
".+.+.+.+.+.+.+.+.+.+.+.+.+.+.+.+.+.+.+.+",
"++++++++++++++++++++++++++++++++++++++++"};
