/* XPM */
static char * hide_active_xpm[] = {
"20 25 181 2",
"  	c None",
". 	c #131313",
"+ 	c #595959",
"@ 	c #444444",
"# 	c #434343",
"$ 	c #414141",
"% 	c #4C4C4C",
"& 	c #575757",
"* 	c #585757",
"= 	c #575758",
"- 	c #404040",
"; 	c #505050",
"> 	c #707070",
", 	c #6F6F6F",
"' 	c #A1977D",
") 	c #BCBC96",
"! 	c #BCBB95",
"~ 	c #A0967C",
"{ 	c #6D6D6D",
"] 	c #3E3E3E",
"^ 	c #5B5A5B",
"/ 	c #7A7A7A",
"( 	c #B28C6C",
"_ 	c #F5CC86",
": 	c #FFEFA2",
"< 	c #FFFDB1",
"[ 	c #F5CC85",
"} 	c #B08969",
"| 	c #787878",
"1 	c #5A5B5A",
"2 	c #3D3D3D",
"3 	c #545454",
"4 	c #808080",
"5 	c #CC8357",
"6 	c #FFAC5D",
"7 	c #FFC978",
"8 	c #FFE290",
"9 	c #FFF19E",
"0 	c #CB8153",
"a 	c #7F7F7F",
"b 	c #3B3B3B",
"c 	c #8A8A8A",
"d 	c #9A6B53",
"e 	c #E78A37",
"f 	c #FAA24D",
"g 	c #FFBB64",
"h 	c #FFD179",
"i 	c #FFDE86",
"j 	c #FFD17A",
"k 	c #98684F",
"l 	c #3A3A3A",
"m 	c #5A5A5A",
"n 	c #808181",
"o 	c #C8732D",
"p 	c #DB842C",
"q 	c #EB973D",
"r 	c #FBAB50",
"s 	c #FFBE61",
"t 	c #FFC96C",
"u 	c #FFBE62",
"v 	c #DB832C",
"w 	c #C8732B",
"x 	c #80807F",
"y 	c #383838",
"z 	c #88685B",
"A 	c #C67118",
"B 	c #CF7E22",
"C 	c #DB8D2F",
"D 	c #EA9F3C",
"E 	c #F6AF47",
"F 	c #FBBA4E",
"G 	c #F6B047",
"H 	c #DC8D2F",
"I 	c #866659",
"J 	c #363636",
"K 	c #959595",
"L 	c #895B3E",
"M 	c #C07013",
"N 	c #C67A1A",
"O 	c #D08B22",
"P 	c #DC9F2D",
"Q 	c #E5AE37",
"R 	c #EAB63E",
"S 	c #E5AE38",
"T 	c #D08C22",
"U 	c #88593C",
"V 	c #343434",
"W 	c #9C9C9C",
"X 	c #85593B",
"Y 	c #BB700F",
"Z 	c #C17D14",
"` 	c #CC931E",
" .	c #D6A52C",
"..	c #DDB33B",
"+.	c #E1BA45",
"@.	c #D6A52D",
"#.	c #C17E14",
"$.	c #855939",
"%.	c #9C9D9C",
"&.	c #323232",
"*.	c #919191",
"=.	c #866C5D",
"-.	c #B8720D",
";.	c #C18613",
">.	c #CB9C22",
",.	c #D5AE37",
"'.	c #DCBC4E",
").	c #E1C55F",
"!.	c #DCBD4F",
"~.	c #D5AE38",
"{.	c #CC9C22",
"].	c #C18713",
"^.	c #866B5D",
"/.	c #313131",
"(.	c #303030",
"_.	c #676767",
":.	c #9B9B9B",
"<.	c #B3761E",
"[.	c #C18D15",
"}.	c #CCA328",
"|.	c #D6B745",
"1.	c #DFC767",
"2.	c #E5D386",
"3.	c #E5D387",
"4.	c #DFC868",
"5.	c #CCA429",
"6.	c #C28E15",
"7.	c #2F2F2F",
"8.	c #BCBCBC",
"9.	c #836542",
"0.	c #C19116",
"a.	c #CCA72C",
"b.	c #D6BB4C",
"c.	c #E0CE77",
"d.	c #EADDA9",
"e.	c #EADEAB",
"f.	c #E1CE79",
"g.	c #D7BC4D",
"h.	c #CCA82D",
"i.	c #C19217",
"j.	c #836541",
"k.	c #2E2E2E",
"l.	c #2D2D2D",
"m.	c #6A6A6A",
"n.	c #B9B9B9",
"o.	c #A17E31",
"p.	c #CAA729",
"q.	c #D4BB47",
"r.	c #DDCC6C",
"s.	c #E5D890",
"t.	c #E5D891",
"u.	c #DECC6E",
"v.	c #D4BB48",
"w.	c #CAA82A",
"x.	c #2C2C2C",
"y.	c #2A2A2A",
"z.	c #828282",
"A.	c #BFBFBF",
"B.	c #8B7944",
"C.	c #C8AF3C",
"D.	c #D6C351",
"E.	c #DBCC64",
"F.	c #DBCC65",
"G.	c #D6C352",
"H.	c #C8B03D",
"I.	c #C0BFBF",
"J.	c #282828",
"K.	c #D0D0D0",
"L.	c #B1B1B2",
"M.	c #948C6B",
"N.	c #928841",
"O.	c #B2B1B1",
"P.	c #262626",
"Q.	c #757575",
"R.	c #B1B1B1",
"S.	c #C9C9C9",
"T.	c #232323",
"U.	c #202020",
"V.	c #1D1D1D",
"W.	c #191919",
"X.	c #151515",
". . . . . . . . . . . . . . . . . . . . ",
"+ + + + + + + + + + + + + + + + + + + + ",
"@ @ @ @ @ @ @ @ @ @ @ @ @ @ @ @ @ @ @ @ ",
"# # # # # # # # # # # # # # # # # # # # ",
"$ $ $ $ $ $ $ % & * = & % $ $ $ $ $ $ $ ",
"- - - - - ; > , ' ) ! ~ { > ; - - - - - ",
"] ] ] ] ^ / ( _ : < < : [ } | 1 ] ] ] ] ",
"2 2 2 3 4 5 6 7 8 9 9 8 7 6 0 a 3 2 2 2 ",
"b b b c d e f g h i i j g f e k c b b b ",
"l l m n o p q r s t t u r q v w x m l l ",
"y y a z A B C D E F F G D H B A I a y y ",
"J J K L M N O P Q R R S P T N M U K J J ",
"V V W X Y Z `  ...+.+...@.` #.Y $.%.V V ",
"&.&.*.=.-.;.>.,.'.).).!.~.{.].-.^.*.&.&.",
"/.(._.:.<.[.}.|.1.2.3.4.|.5.6.<.:._.(.(.",
"7.7.7.8.9.0.a.b.c.d.e.f.g.h.i.j.8.k.k.k.",
"l.l.l.m.n.o.p.q.r.s.t.u.v.w.o.n.m.l.x.x.",
"y.y.y.y.z.A.B.C.D.E.F.G.H.B.I.z.y.y.y.y.",
"J.J.J.J.J., K.L.M.N.N.M.O.K., J.J.J.J.J.",
"P.P.P.P.P.P.P.Q.R.S.S.R.Q.P.P.P.P.P.P.P.",
"T.T.T.T.T.T.T.T.T.T.T.T.T.T.T.T.T.T.T.T.",
"U.U.U.U.U.U.U.U.U.U.U.U.U.U.U.U.U.U.U.U.",
"V.V.V.V.V.V.V.V.V.V.V.V.V.V.V.V.V.V.V.V.",
"W.W.W.W.W.W.W.W.W.W.W.W.W.W.W.W.W.W.W.W.",
"X.X.X.X.X.X.X.X.X.X.X.X.X.X.X.X.X.X.X.X."};
