/* XPM */
static char * hide_pressed_xpm[] = {
"20 25 162 2",
"  	c None",
". 	c #131313",
"+ 	c #595959",
"@ 	c #444444",
"# 	c #434343",
"$ 	c #535353",
"% 	c #5B5B5B",
"& 	c #414141",
"* 	c #6D6D6D",
"= 	c #505150",
"- 	c #323233",
"; 	c #6B6B51",
"> 	c #515151",
", 	c #404040",
"' 	c #5E5D5E",
") 	c #6C6C6C",
"! 	c #604F40",
"~ 	c #C9A96F",
"{ 	c #F7E79D",
"] 	c #FFFDB1",
"^ 	c #5D5E5D",
"/ 	c #3E3E3E",
"( 	c #555555",
"_ 	c #787878",
": 	c #7D5A46",
"< 	c #F3A65C",
"[ 	c #FFCA7D",
"} 	c #FFE49B",
"| 	c #FFF2AB",
"1 	c #3D3D3D",
"2 	c #878787",
"3 	c #5F5450",
"4 	c #DD873E",
"5 	c #FBA75D",
"6 	c #FFC687",
"7 	c #FFDCA3",
"8 	c #FFE8B2",
"9 	c #3B3B3B",
"0 	c #808080",
"a 	c #A86E4A",
"b 	c #DC873B",
"c 	c #EFA972",
"d 	c #FDC79C",
"e 	c #FFDCB8",
"f 	c #FFE6C6",
"g 	c #DC883B",
"h 	c #3A3A3A",
"i 	c #7C7C7C",
"j 	c #717171",
"k 	c #BF722F",
"l 	c #D48B4F",
"m 	c #DCA780",
"n 	c #CDAB92",
"o 	c #D8C0AC",
"p 	c #F7E3D1",
"q 	c #FEEBD8",
"r 	c #FCE2CB",
"s 	c #F4CFB2",
"t 	c #E5AF88",
"u 	c #C2804A",
"v 	c #383838",
"w 	c #949494",
"x 	c #6C6B6B",
"y 	c #C07016",
"z 	c #93623B",
"A 	c #2A211B",
"B 	c #302E2C",
"C 	c #9C958D",
"D 	c #CDC0B1",
"E 	c #D0BAA6",
"F 	c #9C7F69",
"G 	c #2C221B",
"H 	c #363636",
"I 	c #9C9C9C",
"J 	c #757373",
"K 	c #BC7015",
"L 	c #6F6150",
"M 	c #A19584",
"N 	c #9E978D",
"O 	c #54524E",
"P 	c #694829",
"Q 	c #343434",
"R 	c #959595",
"S 	c #868686",
"T 	c #B5742C",
"U 	c #A07843",
"V 	c #DBBD91",
"W 	c #EAD9BB",
"X 	c #F3EAD5",
"Y 	c #F7F1E4",
"Z 	c #D2CDC0",
"` 	c #A6A090",
" .	c #9E927C",
"..	c #B99F77",
"+.	c #C79350",
"@.	c #B6742C",
"#.	c #323232",
"$.	c #777777",
"%.	c #A5A5A5",
"&.	c #AA8059",
"*.	c #C39136",
"=.	c #D6B779",
"-.	c #E6D4AA",
";.	c #F0E5C7",
">.	c #F5EDD7",
",.	c #D6B77A",
"'.	c #C49236",
").	c #313131",
"!.	c #303030",
"~.	c #BEBEBE",
"{.	c #938980",
"].	c #C09129",
"^.	c #CFAE52",
"/.	c #DFCB8B",
"(.	c #EBDFB3",
"_.	c #F2EBD0",
":.	c #F2EBD1",
"<.	c #EBE0B4",
"[.	c #DFCB8C",
"}.	c #D0AE53",
"|.	c #C09229",
"1.	c #2F2F2F",
"2.	c #898989",
"3.	c #B7B7B7",
"4.	c #A99577",
"5.	c #CBA82D",
"6.	c #D7BF5C",
"7.	c #E3D48D",
"8.	c #EBE1B1",
"9.	c #EBE1B2",
"0.	c #E3D48E",
"a.	c #D7C05D",
"b.	c #CBA92E",
"c.	c #A99677",
"d.	c #2E2E2E",
"e.	c #2D2D2D",
"f.	c #B2B2B2",
"g.	c #BAB9BA",
"h.	c #A89E87",
"i.	c #CAB458",
"j.	c #D8C65B",
"k.	c #DED074",
"l.	c #D9C75C",
"m.	c #CAB559",
"n.	c #BABABA",
"o.	c #2C2C2C",
"p.	c #2A2A2A",
"q.	c #A7A7A7",
"r.	c #D2D2D2",
"s.	c #AAABAA",
"t.	c #A9A492",
"u.	c #B7B088",
"v.	c #ABABAB",
"w.	c #282828",
"x.	c #5C5C5C",
"y.	c #DADADA",
"z.	c #262626",
"A.	c #232323",
"B.	c #202020",
"C.	c #1D1D1D",
"D.	c #191919",
"E.	c #151515",
". . . . . . . . . . . . . . . . . . . . ",
"+ + + + + + + + + + + + + + + + + + + + ",
"@ @ @ @ @ @ @ @ @ @ @ @ @ @ @ @ @ @ @ @ ",
"# # # # # # # $ % + + % $ # # # # # # # ",
"& & & & & $ * = - ; ; - > * $ & & & & & ",
", , , , ' ) ! ~ { ] ] { ~ ! ) ^ , , , , ",
"/ / / ( _ : < [ } | | } [ < : _ ( / / / ",
"1 1 1 2 3 4 5 6 7 8 8 7 6 5 4 3 2 1 1 1 ",
"9 9 ( 0 a b c d e f f e d c g a 0 ( 9 9 ",
"h h i j k l m n o p q r s t u k j i h h ",
"v v w x y z A . . B C D E F G y x w v v ",
"H H I J K . L M N O . . . . P K J I H H ",
"Q Q R S T U V W X Y Z `  ...+.@.S R Q Q ",
"#.#.$.%.&.*.=.-.;.>.>.;.-.,.'.&.%.$.#.#.",
").!.!.~.{.].^./.(._.:.<.[.}.|.{.~.!.!.!.",
"1.1.1.2.3.4.5.6.7.8.9.0.a.b.c.3.2.d.d.d.",
"e.e.e.e.f.g.h.i.j.k.k.l.m.h.n.f.e.e.o.o.",
"p.p.p.p.p.q.r.s.t.u.u.t.v.r.q.p.p.p.p.p.",
"w.w.w.w.w.w.x.n.r.y.y.r.n.x.w.w.w.w.w.w.",
"z.z.z.z.z.z.z.z.z.z.z.z.z.z.z.z.z.z.z.z.",
"A.A.A.A.A.A.A.A.A.A.A.A.A.A.A.A.A.A.A.A.",
"B.B.B.B.B.B.B.B.B.B.B.B.B.B.B.B.B.B.B.B.",
"C.C.C.C.C.C.C.C.C.C.C.C.C.C.C.C.C.C.C.C.",
"D.D.D.D.D.D.D.D.D.D.D.D.D.D.D.D.D.D.D.D.",
"E.E.E.E.E.E.E.E.E.E.E.E.E.E.E.E.E.E.E.E."};
