/* XPM */
static char * hide_pressed_xpm[] = {
"20 25 164 2",
"  	c None",
". 	c #131313",
"+ 	c #595959",
"@ 	c #444444",
"# 	c #434343",
"$ 	c #414141",
"% 	c #4C4C4C",
"& 	c #575757",
"* 	c #585757",
"= 	c #575758",
"- 	c #404040",
"; 	c #505050",
"> 	c #6D6D6D",
", 	c #555555",
"' 	c #393939",
") 	c #343430",
"! 	c #3E3E3E",
"~ 	c #5B5A5B",
"{ 	c #6E6E6E",
"] 	c #5E4D3F",
"^ 	c #C8A76E",
"/ 	c #F3E39B",
"( 	c #FFFDB1",
"_ 	c #5A5B5A",
": 	c #3D3D3D",
"< 	c #545454",
"[ 	c #777777",
"} 	c #7D5A45",
"| 	c #F3A65C",
"1 	c #FFCA7D",
"2 	c #FFE49B",
"3 	c #FFF2AB",
"4 	c #3B3B3B",
"5 	c #878787",
"6 	c #64564F",
"7 	c #DD873E",
"8 	c #FAA75E",
"9 	c #FFC687",
"0 	c #FFDCA4",
"a 	c #FFE8B3",
"b 	c #FFC688",
"c 	c #3A3A3A",
"d 	c #5A5A5A",
"e 	c #818181",
"f 	c #AB6F48",
"g 	c #DC883C",
"h 	c #EEAA74",
"i 	c #FCC89E",
"j 	c #FFDCBA",
"k 	c #FFE6C7",
"l 	c #383838",
"m 	c #7F7F7F",
"n 	c #717171",
"o 	c #BF722E",
"p 	c #D38C51",
"q 	c #D4A27D",
"r 	c #C3A48D",
"s 	c #CBB4A2",
"t 	c #F0DECC",
"u 	c #FEEBD9",
"v 	c #FBE2CD",
"w 	c #F3CFB4",
"x 	c #E4B089",
"y 	c #BA7B49",
"z 	c #363636",
"A 	c #959595",
"B 	c #6D6C6C",
"C 	c #C07016",
"D 	c #815634",
"E 	c #87807A",
"F 	c #BCAFA3",
"G 	c #BFAB98",
"H 	c #89705C",
"I 	c #C07017",
"J 	c #343434",
"K 	c #9C9C9C",
"L 	c #757474",
"M 	c #BB7014",
"N 	c #151413",
"O 	c #8A7861",
"P 	c #BDAE9A",
"Q 	c #B8B0A4",
"R 	c #807D78",
"S 	c #825C35",
"T 	c #9C9D9C",
"U 	c #323232",
"V 	c #919191",
"W 	c #8B8B8B",
"X 	c #B47633",
"Y 	c #B18547",
"Z 	c #DABC8E",
"` 	c #EAD9B9",
" .	c #F3E9D3",
"..	c #F7F1E2",
"+.	c #E8E3D4",
"@.	c #C2BAA7",
"#.	c #BAAD91",
"$.	c #CCAF83",
"%.	c #C6934C",
"&.	c #313131",
"*.	c #303030",
"=.	c #676767",
"-.	c #ADADAD",
";.	c #A78261",
">.	c #C3912F",
",.	c #D5B572",
"'.	c #E5D3A5",
").	c #EFE4C4",
"!.	c #F4EDD5",
"~.	c #D5B573",
"{.	c #A78361",
"].	c #2F2F2F",
"^.	c #BDBDBD",
"/.	c #928E8A",
"(.	c #BD933B",
"_.	c #CEAC48",
":.	c #DDC881",
"<.	c #E9DDAC",
"[.	c #F1EACD",
"}.	c #F2EACE",
"|.	c #EADEAD",
"1.	c #DEC982",
"2.	c #CEAD48",
"3.	c #BE943B",
"4.	c #938E8A",
"5.	c #2E2E2E",
"6.	c #2D2D2D",
"7.	c #6A6A6A",
"8.	c #C5C5C5",
"9.	c #9D9488",
"0.	c #C6A745",
"a.	c #D5BC51",
"b.	c #E0D07E",
"c.	c #E8DDA2",
"d.	c #E8DDA3",
"e.	c #E0D080",
"f.	c #D5BD52",
"g.	c #C6A846",
"h.	c #2C2C2C",
"i.	c #2A2A2A",
"j.	c #828282",
"k.	c #CCCCCC",
"l.	c #9F9D96",
"m.	c #BCAD75",
"n.	c #D1C060",
"o.	c #DBCC65",
"p.	c #DBCD66",
"q.	c #D1C161",
"r.	c #BCAD76",
"s.	c #A09D97",
"t.	c #282828",
"u.	c #6F6F6F",
"v.	c #D1D1D1",
"w.	c #CBCBCB",
"x.	c #9C9C9B",
"y.	c #262626",
"z.	c #757575",
"A.	c #B1B1B1",
"B.	c #C9C9C9",
"C.	c #232323",
"D.	c #202020",
"E.	c #1D1D1D",
"F.	c #191919",
"G.	c #151515",
". . . . . . . . . . . . . . . . . . . . ",
"+ + + + + + + + + + + + + + + + + + + + ",
"@ @ @ @ @ @ @ @ @ @ @ @ @ @ @ @ @ @ @ @ ",
"# # # # # # # # # # # # # # # # # # # # ",
"$ $ $ $ $ $ $ % & * = & % $ $ $ $ $ $ $ ",
"- - - - - ; > , ' ) ) ' , > ; - - - - - ",
"! ! ! ! ~ { ] ^ / ( ( / ^ ] { _ ! ! ! ! ",
": : : < [ } | 1 2 3 3 2 1 | } [ < : : : ",
"4 4 4 5 6 7 8 9 0 a a 0 b 8 7 6 5 4 4 4 ",
"c c d e f g h i j k k j i h g f e d c c ",
"l l m n o p q r s t u v w x y o n m l l ",
"z z A B C D . . . . E F G H . I B A z z ",
"J J K L M N O P Q R . . . . S M L T J J ",
"U U V W X Y Z `  ...+.@.#.$.%.X W V U U ",
"&.*.=.-.;.>.,.'.).!.!.).'.~.>.{.-.=.*.*.",
"].].].^./.(._.:.<.[.}.|.1.2.3.4.^.5.5.5.",
"6.6.6.7.8.9.0.a.b.c.d.e.f.g.9.8.7.6.h.h.",
"i.i.i.i.j.k.l.m.n.o.p.q.r.s.k.j.i.i.i.i.",
"t.t.t.t.t.u.v.w.-.x.x.-.w.v.u.t.t.t.t.t.",
"y.y.y.y.y.y.y.z.A.B.B.A.z.y.y.y.y.y.y.y.",
"C.C.C.C.C.C.C.C.C.C.C.C.C.C.C.C.C.C.C.C.",
"D.D.D.D.D.D.D.D.D.D.D.D.D.D.D.D.D.D.D.D.",
"E.E.E.E.E.E.E.E.E.E.E.E.E.E.E.E.E.E.E.E.",
"F.F.F.F.F.F.F.F.F.F.F.F.F.F.F.F.F.F.F.F.",
"G.G.G.G.G.G.G.G.G.G.G.G.G.G.G.G.G.G.G.G."};
