/* XPM */
static char * hide_prelight_xpm[] = {
"20 25 189 2",
"  	c None",
". 	c #131313",
"+ 	c #595959",
"@ 	c #444444",
"# 	c #434343",
"$ 	c #454545",
"% 	c #4F4F4F",
"& 	c #585858",
"* 	c #595858",
"= 	c #585859",
"- 	c #414141",
"; 	c #535353",
"> 	c #717171",
", 	c #6F6F6F",
"' 	c #A1977D",
") 	c #BCBC96",
"! 	c #BCBB95",
"~ 	c #A0967C",
"{ 	c #6D6D6D",
"] 	c #404040",
"^ 	c #5E5E5E",
"/ 	c #7A7A7A",
"( 	c #B28C6C",
"_ 	c #F5CC86",
": 	c #FFEFA2",
"< 	c #FFFDB1",
"[ 	c #F5CC85",
"} 	c #B08969",
"| 	c #787878",
"1 	c #3E3E3E",
"2 	c #808080",
"3 	c #CC8357",
"4 	c #FFAC5D",
"5 	c #FFC978",
"6 	c #FFE290",
"7 	c #FFF19E",
"8 	c #CB8153",
"9 	c #7F7F7F",
"0 	c #3D3D3D",
"a 	c #8A8A8A",
"b 	c #9A6B53",
"c 	c #E78A37",
"d 	c #FAA24D",
"e 	c #FFBB64",
"f 	c #FFD179",
"g 	c #FFDE86",
"h 	c #FFD17A",
"i 	c #98684F",
"j 	c #3B3B3B",
"k 	c #605F5F",
"l 	c #808181",
"m 	c #C8732D",
"n 	c #DB842C",
"o 	c #EB973D",
"p 	c #FBAB50",
"q 	c #FFBE61",
"r 	c #FFC96C",
"s 	c #FFBE62",
"t 	c #DB832C",
"u 	c #C8732B",
"v 	c #80807F",
"w 	c #5F605F",
"x 	c #3A3A3A",
"y 	c #828282",
"z 	c #88685B",
"A 	c #C67118",
"B 	c #CF7E22",
"C 	c #CF852D",
"D 	c #C08231",
"E 	c #D4963D",
"F 	c #F4B54C",
"G 	c #FBBA4E",
"H 	c #F6B047",
"I 	c #EA9F3C",
"J 	c #DC8D2F",
"K 	c #C77921",
"L 	c #BF6D18",
"M 	c #866659",
"N 	c #383838",
"O 	c #979797",
"P 	c #895B3E",
"Q 	c #BA6C13",
"R 	c #794A16",
"S 	c #2D2415",
"T 	c #8E6E27",
"U 	c #BB8D2E",
"V 	c #C28C28",
"W 	c #9A671C",
"X 	c #3E2714",
"Y 	c #AE6513",
"Z 	c #88593C",
"` 	c #363636",
" .	c #9E9E9E",
"..	c #85593B",
"+.	c #A16010",
"@.	c #735317",
"#.	c #927020",
"$.	c #8B7026",
"%.	c #4A3D1B",
"&.	c #4D3313",
"*.	c #B26A0F",
"=.	c #855939",
"-.	c #9E9F9E",
";.	c #343434",
">.	c #959595",
",.	c #866C5D",
"'.	c #A8680E",
").	c #AC7713",
"!.	c #CB9C22",
"~.	c #D5AE37",
"{.	c #DCBC4E",
"].	c #E0C45E",
"^.	c #C0A851",
"/.	c #988337",
"(.	c #8E7426",
"_.	c #A77F1D",
":.	c #BE8513",
"<.	c #B8720D",
"[.	c #866B5D",
"}.	c #323232",
"|.	c #707070",
"1.	c #9B9B9B",
"2.	c #B3761E",
"3.	c #C18D15",
"4.	c #CCA328",
"5.	c #D6B745",
"6.	c #DFC767",
"7.	c #E5D386",
"8.	c #E5D387",
"9.	c #DFC868",
"0.	c #CCA429",
"a.	c #C28E15",
"b.	c #313131",
"c.	c #303030",
"d.	c #BDBDBD",
"e.	c #836542",
"f.	c #C19116",
"g.	c #CCA72C",
"h.	c #D6BB4C",
"i.	c #E0CE77",
"j.	c #EADDA9",
"k.	c #EADEAB",
"l.	c #E1CE79",
"m.	c #D7BC4D",
"n.	c #CCA82D",
"o.	c #C19217",
"p.	c #836541",
"q.	c #2F2F2F",
"r.	c #737374",
"s.	c #B9B9B9",
"t.	c #A17E31",
"u.	c #CAA729",
"v.	c #D4BB47",
"w.	c #DDCC6C",
"x.	c #E5D890",
"y.	c #E5D891",
"z.	c #DECC6E",
"A.	c #D4BB48",
"B.	c #CAA82A",
"C.	c #747374",
"D.	c #2E2E2E",
"E.	c #2D2D2D",
"F.	c #898989",
"G.	c #BFBFBF",
"H.	c #8B7944",
"I.	c #C8AF3C",
"J.	c #D6C351",
"K.	c #DBCC64",
"L.	c #DBCC65",
"M.	c #D6C352",
"N.	c #C8B03D",
"O.	c #C0BFBF",
"P.	c #2C2C2C",
"Q.	c #2A2A2A",
"R.	c #797979",
"S.	c #D1D1D1",
"T.	c #B1B1B2",
"U.	c #948C6B",
"V.	c #928841",
"W.	c #B2B1B1",
"X.	c #282828",
"Y.	c #B5B5B5",
"Z.	c #CCCCCC",
"`.	c #262626",
" +	c #232323",
".+	c #202020",
"++	c #1D1D1D",
"@+	c #191919",
"#+	c #151515",
". . . . . . . . . . . . . . . . . . . . ",
"+ + + + + + + + + + + + + + + + + + + + ",
"@ @ @ @ @ @ @ @ @ @ @ @ @ @ @ @ @ @ @ @ ",
"# # $ $ $ $ $ % & * = & % $ $ $ $ $ # # ",
"- - $ $ $ ; > , ' ) ! ~ { > ; $ $ $ - - ",
"] ] $ $ ^ / ( _ : < < : [ } | ^ $ $ ] ] ",
"1 1 $ + 2 3 4 5 6 7 7 6 5 4 8 9 + $ 1 1 ",
"0 0 $ a b c d e f g g h e d c i a $ 0 0 ",
"j j k l m n o p q r r s p o t u v w j j ",
"x x y z A B C D E F G H I J K L M y x x ",
"N N O P Q R . . . S T U V W X Y Z O N N ",
"` `  ...+.. @.#.$.%.. . . . &.*.=.-.` ` ",
";.;.>.,.'.).!.~.{.].^./.(._.:.<.[.>.;.;.",
"}.}.|.1.2.3.4.5.6.7.8.9.5.0.a.2.1.|.}.}.",
"b.c.$ d.e.f.g.h.i.j.k.l.m.n.o.p.d.$ c.c.",
"q.q.$ r.s.t.u.v.w.x.y.z.A.B.t.s.C.$ D.D.",
"E.E.$ $ F.G.H.I.J.K.L.M.N.H.O.F.$ $ P.P.",
"Q.Q.$ $ $ R.S.T.U.V.V.U.W.S.R.$ $ $ Q.Q.",
"X.X.$ $ $ $ $ 9 Y.Z.Z.Y.9 $ $ $ $ $ X.X.",
"`.`.`.`.`.`.`.`.`.`.`.`.`.`.`.`.`.`.`.`.",
" + + + + + + + + + + + + + + + + + + + +",
".+.+.+.+.+.+.+.+.+.+.+.+.+.+.+.+.+.+.+.+",
"++++++++++++++++++++++++++++++++++++++++",
"@+@+@+@+@+@+@+@+@+@+@+@+@+@+@+@+@+@+@+@+",
"#+#+#+#+#+#+#+#+#+#+#+#+#+#+#+#+#+#+#+#+"};
