/* XPM */
static char * hide_prelight_xpm[] = {
"20 25 178 2",
"  	c None",
". 	c #131313",
"+ 	c #595959",
"@ 	c #444444",
"# 	c #434343",
"$ 	c #414141",
"% 	c #4C4C4C",
"& 	c #575757",
"* 	c #585757",
"= 	c #575758",
"- 	c #404040",
"; 	c #505050",
"> 	c #6F6F6F",
", 	c #9F957B",
"' 	c #BAB992",
") 	c #B9B992",
"! 	c #9E9479",
"~ 	c #6D6D6D",
"{ 	c #3E3E3E",
"] 	c #5B5A5B",
"^ 	c #797978",
"/ 	c #B08969",
"( 	c #F4CB84",
"_ 	c #FFEFA2",
": 	c #FFFDB1",
"< 	c #F4CA84",
"[ 	c #AE8766",
"} 	c #777777",
"| 	c #5A5B5A",
"1 	c #3D3D3D",
"2 	c #545454",
"3 	c #7F7F7F",
"4 	c #CA8051",
"5 	c #FFAC5D",
"6 	c #FFC978",
"7 	c #FFE290",
"8 	c #FFF19E",
"9 	c #C97F4E",
"0 	c #7E7E7E",
"a 	c #3B3B3B",
"b 	c #888888",
"c 	c #986950",
"d 	c #E78A37",
"e 	c #FAA24D",
"f 	c #FFBB64",
"g 	c #FFD179",
"h 	c #FFDE86",
"i 	c #FFD17A",
"j 	c #97674D",
"k 	c #3A3A3A",
"l 	c #5A5A5A",
"m 	c #828282",
"n 	c #C77229",
"o 	c #DB842C",
"p 	c #EB973D",
"q 	c #FBAB50",
"r 	c #FFBE61",
"s 	c #FFC96C",
"t 	c #FFBE62",
"u 	c #DB832C",
"v 	c #C77128",
"w 	c #818080",
"x 	c #383838",
"y 	c #896B5E",
"z 	c #C67118",
"A 	c #CF7E22",
"B 	c #CD832C",
"C 	c #BD7F33",
"D 	c #C98D3D",
"E 	c #EEB04B",
"F 	c #FBBA4E",
"G 	c #F6B047",
"H 	c #EA9F3C",
"I 	c #DC8D2F",
"J 	c #B66F20",
"K 	c #88695C",
"L 	c #363636",
"M 	c #959595",
"N 	c #875738",
"O 	c #C07013",
"P 	c #7E4C16",
"Q 	c #806024",
"R 	c #B0832B",
"S 	c #B17E26",
"T 	c #80541B",
"U 	c #865636",
"V 	c #343434",
"W 	c #9C9C9C",
"X 	c #835635",
"Y 	c #BB700F",
"Z 	c #141413",
"` 	c #7F5D18",
" .	c #AA8425",
"..	c #A5872E",
"+.	c #726027",
"@.	c #7E5213",
"#.	c #835534",
"$.	c #9C9D9C",
"%.	c #323232",
"&.	c #919191",
"*.	c #8A7264",
"=.	c #B8720D",
"-.	c #AC7914",
";.	c #CB9C22",
">.	c #D5AE37",
",.	c #DCBC4E",
"'.	c #E1C55F",
").	c #D3BA5B",
"!.	c #B19942",
"~.	c #AA8D2F",
"{.	c #BF9221",
"].	c #C18713",
"^.	c #313131",
"/.	c #303030",
"(.	c #676767",
"_.	c #9E9D9D",
":.	c #B3751A",
"<.	c #C18D15",
"[.	c #CCA328",
"}.	c #D6B745",
"|.	c #DFC767",
"1.	c #E5D386",
"2.	c #E5D387",
"3.	c #DFC868",
"4.	c #CCA429",
"5.	c #C28E15",
"6.	c #B37519",
"7.	c #9D9D9D",
"8.	c #2F2F2F",
"9.	c #BABABA",
"0.	c #856745",
"a.	c #C19116",
"b.	c #CCA72C",
"c.	c #D6BB4C",
"d.	c #E0CE77",
"e.	c #EADDA9",
"f.	c #EADEAB",
"g.	c #E1CE79",
"h.	c #D7BC4D",
"i.	c #CCA82D",
"j.	c #C19217",
"k.	c #2E2E2E",
"l.	c #2D2D2D",
"m.	c #6A6A6A",
"n.	c #B9B9B9",
"o.	c #A07C2B",
"p.	c #CAA729",
"q.	c #D4BB47",
"r.	c #DDCC6C",
"s.	c #E5D890",
"t.	c #E5D891",
"u.	c #DECC6E",
"v.	c #D4BB48",
"w.	c #CAA82A",
"x.	c #2C2C2C",
"y.	c #2A2A2A",
"z.	c #C0C0C0",
"A.	c #8D7B48",
"B.	c #C7AF3A",
"C.	c #D6C351",
"D.	c #DBCC64",
"E.	c #DBCC65",
"F.	c #D6C352",
"G.	c #C8AF3B",
"H.	c #282828",
"I.	c #CDCDCD",
"J.	c #B5B5B4",
"K.	c #9B9477",
"L.	c #90863C",
"M.	c #262626",
"N.	c #757575",
"O.	c #B1B1B1",
"P.	c #C9C9C9",
"Q.	c #232323",
"R.	c #202020",
"S.	c #1D1D1D",
"T.	c #191919",
"U.	c #151515",
". . . . . . . . . . . . . . . . . . . . ",
"+ + + + + + + + + + + + + + + + + + + + ",
"@ @ @ @ @ @ @ @ @ @ @ @ @ @ @ @ @ @ @ @ ",
"# # # # # # # # # # # # # # # # # # # # ",
"$ $ $ $ $ $ $ % & * = & % $ $ $ $ $ $ $ ",
"- - - - - ; > > , ' ) ! ~ > ; - - - - - ",
"{ { { { ] ^ / ( _ : : _ < [ } | { { { { ",
"1 1 1 2 3 4 5 6 7 8 8 7 6 5 9 0 2 1 1 1 ",
"a a a b c d e f g h h i f e d j b a a a ",
"k k l m n o p q r s s t q p u v w l k k ",
"x x 3 y z A B C D E F G H I J z K 3 x x ",
"L L M N O P . . . . Q R S T . O U M L L ",
"V V W X Y Z `  ...+.. . . . @.Y #.$.V V ",
"%.%.&.*.=.-.;.>.,.'.).!.~.{.].=.*.&.%.%.",
"^./.(._.:.<.[.}.|.1.2.3.}.4.5.6.7.(././.",
"8.8.8.9.0.a.b.c.d.e.f.g.h.i.j.0.9.k.k.k.",
"l.l.l.m.n.o.p.q.r.s.t.u.v.w.o.n.m.l.x.x.",
"y.y.y.y.m z.A.B.C.D.E.F.G.A.z.m y.y.y.y.",
"H.H.H.H.H.> I.J.K.L.L.K.J.I.> H.H.H.H.H.",
"M.M.M.M.M.M.M.N.O.P.P.O.N.M.M.M.M.M.M.M.",
"Q.Q.Q.Q.Q.Q.Q.Q.Q.Q.Q.Q.Q.Q.Q.Q.Q.Q.Q.Q.",
"R.R.R.R.R.R.R.R.R.R.R.R.R.R.R.R.R.R.R.R.",
"S.S.S.S.S.S.S.S.S.S.S.S.S.S.S.S.S.S.S.S.",
"T.T.T.T.T.T.T.T.T.T.T.T.T.T.T.T.T.T.T.T.",
"U.U.U.U.U.U.U.U.U.U.U.U.U.U.U.U.U.U.U.U."};
