/* XPM */
static char * maximize_active_xpm[] = {
"20 25 172 2",
"  	c None",
". 	c #131313",
"+ 	c #595959",
"@ 	c #444444",
"# 	c #434343",
"$ 	c #414141",
"% 	c #4C4C4C",
"& 	c #575757",
"* 	c #585757",
"= 	c #575758",
"- 	c #404040",
"; 	c #505050",
"> 	c #6F6F6F",
", 	c #7D887B",
"' 	c #95A892",
") 	c #7B8679",
"! 	c #6D6D6D",
"~ 	c #3E3E3E",
"{ 	c #5B5A5B",
"] 	c #797978",
"^ 	c #6B7A69",
"/ 	c #89AC84",
"( 	c #A6CFA1",
"_ 	c #B5DEB0",
": 	c #A6CEA1",
"< 	c #88AC83",
"[ 	c #687766",
"} 	c #777777",
"| 	c #5A5B5A",
"1 	c #3D3D3D",
"2 	c #545454",
"3 	c #7F7F7F",
"4 	c #546C51",
"5 	c #608F5B",
"6 	c #7BAC76",
"7 	c #93C68E",
"8 	c #A1D59C",
"9 	c #516A4E",
"0 	c #7E7E7E",
"a 	c #3B3B3B",
"b 	c #888888",
"c 	c #525E50",
"d 	c #3A6F36",
"e 	c #4F884B",
"f 	c #66A362",
"g 	c #7BBA76",
"h 	c #87C783",
"i 	c #88C783",
"j 	c #7BBA77",
"k 	c #4E5B4D",
"l 	c #3A3A3A",
"m 	c #5A5A5A",
"n 	c #828282",
"o 	c #2D5B28",
"p 	c #2D6D29",
"q 	c #3E823A",
"r 	c #50984C",
"s 	c #61AB5D",
"t 	c #6BB767",
"u 	c #2C5A27",
"v 	c #808080",
"w 	c #383838",
"x 	c #5F655E",
"y 	c #185C14",
"z 	c #216B1D",
"A 	c #2D7C29",
"B 	c #3A9036",
"C 	c #43A240",
"D 	c #48AD45",
"E 	c #43A340",
"F 	c #2D7C2A",
"G 	c #216B1E",
"H 	c #5D645C",
"I 	c #363636",
"J 	c #959595",
"K 	c #394E38",
"L 	c #115E0D",
"M 	c #176B14",
"N 	c #1E7F1A",
"O 	c #239520",
"P 	c #27A625",
"Q 	c #2AAF27",
"R 	c #239620",
"S 	c #1E801A",
"T 	c #125E0D",
"U 	c #364C36",
"V 	c #343434",
"W 	c #9C9C9C",
"X 	c #354D34",
"Y 	c #0C6209",
"Z 	c #0F720C",
"` 	c #118B0F",
" .	c #13A011",
"..	c #15AF13",
"+.	c #16B714",
"@.	c #118C0F",
"#.	c #0F730C",
"$.	c #344D33",
"%.	c #9C9D9C",
"&.	c #323232",
"*.	c #919191",
"=.	c #666E64",
"-.	c #086705",
";.	c #097F06",
">.	c #0A9807",
",.	c #0AAC08",
"'.	c #0ABC09",
").	c #0AC509",
"!.	c #0AAD08",
"~.	c #098006",
"{.	c #656E64",
"].	c #313131",
"^.	c #303030",
"/.	c #676767",
"(.	c #9D9D9D",
"_.	c #1E6C14",
":.	c #058A03",
"<.	c #05A204",
"[.	c #05B804",
"}.	c #04C904",
"|.	c #04D403",
"1.	c #04D503",
"2.	c #05A304",
"3.	c #1E6D14",
"4.	c #2F2F2F",
"5.	c #BABABA",
"6.	c #466344",
"7.	c #039001",
"8.	c #03A902",
"9.	c #02BF02",
"0.	c #02D101",
"a.	c #01E001",
"b.	c #01E101",
"c.	c #02D201",
"d.	c #03BF02",
"e.	c #039101",
"f.	c #466444",
"g.	c #2E2E2E",
"h.	c #2D2D2D",
"i.	c #6A6A6A",
"j.	c #B9B9B9",
"k.	c #2B7B24",
"l.	c #02AA00",
"m.	c #01C001",
"n.	c #01D100",
"o.	c #01DD00",
"p.	c #01D200",
"q.	c #02AB00",
"r.	c #2C2C2C",
"s.	c #2A2A2A",
"t.	c #C0C0C0",
"u.	c #477C44",
"v.	c #1EB40F",
"w.	c #00CB00",
"x.	c #00D500",
"y.	c #00CC00",
"z.	c #487C44",
"A.	c #282828",
"B.	c #CDCDCD",
"C.	c #B4B4B4",
"D.	c #749673",
"E.	c #268E25",
"F.	c #B5B4B4",
"G.	c #262626",
"H.	c #757575",
"I.	c #B1B1B1",
"J.	c #C9C9C9",
"K.	c #232323",
"L.	c #202020",
"M.	c #1D1D1D",
"N.	c #191919",
"O.	c #151515",
". . . . . . . . . . . . . . . . . . . . ",
"+ + + + + + + + + + + + + + + + + + + + ",
"@ @ @ @ @ @ @ @ @ @ @ @ @ @ @ @ @ @ @ @ ",
"# # # # # # # # # # # # # # # # # # # # ",
"$ $ $ $ $ $ $ % & * = & % $ $ $ $ $ $ $ ",
"- - - - - ; > > , ' ' ) ! > ; - - - - - ",
"~ ~ ~ ~ { ] ^ / ( _ _ : < [ } | ~ ~ ~ ~ ",
"1 1 1 2 3 4 5 6 7 8 8 7 6 5 9 0 2 1 1 1 ",
"a a a b c d e f g h i j f e d k b a a a ",
"l l m n o p q r s t t s r q p u v m l l ",
"w w 3 x y z A B C D D E B F G y H 3 w w ",
"I I J K L M N O P Q Q P R S M T U J I I ",
"V V W X Y Z `  ...+.+... .@.#.Y $.%.V V ",
"&.&.*.=.-.;.>.,.'.).).'.!.>.~.-.{.*.&.&.",
"].^./.(._.:.<.[.}.|.1.}.[.2.:.3.(./.^.^.",
"4.4.4.5.6.7.8.9.0.a.b.c.d.8.e.f.5.g.g.g.",
"h.h.h.i.j.k.l.m.n.o.o.p.m.q.k.j.i.h.r.r.",
"s.s.s.s.n t.u.v.w.x.x.y.v.z.t.n s.s.s.s.",
"A.A.A.A.A.> B.C.D.E.E.D.F.B.> A.A.A.A.A.",
"G.G.G.G.G.G.G.H.I.J.J.I.H.G.G.G.G.G.G.G.",
"K.K.K.K.K.K.K.K.K.K.K.K.K.K.K.K.K.K.K.K.",
"L.L.L.L.L.L.L.L.L.L.L.L.L.L.L.L.L.L.L.L.",
"M.M.M.M.M.M.M.M.M.M.M.M.M.M.M.M.M.M.M.M.",
"N.N.N.N.N.N.N.N.N.N.N.N.N.N.N.N.N.N.N.N.",
"O.O.O.O.O.O.O.O.O.O.O.O.O.O.O.O.O.O.O.O."};
