/* XPM */
static char * maximize_prelight_xpm[] = {
"20 25 220 2",
"  	c None",
". 	c #131313",
"+ 	c #595959",
"@ 	c #444444",
"# 	c #434343",
"$ 	c #414141",
"% 	c #4E4E4E",
"& 	c #575757",
"* 	c #565656",
"= 	c #484848",
"- 	c #404040",
"; 	c #505050",
"> 	c #6F6F6F",
", 	c #828E7F",
"' 	c #96A993",
") 	c #92A48F",
"! 	c #788076",
"~ 	c #6E6E6F",
"{ 	c #6A6A6A",
"] 	c #454545",
"^ 	c #3E3E3E",
"/ 	c #5A5A5A",
"( 	c #787878",
"_ 	c #6B7B69",
": 	c #8CB187",
"< 	c #A8D1A3",
"[ 	c #B6DFB1",
"} 	c #B4DDAF",
"| 	c #A2CA9D",
"1 	c #80A17C",
"2 	c #677166",
"3 	c #7B7B7B",
"4 	c #4D4D4D",
"5 	c #3D3D3D",
"6 	c #515151",
"7 	c #818181",
"8 	c #546D51",
"9 	c #61905C",
"0 	c #7DAE78",
"a 	c #94C890",
"b 	c #A1D59C",
"c 	c #9FD39A",
"d 	c #8FC28A",
"e 	c #75A670",
"f 	c #5A8655",
"g 	c #586357",
"h 	c #3B3B3B",
"i 	c #828282",
"j 	c #525E51",
"k 	c #3A6F36",
"l 	c #50894B",
"m 	c #68A463",
"n 	c #7DBB78",
"o 	c #42613F",
"p 	c #426240",
"q 	c #78B673",
"r 	c #619D5D",
"s 	c #4A8245",
"t 	c #386933",
"u 	c #696C68",
"v 	c #737373",
"w 	c #3A3A3A",
"x 	c #4F4F4F",
"y 	c #858585",
"z 	c #2F5B2C",
"A 	c #2D6D29",
"B 	c #3E823A",
"C 	c #51994D",
"D 	c #62AC5E",
"E 	c #345932",
"F 	c #345A32",
"G 	c #5EA85A",
"H 	c #4C9348",
"I 	c #3A7C35",
"J 	c #296725",
"K 	c #3A5538",
"L 	c #8B8B8A",
"M 	c #383838",
"N 	c #767575",
"O 	c #6A6E6A",
"P 	c #185B14",
"Q 	c #226B1D",
"R 	c #2E7D2A",
"S 	c #3A9137",
"T 	c #44A440",
"U 	c #255423",
"V 	c #255524",
"W 	c #42A03E",
"X 	c #378B34",
"Y 	c #2A7826",
"Z 	c #1F671B",
"` 	c #23581E",
" .	c #868686",
"..	c #4F4F50",
"+.	c #363636",
"@.	c #8A8A8A",
"#.	c #475645",
"$.	c #115E0D",
"%.	c #176B14",
"&.	c #173D16",
"*.	c #1A4919",
"=.	c #1C521B",
"-.	c #152B15",
";.	c #1B501A",
">.	c #194618",
",.	c #173B16",
"'.	c #166712",
").	c #105B0C",
"!.	c #838382",
"~.	c #646464",
"{.	c #343434",
"].	c #909090",
"^.	c #485846",
"/.	c #0C6109",
"(.	c #0F730C",
"_.	c #124612",
":.	c #125012",
"<.	c #125812",
"[.	c #132D13",
"}.	c #132E13",
"|.	c #125612",
"1.	c #124E12",
"2.	c #124412",
"3.	c #0E6D0B",
"4.	c #0B5E08",
"5.	c #888888",
"6.	c #676767",
"7.	c #323232",
"8.	c #868586",
"9.	c #747974",
"0.	c #086705",
"a.	c #097F06",
"b.	c #0A9907",
"c.	c #0AAE08",
"d.	c #0ABD09",
"e.	c #116011",
"f.	c #116211",
"g.	c #0ABA09",
"h.	c #0AA908",
"i.	c #099307",
"j.	c #097806",
"k.	c #1B6113",
"l.	c #999999",
"m.	c #535353",
"n.	c #313131",
"o.	c #303030",
"p.	c #A3A3A3",
"q.	c #1C6A19",
"r.	c #058A03",
"s.	c #05A304",
"t.	c #05B904",
"u.	c #04CA03",
"v.	c #116810",
"w.	c #106910",
"x.	c #04C604",
"y.	c #05B404",
"z.	c #059D04",
"A.	c #058303",
"B.	c #2C5D28",
"C.	c #AFAFAF",
"D.	c #2F2F2F",
"E.	c #B0B0B0",
"F.	c #476346",
"G.	c #039001",
"H.	c #03A902",
"I.	c #02C002",
"J.	c #02D301",
"K.	c #106D10",
"L.	c #106E10",
"M.	c #02CF01",
"N.	c #03BB02",
"O.	c #03A402",
"P.	c #0E8809",
"Q.	c #818680",
"R.	c #2E2E2E",
"S.	c #2D2D2D",
"T.	c #626262",
"U.	c #BBBBBB",
"V.	c #2A7B24",
"W.	c #02AB00",
"X.	c #01C101",
"Y.	c #01D200",
"Z.	c #01DC00",
"`.	c #01DB00",
" +	c #01CF00",
".+	c #01BC01",
"++	c #0EA406",
"@+	c #4F6D4C",
"#+	c #C0C0C0",
"$+	c #2C2C2C",
"%+	c #2A2A2A",
"&+	c #BEBEBE",
"*+	c #477F43",
"=+	c #11B70D",
"-+	c #00CC00",
";+	c #00D600",
">+	c #00D400",
",+	c #01C900",
"'+	c #23A918",
")+	c #678067",
"!+	c #CBCBCB",
"~+	c #5E5E5E",
"{+	c #282828",
"]+	c #707070",
"^+	c #CDCDCD",
"/+	c #6E946C",
"(+	c #268E26",
"_+	c #2B8D28",
":+	c #869B86",
"<+	c #474747",
"[+	c #262626",
"}+	c #7D7D7D",
"|+	c #B4B4B4",
"1+	c #C9C9C9",
"2+	c #A9A9A9",
"3+	c #232323",
"4+	c #202020",
"5+	c #1D1D1D",
"6+	c #191919",
"7+	c #151515",
". . . . . . . . . . . . . . . . . . . . ",
"+ + + + + + + + + + + + + + + + + + + + ",
"@ @ @ @ @ @ @ @ @ @ @ @ @ @ @ @ @ @ @ @ ",
"# # # # # # # # # # # # # # # # # # # # ",
"$ $ $ $ $ $ $ % & & + * = $ $ $ $ $ $ $ ",
"- - - - - ; > > , ' ) ! ~ { ] - - - - - ",
"^ ^ ^ ^ / ( _ : < [ } | 1 2 3 4 ^ ^ ^ ^ ",
"5 5 5 6 7 8 9 0 a b c d e f g 7 ^ 5 5 5 ",
"h h h i j k l m n o p q r s t u v h h h ",
"w w x y z A B C D E F G H I J K L w w w ",
"M M N O P Q R S T U V W X Y Z `  ...M M ",
"+.+.@.#.$.%.&.*.=.-.-.;.>.,.'.).!.~.+.+.",
"{.{.].^./.(._.:.<.[.}.|.1.2.3.4.5.6.{.{.",
"7.7.8.9.0.a.b.c.d.e.f.g.h.i.j.k.l.m.7.7.",
"n.o.* p.q.r.s.t.u.v.w.x.y.z.A.B.C.o.o.o.",
"D.D.D.E.F.G.H.I.J.K.L.M.N.O.P.Q.l.R.R.R.",
"S.S.S.T.U.V.W.X.Y.Z.`. +.+++@+#+7.S.$+$+",
"%+%+%+%+7 &+*+=+-+;+>+,+'+)+!+~+%+%+%+%+",
"{+{+{+{+{+]+^+C./+(+_+:+#+#+<+{+{+{+{+{+",
"[+[+[+[+[+[+[+}+|+1+1+2+~+[+[+[+[+[+[+[+",
"3+3+3+3+3+3+3+3+3+3+3+3+3+3+3+3+3+3+3+3+",
"4+4+4+4+4+4+4+4+4+4+4+4+4+4+4+4+4+4+4+4+",
"5+5+5+5+5+5+5+5+5+5+5+5+5+5+5+5+5+5+5+5+",
"6+6+6+6+6+6+6+6+6+6+6+6+6+6+6+6+6+6+6+6+",
"7+7+7+7+7+7+7+7+7+7+7+7+7+7+7+7+7+7+7+7+"};
