/* XPM */
static char * button_inactive_xpm[] = {
"20 25 136 2",
"  	c None",
". 	c #131313",
"+ 	c #595959",
"@ 	c #444444",
"# 	c #434343",
"$ 	c #414141",
"% 	c #404040",
"& 	c #414041",
"* 	c #424242",
"= 	c #494848",
"- 	c #4E4E4E",
"; 	c #8D8B8B",
"> 	c #B2B1B1",
", 	c #3E3E3E",
"' 	c #464646",
") 	c #5A5959",
"! 	c #A3A2A2",
"~ 	c #E8E8E8",
"{ 	c #F9F9F9",
"] 	c #FCFCFC",
"^ 	c #3D3D3D",
"/ 	c #454545",
"( 	c #666565",
"_ 	c #BBBBBB",
": 	c #ECECEC",
"< 	c #F3F3F3",
"[ 	c #F8F8F8",
"} 	c #FAFAFA",
"| 	c #FBFBFB",
"1 	c #EDEDED",
"2 	c #BDBCBC",
"3 	c #3B3B3B",
"4 	c #666666",
"5 	c #A09F9F",
"6 	c #E0E0E0",
"7 	c #E9E9E9",
"8 	c #F0F0F0",
"9 	c #F5F5F5",
"0 	c #EAEAEA",
"a 	c #E1E1E1",
"b 	c #3A3A3A",
"c 	c #4A4949",
"d 	c #7D7C7C",
"e 	c #C8C8C8",
"f 	c #DBDBDB",
"g 	c #E4E4E4",
"h 	c #EBEBEB",
"i 	c #F0F0EF",
"j 	c #F2F2F2",
"k 	c #E5E5E5",
"l 	c #DCDCDC",
"m 	c #C9C9C9",
"n 	c #494949",
"o 	c #383838",
"p 	c #626262",
"q 	c #969494",
"r 	c #D4D4D4",
"s 	c #DDDDDD",
"t 	c #E3E3E4",
"u 	c #969595",
"v 	c #363636",
"w 	c #747373",
"x 	c #BEBEBE",
"y 	c #CACACA",
"z 	c #D3D3D3",
"A 	c #DADADA",
"B 	c #DFDFDF",
"C 	c #BFBFBF",
"D 	c #343434",
"E 	c #7B7A7A",
"F 	c #A4A3A3",
"G 	c #B3B3B3",
"H 	c #BDBDBD",
"I 	c #C7C7C7",
"J 	c #CECECE",
"K 	c #D2D2D2",
"L 	c #D5D5D5",
"M 	c #B4B4B4",
"N 	c #323232",
"O 	c #737272",
"P 	c #A5A4A4",
"Q 	c #AAAAAA",
"R 	c #B0B0B0",
"S 	c #B8B8B8",
"T 	c #C4C4C4",
"U 	c #C6C6C6",
"V 	c #B1B1B1",
"W 	c #737273",
"X 	c #313131",
"Y 	c #303030",
"Z 	c #545353",
"` 	c #ACABAB",
" .	c #A3A3A3",
"..	c #A6A6A6",
"+.	c #ABABAB",
"@.	c #AFAFAF",
"#.	c #B5B5B5",
"$.	c #545453",
"%.	c #2F2F2F",
"&.	c #9E9D9D",
"*.	c #B0AFAF",
"=.	c #9A9A9A",
"-.	c #9F9F9F",
";.	c #A5A5A5",
">.	c #A7A7A7",
",.	c #A7A7A6",
"'.	c #2E2E2E",
").	c #2D2D2D",
"!.	c #585757",
"~.	c #BCBBBB",
"{.	c #929292",
"].	c #969696",
"^.	c #999898",
"/.	c #999998",
"(.	c #2C2C2C",
"_.	c #2A2A2A",
":.	c #6D6D6D",
"<.	c #C8C6C6",
"[.	c #BEBDBC",
"}.	c #8A8A8A",
"|.	c #8B8B8C",
"1.	c #8B8C8C",
"2.	c #BEBCBC",
"3.	c #282828",
"4.	c #605F5F",
"5.	c #DCDBDB",
"6.	c #D3D1D1",
"7.	c #C7C6C6",
"8.	c #262626",
"9.	c #696868",
"0.	c #A2A1A1",
"a.	c #232323",
"b.	c #202020",
"c.	c #1D1D1D",
"d.	c #191919",
"e.	c #151515",
". . . . . . . . . . . . . . . . . . . . ",
"+ + + + + + + + + + + + + + + + + + + + ",
"@ @ @ @ @ @ @ @ @ @ @ @ @ @ @ @ @ @ @ @ ",
"# # # # # # # # # # # # # # # # # # # # ",
"$ $ $ $ $ $ $ $ % % % & $ $ $ $ $ $ $ $ ",
"% % % % % * = - ; > > ; - = * % % % % % ",
", , , , ' ) ! ~ { ] ] { ~ ! ) ' , , , , ",
"^ ^ ^ / ( _ : < [ } | [ < 1 2 ( / ^ ^ ^ ",
"3 3 3 4 5 6 7 8 9 [ [ 9 8 0 a 5 4 3 3 3 ",
"b b c d e f g h i j j 8 h k l m d n b b ",
"o o p q e r s t ~ h h ~ g s r m u p o o ",
"v v w ! x y z A B a a B A z y C ! w v v ",
"D D E F G H I J K L L z J I x M F E D D ",
"N N O P Q R S C T U U T C S V Q P W N N ",
"X Y Z `  ...+.@.G #.#.G @.+... .` $.Y Y ",
"%.%.%.&.*.=.-. .;.>.,.;. .-.=.*.&.'.'.'.",
").).).!.~.Q {.].^.=.=./.].{.Q ~.!.).(.(.",
"_._._._.:.<.[.].}.|.1.}.].2.<.:._._._._.",
"3.3.3.3.3.4.2 5.6.7.7.6.5.2 4.3.3.3.3.3.",
"8.8.8.8.8.8.8.9.0.2 2 0.9.8.8.8.8.8.8.8.",
"a.a.a.a.a.a.a.a.a.a.a.a.a.a.a.a.a.a.a.a.",
"b.b.b.b.b.b.b.b.b.b.b.b.b.b.b.b.b.b.b.b.",
"c.c.c.c.c.c.c.c.c.c.c.c.c.c.c.c.c.c.c.c.",
"d.d.d.d.d.d.d.d.d.d.d.d.d.d.d.d.d.d.d.d.",
"e.e.e.e.e.e.e.e.e.e.e.e.e.e.e.e.e.e.e.e."};
