/* XPM */
static char * menu_active_xpm[] = {
"20 25 196 2",
"  	c None",
". 	c #131313",
"+ 	c #595959",
"@ 	c #444444",
"# 	c #434343",
"$ 	c #414141",
"% 	c #454545",
"& 	c #4F4F4F",
"* 	c #595858",
"= 	c #585959",
"- 	c #404040",
"; 	c #535353",
"> 	c #707070",
", 	c #6F6F6F",
"' 	c #7D739E",
") 	c #9483BA",
"! 	c #9482B9",
"~ 	c #7B729D",
"{ 	c #6D6D6D",
"] 	c #3E3E3E",
"^ 	c #5E5E5E",
"/ 	c #797979",
"( 	c #6C63A4",
"_ 	c #8971F3",
": 	c #A688FF",
"< 	c #B495FF",
"[ 	c #8970F3",
"} 	c #6860A3",
"| 	c #777777",
"1 	c #3D3D3D",
"2 	c #808080",
"3 	c #554CA4",
"4 	c #624CDD",
"5 	c #7C63FA",
"6 	c #9378FF",
"7 	c #A184FF",
"8 	c #7C63FB",
"9 	c #624CE0",
"0 	c #5249A6",
"a 	c #7E7E7E",
"b 	c #3B3B3B",
"c 	c #898989",
"d 	c #524F80",
"e 	c #3C2CBA",
"f 	c #523ED5",
"g 	c #6952F2",
"h 	c #7D64FF",
"i 	c #896EFF",
"j 	c #6952F4",
"k 	c #523ED9",
"l 	c #3C2CBE",
"m 	c #4F4B80",
"n 	c #3A3A3A",
"o 	c #5F5F5F",
"p 	c #828282",
"q 	c #3024A1",
"r 	c #3021B6",
"s 	c #412FCD",
"t 	c #543FE6",
"u 	c #654EFA",
"v 	c #6F56FF",
"w 	c #654EFB",
"x 	c #543FE8",
"y 	c #422FD1",
"z 	c #3021BB",
"A 	c #2F23A5",
"B 	c #808081",
"C 	c #383838",
"D 	c #5F5E7C",
"E 	c #1B0FA3",
"F 	c #2517B4",
"G 	c #3222C6",
"H 	c #4230DB",
"I 	c #533EED",
"J 	c #5E47F8",
"K 	c #543EEF",
"L 	c #4230DE",
"M 	c #3222CA",
"N 	c #2517B8",
"O 	c #1B0FA9",
"P 	c #5D5C7C",
"Q 	c #363636",
"R 	c #979797",
"S 	c #393873",
"T 	c #150AA5",
"U 	c #1C0FB3",
"V 	c #2C1DC6",
"W 	c #412FDA",
"X 	c #513CE9",
"Y 	c #5944F1",
"Z 	c #513DEB",
"` 	c #412FDD",
" .	c #2D1DCA",
"..	c #1C0FB9",
"+.	c #150AAB",
"@.	c #373676",
"#.	c #343434",
"$.	c #9F9F9F",
"%.	c #353474",
"&.	c #1106A8",
"*.	c #1C10B8",
"=.	c #3323CD",
"-.	c #4734DE",
";.	c #5742EA",
">.	c #6049F1",
",.	c #5742EC",
"'.	c #4835E1",
").	c #3423D2",
"!.	c #1D10BE",
"~.	c #1106AF",
"{.	c #343378",
"].	c #323232",
"^.	c #959595",
"/.	c #666484",
"(.	c #0F05AD",
"_.	c #2316C2",
":.	c #3B2AD5",
"<.	c #523DE5",
"[.	c #634CF0",
"}.	c #6D56F5",
"|.	c #6E56F6",
"1.	c #644DF1",
"2.	c #523EE7",
"3.	c #3D2BD9",
"4.	c #2516C8",
"5.	c #1005B5",
"6.	c #656486",
"7.	c #313131",
"8.	c #303030",
"9.	c #9D9D9E",
"0.	c #2616B0",
"a.	c #2A1BC9",
"b.	c #4330DC",
"c.	c #5B45EA",
"d.	c #7058F4",
"e.	c #8066FB",
"f.	c #7059F4",
"g.	c #5B46EA",
"h.	c #4431DF",
"i.	c #2B1BCF",
"j.	c #2616B7",
"k.	c #9D9D9D",
"l.	c #2F2F2F",
"m.	c #BBBBBB",
"n.	c #494487",
"o.	c #2C1CCE",
"p.	c #4532DF",
"q.	c #5F48EB",
"r.	c #765EF6",
"s.	c #8E73FE",
"t.	c #8F74FE",
"u.	c #775FF6",
"v.	c #6049EB",
"w.	c #4633E0",
"x.	c #2D1DD3",
"y.	c #49448B",
"z.	c #BBBBBC",
"A.	c #2E2E2E",
"B.	c #2D2D2D",
"C.	c #737373",
"D.	c #B9B9B9",
"E.	c #382BAA",
"F.	c #422FDD",
"G.	c #5A44E8",
"H.	c #7059F2",
"I.	c #8269FA",
"J.	c #8369FA",
"K.	c #7159F3",
"L.	c #5B45E8",
"M.	c #4330DD",
"N.	c #382BAC",
"O.	c #2C2C2C",
"P.	c #2A2A2A",
"Q.	c #C0C0C0",
"R.	c #524997",
"S.	c #543BDA",
"T.	c #604AEA",
"U.	c #6B54EF",
"V.	c #6B54F0",
"W.	c #614AEA",
"X.	c #553CDA",
"Y.	c #282828",
"Z.	c #CFCFCF",
"`.	c #B5B4B5",
" +	c #7B76A2",
".+	c #463A9D",
"++	c #262626",
"@+	c #7F7E7E",
"#+	c #B5B5B5",
"$+	c #CCCCCC",
"%+	c #7E7F7F",
"&+	c #232323",
"*+	c #202020",
"=+	c #1D1D1D",
"-+	c #191919",
";+	c #151515",
". . . . . . . . . . . . . . . . . . . . ",
"+ + + + + + + + + + + + + + + + + + + + ",
"@ @ @ @ @ @ @ @ @ @ @ @ @ @ @ @ @ @ @ @ ",
"# # # # # # # # # # # # # # # # # # # # ",
"$ $ % % % % % & * + + = & % % % % % $ $ ",
"- - % % % ; > , ' ) ! ~ { > ; % % % - - ",
"] ] % % ^ / ( _ : < < : [ } | ^ % % ] ] ",
"1 1 % + 2 3 4 5 6 7 7 6 8 9 0 a + % 1 1 ",
"b b % c d e f g h i i h j k l m c % b b ",
"n n o p q r s t u v v w x y z A B o n n ",
"C C p D E F G H I J J K L M N O P p C C ",
"Q Q R S T U V W X Y Y Z `  ...+.@.R Q Q ",
"#.#.$.%.&.*.=.-.;.>.>.,.'.).!.~.{.$.#.#.",
"].].^./.(._.:.<.[.}.|.1.2.3.4.5.6.^.].].",
"7.8., 9.0.a.b.c.d.e.e.f.g.h.i.j.k., 8.8.",
"l.l.% m.n.o.p.q.r.s.t.u.v.w.x.y.z.% A.A.",
"B.B.% C.D.E.F.G.H.I.J.K.L.M.N.D.C.% O.O.",
"P.P.% % c Q.R.S.T.U.V.W.X.R.Q.c % % P.P.",
"Y.Y.% % % / Z.`. +.+.+ +`.Z./ % % % Y.Y.",
"++++% % % % % @+#+$+$+#+%+% % % % % ++++",
"&+&+&+&+&+&+&+&+&+&+&+&+&+&+&+&+&+&+&+&+",
"*+*+*+*+*+*+*+*+*+*+*+*+*+*+*+*+*+*+*+*+",
"=+=+=+=+=+=+=+=+=+=+=+=+=+=+=+=+=+=+=+=+",
"-+-+-+-+-+-+-+-+-+-+-+-+-+-+-+-+-+-+-+-+",
";+;+;+;+;+;+;+;+;+;+;+;+;+;+;+;+;+;+;+;+"};
