/* XPM */
static char * menu_pressed_xpm[] = {
"20 25 186 2",
"  	c None",
". 	c #131313",
"+ 	c #595959",
"@ 	c #444444",
"# 	c #434343",
"$ 	c #414141",
"% 	c #4C4C4C",
"& 	c #575757",
"* 	c #585757",
"= 	c #575758",
"- 	c #404040",
"; 	c #505050",
"> 	c #6D6D6D",
", 	c #555555",
"' 	c #393939",
") 	c #302E34",
"! 	c #3E3E3E",
"~ 	c #5B5A5B",
"{ 	c #6E6E6E",
"] 	c #3F3C59",
"^ 	c #715EC7",
"/ 	c #9E82F3",
"( 	c #B394FF",
"_ 	c #5A5B5A",
": 	c #3D3D3D",
"< 	c #545454",
"[ 	c #777777",
"} 	c #46436A",
"| 	c #604ED5",
"1 	c #7A64FA",
"2 	c #8F78FF",
"3 	c #9B84FF",
"4 	c #7A64FB",
"5 	c #604ED7",
"6 	c #46436B",
"7 	c #3B3B3B",
"8 	c #878787",
"9 	c #4F4F5C",
"0 	c #4236B4",
"a 	c #5043D8",
"b 	c #655AF3",
"c 	c #776DFF",
"d 	c #8278FE",
"e 	c #655AF5",
"f 	c #5043DB",
"g 	c #4236B7",
"h 	c #4F4F5D",
"i 	c #3A3A3A",
"j 	c #5A5A5A",
"k 	c #818181",
"l 	c #49468D",
"m 	c #2F29BA",
"n 	c #4041D3",
"o 	c #5558EA",
"p 	c #686CFA",
"q 	c #777AFE",
"r 	c #686DFB",
"s 	c #5559EC",
"t 	c #4142D6",
"u 	c #2F29BE",
"v 	c #494791",
"w 	c #383838",
"x 	c #7F7F7F",
"y 	c #717171",
"z 	c #302CA0",
"A 	c #252BBB",
"B 	c #3744D0",
"C 	c #505FE3",
"D 	c #747DF2",
"E 	c #8F93FA",
"F 	c #9195FB",
"G 	c #767EF4",
"H 	c #5160E6",
"I 	c #3745D3",
"J 	c #262BBF",
"K 	c #302CA5",
"L 	c #363636",
"M 	c #959595",
"N 	c #6C6C6D",
"O 	c #1510A7",
"P 	c #1F2CBC",
"Q 	c #3749D1",
"R 	c #5B6AE4",
"S 	c #848BF0",
"T 	c #BFC2F9",
"U 	c #C5C8FA",
"V 	c #8B91F2",
"W 	c #5C6CE6",
"X 	c #384AD4",
"Y 	c #1F2EC1",
"Z 	c #1511AD",
"` 	c #343434",
" .	c #9C9C9C",
"..	c #747475",
"+.	c #110EAA",
"@.	c #1F2DC0",
"#.	c #3C4BD6",
"$.	c #5F6DE7",
"%.	c #898FF1",
"&.	c #C1C4F9",
"*.	c #C0C3F9",
"=.	c #8A8FF2",
"-.	c #606EE9",
";.	c #3D4CDA",
">.	c #202EC5",
",.	c #110FB1",
"'.	c #9C9D9C",
").	c #323232",
"!.	c #919191",
"~.	c #8B8B8B",
"{.	c #3432AB",
"].	c #242AC7",
"^.	c #3F48DC",
"/.	c #5B65EB",
"(.	c #7D83F4",
"_.	c #9496F9",
":.	c #9395F9",
"<.	c #7E83F5",
"[.	c #5B66ED",
"}.	c #4049DF",
"|.	c #262BCC",
"1.	c #3433B2",
"2.	c #313131",
"3.	c #303030",
"4.	c #676767",
"5.	c #ADADAD",
"6.	c #6160A6",
"7.	c #2925CC",
"8.	c #4242E0",
"9.	c #5A5CED",
"0.	c #7172F6",
"a.	c #8383FC",
"b.	c #7173F6",
"c.	c #5B5DEE",
"d.	c #4343E3",
"e.	c #2A26D2",
"f.	c #6160AA",
"g.	c #2F2F2F",
"h.	c #BDBDBD",
"i.	c #8A8A93",
"j.	c #443ECA",
"k.	c #433AE1",
"l.	c #5B53ED",
"m.	c #7169F7",
"n.	c #867BFE",
"o.	c #877CFE",
"p.	c #726AF7",
"q.	c #5C54ED",
"r.	c #443BE2",
"s.	c #453ECF",
"t.	c #8A8A94",
"u.	c #2E2E2E",
"v.	c #2D2D2D",
"w.	c #6A6A6A",
"x.	c #C5C5C5",
"y.	c #8988A1",
"z.	c #5449D8",
"A.	c #5848E9",
"B.	c #6C5CF3",
"C.	c #7D6BFB",
"D.	c #7D6CFB",
"E.	c #6D5DF4",
"F.	c #5948E9",
"G.	c #2C2C2C",
"H.	c #2A2A2A",
"I.	c #828282",
"J.	c #CCCCCC",
"K.	c #9797A2",
"L.	c #7C76C9",
"M.	c #6B5BE4",
"N.	c #6A54F0",
"O.	c #6A55F0",
"P.	c #282828",
"Q.	c #6F6F6F",
"R.	c #D1D1D1",
"S.	c #CBCBCB",
"T.	c #9B9B9C",
"U.	c #262626",
"V.	c #757575",
"W.	c #B1B1B1",
"X.	c #C9C9C9",
"Y.	c #232323",
"Z.	c #202020",
"`.	c #1D1D1D",
" +	c #191919",
".+	c #151515",
". . . . . . . . . . . . . . . . . . . . ",
"+ + + + + + + + + + + + + + + + + + + + ",
"@ @ @ @ @ @ @ @ @ @ @ @ @ @ @ @ @ @ @ @ ",
"# # # # # # # # # # # # # # # # # # # # ",
"$ $ $ $ $ $ $ % & * = & % $ $ $ $ $ $ $ ",
"- - - - - ; > , ' ) ) ' , > ; - - - - - ",
"! ! ! ! ~ { ] ^ / ( ( / ^ ] { _ ! ! ! ! ",
": : : < [ } | 1 2 3 3 2 4 5 6 [ < : : : ",
"7 7 7 8 9 0 a b c d d c e f g h 8 7 7 7 ",
"i i j k l m n o p q q r s t u v k j i i ",
"w w x y z A B C D E F G H I J K y x w w ",
"L L M N O P Q R S T U V W X Y Z N M L L ",
"` `  ...+.@.#.$.%.&.*.=.-.;.>.,...'.` ` ",
").).!.~.{.].^./.(._.:.<.[.}.|.1.~.!.).).",
"2.3.4.5.6.7.8.9.0.a.a.b.c.d.e.f.5.4.3.3.",
"g.g.g.h.i.j.k.l.m.n.o.p.q.r.s.t.h.u.u.u.",
"v.v.v.w.x.y.z.A.B.C.D.E.F.z.y.x.w.v.G.G.",
"H.H.H.H.I.J.K.L.M.N.O.M.L.K.J.I.H.H.H.H.",
"P.P.P.P.P.Q.R.S.5.T.T.5.S.R.Q.P.P.P.P.P.",
"U.U.U.U.U.U.U.V.W.X.X.W.V.U.U.U.U.U.U.U.",
"Y.Y.Y.Y.Y.Y.Y.Y.Y.Y.Y.Y.Y.Y.Y.Y.Y.Y.Y.Y.",
"Z.Z.Z.Z.Z.Z.Z.Z.Z.Z.Z.Z.Z.Z.Z.Z.Z.Z.Z.Z.",
"`.`.`.`.`.`.`.`.`.`.`.`.`.`.`.`.`.`.`.`.",
" + + + + + + + + + + + + + + + + + + + +",
".+.+.+.+.+.+.+.+.+.+.+.+.+.+.+.+.+.+.+.+"};
