/* XPM */
static char * menu_prelight_xpm[] = {
"20 25 200 2",
"  	c None",
". 	c #131313",
"+ 	c #595959",
"@ 	c #444444",
"# 	c #434343",
"$ 	c #414141",
"% 	c #4C4C4C",
"& 	c #575757",
"* 	c #585757",
"= 	c #575758",
"- 	c #404040",
"; 	c #505050",
"> 	c #6F6F6F",
", 	c #7D739E",
"' 	c #9483BA",
") 	c #9482B9",
"! 	c #7B729D",
"~ 	c #6D6D6D",
"{ 	c #3E3E3E",
"] 	c #5B5A5B",
"^ 	c #797978",
"/ 	c #6C63A4",
"( 	c #8971F3",
"_ 	c #A588FF",
": 	c #B394FF",
"< 	c #8970F3",
"[ 	c #6860A3",
"} 	c #777777",
"| 	c #5A5B5A",
"1 	c #3D3D3D",
"2 	c #545454",
"3 	c #7F7F7F",
"4 	c #554CA4",
"5 	c #614CDE",
"6 	c #7A64FA",
"7 	c #8F78FF",
"8 	c #9B84FF",
"9 	c #7A64FB",
"0 	c #614DE0",
"a 	c #5249A6",
"b 	c #7E7E7E",
"c 	c #3B3B3B",
"d 	c #888888",
"e 	c #524F80",
"f 	c #3C2DBB",
"g 	c #5043D8",
"h 	c #655AF3",
"i 	c #776DFF",
"j 	c #8278FE",
"k 	c #655AF5",
"l 	c #5043DB",
"m 	c #3C2DBE",
"n 	c #4F4B80",
"o 	c #3A3A3A",
"p 	c #5A5A5A",
"q 	c #828282",
"r 	c #3024A1",
"s 	c #2F29BA",
"t 	c #4041D3",
"u 	c #5558EA",
"v 	c #686CFA",
"w 	c #777AFE",
"x 	c #686DFB",
"y 	c #5559EC",
"z 	c #4142D6",
"A 	c #2F29BE",
"B 	c #2F23A5",
"C 	c #808081",
"D 	c #383838",
"E 	c #5F5E7C",
"F 	c #1B12A4",
"G 	c #252BBB",
"H 	c #3744D0",
"I 	c #505FE3",
"J 	c #747DF2",
"K 	c #8F93FA",
"L 	c #9195FB",
"M 	c #767EF4",
"N 	c #5160E6",
"O 	c #3745D3",
"P 	c #262BBF",
"Q 	c #1B12A9",
"R 	c #5D5C7C",
"S 	c #363636",
"T 	c #959595",
"U 	c #393873",
"V 	c #1510A7",
"W 	c #1F2CBC",
"X 	c #3749D1",
"Y 	c #5B6AE4",
"Z 	c #848BF0",
"` 	c #BFC2F9",
" .	c #C5C8FA",
"..	c #8B91F2",
"+.	c #5C6CE6",
"@.	c #384AD4",
"#.	c #1F2EC1",
"$.	c #1511AD",
"%.	c #373676",
"&.	c #343434",
"*.	c #9C9C9C",
"=.	c #353474",
"-.	c #110EAA",
";.	c #1F2DC0",
">.	c #3C4BD6",
",.	c #5F6DE7",
"'.	c #898FF1",
").	c #C1C4F9",
"!.	c #C0C3F9",
"~.	c #8A8FF2",
"{.	c #606EE9",
"].	c #3D4CDA",
"^.	c #202EC5",
"/.	c #110FB1",
"(.	c #343378",
"_.	c #9C9D9C",
":.	c #323232",
"<.	c #919191",
"[.	c #666484",
"}.	c #0F09AE",
"|.	c #242AC7",
"1.	c #3F48DC",
"2.	c #5B65EB",
"3.	c #7D83F4",
"4.	c #9496F9",
"5.	c #9395F9",
"6.	c #7E83F5",
"7.	c #5B66ED",
"8.	c #4049DF",
"9.	c #262BCC",
"0.	c #100AB5",
"a.	c #656486",
"b.	c #313131",
"c.	c #303030",
"d.	c #676767",
"e.	c #9D9D9E",
"f.	c #2616B0",
"g.	c #2925CC",
"h.	c #4242E0",
"i.	c #5A5CED",
"j.	c #7172F6",
"k.	c #8383FC",
"l.	c #7173F6",
"m.	c #5B5DEE",
"n.	c #4343E3",
"o.	c #2A26D2",
"p.	c #2616B7",
"q.	c #9D9D9D",
"r.	c #2F2F2F",
"s.	c #BABABA",
"t.	c #494487",
"u.	c #2C1ECF",
"v.	c #433AE1",
"w.	c #5B53ED",
"x.	c #7169F7",
"y.	c #867BFE",
"z.	c #877CFE",
"A.	c #726AF7",
"B.	c #5C54ED",
"C.	c #443BE2",
"D.	c #2D1FD4",
"E.	c #49448B",
"F.	c #2E2E2E",
"G.	c #2D2D2D",
"H.	c #6A6A6A",
"I.	c #B9B9B9",
"J.	c #382BAA",
"K.	c #4130DD",
"L.	c #5848E9",
"M.	c #6C5CF3",
"N.	c #7D6BFB",
"O.	c #7D6CFB",
"P.	c #6D5DF4",
"Q.	c #5948E9",
"R.	c #4231DE",
"S.	c #382BAC",
"T.	c #2C2C2C",
"U.	c #2A2A2A",
"V.	c #C0C0C0",
"W.	c #524997",
"X.	c #543BDA",
"Y.	c #604AEA",
"Z.	c #6A54F0",
"`.	c #6A55F0",
" +	c #604BEA",
".+	c #553CDA",
"++	c #282828",
"@+	c #CDCDCD",
"#+	c #B5B4B5",
"$+	c #7B76A2",
"%+	c #463A9D",
"&+	c #262626",
"*+	c #757575",
"=+	c #B1B1B1",
"-+	c #C9C9C9",
";+	c #232323",
">+	c #202020",
",+	c #1D1D1D",
"'+	c #191919",
")+	c #151515",
". . . . . . . . . . . . . . . . . . . . ",
"+ + + + + + + + + + + + + + + + + + + + ",
"@ @ @ @ @ @ @ @ @ @ @ @ @ @ @ @ @ @ @ @ ",
"# # # # # # # # # # # # # # # # # # # # ",
"$ $ $ $ $ $ $ % & * = & % $ $ $ $ $ $ $ ",
"- - - - - ; > > , ' ) ! ~ > ; - - - - - ",
"{ { { { ] ^ / ( _ : : _ < [ } | { { { { ",
"1 1 1 2 3 4 5 6 7 8 8 7 9 0 a b 2 1 1 1 ",
"c c c d e f g h i j j i k l m n d c c c ",
"o o p q r s t u v w w x y z A B C p o o ",
"D D 3 E F G H I J K L M N O P Q R 3 D D ",
"S S T U V W X Y Z `  ...+.@.#.$.%.T S S ",
"&.&.*.=.-.;.>.,.'.).!.~.{.].^./.(._.&.&.",
":.:.<.[.}.|.1.2.3.4.5.6.7.8.9.0.a.<.:.:.",
"b.c.d.e.f.g.h.i.j.k.k.l.m.n.o.p.q.d.c.c.",
"r.r.r.s.t.u.v.w.x.y.z.A.B.C.D.E.s.F.F.F.",
"G.G.G.H.I.J.K.L.M.N.O.P.Q.R.S.I.H.G.T.T.",
"U.U.U.U.q V.W.X.Y.Z.`. +.+W.V.q U.U.U.U.",
"++++++++++> @+#+$+%+%+$+#+@+> ++++++++++",
"&+&+&+&+&+&+&+*+=+-+-+=+*+&+&+&+&+&+&+&+",
";+;+;+;+;+;+;+;+;+;+;+;+;+;+;+;+;+;+;+;+",
">+>+>+>+>+>+>+>+>+>+>+>+>+>+>+>+>+>+>+>+",
",+,+,+,+,+,+,+,+,+,+,+,+,+,+,+,+,+,+,+,+",
"'+'+'+'+'+'+'+'+'+'+'+'+'+'+'+'+'+'+'+'+",
")+)+)+)+)+)+)+)+)+)+)+)+)+)+)+)+)+)+)+)+"};
