/* XPM */
static char * top_right_active_xpm[] = {
"8 25 29 1",
" 	c None",
".	c #131313",
"+	c #595959",
"@	c #444444",
"#	c #434343",
"$	c #414141",
"%	c #404040",
"&	c #454545",
"*	c #3E3E3E",
"=	c #3D3D3D",
"-	c #3C3C3C",
";	c #3B3B3B",
">	c #3A3A3A",
",	c #393939",
"'	c #383838",
")	c #373737",
"!	c #363636",
"~	c #343434",
"{	c #323232",
"]	c #303030",
"^	c #2E2E2E",
"/	c #2C2C2C",
"(	c #292929",
"_	c #272727",
":	c #242424",
"<	c #222222",
"[	c #1E1E1E",
"}	c #1B1B1B",
"|	c #171717",
"...     ",
"+++..   ",
"@@@@@.  ",
"######. ",
"$$$$$$. ",
"%%%%%%&.",
"******&.",
"=====-&.",
";;;;;;&.",
">>>>,,&.",
"''')))&.",
"!!!!!!&.",
"~~~~~~&.",
"{{{{{{&.",
"]]]]]]&.",
"^^^^^^&.",
"//////&.",
"((((((&.",
"______&.",
"::::::&.",
"<<<<<<&.",
"[[[[[[&.",
"}}}}}}&.",
"||||||&.",
"......&."};
