/* XPM */
static char * top_right_active_xpm[] = {
"8 24 30 1",
" 	c None",
".	c #131313",
"+	c #595959",
"@	c #444444",
"#	c #434343",
"$	c #414141",
"%	c #404040",
"&	c #454545",
"*	c #3E3E3E",
"=	c #3C3C3C",
"-	c #3B3B3B",
";	c #3A3A3A",
">	c #393939",
",	c #383838",
"'	c #373737",
")	c #353535",
"!	c #333333",
"~	c #313131",
"{	c #2F2F2F",
"]	c #2C2C2C",
"^	c #2A2A2A",
"/	c #282828",
"(	c #252525",
"_	c #242424",
":	c #222222",
"<	c #212121",
"[	c #1F1F1F",
"}	c #1E1E1E",
"|	c #1B1B1B",
"1	c #171717",
"...     ",
"+++..   ",
"@@@@@.  ",
"######. ",
"$$$$$$. ",
"%%%%%%&.",
"******&.",
"======&.",
"---;;;&.",
">>,,,,&.",
"''''''&.",
"))))))&.",
"!!!!!!&.",
"~~~~~~&.",
"{{{{{{&.",
"]]]]]]&.",
"^^^^^^&.",
"//////&.",
"(((((_&.",
"::::<<&.",
"[[}}}}&.",
"||||||&.",
"111111&.",
"......&."};
