/* XPM */
static char * close_active_xpm[] = {
"20 25 213 2",
"  	c #131313",
". 	c #595959",
"+ 	c #444444",
"@ 	c #434343",
"# 	c #414141",
"$ 	c #3E3E3E",
"% 	c #333333",
"& 	c #2C2C2C",
"* 	c #404040",
"= 	c #393939",
"- 	c #2A2A2A",
"; 	c #484848",
"> 	c #6C615E",
", 	c #937970",
"' 	c #6A5F5C",
") 	c #454545",
"! 	c #292929",
"~ 	c #A26B65",
"{ 	c #E58A78",
"] 	c #FFA88F",
"^ 	c #FFB499",
"/ 	c #E58977",
"( 	c #A06761",
"_ 	c #3F3F3F",
": 	c #3D3D3D",
"< 	c #2E2E2E",
"[ 	c #504949",
"} 	c #B45C54",
"| 	c #ED6B5B",
"1 	c #FF8470",
"2 	c #FF9881",
"3 	c #FFA48B",
"4 	c #F06B5B",
"5 	c #B55951",
"6 	c #4C4545",
"7 	c #3B3B3B",
"8 	c #373737",
"9 	c #9D4A45",
"0 	c #CA473B",
"a 	c #E55C4D",
"b 	c #FC7260",
"c 	c #FF8571",
"d 	c #FF8F7A",
"e 	c #FD7261",
"f 	c #E85C4D",
"g 	c #CD473B",
"h 	c #9F4742",
"i 	c #3A3A3A",
"j 	c #313131",
"k 	c #764B49",
"l 	c #AF2A22",
"m 	c #C53A2F",
"n 	c #DD4C3F",
"o 	c #F55F50",
"p 	c #FF6E5D",
"q 	c #FF7866",
"r 	c #FF6E5E",
"s 	c #F65F50",
"t 	c #E04C3F",
"u 	c #C83A2F",
"v 	c #B32A22",
"w 	c #754745",
"x 	c #383838",
"y 	c #94332F",
"z 	c #AE201A",
"A 	c #C02D24",
"B 	c #D43B31",
"C 	c #E84B3E",
"D 	c #F9584A",
"E 	c #FE6051",
"F 	c #FF6051",
"G 	c #FA584A",
"H 	c #EB4B3E",
"I 	c #D73C31",
"J 	c #C42D24",
"K 	c #B2201A",
"L 	c #97312D",
"M 	c #363636",
"N 	c #353535",
"O 	c #514543",
"P 	c #9F110C",
"Q 	c #AD1812",
"R 	c #BC211A",
"S 	c #CD2D25",
"T 	c #E03E33",
"U 	c #EE4C3F",
"V 	c #F65446",
"W 	c #F75446",
"X 	c #F04C3F",
"Y 	c #E23E33",
"Z 	c #D12D25",
"` 	c #C1211A",
" .	c #B21812",
"..	c #A5110C",
"+.	c #4F4341",
"@.	c #343434",
"#.	c #5F3E3E",
"$.	c #A20C08",
"%.	c #AE110C",
"&.	c #BC1A14",
"*.	c #CE2C24",
"=.	c #DF3E33",
"-.	c #EA4B3E",
";.	c #F15244",
">.	c #EC4B3E",
",.	c #E13E33",
"'.	c #D22D25",
").	c #C11B15",
"!.	c #B3110C",
"~.	c #A80C08",
"{.	c #603C3C",
"].	c #323232",
"^.	c #5F3C3C",
"/.	c #A50806",
"(.	c #B00D09",
"_.	c #C21F19",
":.	c #D43329",
"<.	c #E24438",
"[.	c #EC5143",
"}.	c #F15849",
"|.	c #ED5143",
"1.	c #E44438",
"2.	c #D8332A",
"3.	c #C82019",
"4.	c #B60E0A",
"5.	c #AB0806",
"6.	c #613B3B",
"7.	c #4E423F",
"8.	c #A90503",
"9.	c #B7110C",
"0.	c #CA261F",
"a.	c #DB3B31",
"b.	c #E74D40",
"c.	c #F05B4D",
"d.	c #F56354",
"e.	c #F15C4D",
"f.	c #EA4E41",
"g.	c #DE3B31",
"h.	c #D02720",
"i.	c #BE120D",
"j.	c #B00503",
"k.	c #4F413E",
"l.	c #303030",
"m.	c #2F2F2F",
"n.	c #9E2722",
"o.	c #BF1611",
"p.	c #D22D24",
"q.	c #E14237",
"r.	c #ED5748",
"s.	c #F46858",
"t.	c #FA7462",
"u.	c #ED5749",
"v.	c #E34337",
"w.	c #D62D25",
"x.	c #C61711",
"y.	c #A52721",
"z.	c #2D2D2D",
"A.	c #763934",
"B.	c #C51813",
"C.	c #D63027",
"D.	c #E4463A",
"E.	c #EE5D4E",
"F.	c #F77261",
"G.	c #FE8571",
"H.	c #F87361",
"I.	c #EE5D4F",
"J.	c #E4483B",
"K.	c #DA3128",
"L.	c #CB1A14",
"M.	c #7A3834",
"N.	c #A8332A",
"O.	c #D82F26",
"P.	c #E3463A",
"Q.	c #ED5C4E",
"R.	c #FE8672",
"S.	c #FE8772",
"T.	c #F77361",
"U.	c #ED5D4E",
"V.	c #E3473B",
"W.	c #D93027",
"X.	c #AC332A",
"Y.	c #282828",
"Z.	c #4C4643",
"`.	c #B23A2F",
" +	c #DF4034",
".+	c #E95446",
"++	c #F16656",
"@+	c #F67361",
"#+	c #F77362",
"$+	c #F16757",
"%+	c #E95547",
"&+	c #E04035",
"*+	c #B33B2F",
"=+	c #4C4644",
"-+	c #262626",
";+	c #464646",
">+	c #4B4B4B",
",+	c #894137",
"'+	c #CB4B3C",
")+	c #CB4C3D",
"!+	c #232323",
"~+	c #3C3C3C",
"{+	c #565656",
"]+	c #4F4F4F",
"^+	c #5B4C46",
"/+	c #7E4844",
"(+	c #7E4845",
"_+	c #202020",
":+	c #474747",
"<+	c #555555",
"[+	c #1D1D1D",
"}+	c #191919",
"|+	c #151515",
"                                        ",
". . . . . . . . . . . . . . . . . . . . ",
"+ + + + + + + + + + + + + + + + + + + + ",
"@ @ @ @ @ @ @ @ @ @ @ @ @ @ @ @ @ @ @ @ ",
"# # # # # # # $ % & & % $ # # # # # # # ",
"* * * * * = - ; > , , ' ) ! = * * * * * ",
"$ $ $ $ & @ ~ { ] ^ ^ ] / ( _ & $ $ $ $ ",
": : : < [ } | 1 2 3 3 2 1 4 5 6 < : : : ",
"7 7 8 $ 9 0 a b c d d c e f g h 7 8 7 7 ",
"i i j k l m n o p q q r s t u v w j i i ",
"x x : y z A B C D E F G H I J K L 7 x x ",
"M N O P Q R S T U V W X Y Z `  ...+.N M ",
"@.N #.$.%.&.*.=.-.;.;.>.,.'.).!.~.{.N @.",
"].8 ^./.(._.:.<.[.}.}.|.1.2.3.4.5.6.8 ].",
"j x 7.8.9.0.a.b.c.d.d.e.f.g.h.i.j.k.x l.",
"m.@.* n.o.p.q.r.s.t.t.s.u.v.w.x.y.* % < ",
"z.z.+ A.B.C.D.E.F.G.G.H.I.J.K.L.M.+ & & ",
"- - x + N.O.P.Q.F.R.S.T.U.V.W.X.+ x - - ",
"Y.Y.Y.+ Z.`. +.+++@+#+$+%+&+*+=++ Y.Y.Y.",
"-+-+-+-+;+>+,+'+%+U.U.%+)+,+>+;+-+-+-+-+",
"!+!+!+!+!+~+{+]+^+/+(+^+]+{+~+!+!+!+!+!+",
"_+_+_+_+_+_+_+N :+<+<+:+N _+_+_+_+_+_+_+",
"[+[+[+[+[+[+[+[+[+[+[+[+[+[+[+[+[+[+[+[+",
"}+}+}+}+}+}+}+}+}+}+}+}+}+}+}+}+}+}+}+}+",
"|+|+|+|+|+|+|+|+|+|+|+|+|+|+|+|+|+|+|+|+"};
