/* XPM */
static char * close_prelight_xpm[] = {
"20 25 209 2",
"  	c #131313",
". 	c #595959",
"+ 	c #444444",
"@ 	c #434343",
"# 	c #414141",
"$ 	c #3E3E3E",
"% 	c #333333",
"& 	c #2C2C2C",
"* 	c #404040",
"= 	c #393939",
"- 	c #2A2A2A",
"; 	c #484848",
"> 	c #6C615E",
", 	c #937970",
"' 	c #6A5F5C",
") 	c #454545",
"! 	c #292929",
"~ 	c #A26B65",
"{ 	c #E58A78",
"] 	c #FFA88F",
"^ 	c #FFB499",
"/ 	c #E58977",
"( 	c #A06761",
"_ 	c #3F3F3F",
": 	c #3D3D3D",
"< 	c #2E2E2E",
"[ 	c #504949",
"} 	c #B45C54",
"| 	c #ED6B5B",
"1 	c #FF8470",
"2 	c #FF9881",
"3 	c #FFA48B",
"4 	c #F06B5B",
"5 	c #B55951",
"6 	c #4C4545",
"7 	c #3B3B3B",
"8 	c #373737",
"9 	c #9D4A45",
"0 	c #CA473B",
"a 	c #E55C4D",
"b 	c #FC7260",
"c 	c #FF8571",
"d 	c #FF8F7A",
"e 	c #FD7261",
"f 	c #E85C4D",
"g 	c #CD473B",
"h 	c #9F4742",
"i 	c #3A3A3A",
"j 	c #313131",
"k 	c #764B49",
"l 	c #AF2A22",
"m 	c #C53A2F",
"n 	c #C74539",
"o 	c #C54E42",
"p 	c #E76657",
"q 	c #FF7866",
"r 	c #E76656",
"s 	c #C74E42",
"t 	c #CB453A",
"u 	c #C83A2F",
"v 	c #B32A22",
"w 	c #754745",
"x 	c #383838",
"y 	c #94332F",
"z 	c #AE201A",
"A 	c #C02D24",
"B 	c #C9372E",
"C 	c #411816",
"D 	c #5F2621",
"E 	c #F85E4F",
"F 	c #F65D4E",
"G 	c #54221E",
"H 	c #4C1A18",
"I 	c #CF382F",
"J 	c #C42D24",
"K 	c #B2201A",
"L 	c #97312D",
"M 	c #363636",
"N 	c #353535",
"O 	c #514543",
"P 	c #9F110C",
"Q 	c #AD1812",
"R 	c #BC211A",
"S 	c #CD2D25",
"T 	c #B93129",
"U 	c #9D362E",
"V 	c #96342C",
"W 	c #BE322A",
"X 	c #D12D25",
"Y 	c #C1211A",
"Z 	c #B21812",
"` 	c #A5110C",
" .	c #4F4341",
"..	c #343434",
"+.	c #5F3E3E",
"@.	c #A20C08",
"#.	c #AE110C",
"$.	c #BC1A14",
"%.	c #CE2C24",
"&.	c #DF3E33",
"*.	c #8D2C26",
"=.	c #962F28",
"-.	c #E13E33",
";.	c #D22D25",
">.	c #C11B15",
",.	c #B3110C",
"'.	c #A80C08",
").	c #603C3C",
"!.	c #323232",
"~.	c #5F3C3C",
"{.	c #A50806",
"].	c #B00D09",
"^.	c #C21F19",
"/.	c #D43329",
"(.	c #E24438",
"_.	c #C04035",
":.	c #C44136",
"<.	c #E44438",
"[.	c #D8332A",
"}.	c #C82019",
"|.	c #B60E0A",
"1.	c #AB0806",
"2.	c #613B3B",
"3.	c #4E423F",
"4.	c #A90503",
"5.	c #B7110C",
"6.	c #CA261F",
"7.	c #DB3B31",
"8.	c #DD493C",
"9.	c #481D1A",
"0.	c #5A2722",
"a.	c #4F231F",
"b.	c #511F1C",
"c.	c #E14A3E",
"d.	c #DE3B31",
"e.	c #D02720",
"f.	c #BE120D",
"g.	c #B00503",
"h.	c #4F413E",
"i.	c #303030",
"j.	c #2F2F2F",
"k.	c #9E2722",
"l.	c #BF1611",
"m.	c #D22D24",
"n.	c #E14237",
"o.	c #892F28",
"p.	c #D76555",
"q.	c #D46454",
"r.	c #8E3129",
"s.	c #E34337",
"t.	c #D62D25",
"u.	c #C61711",
"v.	c #A52721",
"w.	c #2D2D2D",
"x.	c #763934",
"y.	c #C51813",
"z.	c #D63027",
"A.	c #B8362D",
"B.	c #A44E42",
"C.	c #FE8571",
"D.	c #9E4C40",
"E.	c #BD392F",
"F.	c #DA3128",
"G.	c #CB1A14",
"H.	c #7A3834",
"I.	c #A8332A",
"J.	c #D82F26",
"K.	c #E3463A",
"L.	c #ED5C4E",
"M.	c #F77261",
"N.	c #FE8672",
"O.	c #FE8772",
"P.	c #F77361",
"Q.	c #ED5D4E",
"R.	c #E3473B",
"S.	c #D93027",
"T.	c #AC332A",
"U.	c #282828",
"V.	c #4C4643",
"W.	c #B23A2F",
"X.	c #DF4034",
"Y.	c #E95446",
"Z.	c #F16656",
"`.	c #F67361",
" +	c #F77362",
".+	c #F16757",
"++	c #E95547",
"@+	c #E04035",
"#+	c #B33B2F",
"$+	c #4C4644",
"%+	c #262626",
"&+	c #464646",
"*+	c #4B4B4B",
"=+	c #894137",
"-+	c #CB4B3C",
";+	c #CB4C3D",
">+	c #232323",
",+	c #3C3C3C",
"'+	c #565656",
")+	c #4F4F4F",
"!+	c #5B4C46",
"~+	c #7E4844",
"{+	c #7E4845",
"]+	c #202020",
"^+	c #474747",
"/+	c #555555",
"(+	c #1D1D1D",
"_+	c #191919",
":+	c #151515",
"                                        ",
". . . . . . . . . . . . . . . . . . . . ",
"+ + + + + + + + + + + + + + + + + + + + ",
"@ @ @ @ @ @ @ @ @ @ @ @ @ @ @ @ @ @ @ @ ",
"# # # # # # # $ % & & % $ # # # # # # # ",
"* * * * * = - ; > , , ' ) ! = * * * * * ",
"$ $ $ $ & @ ~ { ] ^ ^ ] / ( _ & $ $ $ $ ",
": : : < [ } | 1 2 3 3 2 1 4 5 6 < : : : ",
"7 7 8 $ 9 0 a b c d d c e f g h 7 8 7 7 ",
"i i j k l m n o p q q r s t u v w j i i ",
"x x : y z A B C D E F G H I J K L 7 x x ",
"M N O P Q R S T   U V   W X Y Z `  .N M ",
"..N +.@.#.$.%.&.*.    =.-.;.>.,.'.).N ..",
"!.8 ~.{.].^./.(._.    :.<.[.}.|.1.2.8 !.",
"j x 3.4.5.6.7.8.9.0.a.b.c.d.e.f.g.h.x i.",
"j...* k.l.m.n.o.  p.q.  r.s.t.u.v.* % < ",
"w.w.+ x.y.z.A.  B.C.C.D.  E.F.G.H.+ & & ",
"- - x + I.J.K.L.M.N.O.P.Q.R.S.T.+ x - - ",
"U.U.U.+ V.W.X.Y.Z.`. +.+++@+#+$++ U.U.U.",
"%+%+%+%+&+*+=+-+++Q.Q.++;+=+*+&+%+%+%+%+",
">+>+>+>+>+,+'+)+!+~+{+!+)+'+,+>+>+>+>+>+",
"]+]+]+]+]+]+]+N ^+/+/+^+N ]+]+]+]+]+]+]+",
"(+(+(+(+(+(+(+(+(+(+(+(+(+(+(+(+(+(+(+(+",
"_+_+_+_+_+_+_+_+_+_+_+_+_+_+_+_+_+_+_+_+",
":+:+:+:+:+:+:+:+:+:+:+:+:+:+:+:+:+:+:+:+"};
