/* XPM */
static char * close_pressed_xpm[] = {
"20 25 198 2",
"  	c #131313",
". 	c #595959",
"+ 	c #444444",
"@ 	c #434343",
"# 	c #414141",
"$ 	c #3E3E3E",
"% 	c #333333",
"& 	c #2C2C2C",
"* 	c #404040",
"= 	c #393939",
"- 	c #202020",
"; 	c #111111",
"> 	c #1A1919",
", 	c #21201F",
"' 	c #141414",
") 	c #403231",
"! 	c #A86558",
"~ 	c #D88F7B",
"{ 	c #E9A48C",
"] 	c #403230",
"^ 	c #3D3D3D",
"/ 	c #2E2E2E",
"( 	c #232323",
"_ 	c #754744",
": 	c #E06859",
"< 	c #FF8470",
"[ 	c #FF9983",
"} 	c #FFA68E",
"| 	c #FF9A83",
"1 	c #E26859",
"2 	c #764744",
"3 	c #3B3B3B",
"4 	c #373737",
"5 	c #272727",
"6 	c #6F4B4A",
"7 	c #C8483D",
"8 	c #E65F51",
"9 	c #FC7969",
"0 	c #FF8D7C",
"a 	c #FF9886",
"b 	c #FD796A",
"c 	c #E85F51",
"d 	c #CB483D",
"e 	c #704B4A",
"f 	c #3A3A3A",
"g 	c #2F2F2F",
"h 	c #534E4E",
"i 	c #A83732",
"j 	c #C53F36",
"k 	c #C95148",
"l 	c #C65B52",
"m 	c #E77A6F",
"n 	c #FF9083",
"o 	c #C75B52",
"p 	c #CC5249",
"q 	c #C93F36",
"r 	c #AC3732",
"s 	c #383838",
"t 	c #805352",
"u 	c #AE221C",
"v 	c #C2413C",
"w 	c #CD5752",
"x 	c #422221",
"y 	c #5F322F",
"z 	c #F88981",
"A 	c #F68780",
"B 	c #542D2B",
"C 	c #4D2625",
"D 	c #D25853",
"E 	c #C6413C",
"F 	c #B2221C",
"G 	c #835352",
"H 	c #363636",
"I 	c #353535",
"J 	c #545454",
"K 	c #944544",
"L 	c #AE2320",
"M 	c #C04542",
"N 	c #D36260",
"O 	c #BD6360",
"P 	c #9E5A57",
"Q 	c #975653",
"R 	c #C36562",
"S 	c #D66260",
"T 	c #C44542",
"U 	c #B32320",
"V 	c #984544",
"W 	c #343434",
"X 	c #626262",
"Y 	c #9C3A3A",
"Z 	c #AF2523",
"` 	c #C14948",
" .	c #D56966",
"..	c #E57F7B",
"+.	c #905451",
"@.	c #995856",
"#.	c #E77F7B",
"$.	c #D86967",
"%.	c #C54A48",
"&.	c #B42523",
"*.	c #A13A3A",
"=.	c #323232",
"-.	c #696969",
";.	c #9F3D3D",
">.	c #B22322",
",.	c #C74C4A",
"'.	c #DA6C69",
").	c #E7827E",
"!.	c #C47571",
"~.	c #C87673",
"{.	c #E9827E",
"].	c #DD6C69",
"^.	c #CB4C4A",
"/.	c #B82422",
"(.	c #A53D3D",
"_.	c #313131",
":.	c #A05050",
"<.	c #B81F1C",
"[.	c #CD4946",
"}.	c #DF6B67",
"|.	c #E17B76",
"1.	c #4A2C2A",
"2.	c #5A3835",
"3.	c #50322F",
"4.	c #52302F",
"5.	c #E57D78",
"6.	c #E26B67",
"7.	c #D24A47",
"8.	c #BF1F1D",
"9.	c #A55050",
"0.	c #303030",
"a.	c #5F5F5F",
"b.	c #986E6E",
"c.	c #BF1914",
"d.	c #D3413D",
"e.	c #E3655F",
"f.	c #8B4743",
"g.	c #D8857D",
"h.	c #D5837B",
"i.	c #904945",
"j.	c #E66560",
"k.	c #D7423D",
"l.	c #C61A15",
"m.	c #9C6E6E",
"n.	c #2D2D2D",
"o.	c #4B4B4B",
"p.	c #858282",
"q.	c #BF413F",
"r.	c #D7362F",
"s.	c #B9453E",
"t.	c #A45E56",
"u.	c #FE9D8F",
"v.	c #9E5B53",
"w.	c #BE4841",
"x.	c #DA372F",
"y.	c #C5413F",
"z.	c #868282",
"A.	c #2A2A2A",
"B.	c #A08484",
"C.	c #D63932",
"D.	c #E34A3F",
"E.	c #EE675B",
"F.	c #F78072",
"G.	c #FE9383",
"H.	c #FE9483",
"I.	c #EE685B",
"J.	c #E44B40",
"K.	c #D73A33",
"L.	c #A18484",
"M.	c #282828",
"N.	c #787878",
"O.	c #A78A89",
"P.	c #D85751",
"Q.	c #E95547",
"R.	c #F16859",
"S.	c #F67666",
"T.	c #F77766",
"U.	c #F1695A",
"V.	c #E95648",
"W.	c #D95852",
"X.	c #262626",
"Y.	c #464646",
"Z.	c #757575",
"`.	c #979393",
" +	c #BC8785",
".+	c #D67670",
"++	c #E17067",
"@+	c #E17167",
"#+	c #D67770",
"$+	c #3C3C3C",
"%+	c #7C7C7C",
"&+	c #8C8C8C",
"*+	c #929292",
"=+	c #474747",
"-+	c #555555",
";+	c #1D1D1D",
">+	c #191919",
",+	c #151515",
"                                        ",
". . . . . . . . . . . . . . . . . . . . ",
"+ + + + + + + + + + + + + + + + + + + + ",
"@ @ @ @ @ @ @ @ @ @ @ @ @ @ @ @ @ @ @ @ ",
"# # # # # # # $ % & & % $ # # # # # # # ",
"* * * * * = - ; > , , > ; - = * * * * * ",
"$ $ $ $ & ' ) ! ~ { { ~ ! ] ' & $ $ $ $ ",
"^ ^ ^ / ( _ : < [ } } | < 1 2 ( / ^ ^ ^ ",
"3 3 4 5 6 7 8 9 0 a a 0 b c d e 5 4 3 3 ",
"f f g h i j k l m n n m o p q r h g f f ",
"s s ^ t u v w x y z A B C D E F G ^ s s ",
"H I J K L M N O   P Q   R S T U V J I H ",
"W I X Y Z `  ...+.    @.#.$.%.&.*.X I W ",
"=.4 -.;.>.,.'.).!.    ~.{.].^./.(.-.4 =.",
"_.s -.:.<.[.}.|.1.2.3.4.5.6.7.8.9.-.s 0.",
"g W a.b.c.d.e.f.  g.h.  i.j.k.l.m.a.% / ",
"n.n.o.p.q.r.s.  t.u.u.v.  w.x.y.z.o.& & ",
"A.A.s -.B.C.D.E.F.G.H.F.I.J.K.L.-.s A.A.",
"M.M.M.+ N.O.P.Q.R.S.T.U.V.W.O.N.+ M.M.M.",
"X.X.X.X.Y.Z.`. +.+++@+#+ +`.Z.Y.X.X.X.X.",
"( ( ( ( ( $+a.%+&+*+*+&+%+a.$+( ( ( ( ( ",
"- - - - - - - I =+-+-+=+I - - - - - - - ",
";+;+;+;+;+;+;+;+;+;+;+;+;+;+;+;+;+;+;+;+",
">+>+>+>+>+>+>+>+>+>+>+>+>+>+>+>+>+>+>+>+",
",+,+,+,+,+,+,+,+,+,+,+,+,+,+,+,+,+,+,+,+"};
