/* XPM */
static char * hide_active_xpm[] = {
"20 25 192 2",
"  	c #131313",
". 	c #595959",
"+ 	c #444444",
"@ 	c #434343",
"# 	c #414141",
"$ 	c #3E3E3E",
"% 	c #333333",
"& 	c #2C2C2C",
"* 	c #404040",
"= 	c #393939",
"- 	c #2A2A2A",
"; 	c #484848",
"> 	c #6B6760",
", 	c #93927A",
"' 	c #939279",
") 	c #69655E",
"! 	c #454545",
"~ 	c #292929",
"{ 	c #A6886A",
"] 	c #E5C98A",
"^ 	c #FFF5AA",
"/ 	c #FFFFB6",
"( 	c #E5C88A",
"_ 	c #A48567",
": 	c #3F3F3F",
"< 	c #3D3D3D",
"[ 	c #2E2E2E",
"} 	c #514B49",
"| 	c #D48E5B",
"1 	c #FFBC6D",
"2 	c #FFD686",
"3 	c #FFEB9B",
"4 	c #FFF7A6",
"5 	c #D38D59",
"6 	c #4D4644",
"7 	c #3B3B3B",
"8 	c #373737",
"9 	c #C27949",
"0 	c #F89A48",
"a 	c #FFB25E",
"b 	c #FFC975",
"c 	c #FFDD88",
"d 	c #FFE893",
"e 	c #F89A49",
"f 	c #C17846",
"g 	c #3A3A3A",
"h 	c #313131",
"i 	c #8B5F49",
"j 	c #DC802C",
"k 	c #EC923C",
"l 	c #FBA64F",
"m 	c #FFBB62",
"n 	c #FFCC73",
"o 	c #FFD67D",
"p 	c #895C45",
"q 	c #383838",
"r 	c #B66B31",
"s 	c #D27B23",
"t 	c #DF8A30",
"u 	c #ED9B40",
"v 	c #FBAC4F",
"w 	c #FFBB5D",
"x 	c #FFC364",
"y 	c #FBAC50",
"z 	c #DF8A31",
"A 	c #D37B23",
"B 	c #B66A30",
"C 	c #363636",
"D 	c #353535",
"E 	c #534843",
"F 	c #C36E14",
"G 	c #CA781C",
"H 	c #D38426",
"I 	c #DE9231",
"J 	c #EAA33B",
"K 	c #F4B144",
"L 	c #F9B94A",
"M 	c #EAA33C",
"N 	c #514641",
"O 	c #343434",
"P 	c #6C4E3E",
"Q 	c #BE6D11",
"R 	c #C37616",
"S 	c #CA811D",
"T 	c #D49325",
"U 	c #DEA430",
"V 	c #E6B039",
"W 	c #EAB63E",
"X 	c #D59426",
"Y 	c #CA821D",
"Z 	c #C37617",
"` 	c #6B4C3C",
" .	c #323232",
"..	c #6A4D3C",
"+.	c #BA6D0E",
"@.	c #BE7612",
"#.	c #C78818",
"$.	c #D09A23",
"%.	c #D8A930",
"&.	c #DEB43C",
"*.	c #E2BA44",
"=.	c #DFB43D",
"-.	c #D9A931",
";.	c #6A4C3B",
">.	c #50453F",
",.	c #B76F0C",
"'.	c #BD7C10",
").	c #C69019",
"!.	c #CFA228",
"~.	c #D7B13A",
"{.	c #DDBC4D",
"].	c #E0C359",
"^.	c #E1C35A",
"/.	c #DDBD4E",
"(.	c #D7B13B",
"_.	c #CFA229",
":.	c #B76F0D",
"<.	c #4F453F",
"[.	c #303030",
"}.	c #2F2F2F",
"|.	c #A46A24",
"1.	c #BD8310",
"2.	c #C7971C",
"3.	c #D0A930",
"4.	c #D8B949",
"5.	c #DFC765",
"6.	c #E4CF7B",
"7.	c #E4CF7C",
"8.	c #DFC766",
"9.	c #D8BA4A",
"0.	c #D0AA30",
"a.	c #C7971D",
"b.	c #2D2D2D",
"c.	c #775635",
"d.	c #BD8711",
"e.	c #C79B1F",
"f.	c #D0AE36",
"g.	c #D9BF55",
"h.	c #E2CF7B",
"i.	c #E9DBA2",
"j.	c #E9DBA4",
"k.	c #E2CF7C",
"l.	c #D9C056",
"m.	c #D0AF37",
"n.	c #C79C20",
"o.	c #BD8811",
"p.	c #9F772A",
"q.	c #C69D1F",
"r.	c #CFB036",
"s.	c #D8C156",
"t.	c #E1D17D",
"u.	c #E9DDA7",
"v.	c #E9DEA9",
"w.	c #E1D17E",
"x.	c #D9C257",
"y.	c #D0B137",
"z.	c #C69E20",
"A.	c #A0782A",
"B.	c #282828",
"C.	c #4C4844",
"D.	c #A4852D",
"E.	c #CCAE30",
"F.	c #D4BE4A",
"G.	c #DCCB68",
"H.	c #E1D480",
"I.	c #DCCB69",
"J.	c #D5BE4B",
"K.	c #CCAE31",
"L.	c #A4862D",
"M.	c #262626",
"N.	c #464646",
"O.	c #4B4B4B",
"P.	c #7F6E36",
"Q.	c #B9A43C",
"R.	c #D4C24C",
"S.	c #D8C95A",
"T.	c #D5C24D",
"U.	c #BAA53D",
"V.	c #7F6E37",
"W.	c #232323",
"X.	c #3C3C3C",
"Y.	c #565656",
"Z.	c #4F4F4F",
"`.	c #575446",
" +	c #756F45",
".+	c #756F46",
"++	c #202020",
"@+	c #474747",
"#+	c #555555",
"$+	c #1D1D1D",
"%+	c #191919",
"&+	c #151515",
"                                        ",
". . . . . . . . . . . . . . . . . . . . ",
"+ + + + + + + + + + + + + + + + + + + + ",
"@ @ @ @ @ @ @ @ @ @ @ @ @ @ @ @ @ @ @ @ ",
"# # # # # # # $ % & & % $ # # # # # # # ",
"* * * * * = - ; > , ' ) ! ~ = * * * * * ",
"$ $ $ $ & @ { ] ^ / / ^ ( _ : & $ $ $ $ ",
"< < < [ } | 1 2 3 4 4 3 2 1 5 6 [ < < < ",
"7 7 8 $ 9 0 a b c d d c b a e f 7 8 7 7 ",
"g g h i j k l m n o o n m l k j p h g g ",
"q q < r s t u v w x x w y u z A B 7 q q ",
"C D E F G H I J K L L K M I H G F N D C ",
"O D P Q R S T U V W W V U X Y Z Q ` D O ",
" .8 ..+.@.#.$.%.&.*.*.=.-.$.#.@.+.;.8  .",
"h q >.,.'.).!.~.{.].^./.(._.).'.:.<.q [.",
"}.O * |.1.2.3.4.5.6.7.8.9.0.a.1.|.* % [ ",
"b.b.+ c.d.e.f.g.h.i.j.k.l.m.n.o.c.+ & & ",
"- - q + p.q.r.s.t.u.v.w.x.y.z.A.+ q - - ",
"B.B.B.+ C.D.E.F.G.H.H.I.J.K.L.C.+ B.B.B.",
"M.M.M.M.N.O.P.Q.R.S.S.T.U.V.O.N.M.M.M.M.",
"W.W.W.W.W.X.Y.Z.`. +.+`.Z.Y.X.W.W.W.W.W.",
"++++++++++++++D @+#+#+@+D ++++++++++++++",
"$+$+$+$+$+$+$+$+$+$+$+$+$+$+$+$+$+$+$+$+",
"%+%+%+%+%+%+%+%+%+%+%+%+%+%+%+%+%+%+%+%+",
"&+&+&+&+&+&+&+&+&+&+&+&+&+&+&+&+&+&+&+&+"};
