/* XPM */
static char * hide_pressed_xpm[] = {
"20 25 165 2",
"  	c #131313",
". 	c #595959",
"+ 	c #444444",
"@ 	c #434343",
"# 	c #414141",
"$ 	c #3E3E3E",
"% 	c #333333",
"& 	c #2C2C2C",
"* 	c #404040",
"= 	c #393939",
"- 	c #202020",
"; 	c #0F0F0F",
"> 	c #171717",
", 	c #1D1D1D",
"' 	c #3E3831",
") 	c #A79365",
"! 	c #D8CF90",
"~ 	c #E9E8A6",
"{ 	c #3D3D3D",
"] 	c #2E2E2E",
"^ 	c #222222",
"/ 	c #866047",
"( 	c #EFB16A",
"_ 	c #FFD687",
": 	c #FFEB9D",
"< 	c #FFF7AA",
"[ 	c #3B3B3B",
"} 	c #373737",
"| 	c #272727",
"1 	c #815E4B",
"2 	c #F4984A",
"3 	c #FFB364",
"4 	c #FFCD82",
"5 	c #FFE098",
"6 	c #FFEBA3",
"7 	c #3A3A3A",
"8 	c #2F2F2F",
"9 	c #55504E",
"0 	c #D07D39",
"a 	c #EC9545",
"b 	c #FCAF6A",
"c 	c #FFC685",
"d 	c #FFD79B",
"e 	c #FFE0A5",
"f 	c #FFC686",
"g 	c #EC9546",
"h 	c #383838",
"i 	c #956A53",
"j 	c #D37C27",
"k 	c #E19451",
"l 	c #F0AD75",
"m 	c #FCC392",
"n 	c #FFD2A4",
"o 	c #FFD9AD",
"p 	c #FFDAAD",
"q 	c #956A54",
"r 	c #363636",
"s 	c #353535",
"t 	c #545454",
"u 	c #AE7046",
"v 	c #CB7C2E",
"w 	c #D7945C",
"x 	c #E5AF82",
"y 	c #F1C49B",
"z 	c #F8D3AC",
"A 	c #FCDAB5",
"B 	c #343434",
"C 	c #626262",
"D 	c #B4713C",
"E 	c #C57C34",
"F 	c #885D38",
"G 	c #0B0F11",
"H 	c #0A0D10",
"I 	c #090C0F",
"J 	c #090C0E",
"K 	c #875D38",
"L 	c #323232",
"M 	c #696969",
"N 	c #B1733F",
"O 	c #C07C32",
"P 	c #8F693E",
"Q 	c #4F4331",
"R 	c #52493A",
"S 	c #554E40",
"T 	c #565145",
"U 	c #554E41",
"V 	c #4F4231",
"W 	c #8F693D",
"X 	c #313131",
"Y 	c #AA7851",
"Z 	c #BE7F28",
"` 	c #CD9F5C",
" .	c #DBBB85",
"..	c #E5CE9F",
"+.	c #EBDAB2",
"@.	c #EFE1BE",
"#.	c #BE8028",
"$.	c #303030",
"%.	c #606060",
"&.	c #9B816F",
"*.	c #BD8317",
"=.	c #CA9F4A",
"-.	c #D8BA77",
";.	c #E3CE96",
">.	c #EADBAC",
",.	c #EEE2BA",
"'.	c #EADBAD",
").	c #D8BB77",
"!.	c #CAA04A",
"~.	c #BE8417",
"{.	c #2D2D2D",
"].	c #4B4B4B",
"^.	c #868483",
"/.	c #B88A3F",
"(.	c #C89E2F",
"_.	c #D4B65F",
":.	c #E0CC87",
"<.	c #E9DBA6",
"[.	c #EFE5C1",
"}.	c #EFE5C2",
"|.	c #E9DCA7",
"1.	c #D5B75F",
"2.	c #C89E30",
"3.	c #B98B3F",
"4.	c #2A2A2A",
"5.	c #6A6A6A",
"6.	c #9C9184",
"7.	c #C59D2E",
"8.	c #D0B241",
"9.	c #DBC66B",
"0.	c #E5D693",
"a.	c #ECE2B7",
"b.	c #ECE3B8",
"c.	c #E5D794",
"d.	c #DBC66C",
"e.	c #C59E2E",
"f.	c #282828",
"g.	c #787878",
"h.	c #A2998A",
"i.	c #C7AC4F",
"j.	c #D5BE4C",
"k.	c #DCCC6C",
"l.	c #E2D585",
"m.	c #E2D586",
"n.	c #DDCC6E",
"o.	c #D5BE4D",
"p.	c #C7AD50",
"q.	c #262626",
"r.	c #464646",
"s.	c #757575",
"t.	c #979694",
"u.	c #B3A986",
"v.	c #C6B973",
"w.	c #CFC36F",
"x.	c #C7BA74",
"y.	c #232323",
"z.	c #3C3C3C",
"A.	c #5F5F5F",
"B.	c #7D7D7D",
"C.	c #8D8D8D",
"D.	c #939393",
"E.	c #474747",
"F.	c #555555",
"G.	c #191919",
"H.	c #151515",
"                                        ",
". . . . . . . . . . . . . . . . . . . . ",
"+ + + + + + + + + + + + + + + + + + + + ",
"@ @ @ @ @ @ @ @ @ @ @ @ @ @ @ @ @ @ @ @ ",
"# # # # # # # $ % & & % $ # # # # # # # ",
"* * * * * = - ; > , , > ; - = * * * * * ",
"$ $ $ $ &   ' ) ! ~ ~ ! ) '   & $ $ $ $ ",
"{ { { ] ^ / ( _ : < < : _ ( / ^ ] { { { ",
"[ [ } | 1 2 3 4 5 6 6 5 4 3 2 1 | } [ [ ",
"7 7 8 9 0 a b c d e e d f b g 0 9 8 7 7 ",
"h h { i j k l m n o p n m l k j q { h h ",
"r s t u v w x y z A A z y x w v u t s r ",
"B s C D E F G H I J J I H G K E D C s B ",
"L } M N O P Q R S T T U R V W O N M } L ",
"X h M Y Z `  ...+.@.@.+... .` #.Y M h $.",
"8 B %.&.*.=.-.;.>.,.,.'.;.).!.~.&.%.% ] ",
"{.{.].^./.(._.:.<.[.}.|.:.1.2.3.^.].& & ",
"4.4.h 5.6.7.8.9.0.a.b.c.d.8.e.6.5.h 4.4.",
"f.f.f.+ g.h.i.j.k.l.m.n.o.p.h.g.+ f.f.f.",
"q.q.q.q.r.s.t.u.v.w.w.x.u.t.s.r.q.q.q.q.",
"y.y.y.y.y.z.A.B.C.D.D.C.B.A.z.y.y.y.y.y.",
"- - - - - - - s E.F.F.E.s - - - - - - - ",
", , , , , , , , , , , , , , , , , , , , ",
"G.G.G.G.G.G.G.G.G.G.G.G.G.G.G.G.G.G.G.G.",
"H.H.H.H.H.H.H.H.H.H.H.H.H.H.H.H.H.H.H.H."};
