/* XPM */
static char * hide_prelight_xpm[] = {
"20 25 189 2",
"  	c #131313",
". 	c #595959",
"+ 	c #444444",
"@ 	c #434343",
"# 	c #414141",
"$ 	c #3E3E3E",
"% 	c #333333",
"& 	c #2C2C2C",
"* 	c #404040",
"= 	c #393939",
"- 	c #2A2A2A",
"; 	c #484848",
"> 	c #6B6760",
", 	c #93927A",
"' 	c #939279",
") 	c #69655E",
"! 	c #454545",
"~ 	c #292929",
"{ 	c #A6886A",
"] 	c #E5C98A",
"^ 	c #FFF5AA",
"/ 	c #FFFFB6",
"( 	c #E5C88A",
"_ 	c #A48567",
": 	c #3F3F3F",
"< 	c #3D3D3D",
"[ 	c #2E2E2E",
"} 	c #514B49",
"| 	c #D48E5B",
"1 	c #FFBC6D",
"2 	c #FFD686",
"3 	c #FFEB9B",
"4 	c #FFF7A6",
"5 	c #D38D59",
"6 	c #4D4644",
"7 	c #3B3B3B",
"8 	c #373737",
"9 	c #C27949",
"0 	c #F89A48",
"a 	c #FFB25E",
"b 	c #FFC975",
"c 	c #FFDD88",
"d 	c #FFE893",
"e 	c #F89A49",
"f 	c #C17846",
"g 	c #3A3A3A",
"h 	c #313131",
"i 	c #8B5F49",
"j 	c #DC802C",
"k 	c #EC923C",
"l 	c #FBA64F",
"m 	c #FFBB62",
"n 	c #FFCC73",
"o 	c #FFD67D",
"p 	c #895C45",
"q 	c #383838",
"r 	c #B66B31",
"s 	c #D27B23",
"t 	c #DF8A30",
"u 	c #ED9B40",
"v 	c #FBAC4F",
"w 	c #FFBB5D",
"x 	c #FFC364",
"y 	c #FBAC50",
"z 	c #DF8A31",
"A 	c #D37B23",
"B 	c #B66A30",
"C 	c #363636",
"D 	c #353535",
"E 	c #534843",
"F 	c #C36E14",
"G 	c #CA781C",
"H 	c #D38426",
"I 	c #DE9231",
"J 	c #EAA33B",
"K 	c #F4B144",
"L 	c #F9B94A",
"M 	c #EAA33C",
"N 	c #514641",
"O 	c #343434",
"P 	c #6C4E3E",
"Q 	c #BE6D11",
"R 	c #C37616",
"S 	c #845217",
"T 	c #0C1013",
"U 	c #0B1013",
"V 	c #0A0F13",
"W 	c #845216",
"X 	c #C37617",
"Y 	c #6B4C3C",
"Z 	c #323232",
"` 	c #6A4D3C",
" .	c #BA6D0E",
"..	c #BE7612",
"+.	c #8B5D15",
"@.	c #4A3815",
"#.	c #4D3D18",
"$.	c #4F411B",
"%.	c #50431E",
"&.	c #4D3E18",
"*.	c #6A4C3B",
"=.	c #50453F",
"-.	c #B76F0C",
";.	c #BD7C10",
">.	c #C69019",
",.	c #CFA228",
"'.	c #D7B13A",
").	c #DDBC4D",
"!.	c #E0C359",
"~.	c #E1C35A",
"{.	c #DDBD4E",
"].	c #D7B13B",
"^.	c #CFA229",
"/.	c #B76F0D",
"(.	c #4F453F",
"_.	c #303030",
":.	c #2F2F2F",
"<.	c #A46A24",
"[.	c #BD8310",
"}.	c #C7971C",
"|.	c #D0A930",
"1.	c #D8B949",
"2.	c #DFC765",
"3.	c #E4CF7B",
"4.	c #E4CF7C",
"5.	c #DFC766",
"6.	c #D8BA4A",
"7.	c #D0AA30",
"8.	c #C7971D",
"9.	c #2D2D2D",
"0.	c #775635",
"a.	c #BD8711",
"b.	c #C79B1F",
"c.	c #D0AE36",
"d.	c #D9BF55",
"e.	c #E2CF7B",
"f.	c #E9DBA2",
"g.	c #E9DBA4",
"h.	c #E2CF7C",
"i.	c #D9C056",
"j.	c #D0AF37",
"k.	c #C79C20",
"l.	c #BD8811",
"m.	c #9F772A",
"n.	c #C69D1F",
"o.	c #CFB036",
"p.	c #D8C156",
"q.	c #E1D17D",
"r.	c #E9DDA7",
"s.	c #E9DEA9",
"t.	c #E1D17E",
"u.	c #D9C257",
"v.	c #D0B137",
"w.	c #C69E20",
"x.	c #A0782A",
"y.	c #282828",
"z.	c #4C4844",
"A.	c #A4852D",
"B.	c #CCAE30",
"C.	c #D4BE4A",
"D.	c #DCCB68",
"E.	c #E1D480",
"F.	c #DCCB69",
"G.	c #D5BE4B",
"H.	c #CCAE31",
"I.	c #A4862D",
"J.	c #262626",
"K.	c #464646",
"L.	c #4B4B4B",
"M.	c #7F6E36",
"N.	c #B9A43C",
"O.	c #D4C24C",
"P.	c #D8C95A",
"Q.	c #D5C24D",
"R.	c #BAA53D",
"S.	c #7F6E37",
"T.	c #232323",
"U.	c #3C3C3C",
"V.	c #565656",
"W.	c #4F4F4F",
"X.	c #575446",
"Y.	c #756F45",
"Z.	c #756F46",
"`.	c #202020",
" +	c #474747",
".+	c #555555",
"++	c #1D1D1D",
"@+	c #191919",
"#+	c #151515",
"                                        ",
". . . . . . . . . . . . . . . . . . . . ",
"+ + + + + + + + + + + + + + + + + + + + ",
"@ @ @ @ @ @ @ @ @ @ @ @ @ @ @ @ @ @ @ @ ",
"# # # # # # # $ % & & % $ # # # # # # # ",
"* * * * * = - ; > , ' ) ! ~ = * * * * * ",
"$ $ $ $ & @ { ] ^ / / ^ ( _ : & $ $ $ $ ",
"< < < [ } | 1 2 3 4 4 3 2 1 5 6 [ < < < ",
"7 7 8 $ 9 0 a b c d d c b a e f 7 8 7 7 ",
"g g h i j k l m n o o n m l k j p h g g ",
"q q < r s t u v w x x w y u z A B 7 q q ",
"C D E F G H I J K L L K M I H G F N D C ",
"O D P Q R S T U V V V V U T W X Q Y D O ",
"Z 8 `  ...+.@.#.$.%.%.$.&.@.+... .*.8 Z ",
"h q =.-.;.>.,.'.).!.~.{.].^.>.;./.(.q _.",
":.O * <.[.}.|.1.2.3.4.5.6.7.8.[.<.* % [ ",
"9.9.+ 0.a.b.c.d.e.f.g.h.i.j.k.l.0.+ & & ",
"- - q + m.n.o.p.q.r.s.t.u.v.w.x.+ q - - ",
"y.y.y.+ z.A.B.C.D.E.E.F.G.H.I.z.+ y.y.y.",
"J.J.J.J.K.L.M.N.O.P.P.Q.R.S.L.K.J.J.J.J.",
"T.T.T.T.T.U.V.W.X.Y.Z.X.W.V.U.T.T.T.T.T.",
"`.`.`.`.`.`.`.D  +.+.+ +D `.`.`.`.`.`.`.",
"++++++++++++++++++++++++++++++++++++++++",
"@+@+@+@+@+@+@+@+@+@+@+@+@+@+@+@+@+@+@+@+",
"#+#+#+#+#+#+#+#+#+#+#+#+#+#+#+#+#+#+#+#+"};
