/* XPM */
static char * maximize_pressed_xpm[] = {
"20 25 167 2",
"  	c #131313",
". 	c #595959",
"+ 	c #444444",
"@ 	c #434343",
"# 	c #414141",
"$ 	c #3E3E3E",
"% 	c #333333",
"& 	c #2C2C2C",
"* 	c #404040",
"= 	c #393939",
"- 	c #212121",
"; 	c #171717",
"> 	c #202120",
", 	c #2A2C29",
"' 	c #292C29",
") 	c #202020",
"! 	c #161616",
"~ 	c #181818",
"{ 	c #373B36",
"] 	c #6A8267",
"^ 	c #96B691",
"/ 	c #ABCEA6",
"( 	c #363B36",
"_ 	c #3D3D3D",
": 	c #2E2E2E",
"< 	c #252525",
"[ 	c #4A5848",
"} 	c #6E9669",
"| 	c #8AB885",
"1 	c #A0CE9B",
"2 	c #ACDBA7",
"3 	c #495748",
"4 	c #3B3B3B",
"5 	c #373737",
"6 	c #282828",
"7 	c #4B574B",
"8 	c #4D7D48",
"9 	c #659861",
"0 	c #81B47D",
"a 	c #96C992",
"b 	c #6D8F6A",
"c 	c #7AA077",
"d 	c #82B47D",
"e 	c #659961",
"f 	c #4B564A",
"g 	c #3A3A3A",
"h 	c #2F2F2F",
"i 	c #4E504E",
"j 	c #3A6637",
"k 	c #457C41",
"l 	c #659862",
"m 	c #7FB17C",
"n 	c #93C490",
"o 	c #4C644B",
"p 	c #4E4F4E",
"q 	c #383838",
"r 	c #526152",
"s 	c #286624",
"t 	c #4B7F49",
"u 	c #6B9A69",
"v 	c #85B184",
"w 	c #96C195",
"x 	c #4D624C",
"y 	c #276623",
"z 	c #363636",
"A 	c #353535",
"B 	c #535353",
"C 	c #446244",
"D 	c #2A6928",
"E 	c #528351",
"F 	c #749E73",
"G 	c #8BB58A",
"H 	c #9AC499",
"I 	c #4E644E",
"J 	c #538351",
"K 	c #446243",
"L 	c #343434",
"M 	c #616161",
"N 	c #3A6339",
"O 	c #2E6C2C",
"P 	c #325331",
"Q 	c #395E38",
"R 	c #606160",
"S 	c #323232",
"T 	c #676767",
"U 	c #3D673C",
"V 	c #2B6F2A",
"W 	c #3B683A",
"X 	c #3B573A",
"Y 	c #456045",
"Z 	c #4D674D",
"` 	c #293429",
" .	c #4C674C",
"..	c #3F703F",
"+.	c #2C702A",
"@.	c #313131",
"#.	c #686867",
"$.	c #4F704E",
"%.	c #217620",
"&.	c #4F974E",
"*.	c #72B372",
"=.	c #88C788",
"-.	c #97D397",
";.	c #4D6B4D",
">.	c #72B472",
",.	c #4E704E",
"'.	c #303030",
").	c #5E5E5E",
"!.	c #6C7D6C",
"~.	c #0E7D0C",
"{.	c #3C9B3C",
"].	c #63B662",
"^.	c #7BCA7B",
"/.	c #89D789",
"(.	c #466D46",
"_.	c #89D889",
":.	c #2D2D2D",
"<.	c #4B4B4B",
"[.	c #808280",
"}.	c #3A873A",
"|.	c #1E9C1D",
"1.	c #47B647",
"2.	c #64CB64",
"3.	c #75DB75",
"4.	c #3C703C",
"5.	c #64CC64",
"6.	c #47B646",
"7.	c #1E9D1E",
"8.	c #3A883A",
"9.	c #2A2A2A",
"0.	c #686868",
"a.	c #818F81",
"b.	c #1E9F1E",
"c.	c #1EB41D",
"d.	c #3DC93D",
"e.	c #53D953",
"f.	c #3CA73C",
"g.	c #44B544",
"h.	c #1DB51D",
"i.	c #819081",
"j.	c #767676",
"k.	c #869986",
"l.	c #3FB13F",
"m.	c #0AC409",
"n.	c #1DD21D",
"o.	c #27DB27",
"p.	c #28DB28",
"q.	c #262626",
"r.	c #464646",
"s.	c #747474",
"t.	c #919591",
"u.	c #7EAC7E",
"v.	c #5EC05E",
"w.	c #4ACC4A",
"x.	c #5EC15E",
"y.	c #919491",
"z.	c #232323",
"A.	c #3C3C3C",
"B.	c #5F5F5F",
"C.	c #7B7B7B",
"D.	c #8A8A8A",
"E.	c #8F918F",
"F.	c #474747",
"G.	c #555555",
"H.	c #1D1D1D",
"I.	c #191919",
"J.	c #151515",
"                                        ",
". . . . . . . . . . . . . . . . . . . . ",
"+ + + + + + + + + + + + + + + + + + + + ",
"@ @ @ @ @ @ @ @ @ @ @ @ @ @ @ @ @ @ @ @ ",
"# # # # # # # $ % & & % $ # # # # # # # ",
"* * * * * = - ; > , ' ) ! - = * * * * * ",
"$ $ $ $ & ~ { ] ^ / / ^ ] ( ~ & $ $ $ $ ",
"_ _ _ : < [ } | 1 2 2 1 | } 3 < : _ _ _ ",
"4 4 5 6 7 8 9 0 a b c a d e 8 f 6 5 4 4 ",
"g g h i j k l m n   o n m l k j p h g g ",
"q q _ r s t u v w   x w v u t y r _ q q ",
"z A B C D E F G H   I H G F J D K B A z ",
"L A M N O P                 Q O N R A L ",
"S 5 T U V W X Y Z   `  .Y X ..+.U T 5 S ",
"@.q #.$.%.&.*.=.-.  ;.-.=.>.&.%.,.#.q '.",
"h L ).!.~.{.].^./.  (._.^.].{.~.!.).% : ",
":.:.<.[.}.|.1.2.3.  4.3.5.6.7.8.[.<.& & ",
"9.9.q 0.a.b.c.d.e.f.g.e.d.h.b.i.0.q 9.9.",
"6 6 6 + j.k.l.m.n.o.p.n.m.l.k.j.+ 6 6 6 ",
"q.q.q.q.r.s.t.u.v.w.w.x.u.y.s.r.q.q.q.q.",
"z.z.z.z.z.A.B.C.D.E.E.D.C.B.A.z.z.z.z.z.",
") ) ) ) ) ) ) A F.G.G.F.A ) ) ) ) ) ) ) ",
"H.H.H.H.H.H.H.H.H.H.H.H.H.H.H.H.H.H.H.H.",
"I.I.I.I.I.I.I.I.I.I.I.I.I.I.I.I.I.I.I.I.",
"J.J.J.J.J.J.J.J.J.J.J.J.J.J.J.J.J.J.J.J."};
