/* XPM */
static char * maximize_prelight_xpm[] = {
"20 25 177 2",
"  	c #131313",
". 	c #595959",
"+ 	c #444444",
"@ 	c #434343",
"# 	c #414141",
"$ 	c #3E3E3E",
"% 	c #333333",
"& 	c #2C2C2C",
"* 	c #404040",
"= 	c #393939",
"- 	c #2A2A2A",
"; 	c #484848",
"> 	c #616360",
", 	c #7C877A",
"' 	c #7B8779",
") 	c #5F625F",
"! 	c #454545",
"~ 	c #292929",
"{ 	c #6D7A6A",
"] 	c #8FAD8A",
"^ 	c #AFD4A9",
"/ 	c #BBE0B5",
"( 	c #BBE1B5",
"_ 	c #AED4A9",
": 	c #8EAC89",
"< 	c #697767",
"[ 	c #3F3F3F",
"} 	c #3D3D3D",
"| 	c #2E2E2E",
"1 	c #494A49",
"2 	c #5F785B",
"3 	c #719D6C",
"4 	c #8AB885",
"5 	c #9ECE99",
"6 	c #AADAA5",
"7 	c #5C7659",
"8 	c #3B3B3B",
"9 	c #373737",
"0 	c #4C6549",
"a 	c #4C7E47",
"b 	c #61975D",
"c 	c #78AF73",
"d 	c #8AC486",
"e 	c #678D64",
"f 	c #729D6F",
"g 	c #62975D",
"h 	c #496346",
"i 	c #3A3A3A",
"j 	c #313131",
"k 	c #4B5549",
"l 	c #2F662A",
"m 	c #3E7A3A",
"n 	c #508F4C",
"o 	c #63A55F",
"p 	c #74B76F",
"q 	c #3C5E3A",
"r 	c #475245",
"s 	c #383838",
"t 	c #345731",
"u 	c #256520",
"v 	c #31762D",
"w 	c #3F883B",
"x 	c #4F9A4B",
"y 	c #5BAA58",
"z 	c #30562E",
"A 	c #40883C",
"B 	c #32562F",
"C 	c #363636",
"D 	c #353535",
"E 	c #454644",
"F 	c #155811",
"G 	c #1C6518",
"H 	c #257321",
"I 	c #2F832B",
"J 	c #389535",
"K 	c #3FA53B",
"L 	c #225421",
"M 	c #424441",
"N 	c #343434",
"O 	c #3E483E",
"P 	c #105B0C",
"Q 	c #146611",
"R 	c #154914",
"S 	c #165214",
"T 	c #3C473C",
"U 	c #323232",
"V 	c #3C483C",
"W 	c #0C5E08",
"X 	c #0E690B",
"Y 	c #115C10",
"Z 	c #124A12",
"` 	c #125212",
" .	c #135912",
"..	c #132D13",
"+.	c #125312",
"@.	c #11630F",
"#.	c #0E6A0B",
"$.	c #3B473B",
"%.	c #41433F",
"&.	c #096205",
"*.	c #097306",
"=.	c #0A8A08",
"-.	c #0B9E09",
";.	c #0BAF0A",
">.	c #0BBC0A",
",.	c #125F11",
"'.	c #0BB00A",
").	c #0B9F09",
"!.	c #0A8B08",
"~.	c #40423F",
"{.	c #303030",
"].	c #2F2F2F",
"^.	c #276122",
"/.	c #067C03",
"(.	c #069404",
"_.	c #06A805",
":.	c #06BA05",
"<.	c #05C804",
"[.	c #116511",
"}.	c #06A905",
"|.	c #067D03",
"1.	c #266121",
"2.	c #2D2D2D",
"3.	c #385134",
"4.	c #048302",
"5.	c #049B02",
"6.	c #04AF02",
"7.	c #03C202",
"8.	c #03D202",
"9.	c #106C10",
"0.	c #03C302",
"a.	c #04B002",
"b.	c #049C02",
"c.	c #048402",
"d.	c #375134",
"e.	c #2C7525",
"f.	c #039E01",
"g.	c #02B301",
"h.	c #02C501",
"i.	c #01D501",
"j.	c #0BA50B",
"k.	c #09B309",
"l.	c #02C601",
"m.	c #02B401",
"n.	c #029F01",
"o.	c #2B7525",
"p.	c #282828",
"q.	c #454643",
"r.	c #2B8523",
"s.	c #01B200",
"t.	c #01C400",
"u.	c #01D100",
"v.	c #00DA00",
"w.	c #01D200",
"x.	c #01B300",
"y.	c #2B8623",
"z.	c #454743",
"A.	c #262626",
"B.	c #464646",
"C.	c #4B4B4B",
"D.	c #356F30",
"E.	c #24AA1C",
"F.	c #01CB00",
"G.	c #00D300",
"H.	c #24AB1C",
"I.	c #232323",
"J.	c #3C3C3C",
"K.	c #565656",
"L.	c #4F4F4F",
"M.	c #475344",
"N.	c #3E743E",
"O.	c #202020",
"P.	c #474747",
"Q.	c #555555",
"R.	c #1D1D1D",
"S.	c #191919",
"T.	c #151515",
"                                        ",
". . . . . . . . . . . . . . . . . . . . ",
"+ + + + + + + + + + + + + + + + + + + + ",
"@ @ @ @ @ @ @ @ @ @ @ @ @ @ @ @ @ @ @ @ ",
"# # # # # # # $ % & & % $ # # # # # # # ",
"* * * * * = - ; > , ' ) ! ~ = * * * * * ",
"$ $ $ $ & @ { ] ^ / ( _ : < [ & $ $ $ $ ",
"} } } | 1 2 3 4 5 6 6 5 4 3 7 ! | } } } ",
"8 8 9 $ 0 a b c d e f d c g a h 8 9 8 8 ",
"i i j k l m n o p   q p o n m l r j i i ",
"s s } t u v w x y   z y x A v u B 8 s s ",
"C D E F G H I J K   L K J I H G F M D C ",
"N D O P Q R                 S Q P T D N ",
"U 9 V W X Y Z `  .  .. .+.Z @.#.W $.9 U ",
"j s %.&.*.=.-.;.>.  ,.>.'.).!.*.&.~.s {.",
"].N * ^./.(._.:.<.  [.<.:.}.(.|.1.* % | ",
"2.2.+ 3.4.5.6.7.8.  9.8.0.a.b.c.d.+ & & ",
"- - s + e.f.g.h.i.j.k.i.l.m.n.o.+ s - - ",
"p.p.p.+ q.r.s.t.u.v.v.w.t.x.y.z.+ p.p.p.",
"A.A.A.A.B.C.D.E.F.G.G.F.H.D.C.B.A.A.A.A.",
"I.I.I.I.I.J.K.L.M.N.N.M.L.K.J.I.I.I.I.I.",
"O.O.O.O.O.O.O.D P.Q.Q.P.D O.O.O.O.O.O.O.",
"R.R.R.R.R.R.R.R.R.R.R.R.R.R.R.R.R.R.R.R.",
"S.S.S.S.S.S.S.S.S.S.S.S.S.S.S.S.S.S.S.S.",
"T.T.T.T.T.T.T.T.T.T.T.T.T.T.T.T.T.T.T.T."};
