/* XPM */
static char * maximize_active_xpm[] = {
"20 25 183 2",
"  	c #131313",
". 	c #595959",
"+ 	c #444444",
"@ 	c #434343",
"# 	c #414141",
"$ 	c #3E3E3E",
"% 	c #333333",
"& 	c #2C2C2C",
"* 	c #404040",
"= 	c #393939",
"- 	c #2A2A2A",
"; 	c #484848",
"> 	c #616360",
", 	c #7C877A",
"' 	c #7B8779",
") 	c #5F625F",
"! 	c #454545",
"~ 	c #292929",
"{ 	c #6D7A6A",
"] 	c #8FAD8A",
"^ 	c #AFD4A9",
"/ 	c #BBE0B5",
"( 	c #BBE1B5",
"_ 	c #AED4A9",
": 	c #8EAC89",
"< 	c #697767",
"[ 	c #3F3F3F",
"} 	c #3D3D3D",
"| 	c #2E2E2E",
"1 	c #494A49",
"2 	c #5F785B",
"3 	c #719D6C",
"4 	c #8AB885",
"5 	c #9ECE99",
"6 	c #AADAA5",
"7 	c #5C7659",
"8 	c #3B3B3B",
"9 	c #373737",
"0 	c #4C6549",
"a 	c #4C7E47",
"b 	c #61975D",
"c 	c #78AF73",
"d 	c #8AC486",
"e 	c #95CF90",
"f 	c #62975D",
"g 	c #496346",
"h 	c #3A3A3A",
"i 	c #313131",
"j 	c #4B5549",
"k 	c #2F662A",
"l 	c #3E7A3A",
"m 	c #508F4C",
"n 	c #63A55F",
"o 	c #74B76F",
"p 	c #7DC179",
"q 	c #7DC279",
"r 	c #475245",
"s 	c #383838",
"t 	c #345731",
"u 	c #256520",
"v 	c #31762D",
"w 	c #3F883B",
"x 	c #4F9A4B",
"y 	c #5BAA58",
"z 	c #62B35F",
"A 	c #63B35F",
"B 	c #40883C",
"C 	c #32562F",
"D 	c #363636",
"E 	c #353535",
"F 	c #454644",
"G 	c #155811",
"H 	c #1C6518",
"I 	c #257321",
"J 	c #2F832B",
"K 	c #389535",
"L 	c #3FA53B",
"M 	c #42AD3F",
"N 	c #424441",
"O 	c #343434",
"P 	c #3E483E",
"Q 	c #105B0C",
"R 	c #146611",
"S 	c #1A7416",
"T 	c #1F891C",
"U 	c #239B20",
"V 	c #27A824",
"W 	c #28AF26",
"X 	c #26A824",
"Y 	c #3C473C",
"Z 	c #323232",
"` 	c #3C483C",
" .	c #0C5E08",
"..	c #0E690B",
"+.	c #107E0E",
"@.	c #139310",
"#.	c #15A412",
"$.	c #16B014",
"%.	c #16B715",
"&.	c #14A412",
"*.	c #129410",
"=.	c #107F0E",
"-.	c #0E6A0B",
";.	c #3B473B",
">.	c #41433F",
",.	c #096205",
"'.	c #097306",
").	c #0A8A08",
"!.	c #0B9E09",
"~.	c #0BAF0A",
"{.	c #0BBC0A",
"].	c #0BC30A",
"^.	c #0BB00A",
"/.	c #0B9F09",
"(.	c #0A8B08",
"_.	c #40423F",
":.	c #303030",
"<.	c #2F2F2F",
"[.	c #276122",
"}.	c #067C03",
"|.	c #069404",
"1.	c #06A805",
"2.	c #06BA05",
"3.	c #05C804",
"4.	c #05D004",
"5.	c #05D104",
"6.	c #06A905",
"7.	c #067D03",
"8.	c #266121",
"9.	c #2D2D2D",
"0.	c #385134",
"a.	c #048302",
"b.	c #049B02",
"c.	c #04AF02",
"d.	c #03C202",
"e.	c #03D202",
"f.	c #02DE01",
"g.	c #03C302",
"h.	c #04B002",
"i.	c #049C02",
"j.	c #048402",
"k.	c #375134",
"l.	c #2C7525",
"m.	c #039E01",
"n.	c #02B301",
"o.	c #02C501",
"p.	c #01D501",
"q.	c #01E100",
"r.	c #02C601",
"s.	c #02B401",
"t.	c #029F01",
"u.	c #2B7525",
"v.	c #282828",
"w.	c #454643",
"x.	c #2B8523",
"y.	c #01B200",
"z.	c #01C400",
"A.	c #01D100",
"B.	c #00DA00",
"C.	c #01D200",
"D.	c #01B300",
"E.	c #2B8623",
"F.	c #454743",
"G.	c #262626",
"H.	c #464646",
"I.	c #4B4B4B",
"J.	c #356F30",
"K.	c #24AA1C",
"L.	c #01CB00",
"M.	c #00D300",
"N.	c #24AB1C",
"O.	c #232323",
"P.	c #3C3C3C",
"Q.	c #565656",
"R.	c #4F4F4F",
"S.	c #475344",
"T.	c #3E743E",
"U.	c #202020",
"V.	c #474747",
"W.	c #555555",
"X.	c #1D1D1D",
"Y.	c #191919",
"Z.	c #151515",
"                                        ",
". . . . . . . . . . . . . . . . . . . . ",
"+ + + + + + + + + + + + + + + + + + + + ",
"@ @ @ @ @ @ @ @ @ @ @ @ @ @ @ @ @ @ @ @ ",
"# # # # # # # $ % & & % $ # # # # # # # ",
"* * * * * = - ; > , ' ) ! ~ = * * * * * ",
"$ $ $ $ & @ { ] ^ / ( _ : < [ & $ $ $ $ ",
"} } } | 1 2 3 4 5 6 6 5 4 3 7 ! | } } } ",
"8 8 9 $ 0 a b c d e e d c f a g 8 9 8 8 ",
"h h i j k l m n o p q o n m l k r i h h ",
"s s } t u v w x y z A y x B v u C 8 s s ",
"D E F G H I J K L M M L K J I H G N E D ",
"O E P Q R S T U V W W X U T S R Q Y E O ",
"Z 9 `  ...+.@.#.$.%.%.$.&.*.=.-. .;.9 Z ",
"i s >.,.'.).!.~.{.].].{.^./.(.'.,._.s :.",
"<.O * [.}.|.1.2.3.4.5.3.2.6.|.7.8.* % | ",
"9.9.+ 0.a.b.c.d.e.f.f.e.g.h.i.j.k.+ & & ",
"- - s + l.m.n.o.p.q.q.p.r.s.t.u.+ s - - ",
"v.v.v.+ w.x.y.z.A.B.B.C.z.D.E.F.+ v.v.v.",
"G.G.G.G.H.I.J.K.L.M.M.L.N.J.I.H.G.G.G.G.",
"O.O.O.O.O.P.Q.R.S.T.T.S.R.Q.P.O.O.O.O.O.",
"U.U.U.U.U.U.U.E V.W.W.V.E U.U.U.U.U.U.U.",
"X.X.X.X.X.X.X.X.X.X.X.X.X.X.X.X.X.X.X.X.",
"Y.Y.Y.Y.Y.Y.Y.Y.Y.Y.Y.Y.Y.Y.Y.Y.Y.Y.Y.Y.",
"Z.Z.Z.Z.Z.Z.Z.Z.Z.Z.Z.Z.Z.Z.Z.Z.Z.Z.Z.Z."};
