/* XPM */
static char * menu_prelight_xpm[] = {
"20 25 223 2",
"  	c #131313",
". 	c #595959",
"+ 	c #444444",
"@ 	c #434343",
"# 	c #414141",
"$ 	c #3E3E3E",
"% 	c #333333",
"& 	c #2C2C2C",
"* 	c #404040",
"= 	c #393939",
"- 	c #2A2A2A",
"; 	c #484848",
"> 	c #615E6C",
", 	c #7B7093",
"' 	c #7A7093",
") 	c #5F5C6A",
"! 	c #454545",
"~ 	c #292929",
"{ 	c #6D65A2",
"] 	c #8F78E5",
"^ 	c #AD8FFF",
"/ 	c #B999FF",
"( 	c #8E77E5",
"_ 	c #6A61A0",
": 	c #3F3F3F",
"< 	c #3D3D3D",
"[ 	c #2E2E2E",
"} 	c #4A494F",
"| 	c #6054B4",
"1 	c #725BED",
"2 	c #8970FF",
"3 	c #9B81FF",
"4 	c #A58AFF",
"5 	c #725BF0",
"6 	c #5D51B5",
"7 	c #45444C",
"8 	c #3B3B3B",
"9 	c #373737",
"0 	c #4D459D",
"a 	c #4E3BCB",
"b 	c #6150E7",
"c 	c #7564FC",
"d 	c #8574FF",
"e 	c #8E7DFF",
"f 	c #7564FD",
"g 	c #6150E9",
"h 	c #4E3BCE",
"i 	c #4B429F",
"j 	c #3A3A3A",
"k 	c #313131",
"l 	c #4C4976",
"m 	c #3123B0",
"n 	c #3F36C8",
"o 	c #514AE0",
"p 	c #635EF6",
"q 	c #726DFE",
"r 	c #7B76FE",
"s 	c #635EF7",
"t 	c #514BE3",
"u 	c #4036CB",
"v 	c #3123B4",
"w 	c #484575",
"x 	c #383838",
"y 	c #362F94",
"z 	c #271FB0",
"A 	c #3435C6",
"B 	c #454BDB",
"C 	c #575FEC",
"D 	c #6B73FA",
"E 	c #7A80FE",
"F 	c #7B80FE",
"G 	c #6D74FB",
"H 	c #585FEE",
"I 	c #454BDD",
"J 	c #3436CA",
"K 	c #2720B5",
"L 	c #342D97",
"M 	c #363636",
"N 	c #353535",
"O 	c #464351",
"P 	c #180D9F",
"Q 	c #1F21B2",
"R 	c #2C38C5",
"S 	c #3F4FD7",
"T 	c #5B6BE8",
"U 	c #7E85F3",
"V 	c #969BFA",
"W 	c #999DFA",
"X 	c #7F85F4",
"Y 	c #5D6CEA",
"Z 	c #4050DA",
"` 	c #2C39C9",
" .	c #2021B7",
"..	c #180DA5",
"+.	c #43414F",
"@.	c #343434",
"#.	c #3E3E5F",
"$.	c #130AA2",
"%.	c #1921B4",
"&.	c #283AC6",
"*.	c #4355D9",
"=.	c #6875E8",
"-.	c #8D93F2",
";.	c #C5C8FA",
">.	c #CBCDFA",
",.	c #959BF3",
"'.	c #6A77EA",
").	c #4456DC",
"!.	c #293CCB",
"~.	c #1A22B9",
"{.	c #140BA8",
"].	c #3C3C60",
"^.	c #323232",
"/.	c #3C3C5F",
"(.	c #1007A5",
"_.	c #1621B6",
":.	c #2D3CCC",
"<.	c #4757DD",
"[.	c #6B77EA",
"}.	c #9197F3",
"|.	c #C7C9FA",
"1.	c #C6C8FA",
"2.	c #9298F4",
"3.	c #6D79EC",
"4.	c #4858E0",
"5.	c #2D3DD0",
"6.	c #1722BC",
"7.	c #1008AC",
"8.	c #3B3B61",
"9.	c #423F4E",
"0.	c #0D04A9",
"a.	c #191EBC",
"b.	c #303AD1",
"c.	c #4954E2",
"d.	c #6570ED",
"e.	c #8589F5",
"f.	c #9A9DF9",
"g.	c #999CF9",
"h.	c #8588F5",
"i.	c #6672EF",
"j.	c #4A55E4",
"k.	c #323CD6",
"l.	c #1B1FC2",
"m.	c #0E04B0",
"n.	c #423E4F",
"o.	c #303030",
"p.	c #2F2F2F",
"q.	c #2A229E",
"r.	c #1E19C1",
"s.	c #3436D6",
"t.	c #4B4FE6",
"u.	c #6165F0",
"v.	c #767BF7",
"w.	c #8788FB",
"x.	c #8789FB",
"y.	c #777CF7",
"z.	c #6166F0",
"A.	c #4B50E8",
"B.	c #3637DA",
"C.	c #1F1AC8",
"D.	c #2A21A5",
"E.	c #2D2D2D",
"F.	c #3A3476",
"G.	c #2114C5",
"H.	c #372FD8",
"I.	c #4C47E6",
"J.	c #615DF0",
"K.	c #7470F8",
"L.	c #857EFE",
"M.	c #7571F8",
"N.	c #625EF1",
"O.	c #4D49E7",
"P.	c #3830DC",
"Q.	c #2216CC",
"R.	c #3A347A",
"S.	c #372AA8",
"T.	c #3828D8",
"U.	c #4C3FE4",
"V.	c #6154EE",
"W.	c #7367F7",
"X.	c #8576FE",
"Y.	c #8677FE",
"Z.	c #7468F8",
"`.	c #6155EF",
" +	c #4D40E5",
".+	c #3929DA",
"++	c #372AAC",
"@+	c #282828",
"#+	c #46434C",
"$+	c #3F2FB2",
"%+	c #4735E0",
"&+	c #5B48E9",
"*+	c #6B58F2",
"=+	c #7663F7",
"-+	c #7763F7",
";+	c #6B59F2",
">+	c #5C49EA",
",+	c #4836E0",
"'+	c #402FB3",
")+	c #46444C",
"!+	c #262626",
"~+	c #464646",
"{+	c #4B4B4B",
"]+	c #433789",
"^+	c #523CCB",
"/+	c #5D47E9",
"(+	c #654EED",
"_+	c #654FED",
":+	c #523DCB",
"<+	c #443789",
"[+	c #232323",
"}+	c #3C3C3C",
"|+	c #565656",
"1+	c #4F4F4F",
"2+	c #4D465B",
"3+	c #4A447E",
"4+	c #4A457E",
"5+	c #202020",
"6+	c #474747",
"7+	c #555555",
"8+	c #1D1D1D",
"9+	c #191919",
"0+	c #151515",
"                                        ",
". . . . . . . . . . . . . . . . . . . . ",
"+ + + + + + + + + + + + + + + + + + + + ",
"@ @ @ @ @ @ @ @ @ @ @ @ @ @ @ @ @ @ @ @ ",
"# # # # # # # $ % & & % $ # # # # # # # ",
"* * * * * = - ; > , ' ) ! ~ = * * * * * ",
"$ $ $ $ & @ { ] ^ / / ^ ( _ : & $ $ $ $ ",
"< < < [ } | 1 2 3 4 4 3 2 5 6 7 [ < < < ",
"8 8 9 $ 0 a b c d e e d f g h i 8 9 8 8 ",
"j j k l m n o p q r r q s t u v w k j j ",
"x x < y z A B C D E F G H I J K L 8 x x ",
"M N O P Q R S T U V W X Y Z `  ...+.N M ",
"@.N #.$.%.&.*.=.-.;.>.,.'.).!.~.{.].N @.",
"^.9 /.(._.:.<.[.}.|.1.2.3.4.5.6.7.8.9 ^.",
"k x 9.0.a.b.c.d.e.f.g.h.i.j.k.l.m.n.x o.",
"p.@.* q.r.s.t.u.v.w.x.y.z.A.B.C.D.* % [ ",
"E.E.+ F.G.H.I.J.K.L.L.M.N.O.P.Q.R.+ & & ",
"- - x + S.T.U.V.W.X.Y.Z.`. +.++++ x - - ",
"@+@+@++ #+$+%+&+*+=+-+;+>+,+'+)++ @+@+@+",
"!+!+!+!+~+{+]+^+/+(+_+/+:+<+{+~+!+!+!+!+",
"[+[+[+[+[+}+|+1+2+3+4+2+1+|+}+[+[+[+[+[+",
"5+5+5+5+5+5+5+N 6+7+7+6+N 5+5+5+5+5+5+5+",
"8+8+8+8+8+8+8+8+8+8+8+8+8+8+8+8+8+8+8+8+",
"9+9+9+9+9+9+9+9+9+9+9+9+9+9+9+9+9+9+9+9+",
"0+0+0+0+0+0+0+0+0+0+0+0+0+0+0+0+0+0+0+0+"};
