/* XPM */
static char * menu_active_xpm[] = {
"20 25 217 2",
"  	c #131313",
". 	c #595959",
"+ 	c #444444",
"@ 	c #434343",
"# 	c #414141",
"$ 	c #3E3E3E",
"% 	c #333333",
"& 	c #2C2C2C",
"* 	c #404040",
"= 	c #393939",
"- 	c #2A2A2A",
"; 	c #484848",
"> 	c #615E6C",
", 	c #7B7093",
"' 	c #7A7093",
") 	c #5F5C6A",
"! 	c #454545",
"~ 	c #292929",
"{ 	c #6D65A2",
"] 	c #8F78E5",
"^ 	c #AE8FFF",
"/ 	c #B999FF",
"( 	c #AD8FFF",
"_ 	c #8E77E5",
": 	c #6A61A0",
"< 	c #3F3F3F",
"[ 	c #3D3D3D",
"} 	c #2E2E2E",
"| 	c #4A494F",
"1 	c #6054B4",
"2 	c #725BED",
"3 	c #8B70FF",
"4 	c #9E81FF",
"5 	c #AA8BFF",
"6 	c #725BF0",
"7 	c #5D51B5",
"8 	c #45444C",
"9 	c #3B3B3B",
"0 	c #373737",
"a 	c #4D459D",
"b 	c #4E3BCA",
"c 	c #634DE5",
"d 	c #7960FC",
"e 	c #8C71FF",
"f 	c #967AFF",
"g 	c #7A61FD",
"h 	c #634DE8",
"i 	c #4E3BCD",
"j 	c #4B429F",
"k 	c #3A3A3A",
"l 	c #313131",
"m 	c #4C4976",
"n 	c #3122AF",
"o 	c #412FC5",
"p 	c #543FDD",
"q 	c #6650F5",
"r 	c #765DFF",
"s 	c #7F66FF",
"t 	c #765EFF",
"u 	c #6750F6",
"v 	c #543FE0",
"w 	c #412FC8",
"x 	c #3122B3",
"y 	c #484575",
"z 	c #383838",
"A 	c #362F94",
"B 	c #271AAE",
"C 	c #3424C0",
"D 	c #4331D4",
"E 	c #533EE8",
"F 	c #604AF9",
"G 	c #6851FE",
"H 	c #6851FF",
"I 	c #614AFA",
"J 	c #533EEB",
"K 	c #4331D7",
"L 	c #3524C4",
"M 	c #281AB2",
"N 	c #342D97",
"O 	c #363636",
"P 	c #353535",
"Q 	c #464351",
"R 	c #180C9F",
"S 	c #1F12AD",
"T 	c #291ABC",
"U 	c #3525CD",
"V 	c #4633E0",
"W 	c #543FEE",
"X 	c #5D46F6",
"Y 	c #5D46F7",
"Z 	c #553FF0",
"` 	c #4633E2",
" .	c #3525D1",
"..	c #291AC1",
"+.	c #2012B2",
"@.	c #180CA5",
"#.	c #43414F",
"$.	c #343434",
"%.	c #3E3E5F",
"&.	c #1308A2",
"*.	c #190CAE",
"=.	c #2214BC",
"-.	c #3424CE",
";.	c #4633DF",
">.	c #533EEA",
",.	c #5A44F1",
"'.	c #533EEC",
").	c #4633E1",
"!.	c #3525D2",
"~.	c #2315C1",
"{.	c #190CB3",
"].	c #1408A8",
"^.	c #3C3C60",
"/.	c #323232",
"(.	c #3C3C5F",
"_.	c #1006A5",
":.	c #1509B0",
"<.	c #2719C2",
"[.	c #3B29D4",
"}.	c #4C38E2",
"|.	c #5943EC",
"1.	c #6049F1",
"2.	c #5943ED",
"3.	c #4C38E4",
"4.	c #3B2AD8",
"5.	c #2819C8",
"6.	c #160AB6",
"7.	c #1006AB",
"8.	c #3B3B61",
"9.	c #423F4E",
"0.	c #0D03A9",
"a.	c #190CB7",
"b.	c #2E1FCA",
"c.	c #4331DB",
"d.	c #5540E7",
"e.	c #634DF0",
"f.	c #6B54F5",
"g.	c #644DF1",
"h.	c #5641EA",
"i.	c #4331DE",
"j.	c #3020D0",
"k.	c #1A0DBE",
"l.	c #0E03B0",
"m.	c #423E4F",
"n.	c #303030",
"o.	c #2F2F2F",
"p.	c #2A229E",
"q.	c #1E11BF",
"r.	c #3524D2",
"s.	c #4A37E1",
"t.	c #5F48ED",
"u.	c #6F58F4",
"v.	c #7B62FA",
"w.	c #7058F4",
"x.	c #5F49ED",
"y.	c #4B37E3",
"z.	c #3625D6",
"A.	c #1F11C6",
"B.	c #2A21A5",
"C.	c #2D2D2D",
"D.	c #3A3476",
"E.	c #2113C5",
"F.	c #3827D6",
"G.	c #4E3AE4",
"H.	c #654EEE",
"I.	c #7961F7",
"J.	c #8C71FE",
"K.	c #7A61F8",
"L.	c #654FEE",
"M.	c #503BE4",
"N.	c #3928DA",
"O.	c #2214CB",
"P.	c #3A347A",
"Q.	c #372AA8",
"R.	c #3826D8",
"S.	c #4E3AE3",
"T.	c #644EED",
"U.	c #8D72FE",
"V.	c #8E72FE",
"W.	c #7A61F7",
"X.	c #654EED",
"Y.	c #4F3BE3",
"Z.	c #3927D9",
"`.	c #372AAC",
" +	c #282828",
".+	c #46434C",
"++	c #3F2FB2",
"@+	c #4834DF",
"#+	c #5C46E9",
"$+	c #6D56F1",
"%+	c #7A61F6",
"&+	c #7A62F7",
"*+	c #6E57F1",
"=+	c #5D47E9",
"-+	c #4835E0",
";+	c #402FB3",
">+	c #46444C",
",+	c #262626",
"'+	c #464646",
")+	c #4B4B4B",
"!+	c #433789",
"~+	c #523CCB",
"{+	c #523DCB",
"]+	c #443789",
"^+	c #232323",
"/+	c #3C3C3C",
"(+	c #565656",
"_+	c #4F4F4F",
":+	c #4D465B",
"<+	c #4A447E",
"[+	c #4A457E",
"}+	c #202020",
"|+	c #474747",
"1+	c #555555",
"2+	c #1D1D1D",
"3+	c #191919",
"4+	c #151515",
"                                        ",
". . . . . . . . . . . . . . . . . . . . ",
"+ + + + + + + + + + + + + + + + + + + + ",
"@ @ @ @ @ @ @ @ @ @ @ @ @ @ @ @ @ @ @ @ ",
"# # # # # # # $ % & & % $ # # # # # # # ",
"* * * * * = - ; > , ' ) ! ~ = * * * * * ",
"$ $ $ $ & @ { ] ^ / / ( _ : < & $ $ $ $ ",
"[ [ [ } | 1 2 3 4 5 5 4 3 6 7 8 } [ [ [ ",
"9 9 0 $ a b c d e f f e g h i j 9 0 9 9 ",
"k k l m n o p q r s s t u v w x y l k k ",
"z z [ A B C D E F G H I J K L M N 9 z z ",
"O P Q R S T U V W X Y Z `  ...+.@.#.P O ",
"$.P %.&.*.=.-.;.>.,.,.'.).!.~.{.].^.P $.",
"/.0 (._.:.<.[.}.|.1.1.2.3.4.5.6.7.8.0 /.",
"l z 9.0.a.b.c.d.e.f.f.g.h.i.j.k.l.m.z n.",
"o.$.* p.q.r.s.t.u.v.v.w.x.y.z.A.B.* % } ",
"C.C.+ D.E.F.G.H.I.J.J.K.L.M.N.O.P.+ & & ",
"- - z + Q.R.S.T.I.U.V.W.X.Y.Z.`.+ z - - ",
" + + ++ .+++@+#+$+%+&+*+=+-+;+>++  + + +",
",+,+,+,+'+)+!+~+=+X.X.=+{+]+)+'+,+,+,+,+",
"^+^+^+^+^+/+(+_+:+<+[+:+_+(+/+^+^+^+^+^+",
"}+}+}+}+}+}+}+P |+1+1+|+P }+}+}+}+}+}+}+",
"2+2+2+2+2+2+2+2+2+2+2+2+2+2+2+2+2+2+2+2+",
"3+3+3+3+3+3+3+3+3+3+3+3+3+3+3+3+3+3+3+3+",
"4+4+4+4+4+4+4+4+4+4+4+4+4+4+4+4+4+4+4+4+"};
