/* XPM */
static char * menu_pressed_xpm[] = {
"20 25 206 2",
"  	c #131313",
". 	c #595959",
"+ 	c #444444",
"@ 	c #434343",
"# 	c #414141",
"$ 	c #3E3E3E",
"% 	c #333333",
"& 	c #2C2C2C",
"* 	c #404040",
"= 	c #393939",
"- 	c #202020",
"; 	c #0F0F0F",
"> 	c #171717",
", 	c #1D1D1D",
"' 	c #312F3E",
") 	c #6858A7",
"! 	c #937BD8",
"~ 	c #A88CE9",
"{ 	c #3D3D3D",
"] 	c #2E2E2E",
"^ 	c #222222",
"/ 	c #484474",
"( 	c #6E59E0",
"_ 	c #8970FF",
": 	c #9B81FF",
"< 	c #A58AFF",
"[ 	c #6E59E2",
"} 	c #484475",
"| 	c #3B3B3B",
"1 	c #373737",
"2 	c #272727",
"3 	c #4C496E",
"4 	c #4E3DC8",
"5 	c #6150E7",
"6 	c #7564FC",
"7 	c #8574FF",
"8 	c #8E7DFF",
"9 	c #7564FD",
"0 	c #6150E9",
"a 	c #4E3DCB",
"b 	c #4C4A6F",
"c 	c #3A3A3A",
"d 	c #2F2F2F",
"e 	c #4E4E52",
"f 	c #3C33A8",
"g 	c #3F36C8",
"h 	c #514AE0",
"i 	c #635EF6",
"j 	c #726DFE",
"k 	c #7B76FE",
"l 	c #635EF7",
"m 	c #514BE3",
"n 	c #4036CB",
"o 	c #3C33AC",
"p 	c #383838",
"q 	c #545380",
"r 	c #271FB0",
"s 	c #3435C6",
"t 	c #454BDB",
"u 	c #575FEC",
"v 	c #6B73FA",
"w 	c #7A80FE",
"x 	c #7B80FE",
"y 	c #6D74FB",
"z 	c #585FEE",
"A 	c #454BDD",
"B 	c #3436CA",
"C 	c #2720B5",
"D 	c #545382",
"E 	c #363636",
"F 	c #353535",
"G 	c #545454",
"H 	c #474594",
"I 	c #1F21B2",
"J 	c #2C38C5",
"K 	c #3F4FD7",
"L 	c #5B6BE8",
"M 	c #7E85F3",
"N 	c #969BFA",
"O 	c #999DFA",
"P 	c #7F85F4",
"Q 	c #5D6CEA",
"R 	c #4050DA",
"S 	c #2C39C9",
"T 	c #2021B7",
"U 	c #474598",
"V 	c #343434",
"W 	c #626262",
"X 	c #3C3A9C",
"Y 	c #1921B4",
"Z 	c #283AC6",
"` 	c #4355D9",
" .	c #6875E8",
"..	c #8D93F2",
"+.	c #C5C8FA",
"@.	c #CBCDFA",
"#.	c #959BF3",
"$.	c #6A77EA",
"%.	c #4456DC",
"&.	c #293CCB",
"*.	c #1A22B9",
"=.	c #3D3BA1",
"-.	c #323232",
";.	c #696969",
">.	c #3F3DA0",
",.	c #1621B6",
"'.	c #2D3CCC",
").	c #4757DD",
"!.	c #6B77EA",
"~.	c #9197F3",
"{.	c #C7C9FA",
"].	c #C6C8FA",
"^.	c #9298F4",
"/.	c #6D79EC",
"(.	c #4858E0",
"_.	c #2D3DD0",
":.	c #1722BC",
"<.	c #3F3EA6",
"[.	c #313131",
"}.	c #5150A0",
"|.	c #191EBC",
"1.	c #303AD1",
"2.	c #4954E2",
"3.	c #6570ED",
"4.	c #8589F5",
"5.	c #9A9DF9",
"6.	c #999CF9",
"7.	c #8588F5",
"8.	c #6672EF",
"9.	c #4A55E4",
"0.	c #323CD6",
"a.	c #1B1FC2",
"b.	c #5150A5",
"c.	c #303030",
"d.	c #606060",
"e.	c #6F6F98",
"f.	c #1E19C1",
"g.	c #3436D6",
"h.	c #4B4FE6",
"i.	c #6165F0",
"j.	c #767BF7",
"k.	c #8788FB",
"l.	c #8789FB",
"m.	c #777CF7",
"n.	c #6166F0",
"o.	c #4B50E8",
"p.	c #3637DA",
"q.	c #1F1AC8",
"r.	c #6F6F9C",
"s.	c #2D2D2D",
"t.	c #4B4B4B",
"u.	c #838386",
"v.	c #4440C0",
"w.	c #372FD8",
"x.	c #4C47E6",
"y.	c #615DF0",
"z.	c #7470F8",
"A.	c #857EFE",
"B.	c #7571F8",
"C.	c #625EF1",
"D.	c #4D49E7",
"E.	c #3830DC",
"F.	c #4540C5",
"G.	c #2A2A2A",
"H.	c #6A6A6A",
"I.	c #85849F",
"J.	c #4033D7",
"K.	c #4C3FE4",
"L.	c #6154EE",
"M.	c #7367F7",
"N.	c #8576FE",
"O.	c #8677FE",
"P.	c #7468F8",
"Q.	c #6155EF",
"R.	c #4D40E5",
"S.	c #4134D8",
"T.	c #8584A1",
"U.	c #282828",
"V.	c #787878",
"W.	c #8B8AA7",
"X.	c #5D52D8",
"Y.	c #5B48E9",
"Z.	c #6B58F2",
"`.	c #7663F7",
" +	c #7763F7",
".+	c #6B59F2",
"++	c #5C49EA",
"@+	c #5D52D9",
"#+	c #262626",
"$+	c #464646",
"%+	c #757575",
"&+	c #949498",
"*+	c #8986BC",
"=+	c #7B71D6",
"-+	c #7667E1",
";+	c #7668E1",
">+	c #232323",
",+	c #3C3C3C",
"'+	c #5F5F5F",
")+	c #7D7D7D",
"!+	c #8D8D8D",
"~+	c #939393",
"{+	c #474747",
"]+	c #555555",
"^+	c #191919",
"/+	c #151515",
"                                        ",
". . . . . . . . . . . . . . . . . . . . ",
"+ + + + + + + + + + + + + + + + + + + + ",
"@ @ @ @ @ @ @ @ @ @ @ @ @ @ @ @ @ @ @ @ ",
"# # # # # # # $ % & & % $ # # # # # # # ",
"* * * * * = - ; > , , > ; - = * * * * * ",
"$ $ $ $ &   ' ) ! ~ ~ ! ) '   & $ $ $ $ ",
"{ { { ] ^ / ( _ : < < : _ [ } ^ ] { { { ",
"| | 1 2 3 4 5 6 7 8 8 7 9 0 a b 2 1 | | ",
"c c d e f g h i j k k j l m n o e d c c ",
"p p { q r s t u v w x y z A B C D { p p ",
"E F G H I J K L M N O P Q R S T U G F E ",
"V F W X Y Z `  ...+.@.#.$.%.&.*.=.W F V ",
"-.1 ;.>.,.'.).!.~.{.].^./.(._.:.<.;.1 -.",
"[.p ;.}.|.1.2.3.4.5.6.7.8.9.0.a.b.;.p c.",
"d V d.e.f.g.h.i.j.k.l.m.n.o.p.q.r.d.% ] ",
"s.s.t.u.v.w.x.y.z.A.A.B.C.D.E.F.u.t.& & ",
"G.G.p H.I.J.K.L.M.N.O.P.Q.R.S.T.H.p G.G.",
"U.U.U.+ V.W.X.Y.Z.`. +.+++@+W.V.+ U.U.U.",
"#+#+#+#+$+%+&+*+=+-+;+=+*+&+%+$+#+#+#+#+",
">+>+>+>+>+,+'+)+!+~+~+!+)+'+,+>+>+>+>+>+",
"- - - - - - - F {+]+]+{+F - - - - - - - ",
", , , , , , , , , , , , , , , , , , , , ",
"^+^+^+^+^+^+^+^+^+^+^+^+^+^+^+^+^+^+^+^+",
"/+/+/+/+/+/+/+/+/+/+/+/+/+/+/+/+/+/+/+/+"};
