/* XPM */
static char * title_1_active_xpm[] = {
"1 25 25 1",
" 	c None",
".	c #131313",
"+	c #595959",
"@	c #454545",
"#	c #434343",
"$	c #424242",
"%	c #404040",
"&	c #3F3F3F",
"*	c #3D3D3D",
"=	c #3B3B3B",
"-	c #3A3A3A",
";	c #383838",
">	c #363636",
",	c #343434",
"'	c #323232",
")	c #303030",
"!	c #2E2E2E",
"~	c #2C2C2C",
"{	c #292929",
"]	c #272727",
"^	c #242424",
"/	c #222222",
"(	c #1E1E1E",
"_	c #1B1B1B",
":	c #171717",
".",
"+",
"@",
"#",
"$",
"%",
"&",
"*",
"=",
"-",
";",
">",
",",
"'",
")",
"!",
"~",
"{",
"]",
"^",
"/",
"(",
"_",
":",
"."};
