/* XPM */
static char * title_1_active_xpm[] = {
"1 34 4 1",
" 	c None",
".	c #939393",
"+	c #E2E2E2",
"@	c #BDBDBD",
".",
"+",
"@",
"@",
"@",
"@",
"@",
"@",
"@",
"@",
"@",
"@",
"@",
"@",
"@",
"@",
"@",
"@",
"@",
"@",
"@",
"@",
"@",
"@",
"@",
"@",
"@",
"@",
"@",
"@",
"@",
"@",
"@",
"@"};
