/* XPM */
static char * top_left_active_xpm[] = {
"28 40 5 1",
" 	c None",
".	c #939393",
"+	c #E2E2E2",
"@	c #BDBDBD",
"#	c #ABABAB",
"         ...................",
"       ...++++++++++++++++++",
"     ...@@@@@@@@@@@@@@@@@@@@",
"    ..@@@@@@@@@@@@@@@@@@@@@@",
"   ..@@@@@@@@@@@@@@@@@@@@@@@",
"  ..@@@@@@@@@@@@@@@@@@@@@@@@",
"  .@@@@@@@@@@@@@@@@@@@@@@@@@",
" ..@@@@@@@@@@@@@@@@@@@@@@@@@",
" .@@@@@@@@@@@@@@@@@@@@@@@@@@",
"..@@@@@@@@@@@@@@@@@@@@@@@@@@",
".#@@@@@@@@@@@@@@@@@@@@@@@@@@",
".#@@@@@@@@@@@@@@@@@@@@@@@@@@",
".#@@@@@@@@@@@@@@@@@@@@@@@@@@",
".#@@@@@@@@@@@@@@@@@@@@@@@@@@",
".#@@@@@@@@@@@@@@@@@@@@@@@@@@",
".#@@@@@@@@@@@@@@@@@@@@@@@@@@",
".#@@@@@@@@@@@@@@@@@@@@@@@@@@",
".#@@@@@@@@@@@@@@@@@@@@@@@@@@",
".#@@@@@@@@@@@@@@@@@@@@@@@@@@",
".#@@@@@@@@@@@@@@@@@@@@@@@@@@",
".#@@@@@@@@@@@@@@@@@@@@@@@@@@",
".#@@@@@@@@@@@@@@@@@@@@@@@@@@",
".#@@@@@@@@@@@@@@@@@@@@@@@@@@",
".#@@@@@@@@@@@@@@@@@@@@@@@@@@",
".#@@@@@@@@@@@@@@@@@@@@@@@@@@",
".#@@@@@@@@@@@@@@@@@@@@@@@@@@",
".#@@@@@@@@@@@@@@@@@@@@@@@@@@",
".#@@@@@@@@@@@@@@@@@@@@@@@@@@",
".#@@@@@@@@@@@@@@@@@@@@@@@@@@",
".#@@@@@@@@@@@@@@@@@@@@@@@@@@",
".#@@@@@@@@@@@@@@@@@@@@@@@@@@",
".#@@@@@@@@@@@@@@@@@@@@@@@@@@",
".#@@@@@@@@@@@@@@@@@@@@@@@@@@",
".#@@@@@@@@@@@@@@@@@@@@@@@@@@",
".#@@@@@@@@@@@@@@@@@@@@@@@@@@",
".#@@@@@@@@@@@@@@@@@@@@@@@@@@",
".#@@@@@@@@@@@@@@@@@@@@@@@@@@",
".#@@@@@@@@@@@@@@@@@@@@@@@@@@",
".#@@@@@@@@@@@@@@@@@@@@@@@@@@",
".#@@@@@@@@@@@@@@@@@@@@@@@@@@"};
