/* XPM */
static char * maximize_pressed_xpm[] = {
"20 25 221 2",
"  	c None",
". 	c #131313",
"+ 	c #595959",
"@ 	c #444444",
"# 	c #434343",
"$ 	c #4F4F4F",
"% 	c #585858",
"& 	c #575757",
"* 	c #4A4949",
"= 	c #414141",
"- 	c #515151",
"; 	c #6C6C6C",
"> 	c #525252",
", 	c #373737",
"' 	c #323431",
") 	c #2E302E",
"! 	c #3F3F3F",
"~ 	c #5C5C5C",
"{ 	c #696969",
"] 	c #464646",
"^ 	c #404040",
"/ 	c #5B5B5B",
"( 	c #6D6D6D",
"_ 	c #414840",
": 	c #739270",
"< 	c #A3CA9E",
"[ 	c #B6DFB1",
"} 	c #B4DDAF",
"| 	c #99BE94",
"1 	c #647F61",
"2 	c #434443",
"3 	c #777777",
"4 	c #4E4E4E",
"5 	c #3E3E3E",
"6 	c #7A797A",
"7 	c #465245",
"8 	c #618C5C",
"9 	c #82B17D",
"0 	c #9FCD9B",
"a 	c #ADDAA9",
"b 	c #ABD8A7",
"c 	c #99C694",
"d 	c #79A874",
"e 	c #597F55",
"f 	c #464946",
"g 	c #7F7F7F",
"h 	c #3D3D3D",
"i 	c #818181",
"j 	c #4F524F",
"k 	c #406F3D",
"l 	c #61915E",
"m 	c #8BB488",
"n 	c #A6CDA4",
"o 	c #576A56",
"p 	c #586B56",
"q 	c #A0C89E",
"r 	c #81AC7E",
"s 	c #548750",
"t 	c #456743",
"u 	c #656565",
"v 	c #747474",
"w 	c #3B3B3B",
"x 	c #505050",
"y 	c #848484",
"z 	c #4A6149",
"A 	c #3E733B",
"B 	c #769C74",
"C 	c #A0BE9F",
"D 	c #BBD5BA",
"E 	c #616D60",
"F 	c #626F62",
"G 	c #B6D0B5",
"H 	c #96B694",
"I 	c #689167",
"J 	c #30692C",
"K 	c #535D53",
"L 	c #8B8B8B",
"M 	c #3A3A3A",
"N 	c #767676",
"O 	c #777877",
"P 	c #305F2E",
"Q 	c #517D50",
"R 	c #8BA88A",
"S 	c #B6CBB5",
"T 	c #CEE0CE",
"U 	c #6A726A",
"V 	c #6C746B",
"W 	c #C9DBC8",
"X 	c #ACC3AB",
"Y 	c #7C9D7B",
"Z 	c #3E713C",
"` 	c #4C644C",
" .	c #8A8A8A",
"..	c #383838",
"+.	c #707070",
"@.	c #155F11",
"#.	c #5C845C",
"$.	c #4A574A",
"%.	c #5F695E",
"&.	c #6B736B",
"*.	c #373A37",
"=.	c #383B38",
"-.	c #687168",
";.	c #5A655A",
">.	c #435243",
",.	c #487747",
"'.	c #3E633D",
").	c #8D8D8D",
"!.	c #646464",
"~.	c #363636",
"{.	c #909090",
"].	c #797979",
"^.	c #11620E",
"/.	c #5B8A5B",
"(.	c #4A5B4A",
"_.	c #5E6B5E",
":.	c #677167",
"<.	c #596859",
"[.	c #435743",
"}.	c #477C46",
"|.	c #416840",
"1.	c #969696",
"2.	c #686868",
"3.	c #343434",
"4.	c #868686",
"5.	c #929292",
"6.	c #346D33",
"7.	c #4B8D4B",
"8.	c #8EBB8E",
"9.	c #B8D9B8",
"0.	c #D1EAD1",
"a.	c #6C776C",
"b.	c #6D796D",
"c.	c #CBE7CB",
"d.	c #AFD3AF",
"e.	c #7EB07D",
"f.	c #368036",
"g.	c #5A745A",
"h.	c #A6A6A6",
"i.	c #545454",
"j.	c #323232",
"k.	c #B1B1B1",
"l.	c #627F62",
"m.	c #2A8E2A",
"n.	c #6FB66F",
"o.	c #A0D5A0",
"p.	c #BAE6BA",
"q.	c #607560",
"r.	c #617761",
"s.	c #B4E3B4",
"t.	c #95CE95",
"u.	c #5EAC5E",
"v.	c #178415",
"w.	c #778177",
"x.	c #B3B3B4",
"y.	c #313131",
"z.	c #303030",
"A.	c #B2B2B2",
"B.	c #8A8D8A",
"C.	c #369236",
"D.	c #3CAE3B",
"E.	c #72CC72",
"F.	c #93E193",
"G.	c #4E734E",
"H.	c #4E754E",
"I.	c #8DDD8D",
"J.	c #65C565",
"K.	c #2AA62A",
"L.	c #578F56",
"M.	c #A2A2A2",
"N.	c #999999",
"O.	c #2F2F2F",
"P.	c #636363",
"Q.	c #C6C6C6",
"R.	c #869486",
"S.	c #34AB34",
"T.	c #2BC32B",
"U.	c #4FD64F",
"V.	c #60E160",
"W.	c #5DDF5D",
"X.	c #47D247",
"Y.	c #1FBD1F",
"Z.	c #50A54F",
"`.	c #939693",
" +	c #C4C4C4",
".+	c #333333",
"++	c #2E2E2E",
"@+	c #2D2D2D",
"#+	c #CCCCCC",
"$+	c #969E96",
"%+	c #6DB26D",
"&+	c #2FCA30",
"*+	c #08D608",
"=+	c #05D405",
"-+	c #40C540",
";+	c #79AB79",
">+	c #A3A4A3",
",+	c #D0D0D0",
"'+	c #5F5F5F",
")+	c #2C2C2C",
"!+	c #2A2A2A",
"~+	c #717171",
"{+	c #D1D1D1",
"]+	c #C8C8C8",
"^+	c #ABABAB",
"/+	c #9B9C9B",
"(+	c #B5B5B5",
"_+	c #D2D2D2",
":+	c #C2C2C2",
"<+	c #484848",
"[+	c #282828",
"}+	c #7D7D7D",
"|+	c #B4B4B4",
"1+	c #C9C9C9",
"2+	c #A9A9A9",
"3+	c #262626",
"4+	c #232323",
"5+	c #202020",
"6+	c #1D1D1D",
"7+	c #191919",
"8+	c #151515",
". . . . . . . . . . . . . . . . . . . . ",
"+ + + + + + + + + + + + + + + + + + + + ",
"@ @ @ @ @ @ @ @ @ @ @ @ @ @ @ @ @ @ @ @ ",
"# # # # # # # $ % % + & * # # # # # # # ",
"= = = = = - ; > , ' ) ! ~ { ] = = = = = ",
"^ ^ ^ ^ / ( _ : < [ } | 1 2 3 4 ^ ^ ^ ^ ",
"5 5 5 > 6 7 8 9 0 a b c d e f g ! 5 5 5 ",
"h h h i j k l m n o p q r s t u v h h h ",
"w w x y z A B C D E F G H I J K L w w w ",
"M M N O P Q R S T U V W X Y Z `  .- M M ",
".... .+.@.#.$.%.&.*.=.-.;.>.,.'.).!.....",
"~.~.{.].^./.(._.&.=.=.:.<.[.}.|.1.2.~.~.",
"3.3.4.5.6.7.8.9.0.a.b.c.d.e.f.g.h.i.3.3.",
"j.j.& k.l.m.n.o.p.q.r.s.t.u.v.w.x.j.j.j.",
"y.z.z.A.B.C.D.E.F.G.H.I.J.K.L.M.N.z.z.z.",
"O.O.O.P.Q.R.S.T.U.V.W.X.Y.Z.`. +.+++++++",
"@+@+@+@+i #+$+%+&+*+=+-+;+>+,+'+@+@+)+)+",
"!+!+!+!+!+~+{+]+^+/+/+(+_+:+<+!+!+!+!+!+",
"[+[+[+[+[+[+[+}+|+1+1+2+'+[+[+[+[+[+[+[+",
"3+3+3+3+3+3+3+3+3+3+3+3+3+3+3+3+3+3+3+3+",
"4+4+4+4+4+4+4+4+4+4+4+4+4+4+4+4+4+4+4+4+",
"5+5+5+5+5+5+5+5+5+5+5+5+5+5+5+5+5+5+5+5+",
"6+6+6+6+6+6+6+6+6+6+6+6+6+6+6+6+6+6+6+6+",
"7+7+7+7+7+7+7+7+7+7+7+7+7+7+7+7+7+7+7+7+",
"8+8+8+8+8+8+8+8+8+8+8+8+8+8+8+8+8+8+8+8+"};
