/* XPM */
static char * button_inactive_xpm[] = {
"34 42 134 2",
"  	c #151515",
". 	c #131313",
"+ 	c #595959",
"@ 	c #444444",
"# 	c #434343",
"$ 	c #424242",
"% 	c #414141",
"& 	c #404040",
"* 	c #3B3B3B",
"= 	c #3A3A3A",
"- 	c #2C2C2C",
"; 	c #191919",
"> 	c #010101",
", 	c #040404",
"' 	c #161616",
") 	c #3F3F3F",
"! 	c #222222",
"~ 	c #060606",
"{ 	c #242424",
"] 	c #353535",
"^ 	c #464646",
"/ 	c #3E3E3E",
"( 	c #2E2E2E",
"_ 	c #070707",
": 	c #272727",
"< 	c #484848",
"[ 	c #494949",
"} 	c #3D3D3D",
"| 	c #252525",
"1 	c #0F0F0F",
"2 	c #333333",
"3 	c #3C3C3C",
"4 	c #4A4A4A",
"5 	c #4C4C4C",
"6 	c #4D4D4D",
"7 	c #363636",
"8 	c #4B4B4B",
"9 	c #4F4F4F",
"0 	c #515151",
"a 	c #535353",
"b 	c #2D2C2C",
"c 	c #343434",
"d 	c #383838",
"e 	c #474747",
"f 	c #545454",
"g 	c #575757",
"h 	c #585858",
"i 	c #373737",
"j 	c #0E0D0E",
"k 	c #454545",
"l 	c #565656",
"m 	c #5C5C5C",
"n 	c #5D5D5D",
"o 	c #0E0E0D",
"p 	c #242323",
"q 	c #555555",
"r 	c #5F5F5F",
"s 	c #616161",
"t 	c #242324",
"u 	c #232323",
"v 	c #393939",
"w 	c #171717",
"x 	c #2F2F2F",
"y 	c #323232",
"z 	c #606060",
"A 	c #626262",
"B 	c #646464",
"C 	c #2B2B2B",
"D 	c #303030",
"E 	c #313131",
"F 	c #5E5E5E",
"G 	c #656565",
"H 	c #676767",
"I 	c #2A2A2A",
"J 	c #5A5A5A",
"K 	c #636363",
"L 	c #696969",
"M 	c #2A292A",
"N 	c #2C2B2B",
"O 	c #6A6A6A",
"P 	c #333232",
"Q 	c #272626",
"R 	c #525252",
"S 	c #686868",
"T 	c #2B2A2A",
"U 	c #2E2D2D",
"V 	c #282828",
"W 	c #262626",
"X 	c #292929",
"Y 	c #2D2D2D",
"Z 	c #373636",
"` 	c #4E4E4E",
" .	c #383737",
"..	c #434242",
"+.	c #212121",
"@.	c #403F3F",
"#.	c #3B3A3A",
"$.	c #1F1F1F",
"%.	c #202020",
"&.	c #4B4A4A",
"*.	c #1E1E1E",
"=.	c #3D3C3C",
"-.	c #4E4D4D",
";.	c #1C1C1C",
">.	c #1D1D1D",
",.	c #474646",
"'.	c #515050",
").	c #262525",
"!.	c #1A1A1A",
"~.	c #1B1B1B",
"{.	c #474746",
"].	c #585757",
"^.	c #181818",
"/.	c #4B4949",
"(.	c #454444",
"_.	c #615F5F",
":.	c #4F4E4D",
"<.	c #4F4E4E",
"[.	c #605F5F",
"}.	c #585756",
"|.	c #686767",
"1.	c #5A5959",
"2.	c #444343",
"3.	c #2A2929",
"4.	c #141414",
"5.	c #585656",
"6.	c #353434",
"7.	c #545353",
"8.	c #686666",
"9.	c #757474",
"0.	c #777676",
"a.	c #727171",
"b.	c #737171",
"c.	c #414040",
"  . . . . . . . . . . . . . . . . . . . . . . . . . . .             ",
"+ + + + + + + + + + + + + + + + + + + + + + + + + + + + + + + + + + ",
"@ @ @ @ @ @ @ @ @ @ @ @ @ @ @ @ @ @ @ @ @ @ @ @ @ @ @ @ @ @ @ @ @ @ ",
"# # # # # # # # # # # # # # # # # # # # # # # # # # # # # # # # # # ",
"$ $ $ $ $ $ $ $ $ $ $ $ $ $ $ $ $ $ $ $ $ $ $ $ $ $ $ $ $ $ $ $ $ $ ",
"$ $ $ $ $ % % % % % % % % % % % % % % % % % % % % % % % % % % % % % ",
"% % % % % % % % % % % % % % & * = = * & % & & & & & & & & & & & & & ",
"& & & & & & & & & & & * - ; > , ' ' , > ; - * & & & & & & & & & & & ",
") ) ) ) ) ) ) ) ) = ! ~ { ] ) @ ^ ^ @ ) ] { ~ ! = ) ) ) ) ) ) ) ) ) ",
"/ / / / / / / / ( _ : * & # ^ < [ [ < ^ # & * : _ ( / / / / / / / / ",
"} } } } } } } | 1 2 3 & @ < 4 5 6 6 5 4 < @ & 3 2 1 | } } } } } } } ",
"3 3 3 3 3 3 { . 7 = ) @ < 8 9 0 a a 0 9 8 < @ ) = 7 . { 3 3 3 3 3 3 ",
"3 3 3 3 3 b 1 c d 3 $ e 5 0 f g h h g f 0 5 e $ 3 d c 1 - * * * * * ",
"* * * * i j ( 7 d ) k 8 0 l + m n n m + l 0 8 @ ) d 7 ( o 7 = = = = ",
"= = = = p { 2 ] = % e 9 q + n r s s r n + q 9 e % = ] 2 t u v v v v ",
"v v v ] w x y c * $ 4 0 g m z A B B A z m g 0 4 $ * c y x w c d d d ",
"d d d C u D E c 3 # 5 a + F A G H H G A F + a 5 # 3 c E D u I i i i ",
"i i i { I x D c * @ 6 f J r K H L L H K r J f 6 @ * c D x M p 7 7 7 ",
"7 7 7 ! N ( x y = # 5 a + F K H O O H K F + a 5 # = y x ( N ! ] ] ] ",
"] ] P Q C - ( E d % 4 R h n s G S S G s n h R 4 % d E ( - C Q y c c ",
"c c y T I C - ( 7 / e 9 q J F s K K s F J q 9 e / 7 ( - C I T E 2 2 ",
"2 2 y U V I C - y = # 8 0 l J m F F m J l 0 8 # = y - C I V ( E y y ",
"y y y P W V X I Y c } k 5 0 q g h h g q 0 5 k } c Y I X V W P E E E ",
"D D D Z : W : X I x 7 / k 8 ` 0 R R 0 ` 8 k / 7 x I X : W : Z D D D ",
"x x x  .Y { W : V X x ] 3 $ ^ [ 4 4 [ ^ $ 3 ] x X V : W { Y  .x x x ",
"( ( ( Z  .! { | W : V - y i 3 ) % % ) 3 i y - V : W | { !  .Z ( ( ( ",
"Y Y Y D ..| +.u { | | W X Y D y c c 2 D - X W | | { u +.| ..D Y Y Y ",
"- - - - @.#.$.%.+.! u { | | W V X X V W | | { u ! +.%.$.#.@.C C C C ",
"C C C C E &.Y *.$.%.+.! ! u u u u u u u u ! ! +.%.$.*.Y &.D I I I I ",
"X X X X X =.-.| ;.>.*.$.%.%.+.+.+.+.+.+.%.%.$.*.>.;.| -.=.X X X X X ",
"V V V V V V ,.'.).!.~.;.>.>.*.*.*.*.*.*.>.>.;.~.!.| '.{.V V V V V V ",
": : : : : : V &.].P ^.; !.!.~.~.~.~.~.~.!.!.; ^.P ]./.: W W W W W W ",
"| | | | | | | | (._.:.| ' w w ^.^.^.^.w w ' | <.[.(.| | | | | | | | ",
"{ { { { { { { { { 2 }.|.1.2.3.4.4.4.4.3.2.1.|.5.P u u u u u u u u u ",
"u u u ! ! ! ! ! ! ! ! 6.7.8.9.0.a.b.0.9.8.7.6.! ! ! ! ! ! ! ! ! ! ! ",
"+.+.+.+.+.+.+.+.+.+.+.+.+.+.Q } c.c.} ).%.%.%.%.%.%.%.%.%.%.%.%.%.%.",
"$.$.$.$.$.$.$.$.$.$.$.$.$.$.$.$.$.$.$.$.$.$.$.$.$.$.$.$.$.$.$.$.$.$.",
">.>.>.>.>.>.>.>.>.>.>.>.>.>.>.>.>.>.>.>.>.>.>.>.>.>.>.>.>.>.>.>.>.>.",
"~.~.~.~.~.~.~.~.~.~.~.~.~.~.~.~.~.~.~.~.~.~.~.~.~.~.~.~.~.~.~.~.~.!.",
"; ; ; ; ; ; ; ; ; ; ; ; ; ; ; ; ; ; ; ; ; ; ; ; ; ; ; ; ; ; ; ; ^.^.",
"w w w w w w w w w w w w w w w w w w w w w w w w w w w w w w w ' ' ' ",
"                                                                    "};
