/* XPM */
static char * close_pressed_xpm[] = {
"34 42 475 2",
"  	c #151515",
". 	c #131313",
"+ 	c #595959",
"@ 	c #444444",
"# 	c #434343",
"$ 	c #424242",
"% 	c #414141",
"& 	c #3D3D3D",
"* 	c #3A3A3A",
"= 	c #404040",
"- 	c #3E3E3E",
"; 	c #2E2F2E",
"> 	c #202020",
", 	c #000000",
"' 	c #010101",
") 	c #060606",
"! 	c #2F2E2E",
"~ 	c #3F3F3F",
"{ 	c #3B3B3B",
"] 	c #272727",
"^ 	c #0C0C0C",
"/ 	c #1A1A1A",
"( 	c #1D1D1D",
"_ 	c #323231",
": 	c #0D0D0D",
"< 	c #101010",
"[ 	c #1B1B1B",
"} 	c #262424",
"| 	c #353131",
"1 	c #71544B",
"2 	c #9E7364",
"3 	c #B08270",
"4 	c #71534B",
"5 	c #252424",
"6 	c #323232",
"7 	c #292929",
"8 	c #2B2A2A",
"9 	c #604542",
"0 	c #BC6D60",
"a 	c #F0927C",
"b 	c #FFA68D",
"c 	c #FFAE94",
"d 	c #FFB398",
"e 	c #604442",
"f 	c #2B2A29",
"g 	c #3C3C3C",
"h 	c #2A2A2A",
"i 	c #161616",
"j 	c #212121",
"k 	c #3F3D3D",
"l 	c #9A5650",
"m 	c #EE7161",
"n 	c #FF826E",
"o 	c #FF907A",
"p 	c #FF9C85",
"q 	c #FFA58D",
"r 	c #FFAA91",
"s 	c #F07161",
"t 	c #9B5650",
"u 	c #333333",
"v 	c #282828",
"w 	c #4C4848",
"x 	c #AC524A",
"y 	c #DF5C4D",
"z 	c #F06A5A",
"A 	c #FE7967",
"B 	c #FF8875",
"C 	c #FF9480",
"D 	c #FF9D87",
"E 	c #FFA28C",
"F 	c #FF9D88",
"G 	c #F26A5A",
"H 	c #E15C4D",
"I 	c #AE524A",
"J 	c #393939",
"K 	c #4D4C4C",
"L 	c #9F4A46",
"M 	c #CA473A",
"N 	c #DA5446",
"O 	c #EB6456",
"P 	c #FB7465",
"Q 	c #FF8272",
"R 	c #FF8D7C",
"S 	c #FF9583",
"T 	c #FF9986",
"U 	c #FC7465",
"V 	c #ED6456",
"W 	c #DD5446",
"X 	c #CD473A",
"Y 	c #A14B46",
"Z 	c #383838",
"` 	c #4A4A4A",
" .	c #835250",
"..	c #B9342B",
"+.	c #C73F35",
"@.	c #D65145",
"#.	c #E66256",
"$.	c #F57063",
"%.	c #FF7C6F",
"&.	c #FF8779",
"*.	c #FF8F80",
"=.	c #FF9384",
"-.	c #FF8F81",
";.	c #FF7D6F",
">.	c #F77064",
",.	c #E96256",
"'.	c #D95145",
").	c #CA3F35",
"!.	c #BC342B",
"~.	c #855250",
"{.	c #665C5C",
"].	c #A82E28",
"^.	c #B72E25",
"/.	c #C53E36",
"(.	c #D35048",
"_.	c #A7463F",
":.	c #A14942",
"<.	c #AA524B",
"[.	c #DB7269",
"}.	c #FF8C81",
"|.	c #FF8F84",
"1.	c #D56F66",
"2.	c #A34942",
"3.	c #AE4841",
"4.	c #D65048",
"5.	c #C83E36",
"6.	c #BB2E25",
"7.	c #AC2E28",
"8.	c #675C5C",
"9.	c #404041",
"0.	c #575757",
"a.	c #895150",
"b.	c #AA2019",
"c.	c #B62B25",
"d.	c #C3403A",
"e.	c #D0514B",
"f.	c #BE524D",
"g.	c #141313",
"h.	c #492826",
"i.	c #F3837C",
"j.	c #FF8D85",
"k.	c #EE8179",
"l.	c #3C2120",
"m.	c #1C1515",
"n.	c #C6554F",
"o.	c #D3514B",
"p.	c #C6403A",
"q.	c #BA2B25",
"r.	c #AF2019",
"s.	c #8B5050",
"t.	c #373737",
"u.	c #343434",
"v.	c #666565",
"w.	c #9C302E",
"x.	c #AA1B15",
"y.	c #B52F2A",
"z.	c #C1423E",
"A.	c #CD534F",
"B.	c #D96460",
"C.	c #974A47",
"D.	c #914F4B",
"E.	c #FE8E88",
"F.	c #FD8D87",
"G.	c #844744",
"H.	c #A34F4C",
"I.	c #DC6460",
"J.	c #D0534F",
"K.	c #C5423E",
"L.	c #B92F2A",
"M.	c #AF1B15",
"N.	c #A1302E",
"O.	c #363636",
"P.	c #303030",
"Q.	c #545454",
"R.	c #776868",
"S.	c #A2120D",
"T.	c #AA1A15",
"U.	c #B5322F",
"V.	c #C04442",
"W.	c #CB5754",
"X.	c #D66764",
"Y.	c #DD726F",
"Z.	c #5F3332",
"`.	c #C8746F",
" +	c #BE6E6A",
".+	c #6A3937",
"++	c #E07370",
"@+	c #DA6764",
"#+	c #CF5754",
"$+	c #C44442",
"%+	c #B9322F",
"&+	c #AF1A15",
"*+	c #A7120D",
"=+	c #786868",
"-+	c #353535",
";+	c #606060",
">+	c #846262",
",+	c #A30E0B",
"'+	c #AB1A17",
")+	c #B53432",
"!+	c #BF4745",
"~+	c #CB5B59",
"{+	c #D76C69",
"]+	c #E17976",
"^+	c #CF7471",
"/+	c #1A1515",
"(+	c #3E2625",
"_+	c #342120",
":+	c #2A1C1B",
"<+	c #D67774",
"[+	c #E47976",
"}+	c #DA6C69",
"|+	c #CF5B59",
"1+	c #C44745",
"2+	c #BA3432",
"3+	c #B01A17",
"4+	c #A80E0B",
"5+	c #866262",
"6+	c #686868",
"7+	c #8B5F5F",
"8+	c #A40C08",
"9+	c #AC1B19",
"0+	c #B63433",
"a+	c #C14A48",
"b+	c #CE5F5D",
"c+	c #D96F6C",
"d+	c #E27C79",
"e+	c #EA8783",
"f+	c #A86360",
"g+	c #B26966",
"h+	c #EB8783",
"i+	c #E57C79",
"j+	c #DC6F6C",
"k+	c #D25F5D",
"l+	c #C64A48",
"m+	c #BB3433",
"n+	c #B21B19",
"o+	c #AA0C08",
"p+	c #8E5F5F",
"q+	c #676868",
"r+	c #6C6C6C",
"s+	c #8D6363",
"t+	c #A60906",
"u+	c #AD1917",
"v+	c #B83433",
"w+	c #C54C4A",
"x+	c #D2615F",
"y+	c #DC716E",
"z+	c #E47E7A",
"A+	c #EB8884",
"B+	c #E38985",
"C+	c #231919",
"D+	c #E98C88",
"E+	c #EC8884",
"F+	c #E67E7A",
"G+	c #DF716E",
"H+	c #D5615F",
"I+	c #CA4C4A",
"J+	c #BD3533",
"K+	c #B31917",
"L+	c #AC0906",
"M+	c #916363",
"N+	c #6F6F6F",
"O+	c #8D6C6C",
"P+	c #A80705",
"Q+	c #AF1513",
"R+	c #BC3331",
"S+	c #CA4C49",
"T+	c #D5615E",
"U+	c #E77E7A",
"V+	c #ED8984",
"W+	c #8F5552",
"X+	c #9B5B58",
"Y+	c #EE8985",
"Z+	c #E97F7A",
"`+	c #E2726E",
" @	c #D9615E",
".@	c #CF4C49",
"+@	c #C23432",
"@@	c #B61514",
"#@	c #AF0705",
"$@	c #906C6C",
"%@	c #313131",
"&@	c #897B7B",
"*@	c #AA0504",
"=@	c #B3110F",
"-@	c #C1312E",
";@	c #CE4946",
">@	c #D95F5C",
",@	c #E2716C",
"'@	c #E97E79",
")@	c #C36F6A",
"!@	c #5D3A37",
"~@	c #4F312F",
"{@	c #CC736F",
"]@	c #EB7E79",
"^@	c #E5716C",
"/@	c #DC605C",
"(@	c #D24946",
"_@	c #C7312F",
":@	c #BA120F",
"<@	c #B20504",
"[@	c #8A7B7B",
"}@	c #2F2F2F",
"|@	c #646464",
"1@	c #838282",
"2@	c #AA3736",
"3@	c #B8100C",
"4@	c #C52C28",
"5@	c #D14540",
"6@	c #DC5C57",
"7@	c #E56E68",
"8@	c #E07670",
"9@	c #442725",
"0@	c #D9867F",
"a@	c #D2827B",
"b@	c #512D2B",
"c@	c #E57872",
"d@	c #E86E69",
"e@	c #DF5C57",
"f@	c #D64541",
"g@	c #CB2C28",
"h@	c #BF100C",
"i@	c #B03736",
"j@	c #2E2E2E",
"k@	c #565656",
"l@	c #7F7F7F",
"m@	c #A16A6A",
"n@	c #BD120D",
"o@	c #C92520",
"p@	c #D43F3A",
"q@	c #DE5650",
"r@	c #E76A63",
"s@	c #85423E",
"t@	c #A96660",
"u@	c #FC9C92",
"v@	c #9E6059",
"w@	c #904843",
"x@	c #E86A63",
"y@	c #E15650",
"z@	c #D93F3A",
"A@	c #CE2620",
"B@	c #C3130E",
"C@	c #A56A6A",
"D@	c #807F7F",
"E@	c #2D2D2D",
"F@	c #484848",
"G@	c #777777",
"H@	c #918888",
"I@	c #BE2E2C",
"J@	c #CB221B",
"K@	c #D63831",
"L@	c #E04E46",
"M@	c #B74C46",
"N@	c #663B36",
"O@	c #F79589",
"P@	c #FF9E91",
"Q@	c #F59488",
"R@	c #5D3632",
"S@	c #C0504A",
"T@	c #E14E47",
"U@	c #DA3831",
"V@	c #D1221C",
"W@	c #C42E2C",
"X@	c #2C2C2C",
"Y@	c #454545",
"Z@	c #616161",
"`@	c #878787",
" #	c #A87A7A",
".#	c #CD211B",
"+#	c #D83028",
"@#	c #DE443B",
"##	c #9B3A33",
"$#	c #97423B",
"%#	c #9B4D45",
"&#	c #DE7B6F",
"*#	c #FD9587",
"=#	c #FFA090",
"-#	c #FE9688",
";#	c #DB796E",
">#	c #9B4D46",
",#	c #98433C",
"'#	c #9F3B34",
")#	c #E0463D",
"!#	c #DA3229",
"~#	c #D3231C",
"{#	c #AB7A7A",
"]#	c #2B2B2B",
"^#	c #4E4E4E",
"/#	c #908F8F",
"(#	c #BD6867",
"_#	c #D92F26",
":#	c #DF3D33",
"<#	c #E55044",
"[#	c #EB6155",
"}#	c #F27165",
"|#	c #F78072",
"1#	c #FC8D7D",
"2#	c #FF9786",
"3#	c #FD8E7E",
"4#	c #F78173",
"5#	c #F27265",
"6#	c #EC6256",
"7#	c #E65045",
"8#	c #DF3E34",
"9#	c #D93027",
"0#	c #BF6867",
"a#	c #838383",
"b#	c #959393",
"c#	c #C36C6A",
"d#	c #DD3A2F",
"e#	c #E3473B",
"f#	c #E95649",
"g#	c #EF6557",
"h#	c #F47263",
"i#	c #F87D6D",
"j#	c #FB8574",
"k#	c #FC8574",
"l#	c #F97E6E",
"m#	c #F47364",
"n#	c #E95749",
"o#	c #E4483C",
"p#	c #DE3B30",
"q#	c #474747",
"r#	c #5D5D5D",
"s#	c #868686",
"t#	c #969595",
"u#	c #B78584",
"v#	c #DD4E45",
"w#	c #E64E41",
"x#	c #EB594B",
"y#	c #F06354",
"z#	c #F36C5C",
"A#	c #F57261",
"B#	c #F36D5D",
"C#	c #F06455",
"D#	c #EB5A4B",
"E#	c #E64F42",
"F#	c #DD4F46",
"G#	c #5E5E5E",
"H#	c #828282",
"I#	c #959494",
"J#	c #A39898",
"K#	c #C4817E",
"L#	c #DF6158",
"M#	c #EA594A",
"N#	c #EE5F50",
"O#	c #EF6253",
"P#	c #DF6258",
"Q#	c #494949",
"R#	c #262626",
"S#	c #252525",
"T#	c #5C5C5C",
"U#	c #737373",
"V#	c #8D8D8D",
"W#	c #989897",
"X#	c #9E9D9D",
"Y#	c #AC9897",
"Z#	c #BC8F8D",
"`#	c #C48A86",
" $	c #242424",
".$	c #848484",
"+$	c #909090",
"@$	c #969696",
"#$	c #989898",
"$$	c #969796",
"%$	c #232323",
"&$	c #222222",
"*$	c #676767",
"=$	c #6A6A6A",
"-$	c #727272",
";$	c #1F1F1F",
">$	c #191919",
",$	c #181818",
"'$	c #171717",
"  . . . . . . . . . . . . . . . . . . . . . . . . . . .             ",
"+ + + + + + + + + + + + + + + + + + + + + + + + + + + + + + + + + + ",
"@ @ @ @ @ @ @ @ @ @ @ @ @ @ @ @ @ @ @ @ @ @ @ @ @ @ @ @ @ @ @ @ @ @ ",
"# # # # # # # # # # # # # # # # # # # # # # # # # # # # # # # # # # ",
"$ $ $ $ $ $ $ $ $ $ $ $ $ $ $ $ $ $ $ $ $ $ $ $ $ $ $ $ $ $ $ $ $ $ ",
"$ $ $ $ $ % % % % % % % % % % % % % % % % % % % % % % % % % % % % % ",
"% % % % % % % % % % % % % % % & * * & % % = = = = = = = = = = = = = ",
"= = = = = = = = = = = - ; > , ' ) ) ' , > ! - = = = = = = = = = = = ",
"~ ~ ~ ~ ~ ~ ~ ~ ~ { ] ' ^   / ( ( ( ( /   ^ ' ] { ~ ~ ~ ~ ~ ~ ~ ~ ~ ",
"- - - - - - - - _ : < [ } | 1 2 3 3 2 4 | 5 [ < : 6 - - - - - - - - ",
"& & & & & & - 7 < / 8 9 0 a b c d d c b a 0 e f / < 7 - & & & & & & ",
"g g g g g g h i j k l m n o p q r r q p o n s t k j i h g g g g g g ",
"g g g g g u / v w x y z A B C D E E F C B A G H I w ] / u { { { { { ",
"{ { { { J > 7 K L M N O P Q R S T T S R Q U V W X Y K 7 > Z * * * * ",
"* * * * 6 ] `  ...+.@.#.$.%.&.*.=.=.-.&.;.>.,.'.).!.~.` ] 6 J J J J ",
"J J J { ] % {.].^./.(._.:.<.[.}.|.|.}.1.<.2.3.4.5.6.7.8.9.] * Z Z Z ",
"Z Z Z u 6 0.a.b.c.d.e.f.g.. h.i.j.j.k.l.. m.n.o.p.q.r.s.0.6 6 t.t.t.",
"t.t.t.u.@ v.w.x.y.z.A.B.C.. . D.E.F.G.. . H.I.J.K.L.M.N.v.@ u.O.O.O.",
"O.O.t.P.Q.R.S.T.U.V.W.X.Y.Z.. . `. +. . .+++@+#+$+%+&+*+=+Q.P.t.-+-+",
"-+-+O.-+;+>+,+'+)+!+~+{+]+^+/+. (+_+. :+<+[+}+|+1+2+3+4+5+;+-+-+u.u.",
"u.u.u.& 6+7+8+9+0+a+b+c+d+e+f+. . . . g+h+i+j+k+l+m+n+o+p+q+& u.u u ",
"u u u.% r+s+t+u+v+w+x+y+z+A+B+g.. . C+D+E+F+G+H+I+J+K+L+M+r+% u 6 6 ",
"6 6 -+- N+O+P+Q+R+S+T+G+U+V+W+. . . . X+Y+Z+`+ @.@+@@@#@$@N+- u.%@%@",
"P.P.u ~ r+&@*@=@-@;@>@,@'@)@. . !@~@. . {@]@^@/@(@_@:@<@[@r+~ u P.P.",
"}@}@}@$ |@1@2@3@4@5@6@7@8@9@. . 0@a@. . b@c@d@e@f@g@h@i@1@|@$ }@}@}@",
"j@j@j@& k@l@m@n@o@p@q@r@s@. . t@u@u@v@. . w@x@y@z@A@B@C@D@k@& j@j@j@",
"E@E@E@-+F@G@H@I@J@K@L@M@. . N@O@P@P@Q@R@. . S@T@U@V@W@H@G@F@-+E@E@E@",
"X@X@X@X@Y@Z@`@ #.#+#@###$#%#&#*#=#=#-#;#>#,#'#)#!#~#{#`@Z@Y@]#]#]#]#",
"]#]#]#]#u ^#G@/#(#_#:#<#[#}#|#1#2#2#3#4#5#6#7#8#9#0#/#G@^#6 h h h h ",
"7 7 7 7 7 % 0.a#b#c#d#e#f#g#h#i#j#k#l#m#g#n#o#p#c#b#a#0.% 7 7 7 7 7 ",
"v v v v v v q#r#s#t#u#v#w#x#y#z#A#A#B#C#D#E#F#u#t#s#r#q#v v v v v v ",
"] ] ] ] ] ] 7 ` G#H#I#J#K#L#M#N#O#O#N#x#P#K#J#I#H#G#Q#v R#R#R#R#R#R#",
"S#S#S#S#S#S#S#S#Y@T#U#V#W#X#Y#Z#`#`#Z#Y#X#W#V#U#T#Y@S#S#S#S#S#S#S#S#",
" $ $ $ $ $ $ $ $ $u.Q.Z@U#.$+$@$#$#$$$+$.$U#Z@Q.u.%$%$%$%$%$%$%$%$%$",
"%$%$%$&$&$&$&$&$&$&$&$t.^#r#*$=$-$-$=$*$r#^#t.&$&$&$&$&$&$&$&$&$&$&$",
"j j j j j j j j j j j j j j ]#J * * J h > > > > > > > > > > > > > > ",
";$;$;$;$;$;$;$;$;$;$;$;$;$;$;$;$;$;$;$;$;$;$;$;$;$;$;$;$;$;$;$;$;$;$",
"( ( ( ( ( ( ( ( ( ( ( ( ( ( ( ( ( ( ( ( ( ( ( ( ( ( ( ( ( ( ( ( ( ( ",
"[ [ [ [ [ [ [ [ [ [ [ [ [ [ [ [ [ [ [ [ [ [ [ [ [ [ [ [ [ [ [ [ [ / ",
">$>$>$>$>$>$>$>$>$>$>$>$>$>$>$>$>$>$>$>$>$>$>$>$>$>$>$>$>$>$>$>$,$,$",
"'$'$'$'$'$'$'$'$'$'$'$'$'$'$'$'$'$'$'$'$'$'$'$'$'$'$'$'$'$'$'$i i i ",
"                                                                    "};
