/* XPM */
static char * close_prelight_xpm[] = {
"34 42 480 2",
"  	c #151515",
". 	c #131313",
"+ 	c #595959",
"@ 	c #444444",
"# 	c #434343",
"$ 	c #424242",
"% 	c #414141",
"& 	c #3D3D3D",
"* 	c #3A3A3A",
"= 	c #404040",
"- 	c #3E3E3E",
"; 	c #2E2F2E",
"> 	c #202020",
", 	c #000000",
"' 	c #0B0B0B",
") 	c #262626",
"! 	c #2F2E2E",
"~ 	c #3F3F3F",
"{ 	c #3B3B3B",
"] 	c #272727",
"^ 	c #040404",
"/ 	c #373737",
"( 	c #535353",
"_ 	c #646464",
": 	c #6C6C6C",
"< 	c #6E6E6E",
"[ 	c #6D6D6D",
"} 	c #6B6B6B",
"| 	c #616161",
"1 	c #505050",
"2 	c #353535",
"3 	c #030303",
"4 	c #323231",
"5 	c #0D0D0D",
"6 	c #8E716D",
"7 	c #C7897C",
"8 	c #E69F8A",
"9 	c #F7AF96",
"0 	c #FFBA9E",
"a 	c #E59F8A",
"b 	c #C6887A",
"c 	c #8B6E69",
"d 	c #5C5C5C",
"e 	c #393939",
"f 	c #323232",
"g 	c #292929",
"h 	c #1F1F1F",
"i 	c #545454",
"j 	c #866866",
"k 	c #D87669",
"l 	c #FF8B76",
"m 	c #FF9982",
"n 	c #FFA68D",
"o 	c #FFAE94",
"p 	c #FFB398",
"q 	c #D87467",
"r 	c #836461",
"s 	c #4F4F4F",
"t 	c #1E1E1E",
"u 	c #3C3C3C",
"v 	c #2A2A2A",
"w 	c #5A5A5A",
"x 	c #9D615C",
"y 	c #E06455",
"z 	c #F57361",
"A 	c #FF826E",
"B 	c #FF907A",
"C 	c #FF9C85",
"D 	c #FFA48C",
"E 	c #FFA990",
"F 	c #F77361",
"G 	c #E26455",
"H 	c #9C5D58",
"I 	c #242424",
"J 	c #333333",
"K 	c #565756",
"L 	c #9D5752",
"M 	c #CD4E41",
"N 	c #DF5C4D",
"O 	c #F06A5A",
"P 	c #FE7866",
"Q 	c #FF8671",
"R 	c #FF917B",
"S 	c #FF9E86",
"T 	c #F26A5A",
"U 	c #E15C4D",
"V 	c #D04E41",
"W 	c #9E534E",
"X 	c #515151",
"Y 	c #232323",
"Z 	c #4C4C4C",
"` 	c #8A5350",
" .	c #BB3B30",
"..	c #CA473A",
"+.	c #DA5346",
"@.	c #EB6051",
"#.	c #FB6D5D",
"$.	c #FF7A67",
"%.	c #FF8571",
"&.	c #FF8C77",
"*.	c #FC6E5D",
"=.	c #ED6051",
"-.	c #DD5346",
";.	c #CD473A",
">.	c #BE3B30",
",.	c #894F4C",
"'.	c #474747",
").	c #383838",
"!.	c #6E5554",
"~.	c #AB2F27",
"{.	c #B9342B",
"].	c #C73F34",
"^.	c #D64A3E",
"/.	c #E55748",
"(.	c #F56253",
"_.	c #FF6E5D",
":.	c #FF7865",
"<.	c #FF7F6C",
"[.	c #FF836F",
"}.	c #F76253",
"|.	c #E85748",
"1.	c #D94A3E",
"2.	c #CA3F34",
"3.	c #BC342B",
"4.	c #AF2E26",
"5.	c #6C504F",
"6.	c #363636",
"7.	c #282828",
"8.	c #4E4E4E",
"9.	c #943D39",
"0.	c #AB251E",
"a.	c #B72D25",
"b.	c #C4372D",
"c.	c #D14136",
"d.	c #A73930",
"e.	c #A13C33",
"f.	c #A94339",
"g.	c #DB5C4E",
"h.	c #FF705F",
"i.	c #FF7462",
"j.	c #D55A4C",
"k.	c #AA4339",
"l.	c #A23C33",
"m.	c #AD3B31",
"n.	c #D54136",
"o.	c #C7372D",
"p.	c #BB2D25",
"q.	c #AF251E",
"r.	c #973B36",
"s.	c #494949",
"t.	c #68504E",
"u.	c #A01A14",
"v.	c #AA2019",
"w.	c #B5271F",
"x.	c #C12F26",
"y.	c #CD382E",
"z.	c #BB372E",
"A.	c #141313",
"B.	c #491F1C",
"C.	c #F35D4F",
"D.	c #FF6455",
"E.	c #EE5C4D",
"F.	c #3C1B19",
"G.	c #1C1413",
"H.	c #C4392F",
"I.	c #D1382E",
"J.	c #C52F26",
"K.	c #B9271F",
"L.	c #AF2019",
"M.	c #A61A14",
"N.	c #674C4A",
"O.	c #343434",
"P.	c #803F3D",
"Q.	c #A11610",
"R.	c #AA1B15",
"S.	c #B4211A",
"T.	c #BE2820",
"U.	c #C92F26",
"V.	c #D4372E",
"W.	c #942923",
"X.	c #91332B",
"Y.	c #FE5A4B",
"Z.	c #FD5A4B",
"`.	c #842E27",
" +	c #A02C25",
".+	c #D8382E",
"++	c #CD2F27",
"@+	c #C22820",
"#+	c #B8211A",
"$+	c #AF1B15",
"%+	c #A61610",
"&+	c #823D3B",
"*+	c #303030",
"=+	c #902F2C",
"-+	c #A2120D",
";+	c #AA1611",
">+	c #B31B15",
",+	c #BC211A",
"'+	c #C62720",
")+	c #D12F26",
"!+	c #D7382E",
"~+	c #5C1D1A",
"{+	c #C74439",
"]+	c #BD4036",
"^+	c #68201C",
"/+	c #DB392F",
"(+	c #D42F27",
"_+	c #CA2720",
":+	c #C0211A",
"<+	c #B71B15",
"[+	c #AF1611",
"}+	c #A7120D",
"|+	c #942E2A",
"1+	c #9C1F17",
"2+	c #A30E0B",
"3+	c #AA120D",
"4+	c #B21611",
"5+	c #BB1B15",
"6+	c #C5231C",
"7+	c #DB3A2F",
"8+	c #CA3B31",
"9+	c #1A1413",
"0+	c #3D1A18",
"a+	c #341816",
"b+	c #291515",
"c+	c #D23C32",
"d+	c #DE3A2F",
"e+	c #CA231C",
"f+	c #C01B15",
"g+	c #B81611",
"h+	c #B0120D",
"i+	c #A80E0B",
"j+	c #A11E16",
"k+	c #464646",
"l+	c #373838",
"m+	c #484848",
"n+	c #9F0C07",
"o+	c #A40C08",
"p+	c #AB0E0A",
"q+	c #B3120D",
"r+	c #BD1A14",
"s+	c #C8251E",
"t+	c #D33128",
"u+	c #DC3C31",
"v+	c #E44439",
"w+	c #A5352C",
"x+	c #AF382E",
"y+	c #E64439",
"z+	c #DF3C31",
"A+	c #D63128",
"B+	c #CD261F",
"C+	c #C21A15",
"D+	c #B8120D",
"E+	c #B20E0A",
"F+	c #AA0C08",
"G+	c #A50C07",
"H+	c #A00A06",
"I+	c #A60906",
"J+	c #AD0B08",
"K+	c #B5110D",
"L+	c #C11E17",
"M+	c #CC2A22",
"N+	c #D6342B",
"O+	c #DE3F34",
"P+	c #E6483C",
"Q+	c #DE4A3E",
"R+	c #231514",
"S+	c #E54C3F",
"T+	c #E7483C",
"U+	c #E13F34",
"V+	c #D9362C",
"W+	c #D02A22",
"X+	c #C61E17",
"Y+	c #BB120D",
"Z+	c #B30B08",
"`+	c #AC0906",
" @	c #A70A06",
".@	c #A11D13",
"+@	c #A80705",
"@@	c #AF0A07",
"#@	c #BA1510",
"$@	c #C6221B",
"%@	c #D02E26",
"&@	c #DA3A2F",
"*@	c #E14338",
"=@	c #E84D40",
"-@	c #8C3129",
";@	c #98342C",
">@	c #EA4E40",
",@	c #E44539",
"'@	c #DD3A30",
")@	c #D42E26",
"!@	c #CB231C",
"~@	c #C01611",
"{@	c #B50A07",
"]@	c #AF0705",
"^@	c #A81D13",
"/@	c #313131",
"(@	c #982924",
"_@	c #AA0504",
":@	c #B30C08",
"<@	c #BF1913",
"[@	c #CB261E",
"}@	c #D53329",
"|@	c #DD3F34",
"1@	c #E54A3D",
"2@	c #C04237",
"3@	c #5C2722",
"4@	c #4E231E",
"5@	c #C9463A",
"6@	c #E74A3E",
"7@	c #D9342A",
"8@	c #CF271F",
"9@	c #C51A14",
"0@	c #BA0D09",
"a@	c #B20504",
"b@	c #9D2923",
"c@	c #2F2F2F",
"d@	c #853531",
"e@	c #AD0503",
"f@	c #B80F0B",
"g@	c #C41D17",
"h@	c #CF2A22",
"i@	c #D9372D",
"j@	c #DD4B3E",
"k@	c #431C19",
"l@	c #D86051",
"m@	c #D15D4F",
"n@	c #501F1C",
"o@	c #E24D40",
"p@	c #E54439",
"q@	c #DD382E",
"r@	c #D42B23",
"s@	c #CA1D17",
"t@	c #BF0F0B",
"u@	c #B50503",
"v@	c #8A3431",
"w@	c #2E2E2E",
"x@	c #61413C",
"y@	c #B10604",
"z@	c #BD120D",
"A@	c #C82019",
"B@	c #D32D25",
"C@	c #DC3B30",
"D@	c #E5483C",
"E@	c #A94F43",
"F@	c #FB7966",
"G@	c #FB7967",
"H@	c #9E4A3F",
"I@	c #8E322A",
"J@	c #E6493C",
"K@	c #E03B31",
"L@	c #D82E25",
"M@	c #CE201A",
"N@	c #C3130E",
"O@	c #B90604",
"P@	c #63413B",
"Q@	c #2D2D2D",
"R@	c #A03026",
"S@	c #C0130E",
"T@	c #CB211A",
"U@	c #D62F26",
"V@	c #DF3D32",
"W@	c #B63930",
"X@	c #66302A",
"Y@	c #F77A67",
"Z@	c #FF8470",
"`@	c #F57967",
" #	c #5D2D27",
".#	c #BE3D33",
"+#	c #E03E33",
"@#	c #DA3027",
"##	c #D1221B",
"$#	c #C7140F",
"%#	c #A53026",
"&#	c #2C2C2C",
"*#	c #454545",
"=#	c #633D39",
"-#	c #C01C13",
";#	c #CD211B",
">#	c #D82F27",
",#	c #DD3C32",
"'#	c #9A322A",
")#	c #973930",
"!#	c #9A4137",
"~#	c #DD6858",
"{#	c #FD816E",
"]#	c #FF8E78",
"^#	c #FF8E79",
"/#	c #FE826E",
"(#	c #DB6758",
"_#	c #9B4238",
":#	c #9E342C",
"<#	c #DF3F34",
"[#	c #DA3128",
"}#	c #D3231C",
"|#	c #C71D14",
"1#	c #653D39",
"2#	c #2B2B2B",
"3#	c #8B3B33",
"4#	c #CF211A",
"5#	c #D92F26",
"6#	c #E54A3E",
"7#	c #EB584A",
"8#	c #F16555",
"9#	c #F77261",
"0#	c #FC7F6C",
"a#	c #FF8A75",
"b#	c #FD806D",
"c#	c #F77362",
"d#	c #F16656",
"e#	c #EB594B",
"f#	c #DF3E33",
"g#	c #D93027",
"h#	c #D3221B",
"i#	c #8F3B33",
"j#	c #A03E30",
"k#	c #D72C24",
"l#	c #DD3A2F",
"m#	c #E3473B",
"n#	c #E95446",
"o#	c #EF6051",
"p#	c #F46C5B",
"q#	c #F87664",
"r#	c #FB7D6A",
"s#	c #FC7E6B",
"t#	c #F97765",
"u#	c #F46D5C",
"v#	c #EF6152",
"w#	c #E95547",
"x#	c #E4483C",
"y#	c #DE3B30",
"z#	c #D82D25",
"A#	c #A13E31",
"B#	c #954034",
"C#	c #D8392D",
"D#	c #E04236",
"E#	c #E64E41",
"F#	c #F06354",
"G#	c #F36B5B",
"H#	c #F5705F",
"I#	c #EB5A4B",
"J#	c #E64F42",
"K#	c #E14337",
"L#	c #D83A2D",
"M#	c #4A4A4A",
"N#	c #555555",
"O#	c #6B3E36",
"P#	c #BF4736",
"Q#	c #E2463A",
"R#	c #E65043",
"S#	c #EA594A",
"T#	c #EE5F50",
"U#	c #EF6253",
"V#	c #E75143",
"W#	c #C04737",
"X#	c #6C3E37",
"Y#	c #252525",
"Z#	c #6D4438",
"`#	c #AC483C",
" $	c #CD5040",
".$	c #E25945",
"+$	c #E95647",
"@$	c #CD5141",
"#$	c #606060",
"$$	c #313132",
"%$	c #333434",
"&$	c #222222",
"*$	c #5D5D5D",
"=$	c #676767",
"-$	c #686868",
";$	c #636363",
">$	c #212121",
",$	c #1D1D1D",
"'$	c #1B1B1B",
")$	c #1A1A1A",
"!$	c #191919",
"~$	c #181818",
"{$	c #171717",
"]$	c #161616",
"  . . . . . . . . . . . . . . . . . . . . . . . . . . .             ",
"+ + + + + + + + + + + + + + + + + + + + + + + + + + + + + + + + + + ",
"@ @ @ @ @ @ @ @ @ @ @ @ @ @ @ @ @ @ @ @ @ @ @ @ @ @ @ @ @ @ @ @ @ @ ",
"# # # # # # # # # # # # # # # # # # # # # # # # # # # # # # # # # # ",
"$ $ $ $ $ $ $ $ $ $ $ $ $ $ $ $ $ $ $ $ $ $ $ $ $ $ $ $ $ $ $ $ $ $ ",
"$ $ $ $ $ % % % % % % % % % % % % % % % % % % % % % % % % % % % % % ",
"% % % % % % % % % % % % % % % & * * & % % = = = = = = = = = = = = = ",
"= = = = = = = = = = = - ; > , ' ) ) ' , > ! - = = = = = = = = = = = ",
"~ ~ ~ ~ ~ ~ ~ ~ ~ { ] ^ / ( _ : < [ } | 1 2 3 ] { ~ ~ ~ ~ ~ ~ ~ ~ ~ ",
"- - - - - - - - 4 5 & | 6 7 8 9 0 0 9 a b c d e 5 f - - - - - - - - ",
"& & & & & & - g h i j k l m n o p p o n m l q r s t g - & & & & & & ",
"u u u u u u v ) w x y z A B C D E E D C B A F G H i I v u u u u u u ",
"u u u u u J I K L M N O P Q R m S S m R Q P T U V W X Y J { { { { { ",
"{ { { { e > Z `  ...+.@.#.$.%.&.R R &.%.$.*.=.-.;.>.,.'.> ).* * * * ",
"* * * * f e !.~.{.].^./.(._.:.<.[.[.<.:._.}.|.1.2.3.4.5.6.f e e e e ",
"e e e { 7.8.9.0.a.b.c.d.e.f.g.h.i.i.h.j.k.l.m.n.o.p.q.r.s.] * ).).).",
").).).J 6.t.u.v.w.x.y.z.A.. B.C.D.D.E.F.. G.H.I.J.K.L.M.N.O.f / / / ",
"/ / / O.% P.Q.R.S.T.U.V.W.. . X.Y.Z.`.. .  +.+++@+#+$+%+&+- O.6.6.6.",
"6.6./ *+'.=+-+;+>+,+'+)+!+~+. . {+]+. . ^+/+(+_+:+<+[+}+|+@ *+/ 2 2 ",
"2 2 6.O.s.1+2+3+4+5+6+)+7+8+9+. 0+a+. b+c+d+(+e+f+g+h+i+j+k+O.2 O.O.",
"O.O.O.l+m+n+o+p+q+r+s+t+u+v+w+. . . . x+y+z+A+B+C+D+E+F+G+k+/ O.J J ",
"J J O.* k+H+I+J+K+L+M+N+O+P+Q+A.. . R+S+T+U+V+W+X+Y+Z+`+ @@ e J f f ",
"f f 2 & $ .@+@@@#@$@%@&@*@=@-@. . . . ;@>@,@'@)@!@~@{@]@^@% & O./@/@",
"*+*+J ~ ~ (@_@:@<@[@}@|@1@2@. . 3@4@. . 5@6@U+7@8@9@0@a@b@- ~ J *+*+",
"c@c@c@$ & d@e@f@g@h@i@*@j@k@. . l@m@. . n@o@p@q@r@s@t@u@v@& $ c@c@c@",
"w@w@w@& % x@y@z@A@B@C@D@`.. . E@F@G@H@. . I@J@K@L@M@N@O@P@% & w@w@w@",
"Q@Q@Q@2 m+u R@S@T@U@V@W@. . X@Y@Z@Z@`@ #. . .#+#@###$#%#{ m+2 Q@Q@Q@",
"&#&#&#&#*## =#-#;#>#,#'#)#!#~#{#]#^#/#(#_#)#:#<#[#}#|#1## *#2#2#2#2#",
"2#2#2#2#J 8.u 3#4#5#V@6#7#8#9#0#a#l b#c#d#e#S+f#g#h#i#u 8.f v v v v ",
"g g g g g % 8.e j#k#l#m#n#o#p#q#r#s#t#u#v#w#x#y#z#A#e 8.% g g g g g ",
"7.7.7.7.7.7.'.1 ).B#C#D#E#e#F#G#H#H#G#F#I#J#K#L#B#e 1 '.7.7.7.7.7.7.",
"] ] ] ] ] ] g M#N#- O#P#Q#R#S#T#U#U#T#e#V#m#W#X#- N#s.7.) ) ) ) ) ) ",
"Y#Y#Y#Y#Y#Y#Y#Y#*#d 8.).Z#`# $.$+$+$.$@$`#Z#).8.d *#Y#Y#Y#Y#Y#Y#Y#Y#",
"I I I I I I I I I O.i #$N#k+e $$%$%$$$e k+N##$i O.Y Y Y Y Y Y Y Y Y ",
"Y Y Y &$&$&$&$&$&$&$&$/ 8.*$=$-$;$;$-$=$*$8./ &$&$&$&$&$&$&$&$&$&$&$",
">$>$>$>$>$>$>$>$>$>$>$>$>$>$2#e * * e v > > > > > > > > > > > > > > ",
"h h h h h h h h h h h h h h h h h h h h h h h h h h h h h h h h h h ",
",$,$,$,$,$,$,$,$,$,$,$,$,$,$,$,$,$,$,$,$,$,$,$,$,$,$,$,$,$,$,$,$,$,$",
"'$'$'$'$'$'$'$'$'$'$'$'$'$'$'$'$'$'$'$'$'$'$'$'$'$'$'$'$'$'$'$'$'$)$",
"!$!$!$!$!$!$!$!$!$!$!$!$!$!$!$!$!$!$!$!$!$!$!$!$!$!$!$!$!$!$!$!$~$~$",
"{${${${${${${${${${${${${${${${${${${${${${${${${${${${${${${$]$]$]$",
"                                                                    "};
