/* XPM */
static char * hide_pressed_xpm[] = {
"34 42 390 2",
"  	c #151515",
". 	c #131313",
"+ 	c #595959",
"@ 	c #444444",
"# 	c #434343",
"$ 	c #424242",
"% 	c #414141",
"& 	c #3D3D3D",
"* 	c #3A3A3A",
"= 	c #404040",
"- 	c #3E3E3E",
"; 	c #2E2F2E",
"> 	c #202020",
", 	c #000000",
"' 	c #010101",
") 	c #050505",
"! 	c #2F2E2E",
"~ 	c #3F3F3F",
"{ 	c #3B3B3B",
"] 	c #272727",
"^ 	c #0B0B0B",
"/ 	c #181818",
"( 	c #1A1A1A",
"_ 	c #323231",
": 	c #0D0D0D",
"< 	c #0F0F0F",
"[ 	c #191919",
"} 	c #222222",
"| 	c #2F2F2F",
"1 	c #6F6C52",
"2 	c #9C9C73",
"3 	c #AEAE82",
"4 	c #6E6C52",
"5 	c #323232",
"6 	c #292929",
"7 	c #282828",
"8 	c #5D5144",
"9 	c #BBA06D",
"0 	c #F0DA93",
"a 	c #FFF4A7",
"b 	c #FFFDB0",
"c 	c #FFFFB5",
"d 	c #3C3C3C",
"e 	c #2A2A2A",
"f 	c #161616",
"g 	c #A87D57",
"h 	c #F8BE73",
"i 	c #FFD384",
"j 	c #FFE193",
"k 	c #FFED9F",
"l 	c #FFF6A8",
"m 	c #FFFBAD",
"n 	c #FFEE9F",
"o 	c #333333",
"p 	c #262626",
"q 	c #4C4948",
"r 	c #CF8852",
"s 	c #FFAD5E",
"t 	c #FFBD6C",
"u 	c #FFCD7D",
"v 	c #FFDB8D",
"w 	c #FFE79A",
"x 	c #FFF0A3",
"y 	c #FFF4A8",
"z 	c #393939",
"A 	c #4C4C4C",
"B 	c #C47D4B",
"C 	c #F99A48",
"D 	c #FFA856",
"E 	c #FFB86A",
"F 	c #FFC87D",
"G 	c #FFD68C",
"H 	c #FFE098",
"I 	c #FFE8A0",
"J 	c #FFECA4",
"K 	c #FFE198",
"L 	c #383838",
"M 	c #4A4A4A",
"N 	c #9B6C52",
"O 	c #E68936",
"P 	c #F19542",
"Q 	c #FCA558",
"R 	c #FFB56D",
"S 	c #FFC47E",
"T 	c #FFD08C",
"U 	c #FFDA98",
"V 	c #FFE1A0",
"W 	c #FFE5A4",
"X 	c #6C615D",
"Y 	c #D27B30",
"Z 	c #DF8630",
"` 	c #E99446",
" .	c #F4A45E",
"..	c #FDB271",
"+.	c #FFC082",
"@.	c #FFCD91",
"#.	c #FFD69D",
"$.	c #FFDCA4",
"%.	c #FFDFA8",
"&.	c #FDB371",
"*.	c #D27B2F",
"=.	c #575757",
"-.	c #A26F52",
";.	c #D27922",
">.	c #D98432",
",.	c #E3944F",
"'.	c #ECA364",
").	c #F5B278",
"!.	c #FDBF8A",
"~.	c #FFCA98",
"{.	c #FFD2A2",
"].	c #FFD8A9",
"^.	c #FFDBAC",
"/.	c #FFD3A2",
"(.	c #373737",
"_.	c #343434",
":.	c #666666",
"<.	c #BF7132",
"[.	c #CD771F",
"}.	c #D4853B",
"|.	c #DD9456",
"1.	c #E5A36B",
"2.	c #EEB281",
"3.	c #F5BF92",
"4.	c #FBC99E",
"5.	c #FED1A7",
"6.	c #FFD7AD",
"7.	c #FFD9B0",
"8.	c #E5A36C",
"9.	c #363636",
"0.	c #303030",
"a.	c #545454",
"b.	c #7D6F69",
"c.	c #C47016",
"d.	c #C87720",
"e.	c #D08543",
"f.	c #D7945B",
"g.	c #E0A474",
"h.	c #E8B488",
"i.	c #EEC197",
"j.	c #F4CBA3",
"k.	c #F8D3AC",
"l.	c #FBD8B2",
"m.	c #FCDBB6",
"n.	c #FCDBB5",
"o.	c #EFC198",
"p.	c #C46F16",
"q.	c #353535",
"r.	c #606060",
"s.	c #917263",
"t.	c #C16F13",
"u.	c #C57724",
"v.	c #CC8647",
"w.	c #AC784B",
"x.	c #926D4F",
"y.	c #98785C",
"z.	c #9C8166",
"A.	c #A0886E",
"B.	c #A28D74",
"C.	c #A49078",
"D.	c #A5927B",
"E.	c #98795C",
"F.	c #AC784C",
"G.	c #686868",
"H.	c #997461",
"I.	c #BE6F11",
"J.	c #C27726",
"K.	c #C88649",
"L.	c #88603B",
"M.	c #88603C",
"N.	c #997460",
"O.	c #676868",
"P.	c #6C6C6C",
"Q.	c #9A7764",
"R.	c #BB6F0F",
"S.	c #BF7625",
"T.	c #C58748",
"U.	c #87623C",
"V.	c #87633C",
"W.	c #6F6F6F",
"X.	c #957B6D",
"Y.	c #B96F0E",
"Z.	c #BC7620",
"`.	c #C48A44",
" +	c #AF8550",
".+	c #9E825A",
"++	c #A38D68",
"@+	c #A89574",
"#+	c #AB9C7D",
"$+	c #AEA184",
"%+	c #B0A48B",
"&+	c #B1A78F",
"*+	c #AEA084",
"=+	c #AC9C7D",
"-+	c #AF8650",
";+	c #C58A44",
">+	c #313131",
",+	c #8B817C",
"'+	c #B8700D",
")+	c #BB7817",
"!+	c #C48C3E",
"~+	c #CC9F5B",
"{+	c #D6B177",
"]+	c #DDC08B",
"^+	c #E3CB9B",
"/+	c #E8D4A8",
"(+	c #EBDAB2",
"_+	c #EEDFBA",
":+	c #F0E2BF",
"<+	c #EFE2BF",
"[+	c #D6B277",
"}+	c #CD9F5B",
"|+	c #C48D3E",
"1+	c #BB7917",
"2+	c #646464",
"3+	c #838383",
"4+	c #B27639",
"5+	c #BB7C0F",
"6+	c #C38D33",
"7+	c #CB9F51",
"8+	c #D4B16E",
"9+	c #DCC084",
"0+	c #E2CB96",
"a+	c #E7D4A4",
"b+	c #EBDBAF",
"c+	c #EDE0B7",
"d+	c #EFE2BB",
"e+	c #EFE2BC",
"f+	c #E7D5A4",
"g+	c #DCC085",
"h+	c #D4B26E",
"i+	c #CCA051",
"j+	c #2E2E2E",
"k+	c #808080",
"l+	c #A3836B",
"m+	c #BB7F0E",
"n+	c #C28E22",
"o+	c #CA9F45",
"p+	c #D2B061",
"q+	c #DABF7B",
"r+	c #E1CB8E",
"s+	c #E6D49E",
"t+	c #EADCAC",
"u+	c #EDE1B6",
"v+	c #EFE4BD",
"w+	c #E6D49F",
"x+	c #E1CB8F",
"y+	c #BC800E",
"z+	c #A3846B",
"A+	c #2D2D2D",
"B+	c #484848",
"C+	c #787878",
"D+	c #908C89",
"E+	c #B9842C",
"F+	c #C18F16",
"G+	c #C89E34",
"H+	c #D0AE51",
"I+	c #D8BC6D",
"J+	c #DFC984",
"K+	c #E5D397",
"L+	c #E9DCA8",
"M+	c #EDE2B7",
"N+	c #F0E6C2",
"O+	c #F0E6C3",
"P+	c #EDE2B8",
"Q+	c #EADCA9",
"R+	c #E5D498",
"S+	c #DFCA85",
"T+	c #D8BD6D",
"U+	c #D0AE52",
"V+	c #C99E34",
"W+	c #2C2C2C",
"X+	c #454545",
"Y+	c #616161",
"Z+	c #888888",
"`+	c #A3907B",
" @	c #C19015",
".@	c #C79D22",
"+@	c #CDAB3F",
"@@	c #D5B95B",
"#@	c #DCC675",
"$@	c #E2D18C",
"%@	c #E8DAA1",
"&@	c #EDE2B6",
"*@	c #F0E8CA",
"=@	c #F1E9CC",
"-@	c #EDE3B8",
";@	c #E8DBA2",
">@	c #E3D28D",
",@	c #DCC776",
"'@	c #D5BA5B",
")@	c #CEAC41",
"!@	c #C79E23",
"~@	c #C19116",
"{@	c #A4907A",
"]@	c #2B2B2B",
"^@	c #4E4E4E",
"/@	c #909090",
"(@	c #B29566",
"_@	c #C69D1F",
":@	c #CBA92E",
"<@	c #D2B648",
"[@	c #D9C262",
"}@	c #DFCD7B",
"|@	c #E5D793",
"1@	c #EADFAA",
"2@	c #EDE5BE",
"3@	c #EEE5BF",
"4@	c #EADFAB",
"5@	c #E5D795",
"6@	c #DFCD7C",
"7@	c #D9C263",
"8@	c #D3B649",
"9@	c #CCAA2F",
"0@	c #C69E20",
"a@	c #B29666",
"b@	c #848484",
"c@	c #959494",
"d@	c #B69D6A",
"e@	c #CAA829",
"f@	c #CFB238",
"g@	c #D5BD4D",
"h@	c #DBC766",
"i@	c #E0D17C",
"j@	c #E4D890",
"k@	c #E7DC9E",
"l@	c #E7DC9F",
"m@	c #E5D892",
"n@	c #E0D17E",
"o@	c #DBC867",
"p@	c #D5BE4F",
"q@	c #D0B339",
"r@	c #CAA82A",
"s@	c #B69E6A",
"t@	c #474747",
"u@	c #5E5E5E",
"v@	c #878787",
"w@	c #969696",
"x@	c #AEA284",
"y@	c #CAAF43",
"z@	c #D2B941",
"A@	c #D6C252",
"B@	c #DBCA63",
"C@	c #DED073",
"D@	c #E0D37D",
"E@	c #DFD074",
"F@	c #DBCA64",
"G@	c #D7C353",
"H@	c #D2BA42",
"I@	c #CBB043",
"J@	c #AFA284",
"K@	c #828282",
"L@	c #959595",
"M@	c #A19F99",
"N@	c #B8AC7F",
"O@	c #CDBA5A",
"P@	c #D6C451",
"Q@	c #D9C95C",
"R@	c #DACC62",
"S@	c #D9CA5C",
"T@	c #D6C452",
"U@	c #CDBB5B",
"V@	c #B9AC7F",
"W@	c #494949",
"X@	c #252525",
"Y@	c #5C5C5C",
"Z@	c #737373",
"`@	c #8E8E8E",
" #	c #999898",
".#	c #9E9E9E",
"+#	c #A8A599",
"@#	c #B3AD8E",
"##	c #B9B289",
"$#	c #A8A598",
"%#	c #242424",
"&#	c #858585",
"*#	c #919191",
"=#	c #979797",
"-#	c #999999",
";#	c #979897",
">#	c #232323",
",#	c #5D5D5D",
"'#	c #676767",
")#	c #6B6B6B",
"!#	c #727272",
"~#	c #212121",
"{#	c #1F1F1F",
"]#	c #1D1D1D",
"^#	c #1B1B1B",
"/#	c #171717",
"  . . . . . . . . . . . . . . . . . . . . . . . . . . .             ",
"+ + + + + + + + + + + + + + + + + + + + + + + + + + + + + + + + + + ",
"@ @ @ @ @ @ @ @ @ @ @ @ @ @ @ @ @ @ @ @ @ @ @ @ @ @ @ @ @ @ @ @ @ @ ",
"# # # # # # # # # # # # # # # # # # # # # # # # # # # # # # # # # # ",
"$ $ $ $ $ $ $ $ $ $ $ $ $ $ $ $ $ $ $ $ $ $ $ $ $ $ $ $ $ $ $ $ $ $ ",
"$ $ $ $ $ % % % % % % % % % % % % % % % % % % % % % % % % % % % % % ",
"% % % % % % % % % % % % % % % & * * & % % = = = = = = = = = = = = = ",
"= = = = = = = = = = = - ; > , ' ) ) ' , > ! - = = = = = = = = = = = ",
"~ ~ ~ ~ ~ ~ ~ ~ ~ { ] ' ^ . / ( ( ( ( / . ^ ' ] { ~ ~ ~ ~ ~ ~ ~ ~ ~ ",
"- - - - - - - - _ : < [ } | 1 2 3 3 2 4 | } [ < : 5 - - - - - - - - ",
"& & & & & & - 6 < / 7 8 9 0 a b c c b a 0 9 8 7 / < 6 - & & & & & & ",
"d d d d d d e f > d g h i j k l m m l n j i h g d > f e d d d d d d ",
"d d d d d o ( p q r s t u v w x y y x w v u t s r q p ( o { { { { { ",
"{ { { { z > 7 A B C D E F G H I J J I K G F E D C B A 7 > L * * * * ",
"* * * * 5 ] M N O P Q R S T U V W W V U T S R Q P O N M ] 5 z z z z ",
"z z z { ] % X Y Z `  ...+.@.#.$.%.%.$.#.@.+.&. .` Z *.X = ] * L L L ",
"L L L o 5 =.-.;.>.,.'.).!.~.{.].^.^.]./.~.!.).'.,.>.;.-.=.5 5 (.(.(.",
"(.(.(._.@ :.<.[.}.|.1.2.3.4.5.6.7.7.6.5.4.3.2.8.|.}.[.<.:.@ _.9.9.9.",
"9.9.(.0.a.b.c.d.e.f.g.h.i.j.k.l.m.n.l.k.j.o.h.g.f.e.d.p.b.a.0.(.q.q.",
"q.q.9.q.r.s.t.u.v.w.x.y.z.A.B.C.D.D.C.B.A.z.E.x.F.v.u.t.s.r.q.q._._.",
"_._._.& G.H.I.J.K.L.. . . . . . . . . . . . . . M.K.J.I.N.O.& _.o o ",
"o o _.% P.Q.R.S.T.U.. . . . . . . . . . . . . . V.T.S.R.Q.P.% o 5 5 ",
"5 5 q.- W.X.Y.Z.`. +.+++@+#+$+%+&+&+%+*+=+@+++.+-+;+Z.Y.X.W.- _.>+>+",
"0.0.o ~ P.,+'+)+!+~+{+]+^+/+(+_+:+<+_+(+/+^+]+[+}+|+1+'+,+P.~ o 0.0.",
"| | | $ 2+3+4+5+6+7+8+9+0+a+b+c+d+e+c+b+f+0+g+h+i+6+5+4+3+2+$ | | | ",
"j+j+j+& =.k+l+m+n+o+p+q+r+s+t+u+v+v+u+t+w+x+q+p+o+n+y+z+k+=.& j+j+j+",
"A+A+A+q.B+C+D+E+F+G+H+I+J+K+L+M+N+O+P+Q+R+S+T+U+V+F+E+D+C+B+q.A+A+A+",
"W+W+W+W+X+Y+Z+`+ @.@+@@@#@$@%@&@*@=@-@;@>@,@'@)@!@~@{@Z+Y+X+]@]@]@]@",
"]@]@]@]@o ^@C+/@(@_@:@<@[@}@|@1@2@3@4@5@6@7@8@9@0@a@/@C+^@5 e e e e ",
"6 6 6 6 6 % =.b@c@d@e@f@g@h@i@j@k@l@m@n@o@p@q@r@s@c@b@=.% 6 6 6 6 6 ",
"7 7 7 7 7 7 t@u@v@w@x@y@z@A@B@C@D@D@E@F@G@H@I@J@w@v@u@t@7 7 7 7 7 7 ",
"] ] ] ] ] ] 6 M u@K@L@M@N@O@P@Q@R@R@S@T@U@V@M@L@K@u@W@7 p p p p p p ",
"X@X@X@X@X@X@X@X@X+Y@Z@`@ #.#+#@#####@#$#.# #`@Z@Y@X+X@X@X@X@X@X@X@X@",
"%#%#%#%#%#%#%#%#%#_.a.Y+Z@&#*#=#-#-#;#*#&#Z@Y+a._.>#>#>#>#>#>#>#>#>#",
">#>#>#} } } } } } } } (.^@,#'#)#!#!#)#'#,#^@(.} } } } } } } } } } } ",
"~#~#~#~#~#~#~#~#~#~#~#~#~#~#]@z * * z e > > > > > > > > > > > > > > ",
"{#{#{#{#{#{#{#{#{#{#{#{#{#{#{#{#{#{#{#{#{#{#{#{#{#{#{#{#{#{#{#{#{#{#",
"]#]#]#]#]#]#]#]#]#]#]#]#]#]#]#]#]#]#]#]#]#]#]#]#]#]#]#]#]#]#]#]#]#]#",
"^#^#^#^#^#^#^#^#^#^#^#^#^#^#^#^#^#^#^#^#^#^#^#^#^#^#^#^#^#^#^#^#^#( ",
"[ [ [ [ [ [ [ [ [ [ [ [ [ [ [ [ [ [ [ [ [ [ [ [ [ [ [ [ [ [ [ [ / / ",
"/#/#/#/#/#/#/#/#/#/#/#/#/#/#/#/#/#/#/#/#/#/#/#/#/#/#/#/#/#/#/#f f f ",
"                                                                    "};
