/* XPM */
static char * hide_active_xpm[] = {
"34 42 455 2",
"  	c #151515",
". 	c #131313",
"+ 	c #595959",
"@ 	c #444444",
"# 	c #434343",
"$ 	c #424242",
"% 	c #414141",
"& 	c #3D3D3D",
"* 	c #3A3A3A",
"= 	c #404040",
"- 	c #3E3E3E",
"; 	c #2E2F2E",
"> 	c #202020",
", 	c #000000",
"' 	c #0B0B0B",
") 	c #262626",
"! 	c #2F2E2E",
"~ 	c #3F3F3F",
"{ 	c #3B3B3B",
"] 	c #272727",
"^ 	c #040404",
"/ 	c #373737",
"( 	c #535353",
"_ 	c #646464",
": 	c #6C6C6C",
"< 	c #6D6E6E",
"[ 	c #6D6D6D",
"} 	c #6B6B6B",
"| 	c #616161",
"1 	c #505050",
"2 	c #353535",
"3 	c #030303",
"4 	c #323231",
"5 	c #0D0D0D",
"6 	c #8D8070",
"7 	c #C7B88A",
"8 	c #E5DDA0",
"9 	c #F7F4B1",
"0 	c #FFFEBC",
"a 	c #E5DD9F",
"b 	c #C6B788",
"c 	c #8A7D6D",
"d 	c #5C5C5C",
"e 	c #393939",
"f 	c #323232",
"g 	c #292929",
"h 	c #1F1F1F",
"i 	c #545454",
"j 	c #8D7568",
"k 	c #DDAE76",
"l 	c #FFD88C",
"m 	c #FFE89B",
"n 	c #FFF4A7",
"o 	c #FFFDB0",
"p 	c #FFFFB5",
"q 	c #DCAD74",
"r 	c #8A7263",
"s 	c #4F4F4F",
"t 	c #1E1E1E",
"u 	c #3C3C3C",
"v 	c #2A2A2A",
"w 	c #5A5A5A",
"x 	c #B58160",
"y 	c #FBB065",
"z 	c #FFC375",
"A 	c #FFD384",
"B 	c #FFE193",
"C 	c #FFED9E",
"D 	c #FFF6A7",
"E 	c #FFFBAB",
"F 	c #FFEE9E",
"G 	c #B37E5C",
"H 	c #242424",
"I 	c #333333",
"J 	c #565756",
"K 	c #BD7B55",
"L 	c #FE9E50",
"M 	c #FFAD5E",
"N 	c #FFBD6C",
"O 	c #FFCC7B",
"P 	c #FFDA88",
"Q 	c #FFE694",
"R 	c #FFEF9C",
"S 	c #FFF3A0",
"T 	c #BB7851",
"U 	c #515151",
"V 	c #232323",
"W 	c #4C4C4C",
"X 	c #A46E52",
"Y 	c #ED8D3C",
"Z 	c #F99A48",
"` 	c #FFA855",
" .	c #FFB663",
"..	c #FFC571",
"+.	c #FFD27D",
"@.	c #FFDD88",
"#.	c #FFE590",
"$.	c #FFEA94",
"%.	c #FFE690",
"&.	c #A36B4D",
"*.	c #474747",
"=.	c #383838",
"-.	c #7B5F54",
";.	c #DA7E2F",
">.	c #E68936",
",.	c #F19541",
"'.	c #FCA24D",
").	c #FFAF59",
"!.	c #FFBD66",
"~.	c #FFC972",
"{.	c #FFD37C",
"].	c #FFDB83",
"^.	c #FFDF87",
"/.	c #FFB059",
"(.	c #DA7D2F",
"_.	c #775A4F",
":.	c #363636",
"<.	c #282828",
"[.	c #4E4E4E",
"}.	c #B76D3B",
"|.	c #D77C27",
"1.	c #DF8630",
"2.	c #E99039",
"3.	c #F39C44",
"4.	c #FDA84F",
"5.	c #FFB45B",
"6.	c #FFBF65",
"7.	c #FFC96F",
"8.	c #FFD075",
"9.	c #FFD479",
"0.	c #FFC066",
"a.	c #B66C38",
"b.	c #494949",
"c.	c #71584E",
"d.	c #CC721C",
"e.	c #D27922",
"f.	c #D9822A",
"g.	c #E18C32",
"h.	c #EA963C",
"i.	c #F4A146",
"j.	c #FCAC50",
"k.	c #FFB559",
"l.	c #FFBE61",
"m.	c #FFC467",
"n.	c #FFC86A",
"o.	c #FFB659",
"p.	c #6F554A",
"q.	c #343434",
"r.	c #9B613E",
"s.	c #C87019",
"t.	c #CD771E",
"u.	c #D37F25",
"v.	c #DA872C",
"w.	c #E19034",
"x.	c #EA9A3C",
"y.	c #F2A345",
"z.	c #FAAD4C",
"A.	c #FEB553",
"B.	c #FFBB56",
"C.	c #FFBE58",
"D.	c #FFBE59",
"E.	c #FFBB57",
"F.	c #FEB552",
"G.	c #F2A445",
"H.	c #EA9A3D",
"I.	c #9A5F3C",
"J.	c #303030",
"K.	c #AF662D",
"L.	c #C47016",
"M.	c #C8761A",
"N.	c #CD7C20",
"O.	c #D38426",
"P.	c #D98C2D",
"Q.	c #E09533",
"R.	c #E89F39",
"S.	c #EEA93F",
"T.	c #F4B144",
"U.	c #F8B648",
"V.	c #FAB94A",
"W.	c #C46F16",
"X.	c #AF652C",
"Y.	c #BB6A1B",
"Z.	c #C16F13",
"`.	c #C47417",
" +	c #C87A1C",
".+	c #CD8121",
"++	c #D38925",
"@+	c #DA952A",
"#+	c #E0A030",
"$+	c #E6A836",
"%+	c #EAAF3B",
"&+	c #EEB43F",
"*+	c #EFB741",
"=+	c #EAB03B",
"-+	c #E6A936",
";+	c #DA962B",
">+	c #D38A25",
",+	c #BB6A1A",
"'+	c #464646",
")+	c #373838",
"!+	c #484848",
"~+	c #BD6A0E",
"{+	c #BE6F11",
"]+	c #C17414",
"^+	c #C47918",
"/+	c #C9821B",
"(+	c #CF8D20",
"_+	c #D59826",
":+	c #DBA22C",
"<+	c #E0AA32",
"[+	c #E4B038",
"}+	c #E6B43C",
"|+	c #E8B73E",
"1+	c #E6B53C",
"2+	c #CF8E20",
"3+	c #BB6B0D",
"4+	c #BB6F0F",
"5+	c #BE7312",
"6+	c #C17A14",
"7+	c #C78618",
"8+	c #CD911E",
"9+	c #D29B25",
"0+	c #D8A52C",
"a+	c #DCAD34",
"b+	c #DFB23A",
"c+	c #E2B63F",
"d+	c #E3B942",
"e+	c #E2B740",
"f+	c #DFB33A",
"g+	c #D8A52D",
"h+	c #D39C25",
"i+	c #CD921E",
"j+	c #C17B14",
"k+	c #B66B18",
"l+	c #B96F0E",
"m+	c #BB7410",
"n+	c #C07F13",
"o+	c #C68B18",
"p+	c #CC961F",
"q+	c #D1A027",
"r+	c #D6A92F",
"s+	c #DAB139",
"t+	c #DDB742",
"u+	c #DFBB48",
"v+	c #E1BD4C",
"w+	c #E1BD4B",
"x+	c #E0BB48",
"y+	c #DAB13A",
"z+	c #D6AA30",
"A+	c #D2A127",
"B+	c #C78B18",
"C+	c #C17F13",
"D+	c #B66B17",
"E+	c #313131",
"F+	c #A66726",
"G+	c #B8700D",
"H+	c #BB770E",
"I+	c #C08412",
"J+	c #C68F18",
"K+	c #CC9B21",
"L+	c #D1A52B",
"M+	c #D6AE36",
"N+	c #D9B642",
"O+	c #DDBC4D",
"P+	c #DFC155",
"Q+	c #E1C45A",
"R+	c #E1C35A",
"S+	c #E0C156",
"T+	c #DAB643",
"U+	c #D6AF37",
"V+	c #CC9B22",
"W+	c #C69019",
"X+	c #C18413",
"Y+	c #BB780F",
"Z+	c #A66626",
"`+	c #2F2F2F",
" @	c #8E5E32",
".@	c #B7710C",
"+@	c #BB7C0E",
"@@	c #C18813",
"#@	c #C6941A",
"$@	c #CC9F24",
"%@	c #D1AA30",
"&@	c #D6B33E",
"*@	c #DABC4D",
"=@	c #DEC25B",
"-@	c #E1C867",
";@	c #E2CB6E",
">@	c #DEC35C",
",@	c #DBBC4D",
"'@	c #D6B43F",
")@	c #D1AA31",
"!@	c #CCA025",
"~@	c #C7951B",
"{@	c #C18913",
"]@	c #8E5D32",
"^@	c #2E2E2E",
"/@	c #634D3D",
"(@	c #B6740C",
"_@	c #BB7F0E",
":@	c #C18C14",
"<@	c #C7981D",
"[@	c #CCA328",
"}@	c #D2AE36",
"|@	c #D7B846",
"1@	c #DCC158",
"2@	c #E0C96A",
"3@	c #E3CF7B",
"4@	c #E5D386",
"5@	c #E3CF7C",
"6@	c #E0C96B",
"7@	c #DCC159",
"8@	c #D7B847",
"9@	c #D2AF37",
"0@	c #CCA428",
"a@	c #BC800E",
"b@	c #B7740C",
"c@	c #624C3C",
"d@	c #2D2D2D",
"e@	c #A06C29",
"f@	c #BB820F",
"g@	c #C18F15",
"h@	c #C79B1E",
"i@	c #CCA72B",
"j@	c #D2B13A",
"k@	c #D7BC4C",
"l@	c #DDC561",
"m@	c #E1CE77",
"n@	c #E6D58E",
"o@	c #E9DBA0",
"p@	c #E9DBA1",
"q@	c #E6D690",
"r@	c #E2CE79",
"s@	c #DDC562",
"t@	c #D8BC4D",
"u@	c #D2B23B",
"v@	c #CDA72B",
"w@	c #C79B1F",
"x@	c #BB830F",
"y@	c #A16D28",
"z@	c #2C2C2C",
"A@	c #454545",
"B@	c #644E3A",
"C@	c #B98314",
"D@	c #C19015",
"E@	c #C69C1F",
"F@	c #CCA82C",
"G@	c #D1B33C",
"H@	c #D7BD4F",
"I@	c #DDC765",
"J@	c #E2D17F",
"K@	c #E7D99B",
"L@	c #ECE1B8",
"M@	c #ECE2BA",
"N@	c #E8DA9D",
"O@	c #E3D181",
"P@	c #DDC867",
"Q@	c #D8BE51",
"R@	c #D2B43D",
"S@	c #CDA92D",
"T@	c #C79D20",
"U@	c #C19116",
"V@	c #BA8414",
"W@	c #2B2B2B",
"X@	c #876633",
"Y@	c #C09115",
"Z@	c #C69D1F",
"`@	c #CBA92C",
" #	c #D1B43B",
".#	c #D7BE4E",
"+#	c #DCC864",
"@#	c #E1D17D",
"##	c #E6D997",
"$#	c #EAE0AF",
"%#	c #EBE0B1",
"&#	c #E7DA99",
"*#	c #E2D17E",
"=#	c #DCC866",
"-#	c #D7BF50",
";#	c #D1B43D",
">#	c #CCA92D",
",#	c #C69E20",
"'#	c #C19216",
")#	c #876733",
"!#	c #967531",
"~#	c #C49D1D",
"{#	c #CAA829",
"]#	c #CFB238",
"^#	c #D5BD49",
"/#	c #DAC65D",
"(#	c #DECE72",
"_#	c #E3D586",
":#	c #E5D994",
"<#	c #E5DA95",
"[#	c #E3D587",
"}#	c #DFCF73",
"|#	c #DAC65E",
"1#	c #D5BD4A",
"2#	c #D0B339",
"3#	c #CAA82A",
"4#	c #C59D1E",
"5#	c #967631",
"6#	c #8A7234",
"7#	c #C6A427",
"8#	c #CDB032",
"9#	c #D2B941",
"0#	c #D6C251",
"a#	c #DBCA62",
"b#	c #DECF71",
"c#	c #E0D37A",
"d#	c #DED072",
"e#	c #DBCA63",
"f#	c #D7C353",
"g#	c #D2BA42",
"h#	c #CDB133",
"i#	c #C6A528",
"j#	c #8B7234",
"k#	c #4A4A4A",
"l#	c #555555",
"m#	c #665737",
"n#	c #B09734",
"o#	c #CFB538",
"p#	c #D2BD45",
"q#	c #D6C451",
"r#	c #D9C95C",
"s#	c #DACC62",
"t#	c #D9CA5C",
"u#	c #D6C452",
"v#	c #D3BE46",
"w#	c #CFB638",
"x#	c #665837",
"y#	c #252525",
"z#	c #655C38",
"A#	c #9D8D3B",
"B#	c #BCAB43",
"C#	c #CFBF4A",
"D#	c #D5C64E",
"E#	c #9D8D3C",
"F#	c #606060",
"G#	c #313132",
"H#	c #333334",
"I#	c #333434",
"J#	c #222222",
"K#	c #5D5D5D",
"L#	c #676767",
"M#	c #686868",
"N#	c #636363",
"O#	c #212121",
"P#	c #1D1D1D",
"Q#	c #1B1B1B",
"R#	c #1A1A1A",
"S#	c #191919",
"T#	c #181818",
"U#	c #171717",
"V#	c #161616",
"  . . . . . . . . . . . . . . . . . . . . . . . . . . .             ",
"+ + + + + + + + + + + + + + + + + + + + + + + + + + + + + + + + + + ",
"@ @ @ @ @ @ @ @ @ @ @ @ @ @ @ @ @ @ @ @ @ @ @ @ @ @ @ @ @ @ @ @ @ @ ",
"# # # # # # # # # # # # # # # # # # # # # # # # # # # # # # # # # # ",
"$ $ $ $ $ $ $ $ $ $ $ $ $ $ $ $ $ $ $ $ $ $ $ $ $ $ $ $ $ $ $ $ $ $ ",
"$ $ $ $ $ % % % % % % % % % % % % % % % % % % % % % % % % % % % % % ",
"% % % % % % % % % % % % % % % & * * & % % = = = = = = = = = = = = = ",
"= = = = = = = = = = = - ; > , ' ) ) ' , > ! - = = = = = = = = = = = ",
"~ ~ ~ ~ ~ ~ ~ ~ ~ { ] ^ / ( _ : < [ } | 1 2 3 ] { ~ ~ ~ ~ ~ ~ ~ ~ ~ ",
"- - - - - - - - 4 5 & | 6 7 8 9 0 0 9 a b c d e 5 f - - - - - - - - ",
"& & & & & & - g h i j k l m n o p p o n m l q r s t g - & & & & & & ",
"u u u u u u v ) w x y z A B C D E E D F B A z y G i H v u u u u u u ",
"u u u u u I H J K L M N O P Q R S S R Q P O N M L T U V I { { { { { ",
"{ { { { e > W X Y Z `  ...+.@.#.$.$.%.@.+... .` Z Y &.*.> =.* * * * ",
"* * * * f e -.;.>.,.'.).!.~.{.].^.^.].{.~.!./.'.,.>.(._.:.f e e e e ",
"e e e { <.[.}.|.1.2.3.4.5.6.7.8.9.9.8.7.0.5.4.3.2.1.|.a.b.] * =.=.=.",
"=.=.=.I :.c.d.e.f.g.h.i.j.k.l.m.n.n.m.l.o.j.i.h.g.f.e.d.p.q.f / / / ",
"/ / / q.% r.s.t.u.v.w.x.y.z.A.B.C.D.E.F.z.G.H.w.v.u.t.s.I.- q.:.:.:.",
":.:./ J.*.K.L.M.N.O.P.Q.R.S.T.U.V.V.U.T.S.R.Q.P.O.N.M.W.X.@ J./ 2 2 ",
"2 2 :.q.b.Y.Z.`. +.+++@+#+$+%+&+*+*+&+=+-+#+;+>+.+ +`.Z.,+'+q.2 q.q.",
"q.q.q.)+!+~+{+]+^+/+(+_+:+<+[+}+|+|+1+[+<+:+_+2+/+^+]+{+~+'+/ q.I I ",
"I I q.* '+3+4+5+6+7+8+9+0+a+b+c+d+d+e+f+a+g+h+i+7+j+5+4+3+@ e I f f ",
"f f 2 & $ k+l+m+n+o+p+q+r+s+t+u+v+w+x+t+y+z+A+p+B+C+m+l+D+% & q.E+E+",
"J.J.I ~ ~ F+G+H+I+J+K+L+M+N+O+P+Q+R+S+O+T+U+L+V+W+X+Y+G+Z+- ~ I J.J.",
"`+`+`+$ &  @.@+@@@#@$@%@&@*@=@-@;@;@-@>@,@'@)@!@~@{@+@.@]@& $ `+`+`+",
"^@^@^@& % /@(@_@:@<@[@}@|@1@2@3@4@4@5@6@7@8@9@0@<@:@a@b@c@% & ^@^@^@",
"d@d@d@2 !+u e@f@g@h@i@j@k@l@m@n@o@p@q@r@s@t@u@v@w@g@x@y@{ !+2 d@d@d@",
"z@z@z@z@A@# B@C@D@E@F@G@H@I@J@K@L@M@N@O@P@Q@R@S@T@U@V@B@# A@W@W@W@W@",
"W@W@W@W@I [.u X@Y@Z@`@ #.#+#@###$#%#&#*#=#-#;#>#,#'#)#u [.f v v v v ",
"g g g g g % [.e !#~#{#]#^#/#(#_#:#<#[#}#|#1#2#3#4#5#e [.% g g g g g ",
"<.<.<.<.<.<.*.1 =.6#7#8#9#0#a#b#c#c#d#e#f#g#h#i#j#e 1 *.<.<.<.<.<.<.",
"] ] ] ] ] ] g k#l#- m#n#o#p#q#r#s#s#t#u#v#w#n#x#- l#b.<.) ) ) ) ) ) ",
"y#y#y#y#y#y#y#y#A@d [.=.z#A#B#C#D#D#C#B#E#z#=.[.d A@y#y#y#y#y#y#y#y#",
"H H H H H H H H H q.i F#l#'+e G#H#I#G#e '+l#F#i q.V V V V V V V V V ",
"V V V J#J#J#J#J#J#J#J#/ [.K#L#M#N#N#M#L#K#[./ J#J#J#J#J#J#J#J#J#J#J#",
"O#O#O#O#O#O#O#O#O#O#O#O#O#O#W@e * * e v > > > > > > > > > > > > > > ",
"h h h h h h h h h h h h h h h h h h h h h h h h h h h h h h h h h h ",
"P#P#P#P#P#P#P#P#P#P#P#P#P#P#P#P#P#P#P#P#P#P#P#P#P#P#P#P#P#P#P#P#P#P#",
"Q#Q#Q#Q#Q#Q#Q#Q#Q#Q#Q#Q#Q#Q#Q#Q#Q#Q#Q#Q#Q#Q#Q#Q#Q#Q#Q#Q#Q#Q#Q#Q#Q#R#",
"S#S#S#S#S#S#S#S#S#S#S#S#S#S#S#S#S#S#S#S#S#S#S#S#S#S#S#S#S#S#S#S#T#T#",
"U#U#U#U#U#U#U#U#U#U#U#U#U#U#U#U#U#U#U#U#U#U#U#U#U#U#U#U#U#U#U#V#V#V#",
"                                                                    "};
