/* XPM */
static char * hide_prelight_xpm[] = {
"34 42 432 2",
"  	c #151515",
". 	c #131313",
"+ 	c #595959",
"@ 	c #444444",
"# 	c #434343",
"$ 	c #424242",
"% 	c #414141",
"& 	c #3D3D3D",
"* 	c #3A3A3A",
"= 	c #404040",
"- 	c #3E3E3E",
"; 	c #2E2F2E",
"> 	c #202020",
", 	c #000000",
"' 	c #0B0B0B",
") 	c #262626",
"! 	c #2F2E2E",
"~ 	c #3F3F3F",
"{ 	c #3B3B3B",
"] 	c #272727",
"^ 	c #040404",
"/ 	c #373737",
"( 	c #535353",
"_ 	c #646464",
": 	c #6C6C6C",
"< 	c #6D6E6E",
"[ 	c #6D6D6D",
"} 	c #6B6B6B",
"| 	c #616161",
"1 	c #505050",
"2 	c #353535",
"3 	c #030303",
"4 	c #323231",
"5 	c #0D0D0D",
"6 	c #8D8070",
"7 	c #C7B88A",
"8 	c #E5DDA0",
"9 	c #F7F4B1",
"0 	c #FFFEBC",
"a 	c #E5DD9F",
"b 	c #C6B788",
"c 	c #8A7D6D",
"d 	c #5C5C5C",
"e 	c #393939",
"f 	c #323232",
"g 	c #292929",
"h 	c #1F1F1F",
"i 	c #545454",
"j 	c #8D7568",
"k 	c #DDAE76",
"l 	c #FFD88C",
"m 	c #FFE89B",
"n 	c #FFF4A7",
"o 	c #FFFDB0",
"p 	c #FFFFB5",
"q 	c #DCAD74",
"r 	c #8A7263",
"s 	c #4F4F4F",
"t 	c #1E1E1E",
"u 	c #3C3C3C",
"v 	c #2A2A2A",
"w 	c #5A5A5A",
"x 	c #B58160",
"y 	c #FBB065",
"z 	c #FFC375",
"A 	c #FFD384",
"B 	c #FFE193",
"C 	c #FFED9E",
"D 	c #FFF6A7",
"E 	c #FFFBAB",
"F 	c #FFEE9E",
"G 	c #B37E5C",
"H 	c #242424",
"I 	c #333333",
"J 	c #565756",
"K 	c #BD7B55",
"L 	c #FE9E50",
"M 	c #FFAD5E",
"N 	c #FFBD6C",
"O 	c #FFCC7B",
"P 	c #FFDA88",
"Q 	c #FFE694",
"R 	c #FFEF9C",
"S 	c #FFF3A0",
"T 	c #BB7851",
"U 	c #515151",
"V 	c #232323",
"W 	c #4C4C4C",
"X 	c #A46E52",
"Y 	c #ED8D3C",
"Z 	c #F99A48",
"` 	c #FFA855",
" .	c #FFB663",
"..	c #FFC571",
"+.	c #FFD27D",
"@.	c #FFDD88",
"#.	c #FFE590",
"$.	c #FFEA94",
"%.	c #FFE690",
"&.	c #A36B4D",
"*.	c #474747",
"=.	c #383838",
"-.	c #7B5F54",
";.	c #DA7E2F",
">.	c #E68936",
",.	c #F19541",
"'.	c #FCA24D",
").	c #FFAF59",
"!.	c #FFBD66",
"~.	c #FFC972",
"{.	c #FFD37C",
"].	c #FFDB83",
"^.	c #FFDF87",
"/.	c #FFB059",
"(.	c #DA7D2F",
"_.	c #775A4F",
":.	c #363636",
"<.	c #282828",
"[.	c #4E4E4E",
"}.	c #B76D3B",
"|.	c #D77C27",
"1.	c #DF8630",
"2.	c #E99039",
"3.	c #F39C44",
"4.	c #FDA84F",
"5.	c #FFB45B",
"6.	c #FFBF65",
"7.	c #FFC96F",
"8.	c #FFD075",
"9.	c #FFD479",
"0.	c #FFC066",
"a.	c #B66C38",
"b.	c #494949",
"c.	c #71584E",
"d.	c #CC721C",
"e.	c #D27922",
"f.	c #D9822A",
"g.	c #E18C32",
"h.	c #EA963C",
"i.	c #F4A146",
"j.	c #FCAC50",
"k.	c #FFB559",
"l.	c #FFBE61",
"m.	c #FFC467",
"n.	c #FFC86A",
"o.	c #FFB659",
"p.	c #6F554A",
"q.	c #343434",
"r.	c #9B613E",
"s.	c #C87019",
"t.	c #CD771E",
"u.	c #D37F25",
"v.	c #DA872C",
"w.	c #E19034",
"x.	c #EA9A3C",
"y.	c #F2A345",
"z.	c #FAAD4C",
"A.	c #FEB553",
"B.	c #FFBB56",
"C.	c #FFBE58",
"D.	c #FFBE59",
"E.	c #FFBB57",
"F.	c #FEB552",
"G.	c #F2A445",
"H.	c #EA9A3D",
"I.	c #9A5F3C",
"J.	c #303030",
"K.	c #AF662D",
"L.	c #C47016",
"M.	c #C8761A",
"N.	c #CD7C20",
"O.	c #D38426",
"P.	c #D98C2D",
"Q.	c #E09533",
"R.	c #E89F39",
"S.	c #EEA93F",
"T.	c #F4B144",
"U.	c #F8B648",
"V.	c #FAB94A",
"W.	c #C46F16",
"X.	c #AF652C",
"Y.	c #BB6A1B",
"Z.	c #C16F13",
"`.	c #C47417",
" +	c #C87A1C",
".+	c #A8691C",
"++	c #8D5A1D",
"@+	c #916220",
"#+	c #966923",
"$+	c #9A6F26",
"%+	c #9D7429",
"&+	c #A0772B",
"*+	c #A1792D",
"=+	c #A0782B",
"-+	c #926220",
";+	c #8D5B1D",
">+	c #BB6A1A",
",+	c #464646",
"'+	c #373838",
")+	c #484848",
"!+	c #BD6A0E",
"~+	c #BE6F11",
"{+	c #C17414",
"]+	c #C47918",
"^+	c #845316",
"/+	c #845416",
"(+	c #BB6B0D",
"_+	c #BB6F0F",
":+	c #BE7312",
"<+	c #C17A14",
"[+	c #835615",
"}+	c #835715",
"|+	c #C17B14",
"1+	c #B66B18",
"2+	c #B96F0E",
"3+	c #BB7410",
"4+	c #C07F13",
"5+	c #A97616",
"6+	c #966F1A",
"7+	c #9A761F",
"8+	c #9D7D25",
"9+	c #A0832C",
"0+	c #A38732",
"a+	c #A48A37",
"b+	c #A58C3A",
"c+	c #A58B37",
"d+	c #9E7D26",
"e+	c #A97716",
"f+	c #C17F13",
"g+	c #B66B17",
"h+	c #313131",
"i+	c #A66726",
"j+	c #B8700D",
"k+	c #BB770E",
"l+	c #C08412",
"m+	c #C68F18",
"n+	c #CC9B21",
"o+	c #D1A52B",
"p+	c #D6AE36",
"q+	c #D9B642",
"r+	c #DDBC4D",
"s+	c #DFC155",
"t+	c #E1C45A",
"u+	c #E1C35A",
"v+	c #E0C156",
"w+	c #DAB643",
"x+	c #D6AF37",
"y+	c #CC9B22",
"z+	c #C69019",
"A+	c #C18413",
"B+	c #BB780F",
"C+	c #A66626",
"D+	c #2F2F2F",
"E+	c #8E5E32",
"F+	c #B7710C",
"G+	c #BB7C0E",
"H+	c #C18813",
"I+	c #C6941A",
"J+	c #CC9F24",
"K+	c #D1AA30",
"L+	c #D6B33E",
"M+	c #DABC4D",
"N+	c #DEC25B",
"O+	c #E1C867",
"P+	c #E2CB6E",
"Q+	c #DEC35C",
"R+	c #DBBC4D",
"S+	c #D6B43F",
"T+	c #D1AA31",
"U+	c #CCA025",
"V+	c #C7951B",
"W+	c #C18913",
"X+	c #8E5D32",
"Y+	c #2E2E2E",
"Z+	c #634D3D",
"`+	c #B6740C",
" @	c #BB7F0E",
".@	c #C18C14",
"+@	c #C7981D",
"@@	c #CCA328",
"#@	c #D2AE36",
"$@	c #D7B846",
"%@	c #DCC158",
"&@	c #E0C96A",
"*@	c #E3CF7B",
"=@	c #E5D386",
"-@	c #E3CF7C",
";@	c #E0C96B",
">@	c #DCC159",
",@	c #D7B847",
"'@	c #D2AF37",
")@	c #CCA428",
"!@	c #BC800E",
"~@	c #B7740C",
"{@	c #624C3C",
"]@	c #2D2D2D",
"^@	c #A06C29",
"/@	c #BB820F",
"(@	c #C18F15",
"_@	c #C79B1E",
":@	c #CCA72B",
"<@	c #D2B13A",
"[@	c #D7BC4C",
"}@	c #DDC561",
"|@	c #E1CE77",
"1@	c #E6D58E",
"2@	c #E9DBA0",
"3@	c #E9DBA1",
"4@	c #E6D690",
"5@	c #E2CE79",
"6@	c #DDC562",
"7@	c #D8BC4D",
"8@	c #D2B23B",
"9@	c #CDA72B",
"0@	c #C79B1F",
"a@	c #BB830F",
"b@	c #A16D28",
"c@	c #2C2C2C",
"d@	c #454545",
"e@	c #644E3A",
"f@	c #B98314",
"g@	c #C19015",
"h@	c #C69C1F",
"i@	c #CCA82C",
"j@	c #D1B33C",
"k@	c #D7BD4F",
"l@	c #DDC765",
"m@	c #E2D17F",
"n@	c #E7D99B",
"o@	c #ECE1B8",
"p@	c #ECE2BA",
"q@	c #E8DA9D",
"r@	c #E3D181",
"s@	c #DDC867",
"t@	c #D8BE51",
"u@	c #D2B43D",
"v@	c #CDA92D",
"w@	c #C79D20",
"x@	c #C19116",
"y@	c #BA8414",
"z@	c #2B2B2B",
"A@	c #876633",
"B@	c #C09115",
"C@	c #C69D1F",
"D@	c #CBA92C",
"E@	c #D1B43B",
"F@	c #D7BE4E",
"G@	c #DCC864",
"H@	c #E1D17D",
"I@	c #E6D997",
"J@	c #EAE0AF",
"K@	c #EBE0B1",
"L@	c #E7DA99",
"M@	c #E2D17E",
"N@	c #DCC866",
"O@	c #D7BF50",
"P@	c #D1B43D",
"Q@	c #CCA92D",
"R@	c #C69E20",
"S@	c #C19216",
"T@	c #876733",
"U@	c #967531",
"V@	c #C49D1D",
"W@	c #CAA829",
"X@	c #CFB238",
"Y@	c #D5BD49",
"Z@	c #DAC65D",
"`@	c #DECE72",
" #	c #E3D586",
".#	c #E5D994",
"+#	c #E5DA95",
"@#	c #E3D587",
"##	c #DFCF73",
"$#	c #DAC65E",
"%#	c #D5BD4A",
"&#	c #D0B339",
"*#	c #CAA82A",
"=#	c #C59D1E",
"-#	c #967631",
";#	c #8A7234",
">#	c #C6A427",
",#	c #CDB032",
"'#	c #D2B941",
")#	c #D6C251",
"!#	c #DBCA62",
"~#	c #DECF71",
"{#	c #E0D37A",
"]#	c #DED072",
"^#	c #DBCA63",
"/#	c #D7C353",
"(#	c #D2BA42",
"_#	c #CDB133",
":#	c #C6A528",
"<#	c #8B7234",
"[#	c #4A4A4A",
"}#	c #555555",
"|#	c #665737",
"1#	c #B09734",
"2#	c #CFB538",
"3#	c #D2BD45",
"4#	c #D6C451",
"5#	c #D9C95C",
"6#	c #DACC62",
"7#	c #D9CA5C",
"8#	c #D6C452",
"9#	c #D3BE46",
"0#	c #CFB638",
"a#	c #665837",
"b#	c #252525",
"c#	c #655C38",
"d#	c #9D8D3B",
"e#	c #BCAB43",
"f#	c #CFBF4A",
"g#	c #D5C64E",
"h#	c #9D8D3C",
"i#	c #606060",
"j#	c #313132",
"k#	c #333334",
"l#	c #333434",
"m#	c #222222",
"n#	c #5D5D5D",
"o#	c #676767",
"p#	c #686868",
"q#	c #636363",
"r#	c #212121",
"s#	c #1D1D1D",
"t#	c #1B1B1B",
"u#	c #1A1A1A",
"v#	c #191919",
"w#	c #181818",
"x#	c #171717",
"y#	c #161616",
"  . . . . . . . . . . . . . . . . . . . . . . . . . . .             ",
"+ + + + + + + + + + + + + + + + + + + + + + + + + + + + + + + + + + ",
"@ @ @ @ @ @ @ @ @ @ @ @ @ @ @ @ @ @ @ @ @ @ @ @ @ @ @ @ @ @ @ @ @ @ ",
"# # # # # # # # # # # # # # # # # # # # # # # # # # # # # # # # # # ",
"$ $ $ $ $ $ $ $ $ $ $ $ $ $ $ $ $ $ $ $ $ $ $ $ $ $ $ $ $ $ $ $ $ $ ",
"$ $ $ $ $ % % % % % % % % % % % % % % % % % % % % % % % % % % % % % ",
"% % % % % % % % % % % % % % % & * * & % % = = = = = = = = = = = = = ",
"= = = = = = = = = = = - ; > , ' ) ) ' , > ! - = = = = = = = = = = = ",
"~ ~ ~ ~ ~ ~ ~ ~ ~ { ] ^ / ( _ : < [ } | 1 2 3 ] { ~ ~ ~ ~ ~ ~ ~ ~ ~ ",
"- - - - - - - - 4 5 & | 6 7 8 9 0 0 9 a b c d e 5 f - - - - - - - - ",
"& & & & & & - g h i j k l m n o p p o n m l q r s t g - & & & & & & ",
"u u u u u u v ) w x y z A B C D E E D F B A z y G i H v u u u u u u ",
"u u u u u I H J K L M N O P Q R S S R Q P O N M L T U V I { { { { { ",
"{ { { { e > W X Y Z `  ...+.@.#.$.$.%.@.+... .` Z Y &.*.> =.* * * * ",
"* * * * f e -.;.>.,.'.).!.~.{.].^.^.].{.~.!./.'.,.>.(._.:.f e e e e ",
"e e e { <.[.}.|.1.2.3.4.5.6.7.8.9.9.8.7.0.5.4.3.2.1.|.a.b.] * =.=.=.",
"=.=.=.I :.c.d.e.f.g.h.i.j.k.l.m.n.n.m.l.o.j.i.h.g.f.e.d.p.q.f / / / ",
"/ / / q.% r.s.t.u.v.w.x.y.z.A.B.C.D.E.F.z.G.H.w.v.u.t.s.I.- q.:.:.:.",
":.:./ J.*.K.L.M.N.O.P.Q.R.S.T.U.V.V.U.T.S.R.Q.P.O.N.M.W.X.@ J./ 2 2 ",
"2 2 :.q.b.Y.Z.`. +.+++@+#+$+%+&+*+*+=+%+$+#+-+;+.+ +`.Z.>+,+q.2 q.q.",
"q.q.q.'+)+!+~+{+]+^+. . . . . . . . . . . . . . /+]+{+~+!+,+/ q.I I ",
"I I q.* ,+(+_+:+<+[+. . . . . . . . . . . . . . }+|+:+_+(+@ e I f f ",
"f f 2 & $ 1+2+3+4+5+6+7+8+9+0+a+b+b+c+0+9+d+7+6+e+f+3+2+g+% & q.h+h+",
"J.J.I ~ ~ i+j+k+l+m+n+o+p+q+r+s+t+u+v+r+w+x+o+y+z+A+B+j+C+- ~ I J.J.",
"D+D+D+$ & E+F+G+H+I+J+K+L+M+N+O+P+P+O+Q+R+S+T+U+V+W+G+F+X+& $ D+D+D+",
"Y+Y+Y+& % Z+`+ @.@+@@@#@$@%@&@*@=@=@-@;@>@,@'@)@+@.@!@~@{@% & Y+Y+Y+",
"]@]@]@2 )+u ^@/@(@_@:@<@[@}@|@1@2@3@4@5@6@7@8@9@0@(@a@b@{ )+2 ]@]@]@",
"c@c@c@c@d@# e@f@g@h@i@j@k@l@m@n@o@p@q@r@s@t@u@v@w@x@y@e@# d@z@z@z@z@",
"z@z@z@z@I [.u A@B@C@D@E@F@G@H@I@J@K@L@M@N@O@P@Q@R@S@T@u [.f v v v v ",
"g g g g g % [.e U@V@W@X@Y@Z@`@ #.#+#@###$#%#&#*#=#-#e [.% g g g g g ",
"<.<.<.<.<.<.*.1 =.;#>#,#'#)#!#~#{#{#]#^#/#(#_#:#<#e 1 *.<.<.<.<.<.<.",
"] ] ] ] ] ] g [#}#- |#1#2#3#4#5#6#6#7#8#9#0#1#a#- }#b.<.) ) ) ) ) ) ",
"b#b#b#b#b#b#b#b#d@d [.=.c#d#e#f#g#g#f#e#h#c#=.[.d d@b#b#b#b#b#b#b#b#",
"H H H H H H H H H q.i i#}#,+e j#k#l#j#e ,+}#i#i q.V V V V V V V V V ",
"V V V m#m#m#m#m#m#m#m#/ [.n#o#p#q#q#p#o#n#[./ m#m#m#m#m#m#m#m#m#m#m#",
"r#r#r#r#r#r#r#r#r#r#r#r#r#r#z@e * * e v > > > > > > > > > > > > > > ",
"h h h h h h h h h h h h h h h h h h h h h h h h h h h h h h h h h h ",
"s#s#s#s#s#s#s#s#s#s#s#s#s#s#s#s#s#s#s#s#s#s#s#s#s#s#s#s#s#s#s#s#s#s#",
"t#t#t#t#t#t#t#t#t#t#t#t#t#t#t#t#t#t#t#t#t#t#t#t#t#t#t#t#t#t#t#t#t#u#",
"v#v#v#v#v#v#v#v#v#v#v#v#v#v#v#v#v#v#v#v#v#v#v#v#v#v#v#v#v#v#v#v#w#w#",
"x#x#x#x#x#x#x#x#x#x#x#x#x#x#x#x#x#x#x#x#x#x#x#x#x#x#x#x#x#x#x#y#y#y#",
"                                                                    "};
