/* XPM */
static char * maximize_prelight_xpm[] = {
"34 42 405 2",
"  	c #151515",
". 	c #131313",
"+ 	c #595959",
"@ 	c #444444",
"# 	c #434343",
"$ 	c #424242",
"% 	c #414141",
"& 	c #3D3D3D",
"* 	c #3A3A3A",
"= 	c #404040",
"- 	c #3E3E3E",
"; 	c #2E2F2E",
"> 	c #202020",
", 	c #000000",
"' 	c #0B0B0B",
") 	c #262626",
"! 	c #2F2E2E",
"~ 	c #3F3F3F",
"{ 	c #3B3B3B",
"] 	c #272727",
"^ 	c #040404",
"/ 	c #373737",
"( 	c #535353",
"_ 	c #646464",
": 	c #6C6C6C",
"< 	c #6E6E6E",
"[ 	c #6D6D6D",
"} 	c #6B6B6B",
"| 	c #616161",
"1 	c #505050",
"2 	c #353535",
"3 	c #030303",
"4 	c #323231",
"5 	c #0D0D0D",
"6 	c #727871",
"7 	c #8DA18A",
"8 	c #A4C0A0",
"9 	c #B6D5B0",
"0 	c #C1E2BB",
"a 	c #A4C09F",
"b 	c #8CA088",
"c 	c #6F756D",
"d 	c #5C5C5C",
"e 	c #393939",
"f 	c #323232",
"g 	c #292929",
"h 	c #1F1F1F",
"i 	c #545454",
"j 	c #696E68",
"k 	c #7A9576",
"l 	c #91B68C",
"m 	c #A0C69A",
"n 	c #ACD3A7",
"o 	c #B5DCAF",
"p 	c #B9E1B4",
"q 	c #B4DCAF",
"r 	c #799374",
"s 	c #656A63",
"t 	c #4F4F4F",
"u 	c #1E1E1E",
"v 	c #3C3C3C",
"w 	c #2A2A2A",
"x 	c #5A5A5A",
"y 	c #637161",
"z 	c #6A9165",
"A 	c #79A374",
"B 	c #88B483",
"C 	c #96C391",
"D 	c #A2CF9D",
"E 	c #ABD8A5",
"F 	c #AFDDAA",
"G 	c #6A9164",
"H 	c #5F6E5C",
"I 	c #242424",
"J 	c #333333",
"K 	c #565756",
"L 	c #596A55",
"M 	c #54804E",
"N 	c #62905C",
"O 	c #70A06B",
"P 	c #7EB079",
"Q 	c #8CBE87",
"R 	c #97CA92",
"S 	c #9FD39A",
"T 	c #A3D89F",
"U 	c #61905C",
"V 	c #556752",
"W 	c #515151",
"X 	c #232323",
"Y 	c #4C4C4C",
"Z 	c #546152",
"` 	c #40703B",
" .	c #4C7E47",
"..	c #588C53",
"+.	c #669C61",
"@.	c #73AB6E",
"#.	c #80B87B",
"$.	c #8AC486",
"%.	c #6F9B6C",
"&.	c #51704F",
"*.	c #52704F",
"=.	c #7DAE78",
"-.	c #73AB6F",
";.	c #505E4D",
">.	c #474747",
",.	c #383838",
"'.	c #565954",
").	c #33622E",
"!.	c #396E34",
"~.	c #437B3F",
"{.	c #4F894A",
"].	c #5B9757",
"^.	c #67A563",
"/.	c #73B26F",
"(.	c #7DBD79",
"_.	c #568153",
":.	c #699C65",
"<.	c #68A563",
"[.	c #515550",
"}.	c #363636",
"|.	c #282828",
"1.	c #4E4E4E",
"2.	c #3F5A3B",
"3.	c #2A6225",
"4.	c #326D2D",
"5.	c #3B7837",
"6.	c #458541",
"7.	c #50924C",
"8.	c #5B9F57",
"9.	c #66AB62",
"0.	c #6FB56B",
"a.	c #4C7B4A",
"b.	c #5D955A",
"c.	c #5C9F57",
"d.	c #51924C",
"e.	c #468541",
"f.	c #3B7937",
"g.	c #3C5838",
"h.	c #494949",
"i.	c #50534E",
"j.	c #1F591A",
"k.	c #246220",
"l.	c #2B6B27",
"m.	c #33762F",
"n.	c #3C8138",
"o.	c #468D42",
"p.	c #4F994B",
"q.	c #59A354",
"r.	c #61AC5C",
"s.	c #427540",
"t.	c #518E4E",
"u.	c #61AC5D",
"v.	c #59A355",
"w.	c #50994B",
"x.	c #3C8238",
"y.	c #2B6C27",
"z.	c #1F581A",
"A.	c #4C504A",
"B.	c #343434",
"C.	c #40543E",
"D.	c #1A5916",
"E.	c #1F621B",
"F.	c #256B21",
"G.	c #2C7428",
"H.	c #337E2F",
"I.	c #3B8937",
"J.	c #449340",
"K.	c #4B9D47",
"L.	c #50A54D",
"M.	c #377135",
"N.	c #438940",
"O.	c #50A64D",
"P.	c #3B8938",
"Q.	c #3E523B",
"R.	c #303030",
"S.	c #30542D",
"T.	c #165B12",
"U.	c #1A6216",
"V.	c #1F6A1B",
"W.	c #257321",
"X.	c #2B7C27",
"Y.	c #31862D",
"Z.	c #369132",
"`.	c #3A9C37",
" +	c #3EA53B",
".+	c #2B7029",
"++	c #348831",
"@+	c #3A9D37",
"#+	c #369133",
"$+	c #165A12",
"%+	c #2F532B",
"&+	c #215619",
"*+	c #135C0E",
"=+	c #166312",
"-+	c #1A6A16",
";+	c #1A5618",
">+	c #1B511A",
",+	c #1D591C",
"'+	c #20611E",
")+	c #226820",
"!+	c #236D21",
"~+	c #1B4A1A",
"{+	c #1E5A1D",
"]+	c #236E21",
"^+	c #1D5A1C",
"/+	c #1B6019",
"(+	c #205518",
"_+	c #464646",
":+	c #373838",
"<+	c #484848",
"[+	c #105809",
"}+	c #105E0C",
"|+	c #12640E",
"1+	c #156B12",
"2+	c #143B13",
"3+	c #155413",
"4+	c #0E5A07",
"5+	c #0D5F09",
"6+	c #0F650B",
"7+	c #106E0D",
"8+	c #133E12",
"9+	c #125911",
"0+	c #1E5C14",
"a+	c #0B6207",
"b+	c #0C6808",
"c+	c #0C750A",
"d+	c #0F700D",
"e+	c #10740F",
"f+	c #107D0F",
"g+	c #11850F",
"h+	c #118C10",
"i+	c #119110",
"j+	c #126212",
"k+	c #127711",
"l+	c #10860F",
"m+	c #0E770C",
"n+	c #0C760A",
"o+	c #1E5B14",
"p+	c #313131",
"q+	c #2A5B25",
"r+	c #096405",
"s+	c #096E06",
"t+	c #0A7C07",
"u+	c #0A8A08",
"v+	c #0B9708",
"w+	c #0BA209",
"x+	c #0BAC09",
"y+	c #0BB50A",
"z+	c #0BBC0A",
"A+	c #107F10",
"B+	c #0F9A0E",
"C+	c #0BAD09",
"D+	c #097D07",
"E+	c #295A24",
"F+	c #2F2F2F",
"G+	c #355631",
"H+	c #076704",
"I+	c #077404",
"J+	c #078205",
"K+	c #079005",
"L+	c #089D06",
"M+	c #08A806",
"N+	c #08B306",
"O+	c #07BC06",
"P+	c #07C306",
"Q+	c #0F840F",
"R+	c #0DA00C",
"S+	c #07C406",
"T+	c #08A906",
"U+	c #079105",
"V+	c #078305",
"W+	c #345531",
"X+	c #2E2E2E",
"Y+	c #40483C",
"Z+	c #076B03",
"`+	c #067903",
" @	c #068803",
".@	c #069603",
"+@	c #05A204",
"@@	c #05AE04",
"#@	c #05B904",
"$@	c #05C204",
"%@	c #05CA04",
"&@	c #0E890E",
"*@	c #0BA60B",
"=@	c #05CB04",
"-@	c #05C304",
";@	c #05AF04",
">@	c #05A304",
",@	c #067A03",
"'@	c #3F483B",
")@	c #2D2D2D",
"!@	c #2E6526",
"~@	c #047D02",
"{@	c #048C02",
"]@	c #049A02",
"^@	c #04A702",
"/@	c #04B303",
"(@	c #04BE03",
"_@	c #03C802",
":@	c #03D002",
"<@	c #0E8E0D",
"[@	c #0AAC0A",
"}@	c #03D102",
"|@	c #03BE03",
"1@	c #047E02",
"2@	c #2D6525",
"3@	c #2C2C2C",
"4@	c #454545",
"5@	c #3D4A39",
"6@	c #117F08",
"7@	c #048F01",
"8@	c #039C02",
"9@	c #03A902",
"0@	c #03B501",
"a@	c #03C002",
"b@	c #02CB01",
"c@	c #02D401",
"d@	c #0D910D",
"e@	c #09B009",
"f@	c #02D501",
"g@	c #03C102",
"h@	c #03B601",
"i@	c #03AA02",
"j@	c #039D02",
"k@	c #039001",
"l@	c #118008",
"m@	c #3C4A39",
"n@	c #2B2B2B",
"o@	c #386231",
"p@	c #039101",
"q@	c #039E01",
"r@	c #02AB01",
"s@	c #02B701",
"t@	c #02C201",
"u@	c #01CC01",
"v@	c #01D501",
"w@	c #07BC07",
"x@	c #0BA70B",
"y@	c #05C805",
"z@	c #01D601",
"A@	c #01CD01",
"B@	c #02C301",
"C@	c #02B801",
"D@	c #02AC01",
"E@	c #039F01",
"F@	c #386331",
"G@	c #36722C",
"H@	c #029F00",
"I@	c #02AB00",
"J@	c #01B701",
"K@	c #01C201",
"L@	c #01CB00",
"M@	c #01D400",
"N@	c #01DA00",
"O@	c #01DE00",
"P@	c #01CC00",
"Q@	c #01B801",
"R@	c #02AC00",
"S@	c #37702F",
"T@	c #11A806",
"U@	c #01B500",
"V@	c #01C000",
"W@	c #01C900",
"X@	c #00D100",
"Y@	c #00D600",
"Z@	c #00DA00",
"`@	c #00D700",
" #	c #01B600",
".#	c #37712F",
"+#	c #4A4A4A",
"@#	c #555555",
"##	c #395634",
"$#	c #2C9A21",
"%#	c #02BD00",
"&#	c #01C500",
"*#	c #00CD00",
"=#	c #00D200",
"-#	c #00D300",
";#	c #01C600",
">#	c #2D9A21",
",#	c #395734",
"'#	c #252525",
")#	c #3A5A33",
"!#	c #2F9229",
"~#	c #25B21C",
"{#	c #1FC80C",
"]#	c #06D200",
"^#	c #25B21D",
"/#	c #606060",
"(#	c #323132",
"_#	c #343334",
":#	c #222222",
"<#	c #5D5D5D",
"[#	c #676767",
"}#	c #686868",
"|#	c #636363",
"1#	c #212121",
"2#	c #1D1D1D",
"3#	c #1B1B1B",
"4#	c #1A1A1A",
"5#	c #191919",
"6#	c #181818",
"7#	c #171717",
"8#	c #161616",
"  . . . . . . . . . . . . . . . . . . . . . . . . . . .             ",
"+ + + + + + + + + + + + + + + + + + + + + + + + + + + + + + + + + + ",
"@ @ @ @ @ @ @ @ @ @ @ @ @ @ @ @ @ @ @ @ @ @ @ @ @ @ @ @ @ @ @ @ @ @ ",
"# # # # # # # # # # # # # # # # # # # # # # # # # # # # # # # # # # ",
"$ $ $ $ $ $ $ $ $ $ $ $ $ $ $ $ $ $ $ $ $ $ $ $ $ $ $ $ $ $ $ $ $ $ ",
"$ $ $ $ $ % % % % % % % % % % % % % % % % % % % % % % % % % % % % % ",
"% % % % % % % % % % % % % % % & * * & % % = = = = = = = = = = = = = ",
"= = = = = = = = = = = - ; > , ' ) ) ' , > ! - = = = = = = = = = = = ",
"~ ~ ~ ~ ~ ~ ~ ~ ~ { ] ^ / ( _ : < [ } | 1 2 3 ] { ~ ~ ~ ~ ~ ~ ~ ~ ~ ",
"- - - - - - - - 4 5 & | 6 7 8 9 0 0 9 a b c d e 5 f - - - - - - - - ",
"& & & & & & - g h i j k l m n o p p q n m l r s t u g - & & & & & & ",
"v v v v v v w ) x y z A B C D E F F E D C B A G H i I w v v v v v v ",
"v v v v v J I K L M N O P Q R S T T S R Q P O U M V W X J { { { { { ",
"{ { { { e > Y Z `  ...+.@.#.$.%.&.*.=.$.#.-.+... .` ;.>.> ,.* * * * ",
"* * * * f e '.).!.~.{.].^./.(._.. . :.(./.<.].{.~.!.).[.}.f e e e e ",
"e e e { |.1.2.3.4.5.6.7.8.9.0.a.. . b.0.9.c.d.e.f.4.3.g.h.] * ,.,.,.",
",.,.,.J }.i.j.k.l.m.n.o.p.q.r.s.. . t.u.v.w.o.x.m.y.k.z.A.B.f / / / ",
"/ / / B.% C.D.E.F.G.H.I.J.K.L.M.. . N.O.K.J.P.H.G.F.E.D.Q.- B.}.}.}.",
"}.}./ R.>.S.T.U.V.W.X.Y.Z.`. +.+. . ++ +@+#+Y.X.W.V.U.$+%+@ R./ 2 2 ",
"2 2 }.B.h.&+*+=+-+;+>+,+'+)+!+~+. . {+]+)+'+^+>+/+-+=+*+(+_+B.2 B.B.",
"B.B.B.:+<+[+}+|+1+2+. . . . . . . . . . . . . . 3+1+|+}+[+_+/ B.J J ",
"J J B.* _+4+5+6+7+8+. . . . . . . . . . . . . . 9+7+6+5+4+@ e J f f ",
"f f 2 & $ 0+a+b+c+d+e+f+g+h+i+j+. . k+i+h+l+f+e+m+n+b+a+o+% & B.p+p+",
"R.R.J ~ ~ q+r+s+t+u+v+w+x+y+z+A+. . B+z+y+C+w+v+u+D+s+r+E+- ~ J R.R.",
"F+F+F+$ & G+H+I+J+K+L+M+N+O+P+Q+. . R+S+O+N+T+L+U+V+I+H+W+& $ F+F+F+",
"X+X+X+& % Y+Z+`+ @.@+@@@#@$@%@&@. . *@=@-@#@;@>@.@ @,@Z+'@% & X+X+X+",
")@)@)@2 <+v !@~@{@]@^@/@(@_@:@<@. . [@}@_@|@/@^@]@{@1@2@{ <+2 )@)@)@",
"3@3@3@3@4@# 5@6@7@8@9@0@a@b@c@d@. . e@f@b@g@h@i@j@k@l@m@# 4@n@n@n@n@",
"n@n@n@n@J 1.v o@p@q@r@s@t@u@v@w@x@x@y@z@A@B@C@D@E@p@F@v 1.f w w w w ",
"g g g g g % 1.e G@H@I@J@K@L@M@N@O@O@N@M@P@K@Q@R@H@G@e 1.% g g g g g ",
"|.|.|.|.|.|.>.1 ,.S@T@U@V@W@X@Y@Z@Z@`@X@W@V@ #T@.#e 1 >.|.|.|.|.|.|.",
"] ] ] ] ] ] g +#@#- ##$#%#&#*#=#Y@Y@-#*#;#%#>#,#- @#h.|.) ) ) ) ) ) ",
"'#'#'#'#'#'#'#'#4@d 1.,.)#!#~#{#]#]#{#^#!#)#,.1.d 4@'#'#'#'#'#'#'#'#",
"I I I I I I I I I B.i /#@#_+e (#_#B.f e _+@#/#i B.X X X X X X X X X ",
"X X X :#:#:#:#:#:#:#:#/ 1.<#[#}#|#|#}#[#<#1./ :#:#:#:#:#:#:#:#:#:#:#",
"1#1#1#1#1#1#1#1#1#1#1#1#1#1#n@e * * e w > > > > > > > > > > > > > > ",
"h h h h h h h h h h h h h h h h h h h h h h h h h h h h h h h h h h ",
"2#2#2#2#2#2#2#2#2#2#2#2#2#2#2#2#2#2#2#2#2#2#2#2#2#2#2#2#2#2#2#2#2#2#",
"3#3#3#3#3#3#3#3#3#3#3#3#3#3#3#3#3#3#3#3#3#3#3#3#3#3#3#3#3#3#3#3#3#4#",
"5#5#5#5#5#5#5#5#5#5#5#5#5#5#5#5#5#5#5#5#5#5#5#5#5#5#5#5#5#5#5#5#6#6#",
"7#7#7#7#7#7#7#7#7#7#7#7#7#7#7#7#7#7#7#7#7#7#7#7#7#7#7#7#7#7#7#8#8#8#",
"                                                                    "};
