/* XPM */
static char * maximize_pressed_xpm[] = {
"34 42 391 2",
"  	c #151515",
". 	c #131313",
"+ 	c #595959",
"@ 	c #444444",
"# 	c #434343",
"$ 	c #424242",
"% 	c #414141",
"& 	c #3D3D3D",
"* 	c #3A3A3A",
"= 	c #404040",
"- 	c #3E3E3E",
"; 	c #2E2F2E",
"> 	c #202020",
", 	c #000000",
"' 	c #020202",
") 	c #090909",
"! 	c #2F2E2E",
"~ 	c #3F3F3F",
"{ 	c #3B3B3B",
"] 	c #272727",
"^ 	c #010101",
"/ 	c #101010",
"( 	c #1B1B1B",
"_ 	c #222222",
": 	c #252525",
"< 	c #212121",
"[ 	c #323231",
"} 	c #0D0D0D",
"| 	c #2B2C2B",
"1 	c #3A3D39",
"2 	c #5B6959",
"3 	c #7A8F77",
"4 	c #89A186",
"5 	c #393D39",
"6 	c #2B2C2A",
"7 	c #141414",
"8 	c #323232",
"9 	c #292929",
"0 	c #111111",
"a 	c #1F1F1F",
"b 	c #2F302F",
"c 	c #495248",
"d 	c #738D6F",
"e 	c #98BC93",
"f 	c #ACD3A7",
"g 	c #B5DCAF",
"h 	c #B9E1B4",
"i 	c #B4DCAF",
"j 	c #495148",
"k 	c #1E1E1E",
"l 	c #3C3C3C",
"m 	c #2A2A2A",
"n 	c #171717",
"o 	c #262626",
"p 	c #3F413F",
"q 	c #5A6F57",
"r 	c #77A072",
"s 	c #88B483",
"t 	c #96C391",
"u 	c #A2D09D",
"v 	c #ABD9A6",
"w 	c #B0DEAB",
"x 	c #3F403E",
"y 	c #333333",
"z 	c #2B2B2B",
"A 	c #494B49",
"B 	c #557351",
"C 	c #62905C",
"D 	c #70A06B",
"E 	c #80B07B",
"F 	c #8FC08A",
"G 	c #9CCC97",
"H 	c #A4D5A0",
"I 	c #A9DAA5",
"J 	c #8FC08B",
"K 	c #61905C",
"L 	c #557352",
"M 	c #494B48",
"N 	c #393939",
"O 	c #4D4E4C",
"P 	c #4C694A",
"Q 	c #4C7E47",
"R 	c #598D54",
"S 	c #6B9E66",
"T 	c #7CAF78",
"U 	c #8BBD87",
"V 	c #96C992",
"W 	c #789E75",
"X 	c #567154",
"Y 	c #86B283",
"Z 	c #4C6A4A",
"` 	c #4C4D4C",
" .	c #383838",
"..	c #282828",
"+.	c #4A4B4A",
"@.	c #516151",
"#.	c #396E34",
"$.	c #447B40",
"%.	c #588C54",
"&.	c #6A9E67",
"*.	c #7AAD77",
"=.	c #87BA84",
"-.	c #93C58F",
";.	c #658763",
">.	c #7BA378",
",.	c #88BA84",
"'.	c #588D54",
").	c #447C40",
"!.	c #526251",
"~.	c #4A4A4A",
"{.	c #5B5F5B",
"].	c #31632D",
"^.	c #326D2E",
"/.	c #457C41",
"(.	c #5A8E57",
"_.	c #6B9D68",
":.	c #7BAC78",
"<.	c #89B986",
"[.	c #94C391",
"}.	c #658563",
"|.	c #7BA179",
"1.	c #89B987",
"2.	c #457D41",
"3.	c #575757",
"4.	c #50634F",
"5.	c #246220",
"6.	c #316D2E",
"7.	c #4A7F47",
"8.	c #5D8F5B",
"9.	c #6F9E6D",
"0.	c #7FAD7D",
"a.	c #8CB98A",
"b.	c #96C194",
"c.	c #668365",
"d.	c #7C9F7A",
"e.	c #96C294",
"f.	c #5D8F5A",
"g.	c #316E2E",
"h.	c #575756",
"i.	c #373737",
"j.	c #343434",
"k.	c #646564",
"l.	c #315D2F",
"m.	c #1F621B",
"n.	c #377034",
"o.	c #4E814C",
"p.	c #619160",
"q.	c #75A074",
"r.	c #84AE83",
"s.	c #8FB98E",
"t.	c #98C197",
"u.	c #678366",
"v.	c #7D9F7C",
"w.	c #98C297",
"x.	c #90B98E",
"y.	c #629160",
"z.	c #363636",
"A.	c #303030",
"B.	c #535353",
"C.	c #666B66",
"D.	c #165B12",
"E.	c #1F631B",
"F.	c #3C733A",
"G.	c #528350",
"H.	c #689367",
"I.	c #7AA379",
"J.	c #88B187",
"K.	c #92BC91",
"L.	c #9AC499",
"M.	c #698568",
"N.	c #7FA17E",
"O.	c #9AC599",
"P.	c #165A12",
"Q.	c #353535",
"R.	c #5F5F5F",
"S.	c #616C61",
"T.	c #135C0E",
"U.	c #21651E",
"V.	c #3F753E",
"W.	c #3F633E",
"X.	c #476346",
"Y.	c #526E52",
"Z.	c #5B775A",
"`.	c #627E61",
" +	c #678467",
".+	c #465946",
"++	c #556C54",
"@+	c #467045",
"#+	c #666666",
"$+	c #5E6D5E",
"%+	c #105E0C",
"&+	c #226720",
"*+	c #40773F",
"=+	c #2A4429",
"-+	c #3B613B",
";+	c #6A6A6A",
">+	c #617061",
",+	c #0D5F09",
"'+	c #20681E",
")+	c #3F7A3E",
"!+	c #294629",
"~+	c #3B653B",
"{+	c #6D6D6D",
"]+	c #6B766A",
"^+	c #0B6207",
"/+	c #1A6A19",
"(+	c #3B7F3A",
"_+	c #467D46",
":+	c #558555",
"<+	c #639162",
"[+	c #6D9A6D",
"}+	c #75A275",
"|+	c #7CA87C",
"1+	c #557155",
"2+	c #678967",
"3+	c #6D9B6D",
"4+	c #4B854A",
"5+	c #3B7F3B",
"6+	c #313131",
"7+	c #797E78",
"8+	c #096405",
"9+	c #126E0F",
"0+	c #348334",
"a+	c #4E974D",
"b+	c #66A966",
"c+	c #78B877",
"d+	c #85C485",
"e+	c #8FCC8F",
"f+	c #97D497",
"g+	c #678F67",
"h+	c #7DAD7D",
"i+	c #8FCD8F",
"j+	c #66AA66",
"k+	c #348434",
"l+	c #126F0F",
"m+	c #2F2F2F",
"n+	c #636363",
"o+	c #808180",
"p+	c #366D35",
"q+	c #087405",
"r+	c #298628",
"s+	c #449943",
"t+	c #5DAB5D",
"u+	c #70BA70",
"v+	c #7EC67D",
"w+	c #88CF88",
"x+	c #90D690",
"y+	c #619061",
"z+	c #76AF76",
"A+	c #5DAC5D",
"B+	c #449A43",
"C+	c #298728",
"D+	c #2E2E2E",
"E+	c #565656",
"F+	c #7D7E7D",
"G+	c #687F67",
"H+	c #067903",
"I+	c #178916",
"J+	c #379B36",
"K+	c #50AC4F",
"L+	c #65BB65",
"M+	c #74C773",
"N+	c #7ED17E",
"O+	c #86D886",
"P+	c #5B925B",
"Q+	c #6EB16E",
"R+	c #86D986",
"S+	c #74C873",
"T+	c #4FAC4F",
"U+	c #178A16",
"V+	c #067A03",
"W+	c #2D2D2D",
"X+	c #484848",
"Y+	c #767676",
"Z+	c #858985",
"`+	c #287F27",
" @	c #068C03",
".@	c #249C23",
"+@	c #3DAC3D",
"@@	c #54BB54",
"#@	c #66C865",
"$@	c #72D272",
"%@	c #7ADA7A",
"&@	c #539453",
"*@	c #65B365",
"=@	c #7ADB7A",
"-@	c #71D271",
";@	c #3DAD3D",
">@	c #249D23",
",@	c #068C04",
"'@	c #288027",
")@	c #858A85",
"!@	c #757576",
"~@	c #2C2C2C",
"{@	c #454545",
"]@	c #606060",
"^@	c #858585",
"/@	c #778E77",
"(@	c #048F01",
"_@	c #099D07",
":@	c #28AB27",
"<@	c #3EBA3E",
"[@	c #52C752",
"}@	c #60D260",
"|@	c #6ADB6A",
"1@	c #499549",
"2@	c #58B558",
"3@	c #3EBA3D",
"4@	c #28AD28",
"5@	c #099E07",
"6@	c #039001",
"7@	c #4E4E4E",
"8@	c #767575",
"9@	c #8D8E8C",
"0@	c #629562",
"a@	c #039E01",
"b@	c #08AB07",
"c@	c #23B923",
"d@	c #37C537",
"e@	c #47D047",
"f@	c #53D953",
"g@	c #4ABF4A",
"h@	c #40A940",
"i@	c #50CC50",
"j@	c #53DA53",
"k@	c #08AC07",
"l@	c #039F01",
"m@	c #757575",
"n@	c #818181",
"o@	c #919390",
"p@	c #649F64",
"q@	c #02AB00",
"r@	c #02B702",
"s@	c #15C214",
"t@	c #27CC27",
"u@	c #33D533",
"v@	c #3BDC3B",
"w@	c #40E03F",
"x@	c #33D633",
"y@	c #27CD27",
"z@	c #15C315",
"A@	c #02B802",
"B@	c #02AC00",
"C@	c #474747",
"D@	c #5D5D5D",
"E@	c #848484",
"F@	c #939593",
"G@	c #7FA47F",
"H@	c #2BB52B",
"I@	c #01C000",
"J@	c #02C901",
"K@	c #0BD10A",
"L@	c #14D714",
"M@	c #19DA19",
"N@	c #5E5E5E",
"O@	c #808080",
"P@	c #929392",
"Q@	c #959F95",
"R@	c #76B076",
"S@	c #3DC23D",
"T@	c #00CD00",
"U@	c #00D200",
"V@	c #00D600",
"W@	c #00D300",
"X@	c #494949",
"Y@	c #5C5C5C",
"Z@	c #727272",
"`@	c #8B8B8B",
" #	c #959695",
".#	c #9A9D9A",
"+#	c #93A793",
"@#	c #85B385",
"##	c #7DB97D",
"$#	c #242424",
"%#	c #545454",
"&#	c #616161",
"*#	c #727172",
"=#	c #828282",
"-#	c #8D8D8D",
";#	c #939393",
">#	c #959595",
",#	c #939493",
"'#	c #727271",
")#	c #232323",
"!#	c #676767",
"~#	c #717171",
"{#	c #1D1D1D",
"]#	c #1A1A1A",
"^#	c #191919",
"/#	c #181818",
"(#	c #161616",
"  . . . . . . . . . . . . . . . . . . . . . . . . . . .             ",
"+ + + + + + + + + + + + + + + + + + + + + + + + + + + + + + + + + + ",
"@ @ @ @ @ @ @ @ @ @ @ @ @ @ @ @ @ @ @ @ @ @ @ @ @ @ @ @ @ @ @ @ @ @ ",
"# # # # # # # # # # # # # # # # # # # # # # # # # # # # # # # # # # ",
"$ $ $ $ $ $ $ $ $ $ $ $ $ $ $ $ $ $ $ $ $ $ $ $ $ $ $ $ $ $ $ $ $ $ ",
"$ $ $ $ $ % % % % % % % % % % % % % % % % % % % % % % % % % % % % % ",
"% % % % % % % % % % % % % % % & * * & % % = = = = = = = = = = = = = ",
"= = = = = = = = = = = - ; > , ' ) ) ' , > ! - = = = = = = = = = = = ",
"~ ~ ~ ~ ~ ~ ~ ~ ~ { ] ^ / ( _ : : : : < ( / ^ ] { ~ ~ ~ ~ ~ ~ ~ ~ ~ ",
"- - - - - - - - [ }   _ | 1 2 3 4 4 3 2 5 6 < 7 } 8 - - - - - - - - ",
"& & & & & & - 9 0 a b c d e f g h h i f e d j ; k / 9 - & & & & & & ",
"l l l l l l m n o p q r s t u v w w v u t s r q x : n m l l l l l l ",
"l l l l l y ( z A B C D E F G H I I H G J E D K L M m ( y { { { { { ",
"{ { { { N > z O P Q R S T U V W X X Y V U T S R Q Z ` z >  .* * * * ",
"* * * * 8 ..+.@.#.$.%.&.*.=.-.;.. . >.-.,.*.&.'.).#.!.~...8 N N N N ",
"N N N { ] % {.].^./.(._.:.<.[.}.. . |.[.1.:._.(.2.^.].{.% ] *  . . .",
" . . .y 8 3.4.5.6.7.8.9.0.a.b.c.. . d.e.a.0.9.f.7.g.5.4.h.8 8 i.i.i.",
"i.i.i.j.@ k.l.m.n.o.p.q.r.s.t.u.. . v.w.x.r.q.y.o.n.m.l.k.@ j.z.z.z.",
"z.z.i.A.B.C.D.E.F.G.H.I.J.K.L.M.. . N.O.K.J.I.H.G.F.E.P.C.B.A.i.Q.Q.",
"Q.Q.z.Q.R.S.T.U.V.W.X.Y.Z.`. +.+. . ++ +`.Z.Y.X.@+V.U.T.S.R.Q.Q.j.j.",
"j.j.j.& #+$+%+&+*+=+. . . . . . . . . . . . . . -+*+&+%+$+#+& j.y y ",
"y y j.= ;+>+,+'+)+!+. . . . . . . . . . . . . . ~+)+'+,+>+;+= y 8 8 ",
"8 8 Q.- {+]+^+/+(+_+:+<+[+}+|+1+. . 2+|+}+3+<+:+4+5+/+^+]+{+- j.6+6+",
"A.A.y ~ ;+7+8+9+0+a+b+c+d+e+f+g+. . h+f+i+d+c+j+a+k+l+8+7+;+~ y A.A.",
"m+m+m+$ n+o+p+q+r+s+t+u+v+w+x+y+. . z+x+w+v+u+A+B+C+q+p+o+n+$ m+m+m+",
"D+D+D+& E+F+G+H+I+J+K+L+M+N+O+P+. . Q+R+N+S+L+T+J+U+V+G+F+E+& D+D+D+",
"W+W+W+Q.X+Y+Z+`+ @.@+@@@#@$@%@&@. . *@=@-@#@@@;@>@,@'@)@!@X+Q.W+W+W+",
"~@~@~@~@{@]@^@/@(@_@:@<@[@}@|@1@. . 2@|@}@[@3@4@5@6@/@^@]@{@z z z z ",
"z z z z y 7@8@9@0@a@b@c@d@e@f@g@h@h@i@j@e@d@c@k@l@0@9@m@7@8 m m m m ",
"9 9 9 9 9 % 3.n@o@p@q@r@s@t@u@v@w@w@v@x@y@z@A@B@p@o@n@3.% 9 9 9 9 9 ",
"............C@D@E@F@G@H@I@J@K@L@M@M@L@K@J@I@H@G@F@E@D@C@............",
"] ] ] ] ] ] 9 ~.N@O@P@Q@R@S@T@U@V@V@W@T@S@R@Q@P@O@N@X@..o o o o o o ",
": : : : : : : : {@Y@Z@`@ #.#+#@#####@#+#.# #`@Z@Y@{@: : : : : : : : ",
"$#$#$#$#$#$#$#$#$#j.%#&#*#=#-#;#>#>#,#-#=#'#&#%#j.)#)#)#)#)#)#)#)#)#",
")#)#)#_ _ _ _ _ _ _ _ i.7@D@!#;+~#~#;+!#D@7@i._ _ _ _ _ _ _ _ _ _ _ ",
"< < < < < < < < < < < < < < z N * * N m > > > > > > > > > > > > > > ",
"a a a a a a a a a a a a a a a a a a a a a a a a a a a a a a a a a a ",
"{#{#{#{#{#{#{#{#{#{#{#{#{#{#{#{#{#{#{#{#{#{#{#{#{#{#{#{#{#{#{#{#{#{#",
"( ( ( ( ( ( ( ( ( ( ( ( ( ( ( ( ( ( ( ( ( ( ( ( ( ( ( ( ( ( ( ( ( ]#",
"^#^#^#^#^#^#^#^#^#^#^#^#^#^#^#^#^#^#^#^#^#^#^#^#^#^#^#^#^#^#^#^#/#/#",
"n n n n n n n n n n n n n n n n n n n n n n n n n n n n n n n (#(#(#",
"                                                                    "};
