/* XPM */
static char * maximize_active_xpm[] = {
"34 42 429 2",
"  	c #151515",
". 	c #131313",
"+ 	c #595959",
"@ 	c #444444",
"# 	c #434343",
"$ 	c #424242",
"% 	c #414141",
"& 	c #3D3D3D",
"* 	c #3A3A3A",
"= 	c #404040",
"- 	c #3E3E3E",
"; 	c #2E2F2E",
"> 	c #202020",
", 	c #000000",
"' 	c #0B0B0B",
") 	c #262626",
"! 	c #2F2E2E",
"~ 	c #3F3F3F",
"{ 	c #3B3B3B",
"] 	c #272727",
"^ 	c #040404",
"/ 	c #373737",
"( 	c #535353",
"_ 	c #646464",
": 	c #6C6C6C",
"< 	c #6E6E6E",
"[ 	c #6D6D6D",
"} 	c #6B6B6B",
"| 	c #616161",
"1 	c #505050",
"2 	c #353535",
"3 	c #030303",
"4 	c #323231",
"5 	c #0D0D0D",
"6 	c #727871",
"7 	c #8DA18A",
"8 	c #A4C0A0",
"9 	c #B6D5B0",
"0 	c #C1E2BB",
"a 	c #A4C09F",
"b 	c #8CA088",
"c 	c #6F756D",
"d 	c #5C5C5C",
"e 	c #393939",
"f 	c #323232",
"g 	c #292929",
"h 	c #1F1F1F",
"i 	c #545454",
"j 	c #696E68",
"k 	c #7A9576",
"l 	c #91B68C",
"m 	c #A0C69A",
"n 	c #ACD3A7",
"o 	c #B5DCAF",
"p 	c #B9E1B4",
"q 	c #B4DCAF",
"r 	c #799374",
"s 	c #656A63",
"t 	c #4F4F4F",
"u 	c #1E1E1E",
"v 	c #3C3C3C",
"w 	c #2A2A2A",
"x 	c #5A5A5A",
"y 	c #637161",
"z 	c #6A9165",
"A 	c #79A374",
"B 	c #88B483",
"C 	c #96C391",
"D 	c #A2CF9D",
"E 	c #ABD8A5",
"F 	c #AFDDAA",
"G 	c #6A9164",
"H 	c #5F6E5C",
"I 	c #242424",
"J 	c #333333",
"K 	c #565756",
"L 	c #596A55",
"M 	c #54804E",
"N 	c #62905C",
"O 	c #70A06B",
"P 	c #7EB079",
"Q 	c #8CBE87",
"R 	c #97CA92",
"S 	c #9FD39A",
"T 	c #A3D89F",
"U 	c #61905C",
"V 	c #556752",
"W 	c #515151",
"X 	c #232323",
"Y 	c #4C4C4C",
"Z 	c #546152",
"` 	c #40703B",
" .	c #4C7E47",
"..	c #588C53",
"+.	c #669C61",
"@.	c #73AB6E",
"#.	c #80B87B",
"$.	c #8AC486",
"%.	c #92CC8D",
"&.	c #96D192",
"*.	c #73AB6F",
"=.	c #505E4D",
"-.	c #474747",
";.	c #383838",
">.	c #565954",
",.	c #33622E",
"'.	c #396E34",
").	c #437B3F",
"!.	c #4F894A",
"~.	c #5B9757",
"{.	c #67A563",
"].	c #73B26F",
"^.	c #7DBD79",
"/.	c #84C480",
"(.	c #88C984",
"_.	c #84C580",
":.	c #68A563",
"<.	c #515550",
"[.	c #363636",
"}.	c #282828",
"|.	c #4E4E4E",
"1.	c #3F5A3B",
"2.	c #2A6225",
"3.	c #326D2D",
"4.	c #3B7837",
"5.	c #458541",
"6.	c #50924C",
"7.	c #5B9F57",
"8.	c #66AB62",
"9.	c #6FB56B",
"0.	c #75BC71",
"a.	c #79C075",
"b.	c #76BC71",
"c.	c #5C9F57",
"d.	c #51924C",
"e.	c #468541",
"f.	c #3B7937",
"g.	c #3C5838",
"h.	c #494949",
"i.	c #50534E",
"j.	c #1F591A",
"k.	c #246220",
"l.	c #2B6B27",
"m.	c #33762F",
"n.	c #3C8138",
"o.	c #468D42",
"p.	c #4F994B",
"q.	c #59A354",
"r.	c #61AC5C",
"s.	c #66B362",
"t.	c #69B665",
"u.	c #61AC5D",
"v.	c #59A355",
"w.	c #50994B",
"x.	c #3C8238",
"y.	c #2B6C27",
"z.	c #1F581A",
"A.	c #4C504A",
"B.	c #343434",
"C.	c #40543E",
"D.	c #1A5916",
"E.	c #1F621B",
"F.	c #256B21",
"G.	c #2C7428",
"H.	c #337E2F",
"I.	c #3B8937",
"J.	c #449340",
"K.	c #4B9D47",
"L.	c #50A54D",
"M.	c #54AC50",
"N.	c #56B052",
"O.	c #56B053",
"P.	c #54AC51",
"Q.	c #50A64D",
"R.	c #3B8938",
"S.	c #3E523B",
"T.	c #303030",
"U.	c #30542D",
"V.	c #165B12",
"W.	c #1A6216",
"X.	c #1F6A1B",
"Y.	c #257321",
"Z.	c #2B7C27",
"`.	c #31862D",
" +	c #369132",
".+	c #3A9C37",
"++	c #3EA53B",
"@+	c #41AB3E",
"#+	c #42AE3F",
"$+	c #3A9D37",
"%+	c #369133",
"&+	c #165A12",
"*+	c #2F532B",
"=+	c #215619",
"-+	c #135C0E",
";+	c #166312",
">+	c #1A6A16",
",+	c #1E721B",
"'+	c #227C1F",
")+	c #268922",
"!+	c #299526",
"~+	c #2C9F29",
"{+	c #2FA62C",
"]+	c #30AC2E",
"^+	c #31AE2F",
"/+	c #2FA72C",
"(+	c #268A22",
"_+	c #227D1F",
":+	c #205518",
"<+	c #464646",
"[+	c #373838",
"}+	c #484848",
"|+	c #105809",
"1+	c #105E0C",
"2+	c #12640E",
"3+	c #156B12",
"4+	c #187514",
"5+	c #1A8217",
"6+	c #1C8F1A",
"7+	c #1E9A1C",
"8+	c #21A31E",
"9+	c #22AA20",
"0+	c #23AE21",
"a+	c #24B122",
"b+	c #23AF21",
"c+	c #21A21E",
"d+	c #1C8F19",
"e+	c #1A8317",
"f+	c #177614",
"g+	c #0E5A07",
"h+	c #0D5F09",
"i+	c #0F650B",
"j+	c #106E0D",
"k+	c #127C0F",
"l+	c #138911",
"m+	c #159413",
"n+	c #169F14",
"o+	c #17A815",
"p+	c #18AE16",
"q+	c #19B317",
"r+	c #19B517",
"s+	c #159512",
"t+	c #1E5C14",
"u+	c #0B6207",
"v+	c #0C6808",
"w+	c #0C750A",
"x+	c #0D830B",
"y+	c #0E900C",
"z+	c #0F9B0D",
"A+	c #10A50E",
"B+	c #10AE0F",
"C+	c #11B50F",
"D+	c #11B90F",
"E+	c #11BC0F",
"F+	c #11BB0F",
"G+	c #10A60E",
"H+	c #0F9C0D",
"I+	c #0D840B",
"J+	c #0C760A",
"K+	c #1E5B14",
"L+	c #313131",
"M+	c #2A5B25",
"N+	c #096405",
"O+	c #096E06",
"P+	c #0A7C07",
"Q+	c #0A8A08",
"R+	c #0B9708",
"S+	c #0BA209",
"T+	c #0BAC09",
"U+	c #0BB50A",
"V+	c #0BBC0A",
"W+	c #0BC10A",
"X+	c #0BC30A",
"Y+	c #0BAD09",
"Z+	c #097D07",
"`+	c #295A24",
" @	c #2F2F2F",
".@	c #355631",
"+@	c #076704",
"@@	c #077404",
"#@	c #078205",
"$@	c #079005",
"%@	c #089D06",
"&@	c #08A806",
"*@	c #08B306",
"=@	c #07BC06",
"-@	c #07C306",
";@	c #07C906",
">@	c #07CC06",
",@	c #07C406",
"'@	c #08A906",
")@	c #079105",
"!@	c #078305",
"~@	c #345531",
"{@	c #2E2E2E",
"]@	c #40483C",
"^@	c #076B03",
"/@	c #067903",
"(@	c #068803",
"_@	c #069603",
":@	c #05A204",
"<@	c #05AE04",
"[@	c #05B904",
"}@	c #05C204",
"|@	c #05CA04",
"1@	c #04D104",
"2@	c #04D403",
"3@	c #04D503",
"4@	c #05CB04",
"5@	c #05C304",
"6@	c #05AF04",
"7@	c #05A304",
"8@	c #067A03",
"9@	c #3F483B",
"0@	c #2D2D2D",
"a@	c #2E6526",
"b@	c #047D02",
"c@	c #048C02",
"d@	c #049A02",
"e@	c #04A702",
"f@	c #04B303",
"g@	c #04BE03",
"h@	c #03C802",
"i@	c #03D002",
"j@	c #02D802",
"k@	c #02DD02",
"l@	c #03D102",
"m@	c #03BE03",
"n@	c #047E02",
"o@	c #2D6525",
"p@	c #2C2C2C",
"q@	c #454545",
"r@	c #3D4A39",
"s@	c #117F08",
"t@	c #048F01",
"u@	c #039C02",
"v@	c #03A902",
"w@	c #03B501",
"x@	c #03C002",
"y@	c #02CB01",
"z@	c #02D401",
"A@	c #01DC01",
"B@	c #01E401",
"C@	c #01DD01",
"D@	c #02D501",
"E@	c #03C102",
"F@	c #03B601",
"G@	c #03AA02",
"H@	c #039D02",
"I@	c #039001",
"J@	c #118008",
"K@	c #3C4A39",
"L@	c #2B2B2B",
"M@	c #386231",
"N@	c #039101",
"O@	c #039E01",
"P@	c #02AB01",
"Q@	c #02B701",
"R@	c #02C201",
"S@	c #01CC01",
"T@	c #01D501",
"U@	c #01E300",
"V@	c #01E400",
"W@	c #01DE01",
"X@	c #01D601",
"Y@	c #01CD01",
"Z@	c #02C301",
"`@	c #02B801",
" #	c #02AC01",
".#	c #039F01",
"+#	c #386331",
"@#	c #36722C",
"##	c #029F00",
"$#	c #02AB00",
"%#	c #01B701",
"&#	c #01C201",
"*#	c #01CB00",
"=#	c #01D400",
"-#	c #01DA00",
";#	c #01DE00",
">#	c #01CC00",
",#	c #01B801",
"'#	c #02AC00",
")#	c #37702F",
"!#	c #11A806",
"~#	c #01B500",
"{#	c #01C000",
"]#	c #01C900",
"^#	c #00D100",
"/#	c #00D600",
"(#	c #00DA00",
"_#	c #00D700",
":#	c #01B600",
"<#	c #37712F",
"[#	c #4A4A4A",
"}#	c #555555",
"|#	c #395634",
"1#	c #2C9A21",
"2#	c #02BD00",
"3#	c #01C500",
"4#	c #00CD00",
"5#	c #00D200",
"6#	c #00D300",
"7#	c #01C600",
"8#	c #2D9A21",
"9#	c #395734",
"0#	c #252525",
"a#	c #3A5A33",
"b#	c #2F9229",
"c#	c #25B21C",
"d#	c #1FC80C",
"e#	c #06D200",
"f#	c #25B21D",
"g#	c #606060",
"h#	c #323132",
"i#	c #343334",
"j#	c #222222",
"k#	c #5D5D5D",
"l#	c #676767",
"m#	c #686868",
"n#	c #636363",
"o#	c #212121",
"p#	c #1D1D1D",
"q#	c #1B1B1B",
"r#	c #1A1A1A",
"s#	c #191919",
"t#	c #181818",
"u#	c #171717",
"v#	c #161616",
"  . . . . . . . . . . . . . . . . . . . . . . . . . . .             ",
"+ + + + + + + + + + + + + + + + + + + + + + + + + + + + + + + + + + ",
"@ @ @ @ @ @ @ @ @ @ @ @ @ @ @ @ @ @ @ @ @ @ @ @ @ @ @ @ @ @ @ @ @ @ ",
"# # # # # # # # # # # # # # # # # # # # # # # # # # # # # # # # # # ",
"$ $ $ $ $ $ $ $ $ $ $ $ $ $ $ $ $ $ $ $ $ $ $ $ $ $ $ $ $ $ $ $ $ $ ",
"$ $ $ $ $ % % % % % % % % % % % % % % % % % % % % % % % % % % % % % ",
"% % % % % % % % % % % % % % % & * * & % % = = = = = = = = = = = = = ",
"= = = = = = = = = = = - ; > , ' ) ) ' , > ! - = = = = = = = = = = = ",
"~ ~ ~ ~ ~ ~ ~ ~ ~ { ] ^ / ( _ : < [ } | 1 2 3 ] { ~ ~ ~ ~ ~ ~ ~ ~ ~ ",
"- - - - - - - - 4 5 & | 6 7 8 9 0 0 9 a b c d e 5 f - - - - - - - - ",
"& & & & & & - g h i j k l m n o p p q n m l r s t u g - & & & & & & ",
"v v v v v v w ) x y z A B C D E F F E D C B A G H i I w v v v v v v ",
"v v v v v J I K L M N O P Q R S T T S R Q P O U M V W X J { { { { { ",
"{ { { { e > Y Z `  ...+.@.#.$.%.&.&.%.$.#.*.+... .` =.-.> ;.* * * * ",
"* * * * f e >.,.'.).!.~.{.].^./.(.(._.^.].:.~.!.).'.,.<.[.f e e e e ",
"e e e { }.|.1.2.3.4.5.6.7.8.9.0.a.a.b.9.8.c.d.e.f.3.2.g.h.] * ;.;.;.",
";.;.;.J [.i.j.k.l.m.n.o.p.q.r.s.t.t.s.u.v.w.o.x.m.y.k.z.A.B.f / / / ",
"/ / / B.% C.D.E.F.G.H.I.J.K.L.M.N.O.P.Q.K.J.R.H.G.F.E.D.S.- B.[.[.[.",
"[.[./ T.-.U.V.W.X.Y.Z.`. +.+++@+#+#+@+++$+%+`.Z.Y.X.W.&+*+@ T./ 2 2 ",
"2 2 [.B.h.=+-+;+>+,+'+)+!+~+{+]+^+^+]+/+~+!+(+_+,+>+;+-+:+<+B.2 B.B.",
"B.B.B.[+}+|+1+2+3+4+5+6+7+8+9+0+a+a+b+9+c+7+d+e+f+3+2+1+|+<+/ B.J J ",
"J J B.* <+g+h+i+j+k+l+m+n+o+p+q+r+r+q+p+o+n+s+l+k+j+i+h+g+@ e J f f ",
"f f 2 & $ t+u+v+w+x+y+z+A+B+C+D+E+F+D+C+B+G+H+y+I+J+v+u+K+% & B.L+L+",
"T.T.J ~ ~ M+N+O+P+Q+R+S+T+U+V+W+X+X+W+V+U+Y+S+R+Q+Z+O+N+`+- ~ J T.T.",
" @ @ @$ & .@+@@@#@$@%@&@*@=@-@;@>@>@;@,@=@*@'@%@)@!@@@+@~@& $  @ @ @",
"{@{@{@& % ]@^@/@(@_@:@<@[@}@|@1@2@3@1@4@5@[@6@7@_@(@8@^@9@% & {@{@{@",
"0@0@0@2 }+v a@b@c@d@e@f@g@h@i@j@k@k@j@l@h@m@f@e@d@c@n@o@{ }+2 0@0@0@",
"p@p@p@p@q@# r@s@t@u@v@w@x@y@z@A@B@B@C@D@y@E@F@G@H@I@J@K@# q@L@L@L@L@",
"L@L@L@L@J |.v M@N@O@P@Q@R@S@T@C@U@V@W@X@Y@Z@`@ #.#N@+#v |.f w w w w ",
"g g g g g % |.e @###$#%#&#*#=#-#;#;#-#=#>#&#,#'###@#e |.% g g g g g ",
"}.}.}.}.}.}.-.1 ;.)#!#~#{#]#^#/#(#(#_#^#]#{#:#!#<#e 1 -.}.}.}.}.}.}.",
"] ] ] ] ] ] g [#}#- |#1#2#3#4#5#/#/#6#4#7#2#8#9#- }#h.}.) ) ) ) ) ) ",
"0#0#0#0#0#0#0#0#q@d |.;.a#b#c#d#e#e#d#f#b#a#;.|.d q@0#0#0#0#0#0#0#0#",
"I I I I I I I I I B.i g#}#<+e h#i#B.f e <+}#g#i B.X X X X X X X X X ",
"X X X j#j#j#j#j#j#j#j#/ |.k#l#m#n#n#m#l#k#|./ j#j#j#j#j#j#j#j#j#j#j#",
"o#o#o#o#o#o#o#o#o#o#o#o#o#o#L@e * * e w > > > > > > > > > > > > > > ",
"h h h h h h h h h h h h h h h h h h h h h h h h h h h h h h h h h h ",
"p#p#p#p#p#p#p#p#p#p#p#p#p#p#p#p#p#p#p#p#p#p#p#p#p#p#p#p#p#p#p#p#p#p#",
"q#q#q#q#q#q#q#q#q#q#q#q#q#q#q#q#q#q#q#q#q#q#q#q#q#q#q#q#q#q#q#q#q#r#",
"s#s#s#s#s#s#s#s#s#s#s#s#s#s#s#s#s#s#s#s#s#s#s#s#s#s#s#s#s#s#s#s#t#t#",
"u#u#u#u#u#u#u#u#u#u#u#u#u#u#u#u#u#u#u#u#u#u#u#u#u#u#u#u#u#u#u#v#v#v#",
"                                                                    "};
