/* XPM */
static char * menu_pressed_xpm[] = {
"34 42 506 2",
"  	c #151515",
". 	c #131313",
"+ 	c #595959",
"@ 	c #444444",
"# 	c #434343",
"$ 	c #424242",
"% 	c #414141",
"& 	c #3D3D3D",
"* 	c #3A3A3A",
"= 	c #404040",
"- 	c #3E3E3E",
"; 	c #2E2F2E",
"> 	c #202020",
", 	c #000000",
"' 	c #010101",
") 	c #050505",
"! 	c #2F2E2E",
"~ 	c #3F3F3F",
"{ 	c #3B3B3B",
"] 	c #272727",
"^ 	c #0B0B0B",
"/ 	c #181818",
"( 	c #1A1A1A",
"_ 	c #323231",
": 	c #0D0D0D",
"< 	c #0F0F0F",
"[ 	c #191919",
"} 	c #222222",
"| 	c #2F2F2F",
"1 	c #544A6F",
"2 	c #75649C",
"3 	c #8470AE",
"4 	c #534A6E",
"5 	c #323232",
"6 	c #292929",
"7 	c #282828",
"8 	c #45415D",
"9 	c #7160BB",
"0 	c #977CF0",
"a 	c #AB8DFF",
"b 	c #B394FF",
"c 	c #B798FF",
"d 	c #3C3C3C",
"e 	c #2A2A2A",
"f 	c #161616",
"g 	c #595099",
"h 	c #7861EE",
"i 	c #896EFF",
"j 	c #957AFF",
"k 	c #A084FF",
"l 	c #A78BFF",
"m 	c #AA8FFF",
"n 	c #9F84FF",
"o 	c #7861F0",
"p 	c #59509A",
"q 	c #333333",
"r 	c #262626",
"s 	c #48484A",
"t 	c #564AAB",
"u 	c #634DDF",
"v 	c #705AF0",
"w 	c #7D67FE",
"x 	c #8972FF",
"y 	c #927BFF",
"z 	c #9982FF",
"A 	c #9D86FF",
"B 	c #705AF2",
"C 	c #634DE1",
"D 	c #564AAD",
"E 	c #393939",
"F 	c #4C4C4C",
"G 	c #4E469F",
"H 	c #4D3BCA",
"I 	c #5947DB",
"J 	c #6554EC",
"K 	c #7160FB",
"L 	c #7C6BFF",
"M 	c #8574FF",
"N 	c #8B7AFF",
"O 	c #8F7EFF",
"P 	c #7160FC",
"Q 	c #6554EE",
"R 	c #5947DE",
"S 	c #4D3BCD",
"T 	c #4E46A1",
"U 	c #383838",
"V 	c #4A4A4A",
"W 	c #535182",
"X 	c #3B2BB9",
"Y 	c #4537C9",
"Z 	c #4F43D8",
"` 	c #5B4FE8",
" .	c #665CF6",
"..	c #7066FF",
"+.	c #796FFF",
"@.	c #7F75FE",
"#.	c #8278FE",
"$.	c #665CF8",
"%.	c #5B50EA",
"&.	c #5044DB",
"*.	c #4537CC",
"=.	c #3B2BBD",
"-.	c #535184",
";.	c #5D5C66",
">.	c #3329A8",
",.	c #3428B9",
"'.	c #3C35C8",
").	c #4742D6",
"!.	c #524EE4",
"~.	c #5C59F0",
"{.	c #6664FB",
"].	c #6F6DFE",
"^.	c #7573FE",
"/.	c #7976FE",
"(.	c #6664FC",
"_.	c #5D5AF2",
":.	c #524FE6",
"<.	c #4742D9",
"[.	c #3D35CB",
"}.	c #3429BD",
"|.	c #3329AC",
"1.	c #575757",
"2.	c #525088",
"3.	c #271BAB",
"4.	c #2D27B9",
"5.	c #3535C7",
"6.	c #3F42D4",
"7.	c #4A4FE0",
"8.	c #555AEB",
"9.	c #5F65F4",
"0.	c #696FFC",
"a.	c #7279FE",
"b.	c #787EFE",
"c.	c #737AFE",
"d.	c #696FFD",
"e.	c #6066F6",
"f.	c #555BED",
"g.	c #4A4EE2",
"h.	c #4042D7",
"i.	c #3635CA",
"j.	c #2D28BD",
"k.	c #271BB0",
"l.	c #52508B",
"m.	c #373737",
"n.	c #343434",
"o.	c #666666",
"p.	c #332E9C",
"q.	c #221AAC",
"r.	c #2729BA",
"s.	c #3036C6",
"t.	c #3A43D2",
"u.	c #4550DC",
"v.	c #515DE6",
"w.	c #5E6BEF",
"x.	c #717BF7",
"y.	c #7E82FC",
"z.	c #8588FE",
"A.	c #8386FE",
"B.	c #8285FC",
"C.	c #757EF8",
"D.	c #606CF1",
"E.	c #515DE8",
"F.	c #4551DF",
"G.	c #3A44D5",
"H.	c #3037C9",
"I.	c #2829BE",
"J.	c #221BB1",
"K.	c #332EA1",
"L.	c #363636",
"M.	c #303030",
"N.	c #545454",
"O.	c #696976",
"P.	c #190EA2",
"Q.	c #1D1BAE",
"R.	c #232ABA",
"S.	c #2B38C5",
"T.	c #3646D0",
"U.	c #4354DA",
"V.	c #5262E4",
"W.	c #6B78EE",
"X.	c #7E84F3",
"Y.	c #8D91F8",
"Z.	c #999EFA",
"`.	c #959AFA",
" +	c #969BF9",
".+	c #7D82F4",
"++	c #6C79EF",
"@+	c #5363E6",
"#+	c #4454DD",
"$+	c #3646D4",
"%+	c #2C38C9",
"&+	c #232ABE",
"*+	c #1E1CB3",
"=+	c #190EA7",
"-+	c #696877",
";+	c #353535",
">+	c #606060",
",+	c #636383",
"'+	c #160CA3",
")+	c #1A1CAF",
"!+	c #202BBB",
"~+	c #283AC6",
"{+	c #3548D0",
"]+	c #4658DB",
"^+	c #5B6DE6",
"/+	c #747CEC",
"(+	c #848BF1",
"_+	c #A5ABF7",
":+	c #BABEFA",
"<+	c #BFC3FA",
"[+	c #A5ABF8",
"}+	c #868CF3",
"|+	c #757DED",
"1+	c #5C6EE7",
"2+	c #4759DE",
"3+	c #3649D4",
"4+	c #293ACA",
"5+	c #202CBF",
"6+	c #1A1DB4",
"7+	c #160DA9",
"8+	c #636386",
"9+	c #686868",
"0+	c #61608A",
"a+	c #130BA5",
"b+	c #171BB0",
"c+	c #1C2ABB",
"d+	c #283AC7",
"e+	c #384AD3",
"f+	c #495ADD",
"g+	c #6171E7",
"h+	c #787FEC",
"i+	c #8E95F2",
"j+	c #B5B9F8",
"k+	c #D6D6FB",
"l+	c #DCDDFB",
"m+	c #C0C4F9",
"n+	c #9BA1F4",
"o+	c #7C83EE",
"p+	c #6373E9",
"q+	c #4A5CE0",
"r+	c #3A4CD7",
"s+	c #293CCB",
"t+	c #1D2DC1",
"u+	c #171DB7",
"v+	c #140DAB",
"w+	c #61608E",
"x+	c #676868",
"y+	c #6C6C6C",
"z+	c #64638D",
"A+	c #110AA7",
"B+	c #141BB2",
"C+	c #1C2BBE",
"D+	c #2B3CCB",
"E+	c #3B4CD6",
"F+	c #4B5CDF",
"G+	c #6373E8",
"H+	c #7A81ED",
"I+	c #9097F3",
"J+	c #B8BCF8",
"K+	c #D8D8FB",
"L+	c #9299F4",
"M+	c #7B82EE",
"N+	c #6574EA",
"O+	c #4D5DE2",
"P+	c #3C4DD9",
"Q+	c #2C3DCF",
"R+	c #1D2DC2",
"S+	c #141CB8",
"T+	c #110BAE",
"U+	c #646391",
"V+	c #6F6F6F",
"W+	c #6D6D8D",
"X+	c #0F08A9",
"Y+	c #1219B4",
"Z+	c #1E2BC1",
"`+	c #2E3CCE",
" @	c #3D4CD9",
".@	c #4D5BE2",
"+@	c #6170EA",
"@@	c #797FEF",
"#@	c #8E92F4",
"$@	c #A9ADF8",
"%@	c #BCBFFA",
"&@	c #BABDFA",
"*@	c #A6ABF8",
"=@	c #8B90F4",
"-@	c #7A80F0",
";@	c #6371EC",
">@	c #4E5CE4",
",@	c #3E4DDC",
"'@	c #2F3DD3",
")@	c #202CC7",
"!@	c #131ABA",
"~@	c #0F09B0",
"{@	c #6D6D8F",
"]@	c #313131",
"^@	c #7C7C88",
"/@	c #0D04AB",
"(@	c #1417B7",
"_@	c #2129C5",
":@	c #303AD2",
"<@	c #3F4ADC",
"[@	c #4E59E4",
"}@	c #5D68EB",
"|@	c #747DF1",
"1@	c #8487F5",
"2@	c #9194F7",
"3@	c #9C9FF9",
"4@	c #9B9EF9",
"5@	c #9093F8",
"6@	c #8587F5",
"7@	c #757EF3",
"8@	c #5E6AED",
"9@	c #4E5AE7",
"0@	c #404BDF",
"a@	c #323BD6",
"b@	c #232BCB",
"c@	c #1618BE",
"d@	c #0E05B2",
"e@	c #7C7B8A",
"f@	c #646464",
"g@	c #838383",
"h@	c #3937AA",
"i@	c #1714BA",
"j@	c #2527C9",
"k@	c #3238D4",
"l@	c #4047DE",
"m@	c #4E56E7",
"n@	c #5C64ED",
"o@	c #6A73F3",
"p@	c #7C82F6",
"q@	c #8889F9",
"r@	c #8E8EFA",
"s@	c #8989F9",
"t@	c #7E83F7",
"u@	c #6B74F3",
"v@	c #5D64EF",
"w@	c #4F57E9",
"x@	c #4148E2",
"y@	c #3439D9",
"z@	c #2628CE",
"A@	c #1815C1",
"B@	c #3937B0",
"C@	c #2E2E2E",
"D@	c #808080",
"E@	c #6B6BA1",
"F@	c #1A10BD",
"G@	c #2724CB",
"H@	c #3434D7",
"I@	c #4244E1",
"J@	c #4F52E9",
"K@	c #5D5FEF",
"L@	c #686BF3",
"M@	c #7376F7",
"N@	c #7E82FA",
"O@	c #8688FC",
"P@	c #7F82FA",
"Q@	c #7477F7",
"R@	c #696CF3",
"S@	c #5D60EF",
"T@	c #5053EA",
"U@	c #4344E4",
"V@	c #3635DB",
"W@	c #2825D1",
"X@	c #1C12C4",
"Y@	c #6B6BA5",
"Z@	c #2D2D2D",
"`@	c #484848",
" #	c #787878",
".#	c #898990",
"+#	c #322CBE",
"@#	c #2A1FCD",
"##	c #3730D9",
"$#	c #4340E2",
"%#	c #504EE9",
"&#	c #5D5BEF",
"*#	c #6967F4",
"=#	c #7471F8",
"-#	c #7E7AFC",
";#	c #8580FE",
">#	c #8680FE",
",#	c #7F7AFC",
"'#	c #7572F8",
")#	c #5E5BEF",
"!#	c #514EE9",
"~#	c #4440E3",
"{#	c #3831DC",
"]#	c #2A21D2",
"^#	c #332DC4",
"/#	c #898991",
"(#	c #2C2C2C",
"_#	c #454545",
":#	c #616161",
"<#	c #888888",
"[#	c #7B7BA7",
"}#	c #2A1BCE",
"|#	c #382CD9",
"1#	c #433AE1",
"2#	c #5148E8",
"3#	c #5D55EE",
"4#	c #6962F4",
"5#	c #756DF8",
"6#	c #8177FD",
"7#	c #8B80FE",
"8#	c #8C80FE",
"9#	c #8278FD",
"0#	c #766EF9",
"a#	c #6A63F4",
"b#	c #5E56EF",
"c#	c #524AE8",
"d#	c #453CE2",
"e#	c #392DDB",
"f#	c #2C1DD4",
"g#	c #7B7BAA",
"h#	c #2B2B2B",
"i#	c #4E4E4E",
"j#	c #909090",
"k#	c #6A67BC",
"l#	c #3827D9",
"m#	c #4435E0",
"n#	c #5043E7",
"o#	c #5D50ED",
"p#	c #685CF2",
"q#	c #7467F8",
"r#	c #7F71FC",
"s#	c #8979FF",
"t#	c #8072FD",
"u#	c #7568F8",
"v#	c #695DF2",
"w#	c #5E51ED",
"x#	c #5144E7",
"y#	c #4537E0",
"z#	c #3928D9",
"A#	c #6A67BF",
"B#	c #848484",
"C#	c #949495",
"D#	c #6F6BC3",
"E#	c #4230DD",
"F#	c #4E3DE4",
"G#	c #5A49EA",
"H#	c #6555F0",
"I#	c #6F5FF5",
"J#	c #7967F9",
"K#	c #7F6DFB",
"L#	c #7F6DFC",
"M#	c #7968F9",
"N#	c #705FF5",
"O#	c #6655F0",
"P#	c #5B4AEA",
"Q#	c #4F3EE4",
"R#	c #4331DE",
"S#	c #474747",
"T#	c #5E5E5E",
"U#	c #878787",
"V#	c #969696",
"W#	c #8785B7",
"X#	c #5446DD",
"Y#	c #5641E6",
"Z#	c #604CEB",
"`#	c #6955F0",
" $	c #6F5CF4",
".$	c #7460F5",
"+$	c #7460F6",
"@$	c #705CF4",
"#$	c #6956F0",
"$$	c #614CEC",
"%$	c #5642E6",
"&$	c #5546DD",
"*$	c #828282",
"=$	c #959595",
"-$	c #9999A3",
";$	c #837FC3",
">$	c #6758DF",
",$	c #604AEA",
"'$	c #6650EE",
")$	c #6953EF",
"!$	c #6750EE",
"~$	c #614BEB",
"{$	c #6859DF",
"]$	c #847FC4",
"^$	c #494949",
"/$	c #252525",
"($	c #5C5C5C",
"_$	c #737373",
":$	c #8E8E8E",
"<$	c #999898",
"[$	c #9E9E9E",
"}$	c #9A98AB",
"|$	c #918DBB",
"1$	c #8C87C3",
"2$	c #242424",
"3$	c #858585",
"4$	c #919191",
"5$	c #979797",
"6$	c #999999",
"7$	c #979897",
"8$	c #232323",
"9$	c #5D5D5D",
"0$	c #676767",
"a$	c #6B6B6B",
"b$	c #727272",
"c$	c #212121",
"d$	c #1F1F1F",
"e$	c #1D1D1D",
"f$	c #1B1B1B",
"g$	c #171717",
"  . . . . . . . . . . . . . . . . . . . . . . . . . . .             ",
"+ + + + + + + + + + + + + + + + + + + + + + + + + + + + + + + + + + ",
"@ @ @ @ @ @ @ @ @ @ @ @ @ @ @ @ @ @ @ @ @ @ @ @ @ @ @ @ @ @ @ @ @ @ ",
"# # # # # # # # # # # # # # # # # # # # # # # # # # # # # # # # # # ",
"$ $ $ $ $ $ $ $ $ $ $ $ $ $ $ $ $ $ $ $ $ $ $ $ $ $ $ $ $ $ $ $ $ $ ",
"$ $ $ $ $ % % % % % % % % % % % % % % % % % % % % % % % % % % % % % ",
"% % % % % % % % % % % % % % % & * * & % % = = = = = = = = = = = = = ",
"= = = = = = = = = = = - ; > , ' ) ) ' , > ! - = = = = = = = = = = = ",
"~ ~ ~ ~ ~ ~ ~ ~ ~ { ] ' ^ . / ( ( ( ( / . ^ ' ] { ~ ~ ~ ~ ~ ~ ~ ~ ~ ",
"- - - - - - - - _ : < [ } | 1 2 3 3 2 4 | } [ < : 5 - - - - - - - - ",
"& & & & & & - 6 < / 7 8 9 0 a b c c b a 0 9 8 7 / < 6 - & & & & & & ",
"d d d d d d e f > d g h i j k l m m l n j i o p d > f e d d d d d d ",
"d d d d d q ( r s t u v w x y z A A z y x w B C D s r ( q { { { { { ",
"{ { { { E > 7 F G H I J K L M N O O N M L P Q R S T F 7 > U * * * * ",
"* * * * 5 ] V W X Y Z `  ...+.@.#.#.@.+...$.%.&.*.=.-.V ] 5 E E E E ",
"E E E { ] % ;.>.,.'.).!.~.{.].^././.^.].(._.:.<.[.}.|.;.= ] * U U U ",
"U U U q 5 1.2.3.4.5.6.7.8.9.0.a.b.b.c.d.e.f.g.h.i.j.k.l.1.5 5 m.m.m.",
"m.m.m.n.@ o.p.q.r.s.t.u.v.w.x.y.z.A.B.C.D.E.F.G.H.I.J.K.o.@ n.L.L.L.",
"L.L.m.M.N.O.P.Q.R.S.T.U.V.W.X.Y.Z.`. +.+++@+#+$+%+&+*+=+-+N.M.m.;+;+",
";+;+L.;+>+,+'+)+!+~+{+]+^+/+(+_+:+<+[+}+|+1+2+3+4+5+6+7+8+>+;+;+n.n.",
"n.n.n.& 9+0+a+b+c+d+e+f+g+h+i+j+k+l+m+n+o+p+q+r+s+t+u+v+w+x+& n.q q ",
"q q n.% y+z+A+B+C+D+E+F+G+H+I+J+K+k+J+L+M+N+O+P+Q+R+S+T+U+y+% q 5 5 ",
"5 5 ;+- V+W+X+Y+Z+`+ @.@+@@@#@$@%@&@*@=@-@;@>@,@'@)@!@~@{@V+- n.]@]@",
"M.M.q ~ y+^@/@(@_@:@<@[@}@|@1@2@3@4@5@6@7@8@9@0@a@b@c@d@e@y+~ q M.M.",
"| | | $ f@g@h@i@j@k@l@m@n@o@p@q@r@r@s@t@u@v@w@x@y@z@A@B@g@f@$ | | | ",
"C@C@C@& 1.D@E@F@G@H@I@J@K@L@M@N@O@O@P@Q@R@S@T@U@V@W@X@Y@D@1.& C@C@C@",
"Z@Z@Z@;+`@ #.#+#@###$#%#&#*#=#-#;#>#,#'#*#)#!#~#{#]#^#/# #`@;+Z@Z@Z@",
"(#(#(#(#_#:#<#[#}#|#1#2#3#4#5#6#7#8#9#0#a#b#c#d#e#f#g#<#:#_#h#h#h#h#",
"h#h#h#h#q i# #j#k#l#m#n#o#p#q#r#s#s#t#u#v#w#x#y#z#A#j# #i#5 e e e e ",
"6 6 6 6 6 % 1.B#C#D#E#F#G#H#I#J#K#L#M#N#O#P#Q#R#D#C#B#1.% 6 6 6 6 6 ",
"7 7 7 7 7 7 S#T#U#V#W#X#Y#Z#`# $.$+$@$#$$$%$&$W#V#U#T#S#7 7 7 7 7 7 ",
"] ] ] ] ] ] 6 V T#*$=$-$;$>$,$'$)$)$!$~${$]$-$=$*$T#^$7 r r r r r r ",
"/$/$/$/$/$/$/$/$_#($_$:$<$[$}$|$1$1$|$}$[$<$:$_$($_#/$/$/$/$/$/$/$/$",
"2$2$2$2$2$2$2$2$2$n.N.:#_$3$4$5$6$6$7$4$3$_$:#N.n.8$8$8$8$8$8$8$8$8$",
"8$8$8$} } } } } } } } m.i#9$0$a$b$b$a$0$9$i#m.} } } } } } } } } } } ",
"c$c$c$c$c$c$c$c$c$c$c$c$c$c$h#E * * E e > > > > > > > > > > > > > > ",
"d$d$d$d$d$d$d$d$d$d$d$d$d$d$d$d$d$d$d$d$d$d$d$d$d$d$d$d$d$d$d$d$d$d$",
"e$e$e$e$e$e$e$e$e$e$e$e$e$e$e$e$e$e$e$e$e$e$e$e$e$e$e$e$e$e$e$e$e$e$",
"f$f$f$f$f$f$f$f$f$f$f$f$f$f$f$f$f$f$f$f$f$f$f$f$f$f$f$f$f$f$f$f$f$( ",
"[ [ [ [ [ [ [ [ [ [ [ [ [ [ [ [ [ [ [ [ [ [ [ [ [ [ [ [ [ [ [ [ / / ",
"g$g$g$g$g$g$g$g$g$g$g$g$g$g$g$g$g$g$g$g$g$g$g$g$g$g$g$g$g$g$g$f f f ",
"                                                                    "};
