/* XPM */
static char * menu_prelight_xpm[] = {
"34 42 534 2",
"  	c #151515",
". 	c #131313",
"+ 	c #595959",
"@ 	c #444444",
"# 	c #434343",
"$ 	c #424242",
"% 	c #414141",
"& 	c #3D3D3D",
"* 	c #3A3A3A",
"= 	c #404040",
"- 	c #3E3E3E",
"; 	c #2E2F2E",
"> 	c #202020",
", 	c #000000",
"' 	c #0B0B0B",
") 	c #262626",
"! 	c #2F2E2E",
"~ 	c #3F3F3F",
"{ 	c #3B3B3B",
"] 	c #272727",
"^ 	c #040404",
"/ 	c #373737",
"( 	c #535353",
"_ 	c #646464",
": 	c #6C6C6C",
"< 	c #6E6E6D",
"[ 	c #6D6D6D",
"} 	c #6B6B6B",
"| 	c #616161",
"1 	c #505050",
"2 	c #353535",
"3 	c #030303",
"4 	c #323231",
"5 	c #0D0D0D",
"6 	c #726D8E",
"7 	c #8D7CC7",
"8 	c #A38AE6",
"9 	c #B496F7",
"0 	c #BF9EFF",
"a 	c #A38AE5",
"b 	c #8B7AC6",
"c 	c #6F698B",
"d 	c #5C5C5C",
"e 	c #393939",
"f 	c #323232",
"g 	c #292929",
"h 	c #1F1F1F",
"i 	c #545454",
"j 	c #696686",
"k 	c #7B69D8",
"l 	c #9176FF",
"m 	c #9F82FF",
"n 	c #AB8DFF",
"o 	c #B394FF",
"p 	c #B798FF",
"q 	c #7967D8",
"r 	c #656183",
"s 	c #4F4F4F",
"t 	c #1E1E1E",
"u 	c #3C3C3C",
"v 	c #2A2A2A",
"w 	c #5A5A5A",
"x 	c #645C9D",
"y 	c #6B55E0",
"z 	c #7A61F5",
"A 	c #896EFF",
"B 	c #957AFF",
"C 	c #A084FF",
"D 	c #A78BFF",
"E 	c #AA8FFF",
"F 	c #9F84FF",
"G 	c #7A61F7",
"H 	c #6A55E2",
"I 	c #60589C",
"J 	c #242424",
"K 	c #333333",
"L 	c #565756",
"M 	c #5A529D",
"N 	c #5541CD",
"O 	c #634DDF",
"P 	c #705AF0",
"Q 	c #7D67FE",
"R 	c #8972FF",
"S 	c #927BFF",
"T 	c #9982FF",
"U 	c #9D86FF",
"V 	c #705AF2",
"W 	c #634DE1",
"X 	c #5541D0",
"Y 	c #564E9E",
"Z 	c #515151",
"` 	c #232323",
" .	c #4C4C4C",
"..	c #55508A",
"+.	c #4230BB",
"@.	c #4D3BCA",
"#.	c #5947DB",
"$.	c #6554EC",
"%.	c #7160FB",
"&.	c #7C6BFF",
"*.	c #8574FF",
"=.	c #8B7AFF",
"-.	c #8F7EFF",
";.	c #7160FC",
">.	c #6554EE",
",.	c #5947DE",
"'.	c #4D3BCD",
").	c #4230BE",
"!.	c #514C89",
"~.	c #474747",
"{.	c #383838",
"].	c #56546E",
"^.	c #3527AB",
"/.	c #3B2BB9",
"(.	c #4537C9",
"_.	c #4F43D8",
":.	c #5B4FE8",
"<.	c #665CF6",
"[.	c #7066FF",
"}.	c #796FFF",
"|.	c #7F75FE",
"1.	c #8278FE",
"2.	c #665CF8",
"3.	c #5B50EA",
"4.	c #5044DB",
"5.	c #4537CC",
"6.	c #3B2BBD",
"7.	c #3526AF",
"8.	c #514F6C",
"9.	c #363636",
"0.	c #282828",
"a.	c #4E4E4E",
"b.	c #403994",
"c.	c #2C1EAB",
"d.	c #3428B9",
"e.	c #3C35C8",
"f.	c #4742D6",
"g.	c #524EE4",
"h.	c #5C59F0",
"i.	c #6664FB",
"j.	c #6F6DFE",
"k.	c #7573FE",
"l.	c #7976FE",
"m.	c #6664FC",
"n.	c #5D5AF2",
"o.	c #524FE6",
"p.	c #4742D9",
"q.	c #3D35CB",
"r.	c #3429BD",
"s.	c #2C1EAF",
"t.	c #3E3697",
"u.	c #494949",
"v.	c #514E68",
"w.	c #2114A0",
"x.	c #271BAB",
"y.	c #2D27B9",
"z.	c #3535C7",
"A.	c #3F42D4",
"B.	c #4A4FE0",
"C.	c #555AEB",
"D.	c #5F65F4",
"E.	c #696FFC",
"F.	c #7279FE",
"G.	c #787EFE",
"H.	c #737AFE",
"I.	c #696FFD",
"J.	c #6066F6",
"K.	c #555BED",
"L.	c #4A4EE2",
"M.	c #4042D7",
"N.	c #3635CA",
"O.	c #2D28BD",
"P.	c #271BB0",
"Q.	c #2114A6",
"R.	c #4D4A67",
"S.	c #343434",
"T.	c #413E80",
"U.	c #1D10A1",
"V.	c #221AAC",
"W.	c #2729BA",
"X.	c #3036C6",
"Y.	c #3A43D2",
"Z.	c #4550DC",
"`.	c #515DE6",
" +	c #5E6BEF",
".+	c #717BF7",
"++	c #7E82FC",
"@+	c #8588FE",
"#+	c #8386FE",
"$+	c #8285FC",
"%+	c #757EF8",
"&+	c #606CF1",
"*+	c #515DE8",
"=+	c #4551DF",
"-+	c #3A44D5",
";+	c #3037C9",
">+	c #2829BE",
",+	c #221BB1",
"'+	c #1D10A6",
")+	c #3E3B82",
"!+	c #303030",
"~+	c #322C90",
"{+	c #190EA2",
"]+	c #1D1BAE",
"^+	c #232ABA",
"/+	c #2B38C5",
"(+	c #3646D0",
"_+	c #4354DA",
":+	c #5262E4",
"<+	c #6B78EE",
"[+	c #7E84F3",
"}+	c #8D91F8",
"|+	c #999EFA",
"1+	c #959AFA",
"2+	c #969BF9",
"3+	c #7D82F4",
"4+	c #6C79EF",
"5+	c #5363E6",
"6+	c #4454DD",
"7+	c #3646D4",
"8+	c #2C38C9",
"9+	c #232ABE",
"0+	c #1E1CB3",
"a+	c #190EA7",
"b+	c #302A94",
"c+	c #24179C",
"d+	c #160CA3",
"e+	c #1A1CAF",
"f+	c #202BBB",
"g+	c #283AC6",
"h+	c #3548D0",
"i+	c #4658DB",
"j+	c #5B6DE6",
"k+	c #747CEC",
"l+	c #848BF1",
"m+	c #A5ABF7",
"n+	c #BABEFA",
"o+	c #BFC3FA",
"p+	c #A5ABF8",
"q+	c #868CF3",
"r+	c #757DED",
"s+	c #5C6EE7",
"t+	c #4759DE",
"u+	c #3649D4",
"v+	c #293ACA",
"w+	c #202CBF",
"x+	c #1A1DB4",
"y+	c #160DA9",
"z+	c #2316A1",
"A+	c #464646",
"B+	c #373838",
"C+	c #484848",
"D+	c #12079F",
"E+	c #130BA5",
"F+	c #171BB0",
"G+	c #1C2ABB",
"H+	c #283AC7",
"I+	c #384AD3",
"J+	c #495ADD",
"K+	c #6171E7",
"L+	c #787FEC",
"M+	c #8E95F2",
"N+	c #B5B9F8",
"O+	c #D6D6FB",
"P+	c #DCDDFB",
"Q+	c #C0C4F9",
"R+	c #9BA1F4",
"S+	c #7C83EE",
"T+	c #6373E9",
"U+	c #4A5CE0",
"V+	c #3A4CD7",
"W+	c #293CCB",
"X+	c #1D2DC1",
"Y+	c #171DB7",
"Z+	c #140DAB",
"`+	c #1307A5",
" @	c #1106A0",
".@	c #110AA7",
"+@	c #141BB2",
"@@	c #1C2BBE",
"#@	c #2B3CCB",
"$@	c #3B4CD6",
"%@	c #4B5CDF",
"&@	c #6373E8",
"*@	c #7A81ED",
"=@	c #9097F3",
"-@	c #B8BCF8",
";@	c #D8D8FB",
">@	c #9299F4",
",@	c #7B82EE",
"'@	c #6574EA",
")@	c #4D5DE2",
"!@	c #3C4DD9",
"~@	c #2C3DCF",
"{@	c #1D2DC2",
"]@	c #141CB8",
"^@	c #110BAE",
"/@	c #1206A7",
"(@	c #2213A1",
"_@	c #0F08A9",
":@	c #1219B4",
"<@	c #1E2BC1",
"[@	c #2E3CCE",
"}@	c #3D4CD9",
"|@	c #4D5BE2",
"1@	c #6170EA",
"2@	c #797FEF",
"3@	c #8E92F4",
"4@	c #A9ADF8",
"5@	c #BCBFFA",
"6@	c #BABDFA",
"7@	c #A6ABF8",
"8@	c #8B90F4",
"9@	c #7A80F0",
"0@	c #6371EC",
"a@	c #4E5CE4",
"b@	c #3E4DDC",
"c@	c #2F3DD3",
"d@	c #202CC7",
"e@	c #131ABA",
"f@	c #0F09B0",
"g@	c #2113A8",
"h@	c #313131",
"i@	c #2C2498",
"j@	c #0D04AB",
"k@	c #1417B7",
"l@	c #2129C5",
"m@	c #303AD2",
"n@	c #3F4ADC",
"o@	c #4E59E4",
"p@	c #5D68EB",
"q@	c #747DF1",
"r@	c #8487F5",
"s@	c #9194F7",
"t@	c #9C9FF9",
"u@	c #9B9EF9",
"v@	c #9093F8",
"w@	c #8587F5",
"x@	c #757EF3",
"y@	c #5E6AED",
"z@	c #4E5AE7",
"A@	c #404BDF",
"B@	c #323BD6",
"C@	c #232BCB",
"D@	c #1618BE",
"E@	c #0E05B2",
"F@	c #2B239D",
"G@	c #2F2F2F",
"H@	c #363185",
"I@	c #0D03AD",
"J@	c #1714BA",
"K@	c #2527C9",
"L@	c #3238D4",
"M@	c #4047DE",
"N@	c #4E56E7",
"O@	c #5C64ED",
"P@	c #6A73F3",
"Q@	c #7C82F6",
"R@	c #8889F9",
"S@	c #8E8EFA",
"T@	c #8989F9",
"U@	c #7E83F7",
"V@	c #6B74F3",
"W@	c #5D64EF",
"X@	c #4F57E9",
"Y@	c #4148E2",
"Z@	c #3439D9",
"`@	c #2628CE",
" #	c #1815C1",
".#	c #0E03B5",
"+#	c #36318A",
"@#	c #2E2E2E",
"##	c #423C61",
"$#	c #0E04B1",
"%#	c #1A10BD",
"&#	c #2724CB",
"*#	c #3434D7",
"=#	c #4244E1",
"-#	c #4F52E9",
";#	c #5D5FEF",
">#	c #686BF3",
",#	c #7376F7",
"'#	c #7E82FA",
")#	c #8688FC",
"!#	c #7F82FA",
"~#	c #7477F7",
"{#	c #696CF3",
"]#	c #5D60EF",
"^#	c #5053EA",
"/#	c #4344E4",
"(#	c #3635DB",
"_#	c #2825D1",
":#	c #1C12C4",
"<#	c #0F04B9",
"[#	c #423B63",
"}#	c #2D2D2D",
"|#	c #3326A0",
"1#	c #1C0FC0",
"2#	c #2A1FCD",
"3#	c #3730D9",
"4#	c #4340E2",
"5#	c #504EE9",
"6#	c #5D5BEF",
"7#	c #6967F4",
"8#	c #7471F8",
"9#	c #7E7AFC",
"0#	c #8580FE",
"a#	c #8680FE",
"b#	c #7F7AFC",
"c#	c #7572F8",
"d#	c #5E5BEF",
"e#	c #514EE9",
"f#	c #4440E3",
"g#	c #3831DC",
"h#	c #2A21D2",
"i#	c #1D0FC7",
"j#	c #3326A5",
"k#	c #2C2C2C",
"l#	c #454545",
"m#	c #3E3963",
"n#	c #2313C0",
"o#	c #2A1BCE",
"p#	c #382CD9",
"q#	c #433AE1",
"r#	c #5148E8",
"s#	c #5D55EE",
"t#	c #6962F4",
"u#	c #756DF8",
"v#	c #8177FD",
"w#	c #8B80FE",
"x#	c #8C80FE",
"y#	c #8278FD",
"z#	c #766EF9",
"A#	c #6A63F4",
"B#	c #5E56EF",
"C#	c #524AE8",
"D#	c #453CE2",
"E#	c #392DDB",
"F#	c #2C1DD4",
"G#	c #2514C7",
"H#	c #3E3965",
"I#	c #2B2B2B",
"J#	c #3E338B",
"K#	c #2A1ACF",
"L#	c #3827D9",
"M#	c #4435E0",
"N#	c #5043E7",
"O#	c #5D50ED",
"P#	c #685CF2",
"Q#	c #7467F8",
"R#	c #7F71FC",
"S#	c #8979FF",
"T#	c #8072FD",
"U#	c #7568F8",
"V#	c #695DF2",
"W#	c #5E51ED",
"X#	c #5144E7",
"Y#	c #4537E0",
"Z#	c #3928D9",
"`#	c #2B1BD3",
" $	c #3E338F",
".$	c #4230A0",
"+$	c #3524D7",
"@$	c #4230DD",
"#$	c #4E3DE4",
"$$	c #5A49EA",
"%$	c #6555F0",
"&$	c #6F5FF5",
"*$	c #7967F9",
"=$	c #7F6DFB",
"-$	c #7F6DFC",
";$	c #7968F9",
">$	c #705FF5",
",$	c #6655F0",
"'$	c #5B4AEA",
")$	c #4F3EE4",
"!$	c #4331DE",
"~$	c #3625D8",
"{$	c #4231A1",
"]$	c #433495",
"^$	c #412DD8",
"/$	c #4A36E0",
"($	c #5641E6",
"_$	c #604CEB",
":$	c #6955F0",
"<$	c #6F5CF4",
"[$	c #7460F5",
"}$	c #7460F6",
"|$	c #705CF4",
"1$	c #6956F0",
"2$	c #614CEC",
"3$	c #5642E6",
"4$	c #4B37E1",
"5$	c #422DD8",
"6$	c #433595",
"7$	c #4A4A4A",
"8$	c #555555",
"9$	c #40366B",
"0$	c #4D36BF",
"a$	c #4E3AE2",
"b$	c #5843E6",
"c$	c #604AEA",
"d$	c #6650EE",
"e$	c #6953EF",
"f$	c #6750EE",
"g$	c #614BEB",
"h$	c #5943E7",
"i$	c #4F3BE3",
"j$	c #4D37C0",
"k$	c #40376C",
"l$	c #252525",
"m$	c #46386D",
"n$	c #4C3CAC",
"o$	c #5740CD",
"p$	c #6045E2",
"q$	c #5E47E9",
"r$	c #5741CD",
"s$	c #4D3CAC",
"t$	c #606060",
"u$	c #313231",
"v$	c #343433",
"w$	c #222222",
"x$	c #5D5D5D",
"y$	c #676767",
"z$	c #686868",
"A$	c #636363",
"B$	c #212121",
"C$	c #1D1D1D",
"D$	c #1B1B1B",
"E$	c #1A1A1A",
"F$	c #191919",
"G$	c #181818",
"H$	c #171717",
"I$	c #161616",
"  . . . . . . . . . . . . . . . . . . . . . . . . . . .             ",
"+ + + + + + + + + + + + + + + + + + + + + + + + + + + + + + + + + + ",
"@ @ @ @ @ @ @ @ @ @ @ @ @ @ @ @ @ @ @ @ @ @ @ @ @ @ @ @ @ @ @ @ @ @ ",
"# # # # # # # # # # # # # # # # # # # # # # # # # # # # # # # # # # ",
"$ $ $ $ $ $ $ $ $ $ $ $ $ $ $ $ $ $ $ $ $ $ $ $ $ $ $ $ $ $ $ $ $ $ ",
"$ $ $ $ $ % % % % % % % % % % % % % % % % % % % % % % % % % % % % % ",
"% % % % % % % % % % % % % % % & * * & % % = = = = = = = = = = = = = ",
"= = = = = = = = = = = - ; > , ' ) ) ' , > ! - = = = = = = = = = = = ",
"~ ~ ~ ~ ~ ~ ~ ~ ~ { ] ^ / ( _ : < [ } | 1 2 3 ] { ~ ~ ~ ~ ~ ~ ~ ~ ~ ",
"- - - - - - - - 4 5 & | 6 7 8 9 0 0 9 a b c d e 5 f - - - - - - - - ",
"& & & & & & - g h i j k l m n o p p o n m l q r s t g - & & & & & & ",
"u u u u u u v ) w x y z A B C D E E D F B A G H I i J v u u u u u u ",
"u u u u u K J L M N O P Q R S T U U T S R Q V W X Y Z ` K { { { { { ",
"{ { { { e >  ...+.@.#.$.%.&.*.=.-.-.=.*.&.;.>.,.'.).!.~.> {.* * * * ",
"* * * * f e ].^./.(._.:.<.[.}.|.1.1.|.}.[.2.3.4.5.6.7.8.9.f e e e e ",
"e e e { 0.a.b.c.d.e.f.g.h.i.j.k.l.l.k.j.m.n.o.p.q.r.s.t.u.] * {.{.{.",
"{.{.{.K 9.v.w.x.y.z.A.B.C.D.E.F.G.G.H.I.J.K.L.M.N.O.P.Q.R.S.f / / / ",
"/ / / S.% T.U.V.W.X.Y.Z.`. +.+++@+#+$+%+&+*+=+-+;+>+,+'+)+- S.9.9.9.",
"9.9./ !+~.~+{+]+^+/+(+_+:+<+[+}+|+1+2+3+4+5+6+7+8+9+0+a+b+@ !+/ 2 2 ",
"2 2 9.S.u.c+d+e+f+g+h+i+j+k+l+m+n+o+p+q+r+s+t+u+v+w+x+y+z+A+S.2 S.S.",
"S.S.S.B+C+D+E+F+G+H+I+J+K+L+M+N+O+P+Q+R+S+T+U+V+W+X+Y+Z+`+A+/ S.K K ",
"K K S.* A+ @.@+@@@#@$@%@&@*@=@-@;@O+-@>@,@'@)@!@~@{@]@^@/@@ e K f f ",
"f f 2 & $ (@_@:@<@[@}@|@1@2@3@4@5@6@7@8@9@0@a@b@c@d@e@f@g@% & S.h@h@",
"!+!+K ~ ~ i@j@k@l@m@n@o@p@q@r@s@t@u@v@w@x@y@z@A@B@C@D@E@F@- ~ K !+!+",
"G@G@G@$ & H@I@J@K@L@M@N@O@P@Q@R@S@S@T@U@V@W@X@Y@Z@`@ #.#+#& $ G@G@G@",
"@#@#@#& % ##$#%#&#*#=#-#;#>#,#'#)#)#!#~#{#]#^#/#(#_#:#<#[#% & @#@#@#",
"}#}#}#2 C+u |#1#2#3#4#5#6#7#8#9#0#a#b#c#7#d#e#f#g#h#i#j#{ C+2 }#}#}#",
"k#k#k#k#l## m#n#o#p#q#r#s#t#u#v#w#x#y#z#A#B#C#D#E#F#G#H## l#I#I#I#I#",
"I#I#I#I#K a.u J#K#L#M#N#O#P#Q#R#S#S#T#U#V#W#X#Y#Z#`# $u a.f v v v v ",
"g g g g g % a.e .$+$@$#$$$%$&$*$=$-$;$>$,$'$)$!$~${$e a.% g g g g g ",
"0.0.0.0.0.0.~.1 {.]$^$/$($_$:$<$[$}$|$1$2$3$4$5$6$e 1 ~.0.0.0.0.0.0.",
"] ] ] ] ] ] g 7$8$- 9$0$a$b$c$d$e$e$f$g$h$i$j$k$- 8$u.0.) ) ) ) ) ) ",
"l$l$l$l$l$l$l$l$l#d a.{.m$n$o$p$q$q$p$r$s$m${.a.d l#l$l$l$l$l$l$l$l$",
"J J J J J J J J J S.i t$8$A+e u$v$v$u$e A+8$t$i S.` ` ` ` ` ` ` ` ` ",
"` ` ` w$w$w$w$w$w$w$w$/ a.x$y$z$A$A$z$y$x$a./ w$w$w$w$w$w$w$w$w$w$w$",
"B$B$B$B$B$B$B$B$B$B$B$B$B$B$I#e * * e v > > > > > > > > > > > > > > ",
"h h h h h h h h h h h h h h h h h h h h h h h h h h h h h h h h h h ",
"C$C$C$C$C$C$C$C$C$C$C$C$C$C$C$C$C$C$C$C$C$C$C$C$C$C$C$C$C$C$C$C$C$C$",
"D$D$D$D$D$D$D$D$D$D$D$D$D$D$D$D$D$D$D$D$D$D$D$D$D$D$D$D$D$D$D$D$D$E$",
"F$F$F$F$F$F$F$F$F$F$F$F$F$F$F$F$F$F$F$F$F$F$F$F$F$F$F$F$F$F$F$F$G$G$",
"H$H$H$H$H$H$H$H$H$H$H$H$H$H$H$H$H$H$H$H$H$H$H$H$H$H$H$H$H$H$H$I$I$I$",
"                                                                    "};
