/* XPM */
static char * menu_active_xpm[] = {
"34 42 515 2",
"  	c #151515",
". 	c #131313",
"+ 	c #595959",
"@ 	c #444444",
"# 	c #434343",
"$ 	c #424242",
"% 	c #414141",
"& 	c #3D3D3D",
"* 	c #3A3A3A",
"= 	c #404040",
"- 	c #3E3E3E",
"; 	c #2E2F2E",
"> 	c #202020",
", 	c #000000",
"' 	c #0B0B0B",
") 	c #262626",
"! 	c #2F2E2E",
"~ 	c #3F3F3F",
"{ 	c #3B3B3B",
"] 	c #272727",
"^ 	c #040404",
"/ 	c #373737",
"( 	c #535353",
"_ 	c #646464",
": 	c #6C6C6C",
"< 	c #6E6E6D",
"[ 	c #6D6D6D",
"} 	c #6B6B6B",
"| 	c #616161",
"1 	c #505050",
"2 	c #353535",
"3 	c #030303",
"4 	c #323231",
"5 	c #0D0D0D",
"6 	c #726D8E",
"7 	c #8D7CC7",
"8 	c #A38AE6",
"9 	c #B496F7",
"0 	c #BF9EFF",
"a 	c #A38AE5",
"b 	c #8B7AC6",
"c 	c #6F698B",
"d 	c #5C5C5C",
"e 	c #393939",
"f 	c #323232",
"g 	c #292929",
"h 	c #1F1F1F",
"i 	c #545454",
"j 	c #696686",
"k 	c #7B69D8",
"l 	c #9176FF",
"m 	c #9F82FF",
"n 	c #AB8DFF",
"o 	c #B394FF",
"p 	c #B898FF",
"q 	c #7967D8",
"r 	c #656183",
"s 	c #4F4F4F",
"t 	c #1E1E1E",
"u 	c #3C3C3C",
"v 	c #2A2A2A",
"w 	c #5A5A5A",
"x 	c #645C9D",
"y 	c #6B55E0",
"z 	c #7A61F5",
"A 	c #896EFF",
"B 	c #967AFF",
"C 	c #A285FF",
"D 	c #AA8CFF",
"E 	c #AE90FF",
"F 	c #7A61F7",
"G 	c #6A55E2",
"H 	c #60589C",
"I 	c #242424",
"J 	c #333333",
"K 	c #565756",
"L 	c #5A529D",
"M 	c #5541CD",
"N 	c #634DDF",
"O 	c #715AF0",
"P 	c #7F66FE",
"Q 	c #8D71FF",
"R 	c #977BFF",
"S 	c #A486FF",
"T 	c #715AF2",
"U 	c #634DE1",
"V 	c #5541D0",
"W 	c #564E9E",
"X 	c #515151",
"Y 	c #232323",
"Z 	c #4C4C4C",
"` 	c #55508A",
" .	c #4230BB",
"..	c #4E3ACA",
"+.	c #5A46DA",
"@.	c #6751EB",
"#.	c #755DFB",
"$.	c #8167FF",
"%.	c #8C71FF",
"&.	c #9377FF",
"*.	c #755DFC",
"=.	c #6851ED",
"-.	c #5A46DD",
";.	c #4E3ACD",
">.	c #4230BE",
",.	c #514C89",
"'.	c #474747",
").	c #383838",
"!.	c #56546E",
"~.	c #3527AB",
"{.	c #3B2BB9",
"].	c #4634C7",
"^.	c #513ED6",
"/.	c #5E48E5",
"(.	c #6A53F5",
"_.	c #765DFF",
":.	c #7F65FF",
"<.	c #866CFF",
"[.	c #8A6FFF",
"}.	c #6A53F7",
"|.	c #5F48E8",
"1.	c #523ED9",
"2.	c #4634CA",
"3.	c #3B2BBC",
"4.	c #3526AF",
"5.	c #514F6C",
"6.	c #363636",
"7.	c #282828",
"8.	c #4E4E4E",
"9.	c #403994",
"0.	c #2C1EAB",
"a.	c #3425B7",
"b.	c #3E2DC4",
"c.	c #4936D1",
"d.	c #543FE0",
"e.	c #5F49EE",
"f.	c #6952FA",
"g.	c #7259FF",
"h.	c #785FFF",
"i.	c #7B62FF",
"j.	c #725AFF",
"k.	c #6952FC",
"l.	c #5F49F0",
"m.	c #543FE3",
"n.	c #4936D5",
"o.	c #3E2DC7",
"p.	c #3425BB",
"q.	c #2C1EAF",
"r.	c #3E3697",
"s.	c #494949",
"t.	c #514E68",
"u.	c #2114A0",
"v.	c #2719AA",
"w.	c #2E1FB5",
"x.	c #3626C1",
"y.	c #402ECD",
"z.	c #4A36DA",
"A.	c #533FE7",
"B.	c #5C46F2",
"C.	c #644DFC",
"D.	c #6A52FF",
"E.	c #6D55FF",
"F.	c #654DFD",
"G.	c #5D47F4",
"H.	c #533FE9",
"I.	c #4A36DD",
"J.	c #402ED1",
"K.	c #3726C5",
"L.	c #2E1FB9",
"M.	c #2719AF",
"N.	c #2114A6",
"O.	c #4D4A67",
"P.	c #343434",
"Q.	c #413E80",
"R.	c #1D10A1",
"S.	c #2215AA",
"T.	c #281AB4",
"U.	c #3020BE",
"V.	c #3726C9",
"W.	c #3F2ED4",
"X.	c #4835E0",
"Y.	c #513CEA",
"Z.	c #5943F4",
"`.	c #5F48FA",
" +	c #634BFE",
".+	c #6048FB",
"++	c #5A43F5",
"@+	c #513CED",
"#+	c #4835E3",
"$+	c #402ED8",
"%+	c #3727CD",
"&+	c #3020C2",
"*+	c #291AB8",
"=+	c #2215AF",
"-+	c #1D10A6",
";+	c #3E3B82",
">+	c #303030",
",+	c #322C90",
"'+	c #190DA2",
")+	c #1D11AA",
"!+	c #2315B3",
"~+	c #291ABC",
"{+	c #2F20C6",
"]+	c #3726D1",
"^+	c #422FDC",
"/+	c #4C38E6",
"(+	c #543FEF",
"_+	c #5A44F4",
":+	c #5D47F7",
"<+	c #5D46F7",
"[+	c #5B44F5",
"}+	c #553FF0",
"|+	c #4D38E8",
"1+	c #422FDF",
"2+	c #3727D4",
"3+	c #2F20CA",
"4+	c #291AC0",
"5+	c #2315B7",
"6+	c #1E11AF",
"7+	c #190DA7",
"8+	c #302A94",
"9+	c #24179C",
"0+	c #160BA3",
"a+	c #1A0DAA",
"b+	c #1E11B2",
"c+	c #2315BB",
"d+	c #2B1CC5",
"e+	c #422FDB",
"f+	c #4B37E4",
"g+	c #523DEB",
"h+	c #5742F0",
"i+	c #5A44F3",
"j+	c #5842F1",
"k+	c #533EED",
"l+	c #4B37E6",
"m+	c #422FDE",
"n+	c #2B1CCA",
"o+	c #2315C0",
"p+	c #1E11B8",
"q+	c #1A0DB0",
"r+	c #160BA8",
"s+	c #2316A1",
"t+	c #464646",
"u+	c #373838",
"v+	c #484848",
"w+	c #12079F",
"x+	c #1308A4",
"y+	c #160AAB",
"z+	c #1A0DB3",
"A+	c #2214BD",
"B+	c #2D1EC8",
"C+	c #3928D3",
"D+	c #4431DC",
"E+	c #4C39E4",
"F+	c #533EEB",
"G+	c #5843EF",
"H+	c #5B45F1",
"I+	c #5843F0",
"J+	c #543FEC",
"K+	c #4C39E6",
"L+	c #4431DF",
"M+	c #3928D6",
"N+	c #2E1FCD",
"O+	c #2215C2",
"P+	c #1A0DB8",
"Q+	c #160AB2",
"R+	c #1408AA",
"S+	c #1307A5",
"T+	c #1106A0",
"U+	c #1106A6",
"V+	c #1308AD",
"W+	c #190DB5",
"X+	c #2617C1",
"Y+	c #3222CC",
"Z+	c #3C2BD6",
"`+	c #4734DE",
" @	c #503CE6",
".@	c #5742EB",
"+@	c #5C46EF",
"@@	c #5F48F1",
"#@	c #5E48F1",
"$@	c #5C46F0",
"%@	c #5742EC",
"&@	c #503CE7",
"*@	c #4734E1",
"=@	c #3E2CD9",
"-@	c #3222D0",
";@	c #2617C6",
">@	c #1A0DBB",
",@	c #1308B3",
"'@	c #1106AC",
")@	c #1206A7",
"!@	c #2213A1",
"~@	c #0F05A8",
"{@	c #1207AF",
"]@	c #1D10BA",
"^@	c #2A1BC6",
"/@	c #3626D0",
"(@	c #422FDA",
"_@	c #4B38E1",
":@	c #5540E8",
"<@	c #5D47ED",
"[@	c #624BF1",
"}@	c #644DF3",
"|@	c #624BF2",
"1@	c #5D47EE",
"2@	c #5640EA",
"3@	c #4D39E4",
"4@	c #4230DD",
"5@	c #3626D4",
"6@	c #2B1CCB",
"7@	c #1E11C0",
"8@	c #1207B5",
"9@	c #0F05AF",
"0@	c #2113A8",
"a@	c #313131",
"b@	c #2C2498",
"c@	c #0D04AA",
"d@	c #1408B3",
"e@	c #2113BF",
"f@	c #2E1ECB",
"g@	c #3B29D5",
"h@	c #4734DD",
"i@	c #523DE5",
"j@	c #5B45EB",
"k@	c #634DF1",
"l@	c #6952F4",
"m@	c #6C54F5",
"n@	c #6C54F6",
"o@	c #5C46EE",
"p@	c #523EE7",
"q@	c #3C2AD9",
"r@	c #301FCF",
"s@	c #2314C5",
"t@	c #1609BA",
"u@	c #0E04B2",
"v@	c #2B239D",
"w@	c #2F2F2F",
"x@	c #363185",
"y@	c #0D03AD",
"z@	c #170BB8",
"A@	c #2517C4",
"B@	c #3222CF",
"C@	c #3F2DD9",
"D@	c #5742E9",
"E@	c #624BEF",
"F@	c #6A53F3",
"G@	c #7159F6",
"H@	c #755DF8",
"I@	c #725AF6",
"J@	c #6B54F3",
"K@	c #624CEF",
"L@	c #5843EB",
"M@	c #4C39E5",
"N@	c #402EDD",
"O@	c #3423D4",
"P@	c #2617CA",
"Q@	c #180BBF",
"R@	c #0E03B5",
"S@	c #36318A",
"T@	c #2E2E2E",
"U@	c #423C61",
"V@	c #0E04B1",
"W@	c #1A0DBD",
"X@	c #2819C8",
"Y@	c #3525D3",
"Z@	c #4330DC",
"`@	c #503CE5",
" #	c #5C46EB",
".#	c #6851F0",
"+#	c #725AF5",
"@#	c #7A62F9",
"##	c #8066FB",
"$#	c #8067FB",
"%#	c #7B62F9",
"&#	c #725BF5",
"*#	c #6851F1",
"=#	c #5D47EC",
"-#	c #513CE6",
";#	c #4331E0",
">#	c #3725D8",
",#	c #291ACE",
"'#	c #1C0EC3",
")#	c #0F04B9",
"!#	c #423B63",
"~#	c #2D2D2D",
"{#	c #3326A0",
"]#	c #1C0EC0",
"^#	c #2A1ACB",
"/#	c #3826D6",
"(#	c #4532DF",
"_#	c #533EE6",
":#	c #604AEC",
"<#	c #6C55F2",
"[#	c #785FF7",
"}#	c #8369FC",
"|#	c #8B70FF",
"1#	c #846AFC",
"2#	c #7860F7",
"3#	c #6D55F2",
"4#	c #614AEC",
"5#	c #533FE6",
"6#	c #4633E0",
"7#	c #3927DA",
"8#	c #2B1BD1",
"9#	c #1D0FC7",
"0#	c #3326A5",
"a#	c #2C2C2C",
"b#	c #454545",
"c#	c #3E3963",
"d#	c #2313C0",
"e#	c #2A1BCD",
"f#	c #3827D8",
"g#	c #533EE5",
"h#	c #6E56F2",
"i#	c #7B62F8",
"j#	c #886EFD",
"k#	c #9478FF",
"l#	c #9579FF",
"m#	c #896EFE",
"n#	c #7C63F8",
"o#	c #6F57F2",
"p#	c #624BEC",
"q#	c #5540E6",
"r#	c #4734E0",
"s#	c #3A28DA",
"t#	c #2C1CD3",
"u#	c #2514C7",
"v#	c #3E3965",
"w#	c #2B2B2B",
"x#	c #3E338B",
"y#	c #2A1ACF",
"z#	c #3826D9",
"A#	c #523EE5",
"B#	c #604AEB",
"C#	c #6D55F1",
"D#	c #7961F7",
"E#	c #866CFC",
"F#	c #9175FF",
"G#	c #876DFD",
"H#	c #7A62F7",
"I#	c #6D56F1",
"J#	c #614BEB",
"K#	c #543FE5",
"L#	c #4633DF",
"M#	c #3927D9",
"N#	c #2B1BD3",
"O#	c #3E338F",
"P#	c #4230A0",
"Q#	c #3524D7",
"R#	c #422FDD",
"S#	c #4F3BE3",
"T#	c #5C46E9",
"U#	c #6851EF",
"V#	c #735BF4",
"W#	c #7D64F8",
"X#	c #846AFB",
"Y#	c #856BFC",
"Z#	c #7E65F9",
"`#	c #745CF4",
" $	c #6952EF",
".$	c #5D47E9",
"+$	c #503CE4",
"@$	c #4330DE",
"#$	c #3625D8",
"$$	c #4231A1",
"%$	c #433495",
"&$	c #412DD8",
"*$	c #4A36E0",
"=$	c #5641E6",
"-$	c #6A54F0",
";$	c #725BF3",
">$	c #775FF5",
",$	c #6B54F0",
"'$	c #624BEB",
")$	c #5742E6",
"!$	c #4B37E1",
"~$	c #422DD8",
"{$	c #433595",
"]$	c #4A4A4A",
"^$	c #555555",
"/$	c #40366B",
"($	c #4D36BF",
"_$	c #4E3AE2",
":$	c #5843E6",
"<$	c #614AEA",
"[$	c #6750EE",
"}$	c #6A53EF",
"|$	c #5943E7",
"1$	c #4D37C0",
"2$	c #40376C",
"3$	c #252525",
"4$	c #46386D",
"5$	c #4C3CAC",
"6$	c #5740CD",
"7$	c #6045E2",
"8$	c #5E47E9",
"9$	c #5741CD",
"0$	c #4D3CAC",
"a$	c #606060",
"b$	c #313231",
"c$	c #343433",
"d$	c #222222",
"e$	c #5D5D5D",
"f$	c #676767",
"g$	c #686868",
"h$	c #636363",
"i$	c #212121",
"j$	c #1D1D1D",
"k$	c #1B1B1B",
"l$	c #1A1A1A",
"m$	c #191919",
"n$	c #181818",
"o$	c #171717",
"p$	c #161616",
"  . . . . . . . . . . . . . . . . . . . . . . . . . . .             ",
"+ + + + + + + + + + + + + + + + + + + + + + + + + + + + + + + + + + ",
"@ @ @ @ @ @ @ @ @ @ @ @ @ @ @ @ @ @ @ @ @ @ @ @ @ @ @ @ @ @ @ @ @ @ ",
"# # # # # # # # # # # # # # # # # # # # # # # # # # # # # # # # # # ",
"$ $ $ $ $ $ $ $ $ $ $ $ $ $ $ $ $ $ $ $ $ $ $ $ $ $ $ $ $ $ $ $ $ $ ",
"$ $ $ $ $ % % % % % % % % % % % % % % % % % % % % % % % % % % % % % ",
"% % % % % % % % % % % % % % % & * * & % % = = = = = = = = = = = = = ",
"= = = = = = = = = = = - ; > , ' ) ) ' , > ! - = = = = = = = = = = = ",
"~ ~ ~ ~ ~ ~ ~ ~ ~ { ] ^ / ( _ : < [ } | 1 2 3 ] { ~ ~ ~ ~ ~ ~ ~ ~ ~ ",
"- - - - - - - - 4 5 & | 6 7 8 9 0 0 9 a b c d e 5 f - - - - - - - - ",
"& & & & & & - g h i j k l m n o p p o n m l q r s t g - & & & & & & ",
"u u u u u u v ) w x y z A B C D E E D C B A F G H i I v u u u u u u ",
"u u u u u J I K L M N O P Q R m S S m R Q P T U V W X Y J { { { { { ",
"{ { { { e > Z `  ...+.@.#.$.%.&.R R &.%.$.*.=.-.;.>.,.'.> ).* * * * ",
"* * * * f e !.~.{.].^./.(._.:.<.[.[.<.:._.}.|.1.2.3.4.5.6.f e e e e ",
"e e e { 7.8.9.0.a.b.c.d.e.f.g.h.i.i.h.j.k.l.m.n.o.p.q.r.s.] * ).).).",
").).).J 6.t.u.v.w.x.y.z.A.B.C.D.E.E.D.F.G.H.I.J.K.L.M.N.O.P.f / / / ",
"/ / / P.% Q.R.S.T.U.V.W.X.Y.Z.`. + +.+++@+#+$+%+&+*+=+-+;+- P.6.6.6.",
"6.6./ >+'.,+'+)+!+~+{+]+^+/+(+_+:+<+[+}+|+1+2+3+4+5+6+7+8+@ >+/ 2 2 ",
"2 2 6.P.s.9+0+a+b+c+d+]+e+f+g+h+i+i+j+k+l+m+2+n+o+p+q+r+s+t+P.2 P.P.",
"P.P.P.u+v+w+x+y+z+A+B+C+D+E+F+G+H+H+I+J+K+L+M+N+O+P+Q+R+S+t+/ P.J J ",
"J J P.* t+T+U+V+W+X+Y+Z+`+ @.@+@@@#@$@%@&@*@=@-@;@>@,@'@)@@ e J f f ",
"f f 2 & $ !@~@{@]@^@/@(@_@:@<@[@}@}@|@1@2@3@4@5@6@7@8@9@0@% & P.a@a@",
">+>+J ~ ~ b@c@d@e@f@g@h@i@j@k@l@m@n@l@k@o@p@*@q@r@s@t@u@v@- ~ J >+>+",
"w@w@w@$ & x@y@z@A@B@C@_@D@E@F@G@H@H@I@J@K@L@M@N@O@P@Q@R@S@& $ w@w@w@",
"T@T@T@& % U@V@W@X@Y@Z@`@ #.#+#@###$#%#&#*#=#-#;#>#,#'#)#!#% & T@T@T@",
"~#~#~#2 v+u {#]#^#/#(#_#:#<#[#}#|#|#1#2#3#4#5#6#7#8#9#0#{ v+2 ~#~#~#",
"a#a#a#a#b## c#d#e#f#(#g#4#h#i#j#k#l#m#n#o#p#q#r#s#t#u#v## b#w#w#w#w#",
"w#w#w#w#J 8.u x#y#z#(#A#B#C#D#E#F#l G#H#I#J#K#L#M#N#O#u 8.f v v v v ",
"g g g g g % 8.e P#Q#R#S#T#U#V#W#X#Y#Z#`# $.$+$@$#$$$e 8.% g g g g g ",
"7.7.7.7.7.7.'.1 ).%$&$*$=$J#-$;$>$>$;$,$'$)$!$~${$e 1 '.7.7.7.7.7.7.",
"] ] ] ] ] ] g ]$^$- /$($_$:$<$[$}$}$[$J#|$S#1$2$- ^$s.7.) ) ) ) ) ) ",
"3$3$3$3$3$3$3$3$b#d 8.).4$5$6$7$8$8$7$9$0$4$).8.d b#3$3$3$3$3$3$3$3$",
"I I I I I I I I I P.i a$^$t+e b$c$c$b$e t+^$a$i P.Y Y Y Y Y Y Y Y Y ",
"Y Y Y d$d$d$d$d$d$d$d$/ 8.e$f$g$h$h$g$f$e$8./ d$d$d$d$d$d$d$d$d$d$d$",
"i$i$i$i$i$i$i$i$i$i$i$i$i$i$w#e * * e v > > > > > > > > > > > > > > ",
"h h h h h h h h h h h h h h h h h h h h h h h h h h h h h h h h h h ",
"j$j$j$j$j$j$j$j$j$j$j$j$j$j$j$j$j$j$j$j$j$j$j$j$j$j$j$j$j$j$j$j$j$j$",
"k$k$k$k$k$k$k$k$k$k$k$k$k$k$k$k$k$k$k$k$k$k$k$k$k$k$k$k$k$k$k$k$k$l$",
"m$m$m$m$m$m$m$m$m$m$m$m$m$m$m$m$m$m$m$m$m$m$m$m$m$m$m$m$m$m$m$m$n$n$",
"o$o$o$o$o$o$o$o$o$o$o$o$o$o$o$o$o$o$o$o$o$o$o$o$o$o$o$o$o$o$o$p$p$p$",
"                                                                    "};
