/* XPM */
static char * title_1_active_xpm[] = {
"1 42 39 1",
" 	c #151515",
".	c #595959",
"+	c #444444",
"@	c #434343",
"#	c #424242",
"$	c #414141",
"%	c #404040",
"&	c #3F3F3F",
"*	c #3E3E3E",
"=	c #3D3D3D",
"-	c #3C3C3C",
";	c #3B3B3B",
">	c #3A3A3A",
",	c #393939",
"'	c #383838",
")	c #373737",
"!	c #363636",
"~	c #353535",
"{	c #343434",
"]	c #333333",
"^	c #323232",
"/	c #303030",
"(	c #2F2F2F",
"_	c #2E2E2E",
":	c #2D2D2D",
"<	c #2C2C2C",
"[	c #2B2B2B",
"}	c #292929",
"|	c #282828",
"1	c #272727",
"2	c #252525",
"3	c #242424",
"4	c #232323",
"5	c #212121",
"6	c #1F1F1F",
"7	c #1D1D1D",
"8	c #1B1B1B",
"9	c #191919",
"0	c #171717",
" ",
".",
"+",
"@",
"#",
"#",
"$",
"%",
"&",
"*",
"=",
"-",
"-",
";",
">",
",",
"'",
")",
"!",
"~",
"{",
"]",
"^",
"/",
"(",
"_",
":",
"<",
"[",
"}",
"|",
"1",
"2",
"3",
"4",
"5",
"6",
"7",
"8",
"9",
"0",
" "};
