/* XPM */
static char * top_right_active_xpm[] = {
"8 42 43 1",
" 	c None",
".	c #131313",
"+	c #595959",
"@	c #444444",
"#	c #434343",
"$	c #424242",
"%	c #454545",
"&	c #414141",
"*	c #404040",
"=	c #3F3F3F",
"-	c #3E3E3E",
";	c #3D3D3D",
">	c #3C3C3C",
",	c #3B3B3B",
"'	c #3A3A3A",
")	c #393939",
"!	c #383838",
"~	c #373737",
"{	c #363636",
"]	c #353535",
"^	c #343434",
"/	c #333333",
"(	c #323232",
"_	c #313131",
":	c #303030",
"<	c #2F2F2F",
"[	c #2E2E2E",
"}	c #2C2C2C",
"|	c #2B2B2B",
"1	c #2A2A2A",
"2	c #292929",
"3	c #272727",
"4	c #262626",
"5	c #242424",
"6	c #232323",
"7	c #151515",
"8	c #212121",
"9	c #202020",
"0	c #1E1E1E",
"a	c #1C1C1C",
"b	c #1A1A1A",
"c	c #181818",
"d	c #171717",
"...     ",
"+++..   ",
"@@@@@.  ",
"@@@@@@. ",
"######. ",
"$$$$$$%.",
"&&&&&&%.",
"&&&&&&%.",
"******%.",
"======%.",
"------%.",
";;;;;;%.",
">>>>>>%.",
",,,,,,%.",
"''''''%.",
"))))))%.",
"!!!!!!%.",
"~~~~~~%.",
"{{{{{{%.",
"]]]]]]%.",
"^^^^^^%.",
"//////%.",
"((((((%.",
"______%.",
"::::::%.",
"<<<<<<%.",
"[[[[[[%.",
"}}}}}}%.",
"||||||%.",
"111111%.",
"222222%.",
"333333%.",
"444444%.",
"555555%.",
"666666%7",
"888888@7",
"999999@7",
"000000@7",
"aaaaaa@7",
"bbbbbb@7",
"cccddd@7",
"777777@7"};
