/* XPM */
static char * top_left_active_xpm[] = {
"8 42 43 1",
" 	c None",
".	c #131313",
"+	c #595959",
"@	c #444444",
"#	c #434343",
"$	c #424242",
"%	c #454545",
"&	c #414141",
"*	c #404040",
"=	c #3F3F3F",
"-	c #3E3E3E",
";	c #3D3D3D",
">	c #3C3C3C",
",	c #3B3B3B",
"'	c #3A3A3A",
")	c #393939",
"!	c #383838",
"~	c #373737",
"{	c #363636",
"]	c #353535",
"^	c #343434",
"/	c #333333",
"(	c #323232",
"_	c #313131",
":	c #303030",
"<	c #151515",
"[	c #2F2F2F",
"}	c #2D2D2D",
"|	c #2C2C2C",
"1	c #2B2B2B",
"2	c #2A2A2A",
"3	c #292929",
"4	c #272727",
"5	c #262626",
"6	c #242424",
"7	c #232323",
"8	c #212121",
"9	c #1F1F1F",
"0	c #1E1E1E",
"a	c #1C1C1C",
"b	c #1A1A1A",
"c	c #181818",
"d	c #161616",
"     ...",
"   ..+++",
"  .@@@@@",
" .######",
" .$$$$$$",
".%$$$$$$",
".%&&&&&&",
".%******",
".%======",
".%------",
".%------",
".%;;;;;;",
".%>>>>>>",
".%,,,,,,",
".%''''''",
".%))))))",
".%!!!!!!",
".%~~~~~~",
".%{{{{{{",
".%]]]]]]",
".%^^^^^^",
".%//////",
".%((((((",
".%______",
".%::::::",
"<@[[[[[[",
"<@}}}}}}",
"<@||||||",
"<@111111",
"<@222222",
"<@333333",
"<@444444",
"<@555555",
"<@666666",
"<@777777",
"<@888888",
"<@999999",
"<@000000",
"<@aaaaaa",
"<@bbbbbb",
"<@cccccc",
"<@dddddd"};
