/* XPM */
static char * top_right_active_xpm[] = {
"28 40 4 1",
" 	c None",
".	c #939393",
"+	c #E2E2E2",
"@	c #BDBDBD",
"...................         ",
"++++++++++++++++++...       ",
"@@@@@@@@@@@@@@@@@@@@...     ",
"@@@@@@@@@@@@@@@@@@@@@@..    ",
"@@@@@@@@@@@@@@@@@@@@@@@..   ",
"@@@@@@@@@@@@@@@@@@@@@@@@..  ",
"@@@@@@@@@@@@@@@@@@@@@@@@@.  ",
"@@@@@@@@@@@@@@@@@@@@@@@@@.. ",
"@@@@@@@@@@@@@@@@@@@@@@@@@@. ",
"@@@@@@@@@@@@@@@@@@@@@@@@@@..",
"@@@@@@@@@@@@@@@@@@@@@@@@@@@.",
"@@@@@@@@@@@@@@@@@@@@@@@@@@@.",
"@@@@@@@@@@@@@@@@@@@@@@@@@@@.",
"@@@@@@@@@@@@@@@@@@@@@@@@@@@.",
"@@@@@@@@@@@@@@@@@@@@@@@@@@@.",
"@@@@@@@@@@@@@@@@@@@@@@@@@@@.",
"@@@@@@@@@@@@@@@@@@@@@@@@@@@.",
"@@@@@@@@@@@@@@@@@@@@@@@@@@@.",
"@@@@@@@@@@@@@@@@@@@@@@@@@@@.",
"@@@@@@@@@@@@@@@@@@@@@@@@@@@.",
"@@@@@@@@@@@@@@@@@@@@@@@@@@@.",
"@@@@@@@@@@@@@@@@@@@@@@@@@@@.",
"@@@@@@@@@@@@@@@@@@@@@@@@@@@.",
"@@@@@@@@@@@@@@@@@@@@@@@@@@@.",
"@@@@@@@@@@@@@@@@@@@@@@@@@@@.",
"@@@@@@@@@@@@@@@@@@@@@@@@@@@.",
"@@@@@@@@@@@@@@@@@@@@@@@@@@@.",
"@@@@@@@@@@@@@@@@@@@@@@@@@@@.",
"@@@@@@@@@@@@@@@@@@@@@@@@@@@.",
"@@@@@@@@@@@@@@@@@@@@@@@@@@@.",
"@@@@@@@@@@@@@@@@@@@@@@@@@@@.",
"@@@@@@@@@@@@@@@@@@@@@@@@@@@.",
"@@@@@@@@@@@@@@@@@@@@@@@@@@@.",
"@@@@@@@@@@@@@@@@@@@@@@@@@@@.",
"@@@@@@@@@@@@@@@@@@@@@@@@@@@.",
"@@@@@@@@@@@@@@@@@@@@@@@@@@@.",
"@@@@@@@@@@@@@@@@@@@@@@@@@@@.",
"@@@@@@@@@@@@@@@@@@@@@@@@@@@.",
"@@@@@@@@@@@@@@@@@@@@@@@@@@@.",
"@@@@@@@@@@@@@@@@@@@@@@@@@@@."};
