/* XPM */
static char * right_active_xpm[] = {
"24 16 5 1",
" 	c None",
".	c #939393",
"a	c #ABABAB",
"b	c #BFBFBF",
"c	c #DDDDDE",
".abc                    ",
".abc                    ",
".abc                    ",
".abc                    ",
".abc                    ",
".abc                    ",
".abc                    ",
".abc                    ",
".abc                    ",
".abc                    ",
".abc                    ",
".abc                    ",
".abccccccccccccccccccccc"
".abbbbbbbbbbbbbbbbbbbbbb"
" aaaaaaaaaaaaaaaaaaaaaaa"
"  ......................"};

