/* XPM */
static char * top_left_active_xpm[] = {
"8 24 7 1",
" 	c None",
".	c #000000",
"+	c #939393",
"@	c #FFFFFF",
"#	c #BDBDBD",
"$	c #ABABAB",
"%	c #BFBFBF",
".....+++",
"...++@@@",
"..+#####",
".+######",
".+######",
"+$%#####",
"+$%#####",
"+$%#####",
"+$%#####",
"+$%#####",
"+$%#####",
"+$%#####",
"+$%#####",
"+$%#####",
"+$%#####",
"+$%#####",
"+$%#####",
"+$%#####",
"+$%#####",
"+$%#####",
"+$%#####",
"+$%#####",
"+$%#####",
"+$%#####"};
