/* XPM */
static char * button_inactive_xpm[] = {
"29 35 112 2",
"  	c #131313",
". 	c #595959",
"+ 	c #444444",
"@ 	c #434343",
"# 	c #424242",
"$ 	c #414141",
"% 	c #404040",
"& 	c #3A3A3A",
"* 	c #343434",
"= 	c #323232",
"- 	c #373737",
"; 	c #222222",
"> 	c #0F0F0F",
", 	c #202020",
"' 	c #2A2A2A",
") 	c #3F3F3F",
"! 	c #1E1E1E",
"~ 	c #1C1C1C",
"{ 	c #3E3E3E",
"] 	c #303030",
"^ 	c #3D3D3D",
"/ 	c #333333",
"( 	c #111111",
"_ 	c #353535",
": 	c #3C3C3C",
"< 	c #383838",
"[ 	c #101010",
"} 	c #393939",
"| 	c #3B3B3B",
"1 	c #464646",
"2 	c #474747",
"3 	c #1F1F1F",
"4 	c #2B2B2B",
"5 	c #494949",
"6 	c #4B4B4B",
"7 	c #4C4C4C",
"8 	c #1E1D1D",
"9 	c #363636",
"0 	c #4F4F4F",
"a 	c #525252",
"b 	c #535353",
"c 	c #262525",
"d 	c #313131",
"e 	c #515151",
"f 	c #565656",
"g 	c #585858",
"h 	c #262626",
"i 	c #201F1F",
"j 	c #2E2E2E",
"k 	c #484848",
"l 	c #505050",
"m 	c #5B5B5B",
"n 	c #5D5D5D",
"o 	c #5E5E5E",
"p 	c #333332",
"q 	c #2D2D2D",
"r 	c #2F2F2F",
"s 	c #545454",
"t 	c #5A5A5A",
"u 	c #616161",
"v 	c #626262",
"w 	c #292929",
"x 	c #4D4D4D",
"y 	c #555555",
"z 	c #5C5C5C",
"A 	c #606060",
"B 	c #646464",
"C 	c #666666",
"D 	c #2C2B2B",
"E 	c #4E4E4E",
"F 	c #686868",
"G 	c #282828",
"H 	c #2C2C2C",
"I 	c #656565",
"J 	c #676767",
"K 	c #2E2D2D",
"L 	c #333232",
"M 	c #272727",
"N 	c #242424",
"O 	c #252525",
"P 	c #575757",
"Q 	c #3B3A3A",
"R 	c #232323",
"S 	c #454545",
"T 	c #3F3F3E",
"U 	c #212121",
"V 	c #343333",
"W 	c #444343",
"X 	c #4D4D4C",
"Y 	c #1D1D1D",
"Z 	c #4E4D4D",
"` 	c #313030",
" .	c #525151",
"..	c #1A1A1A",
"+.	c #595858",
"@.	c #181818",
"#.	c #191919",
"$.	c #595757",
"%.	c #5C5B5B",
"&.	c #403F3F",
"*.	c #161616",
"=.	c #3F3E3E",
"-.	c #5D5C5C",
";.	c #6C6B6B",
">.	c #666565",
",.	c #605F5F",
"'.	c #626061",
").	c #3E3D3D",
"!.	c #4F4E4E",
"~.	c #555454",
"{.	c #171717",
"].	c #151515",
"                                                          ",
". . . . . . . . . . . . . . . . . . . . . . . . . . . . . ",
"+ + + + + + + + + + + + + + + + + + + + + + + + + + + + + ",
"@ @ @ @ @ @ @ @ @ @ @ @ @ @ @ @ @ @ @ @ @ @ @ @ @ @ @ @ @ ",
"# # # # # # # # # # # # # # # # # # # # # # # # # # # # # ",
"$ $ $ $ $ $ $ $ $ $ $ % & * = * & % $ $ $ $ $ $ $ $ $ $ $ ",
"% % % % % % % % % - ; > , ' ' ' , > ; - % % % % % % % % % ",
") ) ) ) ) ) ) & ! ~ * % # @ + @ # % * ~ ! & ) ) ) ) ) ) ) ",
"{ { { { { { * > ] ^ { % $ # # # $ % { ^ ] > * { { { { { { ",
"^ ^ ^ ^ ^ / ( _ & : ^ ) % # # # % ) ^ : & _ ( / ^ ^ ^ ^ ^ ",
": : : : < [ = < } | ^ $ + 1 2 1 + $ ^ | } < = [ < : : : : ",
"| | | | 3 4 _ - } : # 1 5 6 7 6 5 1 # : } - _ 4 3 | | | | ",
"} } } = 8 = * 9 & % 1 6 0 a b a 0 6 1 $ & 9 * = 8 / & & & ",
"< < < c ' d / 9 ^ + 6 e f g . g f e 6 + ^ 9 / d ' h } } } ",
"- - - i j ] = - ) k l f m n o n m f l k ) - = ] j i - - - ",
"9 9 p c q r d } # 7 s t o u v u o t s 7 # } d r q c / 9 9 ",
"_ _ ] w 4 q ] } @ x y z A B C B A z y x @ } ] q 4 w ] _ _ ",
"/ / ] D ' 4 r < @ E f z u C F C u z f E @ < r 4 ' D d * * ",
"= = d j G w H 9 # 7 s m A I J I A m s 7 # 9 H w G K d = = ",
"d d = L h M w / { 5 e g z A v A z g e 5 { / w M h L = d d ",
"r r r & N O h q < + 7 b P t m t P b 7 + < q h O N & ] ] ] ",
"j j j Q j R N M d : S 7 e b s b e 7 S : d M N R j Q j j j ",
"H H H / T , U R G d | @ k 6 7 6 k @ | d G R U , ) V q q q ",
"4 4 4 4 W / ! , U h j 9 : ) % ) : 9 j h U , ! / W 4 4 4 4 ",
"w w w w ] X G Y ! 3 ; M H r d r H M ; 3 ! Y G Z ` ' ' ' ' ",
"G G G G G <  .w ..~ ~ Y 3 , U , 3 Y ~ ~ ..w  .< G G G G G ",
"h h h h h h & +.: @.#.#...........#.#.@.: +.Q M M M M M M ",
"N N N N N N N d $.%.&.#.*.*.*.*.*.#.&.%.$.= O O O O O O O ",
"R R R R R R R R R =.-.;.>.,.'.,.>.;.-.=.R R R R R R R R R ",
"U U U U U U U U U U U N ).!.~.!.{ N U U U U U U U U U U U ",
"! ! ! ! ! ! ! ! ! ! ! ! ! ! ! 3 3 3 3 3 3 3 3 3 3 3 3 3 3 ",
"~ ~ ~ ~ ~ ~ ~ ~ ~ ~ ~ ~ ~ ~ ~ ~ Y Y Y Y Y Y Y Y Y Y Y Y Y ",
"..........................................................",
"{.{.{.{.{.{.{.{.{.{.{.{.{.{.{.{.@.@.@.@.@.@.@.@.@.@.@.@.@.",
"].].].].].].].].].].].].].].].].].].].].].].].].].].].].]."};
