/* XPM */
static char * close_pressed_xpm[] = {
"29 35 362 2",
"  	c #131313",
". 	c #595959",
"+ 	c #444444",
"@ 	c #434343",
"# 	c #424242",
"$ 	c #414141",
"% 	c #3C3C3C",
"& 	c #383838",
"* 	c #323232",
"= 	c #404040",
"- 	c #3A3A3A",
"; 	c #252525",
"> 	c #090909",
", 	c #0A0A0A",
"' 	c #0F0F0F",
") 	c #3F3F3F",
"! 	c #3B3B3B",
"~ 	c #212121",
"{ 	c #161616",
"] 	c #201F1F",
"^ 	c #2A2827",
"/ 	c #312F2E",
"( 	c #343130",
"_ 	c #1F1F1E",
": 	c #222222",
"< 	c #3E3E3E",
"[ 	c #373737",
"} 	c #111111",
"| 	c #181818",
"1 	c #2C2A2A",
"2 	c #764C46",
"3 	c #C17869",
"4 	c #E69983",
"5 	c #FCB096",
"6 	c #FFB69B",
"7 	c #2B2A2A",
"8 	c #3D3D3D",
"9 	c #232323",
"0 	c #504140",
"a 	c #BE6055",
"b 	c #FD7F6B",
"c 	c #FF907A",
"d 	c #FF9E86",
"e 	c #FFA88F",
"f 	c #FFAB92",
"g 	c #FF9E87",
"h 	c #FE7F6B",
"i 	c #C06055",
"j 	c #514140",
"k 	c #393939",
"l 	c #1C1C1C",
"m 	c #2A2A2A",
"n 	c #654A49",
"o 	c #C35348",
"p 	c #E76253",
"q 	c #FB7463",
"r 	c #FF8673",
"s 	c #FF9580",
"t 	c #FF9E89",
"u 	c #FFA18B",
"v 	c #FC7463",
"w 	c #E96253",
"x 	c #C65348",
"y 	c #664A49",
"z 	c #58504F",
"A 	c #B0433C",
"B 	c #CE483C",
"C 	c #E15B4D",
"D 	c #F56E60",
"E 	c #FF7F70",
"F 	c #FF8C7B",
"G 	c #FF9583",
"H 	c #FF9886",
"I 	c #FF8C7C",
"J 	c #F76E60",
"K 	c #E45B4D",
"L 	c #D1483C",
"M 	c #B3433C",
"N 	c #59504F",
"O 	c #282828",
"P 	c #4D4D4D",
"Q 	c #934846",
"R 	c #B93229",
"S 	c #CA433A",
"T 	c #D3554B",
"U 	c #D86056",
"V 	c #E56E64",
"W 	c #F98477",
"X 	c #FF8F82",
"Y 	c #FF9284",
"Z 	c #F78377",
"` 	c #E66E64",
" .	c #DA6056",
"..	c #D7554B",
"+.	c #CD433A",
"@.	c #BD3229",
"#.	c #964846",
"$.	c #2F2F2F",
"%.	c #6F5C5B",
"&.	c #A9211B",
"*.	c #B72E27",
"=.	c #C7453F",
"-.	c #CB524C",
";.	c #3A1D1C",
">.	c #974F4A",
",.	c #FF8B83",
"'.	c #FF8E85",
").	c #8B4944",
"!.	c #462120",
"~.	c #D0544D",
"{.	c #CB453F",
"].	c #BB2E27",
"^.	c #AE211B",
"/.	c #705C5B",
"(.	c #303030",
"_.	c #2E2E2E",
":.	c #565656",
"<.	c #8B504F",
"[.	c #A91B15",
"}.	c #B6302C",
"|.	c #C54743",
"1.	c #D35B57",
"2.	c #B45653",
"3.	c #CF726D",
"4.	c #FE8E87",
"5.	c #C66C67",
"6.	c #BD5A56",
"7.	c #D65B57",
"8.	c #C84743",
"9.	c #BA302C",
"0.	c #AE1B15",
"a.	c #8E504F",
"b.	c #363636",
"c.	c #666565",
"d.	c #993B3A",
"e.	c #A91814",
"f.	c #B63432",
"g.	c #C34A48",
"h.	c #D1605D",
"i.	c #DE716E",
"j.	c #874946",
"k.	c #442826",
"l.	c #DB7F7B",
"m.	c #3A2322",
"n.	c #904D4A",
"o.	c #E1716E",
"p.	c #D4605D",
"q.	c #C74A48",
"r.	c #BA3432",
"s.	c #AE1914",
"t.	c #9D3B3A",
"u.	c #353535",
"v.	c #464646",
"w.	c #706F6F",
"x.	c #A01A18",
"y.	c #AA1916",
"z.	c #B63634",
"A.	c #C34E4C",
"B.	c #D26563",
"C.	c #DF7673",
"D.	c #DE7E7A",
"E.	c #492B2A",
"F.	c #211818",
"G.	c #553231",
"H.	c #E37F7C",
"I.	c #E17673",
"J.	c #D56563",
"K.	c #C74E4D",
"L.	c #BB3634",
"M.	c #B01916",
"N.	c #A61A18",
"O.	c #333333",
"P.	c #4C4C4C",
"Q.	c #767575",
"R.	c #A30A07",
"S.	c #AC1816",
"T.	c #B83735",
"U.	c #C75250",
"V.	c #D56966",
"W.	c #E17A76",
"X.	c #EA8783",
"Y.	c #C47572",
"Z.	c #CB7975",
"`.	c #EB8783",
" +	c #E47A76",
".+	c #D96966",
"++	c #CB5250",
"@+	c #BD3735",
"#+	c #B21816",
"$+	c #AA0A07",
"%+	c #343434",
"&+	c #505050",
"*+	c #797979",
"=+	c #A51A19",
"-+	c #AE1413",
";+	c #BC3634",
">+	c #CC5351",
",+	c #D96A67",
"'+	c #E37B77",
")+	c #EB8884",
"!+	c #A66360",
"~+	c #AF6865",
"{+	c #ED8884",
"]+	c #E67B77",
"^+	c #DD6A67",
"/+	c #D05351",
"(+	c #C23735",
"_+	c #B41513",
":+	c #AB1A19",
"<+	c #7A7979",
"[+	c #313131",
"}+	c #4D4C4D",
"|+	c #7A7A7A",
"1+	c #A34343",
"2+	c #B2100D",
"3+	c #C23431",
"4+	c #D1504D",
"5+	c #DD6965",
"6+	c #E77A76",
"7+	c #D07671",
"8+	c #151313",
"9+	c #67403D",
"0+	c #1F1717",
"a+	c #D87A75",
"b+	c #E97B76",
"c+	c #E06965",
"d+	c #D5514E",
"e+	c #C83431",
"f+	c #B9110E",
"g+	c #A94343",
"h+	c #777777",
"i+	c #9D6464",
"j+	c #B70F0B",
"k+	c #C72E2A",
"l+	c #D54B47",
"m+	c #E16560",
"n+	c #E5756F",
"o+	c #5E3331",
"p+	c #754844",
"q+	c #F3978F",
"r+	c #6C423F",
"s+	c #683836",
"t+	c #E87670",
"u+	c #E46560",
"v+	c #D94C47",
"w+	c #CC2F2B",
"x+	c #BE0F0B",
"y+	c #A26464",
"z+	c #6B6B6B",
"A+	c #918080",
"B+	c #BD130F",
"C+	c #CB2721",
"D+	c #D8443E",
"E+	c #E35E57",
"F+	c #9B4944",
"G+	c #32201E",
"H+	c #E78D83",
"I+	c #FD9D92",
"J+	c #E38B81",
"K+	c #221818",
"L+	c #A44E49",
"M+	c #E55E58",
"N+	c #DC443E",
"O+	c #D02721",
"P+	c #C31410",
"Q+	c #928080",
"R+	c #2C2C2C",
"S+	c #858585",
"T+	c #B06564",
"U+	c #CD231C",
"V+	c #DA3A32",
"W+	c #C3463F",
"X+	c #BB6B61",
"Y+	c #FE9A8C",
"Z+	c #FFA192",
"`+	c #FE9A8D",
" @	c #B7685F",
".@	c #C94942",
"+@	c #DC3B33",
"@@	c #D3241D",
"#@	c #B56564",
"$@	c #2D2D2D",
"%@	c #2B2B2B",
"&@	c #484848",
"*@	c #717171",
"=@	c #938D8C",
"-@	c #C84D4B",
";@	c #DB342B",
">@	c #E2493E",
",@	c #E95F53",
"'@	c #F17367",
")@	c #F88577",
"!@	c #FE9384",
"~@	c #FF9D8C",
"{@	c #FE9485",
"]@	c #F98578",
"^@	c #F17467",
"/@	c #EA6054",
"(@	c #E34A3F",
"_@	c #DB352C",
":@	c #CB4E4B",
"<@	c #292929",
"[@	c #525252",
"}@	c #818181",
"|@	c #9F8D8D",
"1@	c #D05451",
"2@	c #E14136",
"3@	c #E75346",
"4@	c #EE6557",
"5@	c #F47566",
"6@	c #FA8271",
"7@	c #FC8776",
"8@	c #FA8272",
"9@	c #F57666",
"0@	c #EF6557",
"a@	c #E85446",
"b@	c #E14237",
"c@	c #D05551",
"d@	c #5C5C5C",
"e@	c #9B9594",
"f@	c #C67472",
"g@	c #E44A3E",
"h@	c #EA5749",
"i@	c #F06354",
"j@	c #F36D5D",
"k@	c #F57060",
"l@	c #F06455",
"m@	c #EA584A",
"n@	c #E44B3F",
"o@	c #C77572",
"p@	c #9C9594",
"q@	c #262626",
"r@	c #5A5A5A",
"s@	c #7E7E7E",
"t@	c #969595",
"u@	c #AA9494",
"v@	c #C8807C",
"w@	c #DD6D65",
"x@	c #EB6052",
"y@	c #ED5F50",
"z@	c #EB6053",
"A@	c #DD6E65",
"B@	c #C8807D",
"C@	c #959595",
"D@	c #272727",
"E@	c #242424",
"F@	c #848484",
"G@	c #9B9B9B",
"H@	c #9E9D9D",
"I@	c #9F9E9E",
"J@	c #676767",
"K@	c #747373",
"L@	c #7C7C7C",
"M@	c #7D7D7D",
"N@	c #747474",
"O@	c #4B4B4B",
"P@	c #1E1E1E",
"Q@	c #1F1F1F",
"R@	c #1D1D1D",
"S@	c #1A1A1A",
"T@	c #171717",
"U@	c #151515",
"                                                          ",
". . . . . . . . . . . . . . . . . . . . . . . . . . . . . ",
"+ + + + + + + + + + + + + + + + + + + + + + + + + + + + + ",
"@ @ @ @ @ @ @ @ @ @ @ @ @ @ @ @ @ @ @ @ @ @ @ @ @ @ @ @ @ ",
"# # # # # # # # # # # # # # # # # # # # # # # # # # # # # ",
"$ $ $ $ $ $ $ $ $ $ $ # % & * & % # $ $ $ $ $ $ $ $ $ $ $ ",
"= = = = = = = = = - ; > , ' ' ' , > ; - = = = = = = = = = ",
") ) ) ) ) ) ) ! ~ , { ] ^ / ( / ^ _ { , : ! ) ) ) ) ) ) ) ",
"< < < < < < [ } | 1 2 3 4 5 6 5 4 3 2 7 | } [ < < < < < < ",
"8 8 8 8 8 [ | 9 0 a b c d e f e g c h i j : | [ 8 8 8 8 8 ",
"% % % % k l m n o p q r s t u t s r v w x y m l k % % % % ",
"! ! ! ! m m z A B C D E F G H G I E J K L M N m m ! ! ! ! ",
"k k k & O P Q R S T U V W X Y X Z `  ...+.@.#.P O k - - - ",
"& & & $.) %.&.*.=.-.;.  >.,.'.,.).  !.~.{.].^./.) (.k k k ",
"[ [ k _.:.<.[.}.|.1.2.    3.4.5.    6.7.8.9.0.a.:._.k [ [ ",
"b.b.b.- c.d.e.f.g.h.i.j.  k.l.m.  n.o.p.q.r.s.t.c.- b.b.b.",
"u.u.[ v.w.x.y.z.A.B.C.D.E.  F.  G.H.I.J.K.L.M.N.w.v.[ u.u.",
"O.O.u.P.Q.R.S.T.U.V.W.X.Y.      Z.`. +.+++@+#+$+Q.P.u.%+%+",
"* * [ &+*+=+-+;+>+,+'+)+!+      ~+{+]+^+/+(+_+:+<+&+[ * * ",
"[+[+u.}+|+1+2+3+4+5+6+7+8+  9+  0+a+b+c+d+e+f+g+|+P.u.[+[+",
"$.$.[++ h+i+j+k+l+m+n+o+  p+q+r+  s+t+u+v+w+x+y+h++ * (.(.",
"_._._.= z+A+B+C+D+E+F+  G+H+I+J+K+  L+M+N+O+P+Q+z+= _._._.",
"R+R+R+& :.S+T+U+V+W+    X+Y+Z+`+ @  8+.@+@@@#@S+:.k $@$@$@",
"%@%@%@%@&@*@=@-@;@>@,@'@)@!@~@{@]@^@/@(@_@:@=@*@&@%@%@%@%@",
"<@<@<@<@* [@}@|@1@2@3@4@5@6@7@8@9@0@a@b@c@|@}@[@O.m m m m ",
"O O O O O ! d@S+e@f@g@h@i@j@k@j@l@m@n@o@p@S+d@! O O O O O ",
"q@q@q@q@q@q@! r@s@t@u@v@w@x@y@z@A@B@u@C@s@r@% D@D@D@D@D@D@",
"E@E@E@E@E@E@E@O.:.z+F@C@G@H@I@H@G@C@F@z+:.O.; ; ; ; ; ; ; ",
"9 9 9 9 9 9 9 9 9 ) :.J@K@L@M@L@N@J@:.) 9 9 9 9 9 9 9 9 9 ",
"~ ~ ~ ~ ~ ~ ~ ~ ~ ~ ~ 9 ! &@O@&@! 9 ~ ~ ~ ~ ~ ~ ~ ~ ~ ~ ~ ",
"P@P@P@P@P@P@P@P@P@P@P@P@P@P@P@Q@Q@Q@Q@Q@Q@Q@Q@Q@Q@Q@Q@Q@Q@",
"l l l l l l l l l l l l l l l l R@R@R@R@R@R@R@R@R@R@R@R@R@",
"S@S@S@S@S@S@S@S@S@S@S@S@S@S@S@S@S@S@S@S@S@S@S@S@S@S@S@S@S@",
"T@T@T@T@T@T@T@T@T@T@T@T@T@T@T@T@| | | | | | | | | | | | | ",
"U@U@U@U@U@U@U@U@U@U@U@U@U@U@U@U@U@U@U@U@U@U@U@U@U@U@U@U@U@"};
