/* XPM */
static char * close_prelight_xpm[] = {
"29 35 368 2",
"  	c #131313",
". 	c #595959",
"+ 	c #444444",
"@ 	c #434343",
"# 	c #424242",
"$ 	c #414141",
"% 	c #3C3C3C",
"& 	c #383838",
"* 	c #323232",
"= 	c #404040",
"- 	c #3A3A3A",
"; 	c #252525",
"> 	c #313131",
", 	c #131213",
"' 	c #3F3F3F",
") 	c #3B3B3B",
"! 	c #212121",
"~ 	c #2D2D2D",
"{ 	c #555555",
"] 	c #7C6D6B",
"^ 	c #AC857B",
"/ 	c #C09485",
"( 	c #C99C8B",
"_ 	c #C09384",
": 	c #AB8479",
"< 	c #796A68",
"[ 	c #515151",
"} 	c #2B2B2B",
"| 	c #222222",
"1 	c #3E3E3E",
"2 	c #373737",
"3 	c #181818",
"4 	c #4E4E4F",
"5 	c #906B68",
"6 	c #DC8071",
"7 	c #FE9982",
"8 	c #FFA990",
"9 	c #FFB398",
"0 	c #FFB69B",
"a 	c #DC7F70",
"b 	c #8E6763",
"c 	c #4A4A4A",
"d 	c #171717",
"e 	c #3D3D3D",
"f 	c #262626",
"g 	c #AE625B",
"h 	c #EC6C5B",
"i 	c #FE7F6B",
"j 	c #FF907A",
"k 	c #FF9E86",
"l 	c #FFA78E",
"m 	c #FFAA91",
"n 	c #EE6C5B",
"o 	c #AE5F58",
"p 	c #545454",
"q 	c #242424",
"r 	c #393939",
"s 	c #565555",
"t 	c #A7524C",
"u 	c #D25244",
"v 	c #E76253",
"w 	c #FB7361",
"x 	c #FF836F",
"y 	c #FF917B",
"z 	c #FF9A83",
"A 	c #FF9D85",
"B 	c #FC7361",
"C 	c #E96253",
"D 	c #D55244",
"E 	c #A84F49",
"F 	c #505050",
"G 	c #202020",
"H 	c #2A2A2A",
"I 	c #474747",
"J 	c #914C49",
"K 	c #BC3A30",
"L 	c #CE483C",
"M 	c #E15749",
"N 	c #F56656",
"O 	c #FF7563",
"P 	c #FF826E",
"Q 	c #FF8A75",
"R 	c #FF8D78",
"S 	c #F76657",
"T 	c #E45749",
"U 	c #D1483C",
"V 	c #BF3A30",
"W 	c #924945",
"X 	c #6D5150",
"Y 	c #AB2920",
"Z 	c #B93229",
"` 	c #C93E33",
" .	c #D2483C",
"..	c #D75245",
"+.	c #E55E4F",
"@.	c #F96F5E",
"#.	c #FF7967",
"$.	c #FF7C69",
"%.	c #F76E5E",
"&.	c #E65E4F",
"*.	c #DA5245",
"=.	c #D6493D",
"-.	c #CD3E33",
";.	c #BD3229",
">.	c #AF2820",
",.	c #6B4D4C",
"'.	c #2F2F2F",
").	c #454545",
"!.	c #903937",
"~.	c #A9211A",
"{.	c #B72A22",
"].	c #C6342B",
"^.	c #C93B31",
"/.	c #391816",
"(.	c #973C33",
"_.	c #FF6757",
":.	c #FF6959",
"<.	c #8B372F",
"[.	c #461A18",
"}.	c #CE3C32",
"|.	c #C9342B",
"1.	c #BB2A22",
"2.	c #AE211A",
"3.	c #933734",
"4.	c #303030",
"5.	c #2E2E2E",
"6.	c #5A4C4B",
"7.	c #A01A12",
"8.	c #A91B15",
"9.	c #B5221B",
"0.	c #C22B23",
"a.	c #CF342B",
"b.	c #B13028",
"c.	c #CF493D",
"d.	c #FE5B4C",
"e.	c #C5463A",
"f.	c #BA322A",
"g.	c #D3342B",
"h.	c #C62B23",
"i.	c #B9221B",
"j.	c #AE1B15",
"k.	c #A51911",
"l.	c #584948",
"m.	c #363636",
"n.	c #704342",
"o.	c #A0100C",
"p.	c #A91510",
"q.	c #B41B15",
"r.	c #BF221B",
"s.	c #CB2A22",
"t.	c #D8362D",
"u.	c #842621",
"v.	c #431B19",
"w.	c #D94A3E",
"x.	c #3A1917",
"y.	c #8D2822",
"z.	c #DB362D",
"A.	c #CF2B23",
"B.	c #C3221B",
"C.	c #B81B15",
"D.	c #AE1510",
"E.	c #A5100C",
"F.	c #71413F",
"G.	c #353535",
"H.	c #7C3D3B",
"I.	c #A10D09",
"J.	c #AA100C",
"K.	c #B31510",
"L.	c #BE1C16",
"M.	c #CC2922",
"N.	c #D9372D",
"O.	c #D93F34",
"P.	c #471B18",
"Q.	c #211414",
"R.	c #541D1A",
"S.	c #DE4035",
"T.	c #DC372D",
"U.	c #CF2A22",
"V.	c #C31D17",
"W.	c #B91510",
"X.	c #B0100C",
"Y.	c #A70D09",
"Z.	c #7E3B38",
"`.	c #333333",
" +	c #7E3636",
".+	c #A30A07",
"++	c #AB0D09",
"@+	c #B5120D",
"#+	c #C21F19",
"$+	c #CF2D24",
"%+	c #DB3A30",
"&+	c #E44539",
"*+	c #C03F34",
"=+	c #C74136",
"-+	c #E64539",
";+	c #DE3B30",
">+	c #D32E25",
",+	c #C72019",
"'+	c #BA120D",
")+	c #B20D09",
"!+	c #AA0A07",
"~+	c #823534",
"{+	c #343434",
"]+	c #7D3936",
"^+	c #A60705",
"/+	c #AE0A07",
"(+	c #BA1510",
"_+	c #C8241D",
":+	c #D43329",
"<+	c #DE3F34",
"[+	c #E74B3E",
"}+	c #A3382F",
"|+	c #AC3A31",
"1+	c #E94B3E",
"2+	c #E14035",
"3+	c #D8332A",
"4+	c #CC251D",
"5+	c #C01611",
"6+	c #B40A07",
"7+	c #AC0705",
"8+	c #813835",
"9+	c #713B39",
"0+	c #A90503",
"a+	c #B20B07",
"b+	c #C01A14",
"c+	c #CD2922",
"d+	c #D9382E",
"e+	c #E3463A",
"f+	c #CD463A",
"g+	c #151313",
"h+	c #662B25",
"i+	c #1F1414",
"j+	c #D5493D",
"k+	c #E5463A",
"l+	c #DC392F",
"m+	c #D22A22",
"n+	c #C61B15",
"o+	c #B90C08",
"p+	c #B00503",
"q+	c #743A38",
"r+	c #523F3D",
"s+	c #AD1005",
"t+	c #B70E0A",
"u+	c #C61F18",
"v+	c #D32F26",
"w+	c #DD3E33",
"x+	c #E24A3E",
"y+	c #5C231E",
"z+	c #75352D",
"A+	c #F26D5C",
"B+	c #6C312A",
"C+	c #672621",
"D+	c #E54C3F",
"E+	c #E13F34",
"F+	c #D72F26",
"G+	c #CB1F19",
"H+	c #BE0F0A",
"I+	c #B41005",
"J+	c #523E3D",
"K+	c #9A2B27",
"L+	c #BD110D",
"M+	c #CA221B",
"N+	c #D73229",
"O+	c #E24237",
"P+	c #99332B",
"Q+	c #321B19",
"R+	c #E76F5E",
"S+	c #FD7D6A",
"T+	c #E36E5D",
"U+	c #221615",
"V+	c #A2372E",
"W+	c #E34337",
"X+	c #DB332A",
"Y+	c #D0231C",
"Z+	c #C3120D",
"`+	c #A02A26",
" @	c #2C2C2C",
".@	c #663B38",
"+@	c #C0180E",
"@@	c #CD231C",
"#@	c #D9332A",
"$@	c #C2392F",
"%@	c #BB594B",
"&@	c #FE836F",
"*@	c #FF8B76",
"=@	c #B7574A",
"-@	c #C83C32",
";@	c #DC352B",
">@	c #D3241D",
",@	c #C8190F",
"'@	c #683B37",
")@	c #484848",
"!@	c #98332D",
"~@	c #DB342A",
"{@	c #E24438",
"]@	c #E95546",
"^@	c #F06455",
"/@	c #F87563",
"(@	c #FE8470",
"_@	c #FF8F79",
":@	c #FE8571",
"<@	c #F87664",
"[@	c #F06555",
"}@	c #E95647",
"|@	c #E24539",
"1@	c #DB352B",
"2@	c #D4241D",
"3@	c #9D342E",
"4@	c #292929",
"5@	c #4E4E4E",
"6@	c #3B3B3A",
"7@	c #AE342C",
"8@	c #D93128",
"9@	c #E14136",
"0@	c #E75143",
"a@	c #EE6051",
"b@	c #F46E5D",
"c@	c #FA7A68",
"d@	c #FC806C",
"e@	c #FA7B68",
"f@	c #F56F5E",
"g@	c #EF6151",
"h@	c #E85244",
"i@	c #E14236",
"j@	c #DA3229",
"k@	c #B0352C",
"l@	c #3C3B3B",
"m@	c #282828",
"n@	c #A63B32",
"o@	c #DD3E31",
"p@	c #E44A3D",
"q@	c #EA5749",
"r@	c #F06353",
"s@	c #F36C5B",
"t@	c #F06354",
"u@	c #EA584A",
"v@	c #E44B3E",
"w@	c #DE3F31",
"x@	c #565656",
"y@	c #723D36",
"z@	c #C04439",
"A@	c #E55040",
"B@	c #E95648",
"C@	c #EC5C4E",
"D@	c #ED5F50",
"E@	c #EC5D4E",
"F@	c #E55140",
"G@	c #C04539",
"H@	c #272727",
"I@	c #573C36",
"J@	c #8F443A",
"K@	c #A74C3E",
"L@	c #AE473F",
"M@	c #90443A",
"N@	c #573D36",
"O@	c #232323",
"P@	c #636363",
"Q@	c #5C5C5C",
"R@	c #575657",
"S@	c #585858",
"T@	c #575756",
"U@	c #4B4B4B",
"V@	c #1E1E1E",
"W@	c #1F1F1F",
"X@	c #1C1C1C",
"Y@	c #1D1D1D",
"Z@	c #1A1A1A",
"`@	c #151515",
"                                                          ",
". . . . . . . . . . . . . . . . . . . . . . . . . . . . . ",
"+ + + + + + + + + + + + + + + + + + + + + + + + + + + + + ",
"@ @ @ @ @ @ @ @ @ @ @ @ @ @ @ @ @ @ @ @ @ @ @ @ @ @ @ @ @ ",
"# # # # # # # # # # # # # # # # # # # # # # # # # # # # # ",
"$ $ $ $ $ $ $ $ $ $ $ # % & * & % # $ $ $ $ $ $ $ $ $ $ $ ",
"= = = = = = = = = - ;   * $ $ = > , ; - = = = = = = = = = ",
"' ' ' ' ' ' ' ) ! ~ { ] ^ / ( _ : < [ } | ) ' ' ' ' ' ' ' ",
"1 1 1 1 1 1 2 3 4 5 6 7 8 9 0 9 8 7 a b c d 2 1 1 1 1 1 1 ",
"e e e e e 2 f . g h i j k l m l k j i n o p q 2 e e e e e ",
"% % % % r ! s t u v w x y z A z y x B C D E F G r % % % % ",
") ) ) ) H I J K L M N O P Q R Q P O S T U V W # H ) ) ) ) ",
"r r r & > X Y Z `  ...+.@.#.$.#.%.&.*.=.-.;.>.,.'.r - - - ",
"& & & '.).!.~.{.].^./.  (._.:._.<.  [.}.|.1.2.3.$ 4.r r r ",
"2 2 r 5.6.7.8.9.0.a.b.    c.d.e.    f.g.h.i.j.k.l.5.r 2 2 ",
"m.m.m.m.n.o.p.q.r.s.t.u.  v.w.x.  y.z.A.B.C.D.E.F.G.m.m.m.",
"G.G.2 - H.I.J.K.L.M.N.O.P.  Q.  R.S.T.U.V.W.X.Y.Z.r 2 G.G.",
"`.`.G.%  +.+++@+#+$+%+&+*+      =+-+;+>+,+'+)+!+~+) G.{+{+",
"* * 2 % ]+^+/+(+_+:+<+[+}+      |+1+2+3+4+5+6+7+8+% 2 * * ",
"> > G.1 9+0+a+b+c+d+e+f+g+  h+  i+j+k+l+m+n+o+p+q+e G.> > ",
"'.'.> # r+s+t+u+v+w+x+y+  z+A+B+  C+D+E+F+G+H+I+J+# * 4.4.",
"5.5.5.= 1 K+L+M+N+O+P+  Q+R+S+T+U+  V+W+X+Y+Z+`+1 = 5.5.5.",
" @ @ @& )..@+@@@#@$@    %@&@*@&@=@  g+-@;@>@,@'@).r ~ ~ ~ ",
"} } } } )@' !@Y+~@{@]@^@/@(@_@:@<@[@}@|@1@2@3@' )@} } } } ",
"4@4@4@4@* 5@6@7@8@9@0@a@b@c@d@e@f@g@h@i@j@k@l@5@`.H H H H ",
"m@m@m@m@m@) [ 6@n@o@p@q@r@s@f@s@t@u@v@w@n@6@[ ) m@m@m@m@m@",
"f f f f f f ) x@@ y@z@A@B@C@D@E@B@F@G@y@@ x@% H@H@H@H@H@H@",
"q q q q q q q `.x@x@+ I@J@K@L@K@M@N@+ x@x@`.; ; ; ; ; ; ; ",
"O@O@O@O@O@O@O@O@O@' x@P@Q@R@S@T@Q@P@x@' O@O@O@O@O@O@O@O@O@",
"! ! ! ! ! ! ! ! ! ! ! O@) )@U@)@) O@! ! ! ! ! ! ! ! ! ! ! ",
"V@V@V@V@V@V@V@V@V@V@V@V@V@V@V@W@W@W@W@W@W@W@W@W@W@W@W@W@W@",
"X@X@X@X@X@X@X@X@X@X@X@X@X@X@X@X@Y@Y@Y@Y@Y@Y@Y@Y@Y@Y@Y@Y@Y@",
"Z@Z@Z@Z@Z@Z@Z@Z@Z@Z@Z@Z@Z@Z@Z@Z@Z@Z@Z@Z@Z@Z@Z@Z@Z@Z@Z@Z@Z@",
"d d d d d d d d d d d d d d d d 3 3 3 3 3 3 3 3 3 3 3 3 3 ",
"`@`@`@`@`@`@`@`@`@`@`@`@`@`@`@`@`@`@`@`@`@`@`@`@`@`@`@`@`@"};
