/* XPM */
static char * hide_prelight_xpm[] = {
"29 35 332 2",
"  	c #131313",
". 	c #595959",
"+ 	c #444444",
"@ 	c #434343",
"# 	c #424242",
"$ 	c #414141",
"% 	c #3C3C3C",
"& 	c #383838",
"* 	c #323232",
"= 	c #404040",
"- 	c #3A3A3A",
"; 	c #252525",
"> 	c #313131",
", 	c #131213",
"' 	c #3F3F3F",
") 	c #3B3B3B",
"! 	c #212121",
"~ 	c #2D2D2D",
"{ 	c #555555",
"] 	c #7C756D",
"^ 	c #ADA785",
"/ 	c #C0BD94",
"( 	c #C9C79D",
"_ 	c #ACA684",
": 	c #7A726A",
"< 	c #515151",
"[ 	c #2B2B2B",
"} 	c #222222",
"| 	c #3E3E3E",
"1 	c #373737",
"2 	c #181818",
"3 	c #4E4E4F",
"4 	c #937E6B",
"5 	c #DDBA81",
"6 	c #FEE59B",
"7 	c #FFF7AB",
"8 	c #FFFEB4",
"9 	c #FFFFB8",
"0 	c #FFF6AB",
"a 	c #DDB97F",
"b 	c #917A67",
"c 	c #4A4A4A",
"d 	c #171717",
"e 	c #3D3D3D",
"f 	c #262626",
"g 	c #C88D61",
"h 	c #FEBA6D",
"i 	c #FFCF81",
"j 	c #FFE192",
"k 	c #FFEFA0",
"l 	c #FFF9AA",
"m 	c #FFFCAD",
"n 	c #C78B5E",
"o 	c #545454",
"p 	c #242424",
"q 	c #393939",
"r 	c #565555",
"s 	c #CE8352",
"t 	c #FEA253",
"u 	c #FFB564",
"v 	c #FFC776",
"w 	c #FFD886",
"x 	c #FFE693",
"y 	c #FFEF9C",
"z 	c #FFF3A0",
"A 	c #FFEF9D",
"B 	c #FFE694",
"C 	c #CE824F",
"D 	c #505050",
"E 	c #202020",
"F 	c #2A2A2A",
"G 	c #474747",
"H 	c #B2724B",
"I 	c #EC8D3C",
"J 	c #FA9C4A",
"K 	c #FFAD59",
"L 	c #FFBE6A",
"M 	c #FFCE79",
"N 	c #FFDB85",
"O 	c #FFE48E",
"P 	c #FFE791",
"Q 	c #EC8D3B",
"R 	c #B17048",
"S 	c #7C5E51",
"T 	c #DA7C29",
"U 	c #E48834",
"V 	c #F09640",
"W 	c #FCA54E",
"X 	c #FFB55D",
"Y 	c #FFC36A",
"Z 	c #FFCF76",
"` 	c #FFD77E",
" .	c #FFDA80",
"..	c #D97C29",
"+.	c #795A4C",
"@.	c #2F2F2F",
"#.	c #454545",
"$.	c #B36A39",
"%.	c #D37923",
"&.	c #DC842D",
"*.	c #E69037",
"=.	c #F29D43",
"-.	c #FCAB50",
";.	c #FFB75C",
">.	c #FFC266",
",.	c #FFC96D",
"'.	c #FFCC6F",
").	c #FFB85C",
"!.	c #F29D44",
"~.	c #B26936",
"{.	c #303030",
"].	c #2E2E2E",
"^.	c #60514B",
"/.	c #C76F18",
"(.	c #CD771E",
"_.	c #D48026",
":.	c #DD8A2F",
"<.	c #E69639",
"[.	c #F1A144",
"}.	c #FAAD4D",
"|.	c #FEB655",
"1.	c #FFBD59",
"2.	c #FFBF5B",
"3.	c #FEB754",
"4.	c #E79639",
"5.	c #5E4E48",
"6.	c #363636",
"7.	c #835942",
"8.	c #C36E14",
"9.	c #C77519",
"0.	c #CD7D20",
"a.	c #D48627",
"b.	c #DC902F",
"c.	c #E59C36",
"d.	c #EDA83D",
"e.	c #F3B143",
"f.	c #F8B747",
"g.	c #F9B949",
"h.	c #E59C37",
"i.	c #815740",
"j.	c #353535",
"k.	c #905C3B",
"l.	c #BF6D11",
"m.	c #C37416",
"n.	c #C77A1B",
"o.	c #7F4F19",
"p.	c #694619",
"q.	c #6D4C1B",
"r.	c #71511E",
"s.	c #745620",
"t.	c #755821",
"u.	c #765922",
"v.	c #825219",
"w.	c #8F5B39",
"x.	c #333333",
"y.	c #925D37",
"z.	c #BC6D0F",
"A.	c #BF7313",
"B.	c #C37A16",
"C.	c #5A3B14",
"D.	c #613F14",
"E.	c #925C35",
"F.	c #343434",
"G.	c #8C5B37",
"H.	c #BA6E0E",
"I.	c #BC7310",
"J.	c #C17F13",
"K.	c #7A5615",
"L.	c #644C17",
"M.	c #67511A",
"N.	c #6A561F",
"O.	c #6C5923",
"P.	c #6D5B26",
"Q.	c #6D5C27",
"R.	c #6D5C26",
"S.	c #67511B",
"T.	c #7E5815",
"U.	c #C17F14",
"V.	c #8B5A36",
"W.	c #7B553A",
"X.	c #B86F0D",
"Y.	c #BA760E",
"Z.	c #C18513",
"`.	c #C8921B",
" +	c #CEA026",
".+	c #D4AB32",
"++	c #D9B440",
"@+	c #DDBC4D",
"#+	c #E0C156",
"$+	c #E1C359",
"%+	c #E0C256",
"&+	c #DAB541",
"*+	c #D4AB33",
"=+	c #CFA026",
"-+	c #C8931B",
";+	c #BB760F",
">+	c #7B5439",
",+	c #55463E",
"'+	c #B7700E",
")+	c #BA7B0E",
"!+	c #C18A14",
"~+	c #C8981E",
"{+	c #CEA52B",
"]+	c #D5B13B",
"^+	c #DABB4C",
"/+	c #DEC45E",
"(+	c #E2CA6C",
"_+	c #E3CC71",
":+	c #DFC45F",
"<+	c #DABC4D",
"[+	c #D5B13C",
"}+	c #CFA62B",
"|+	c #C8991E",
"1+	c #C28A14",
"2+	c #B7710E",
"3+	c #55463D",
"4+	c #9F6829",
"5+	c #BB7F0E",
"6+	c #C28E15",
"7+	c #C99C20",
"8+	c #CFAA30",
"9+	c #D5B643",
"0+	c #DBC159",
"a+	c #E1CB70",
"b+	c #E5D386",
"c+	c #E7D68F",
"d+	c #E1CC72",
"e+	c #DCC25A",
"f+	c #D6B744",
"g+	c #C99D21",
"h+	c #C28F15",
"i+	c #BB800E",
"j+	c #9F6828",
"k+	c #2C2C2C",
"l+	c #664E38",
"m+	c #BB8210",
"n+	c #C19116",
"o+	c #C89F22",
"p+	c #CFAD33",
"q+	c #D6B948",
"r+	c #DCC561",
"s+	c #E2D07F",
"t+	c #E8DA9E",
"u+	c #EBDFB2",
"v+	c #E8DA9F",
"w+	c #E3D180",
"x+	c #DCC663",
"y+	c #D6BA4A",
"z+	c #D0AE34",
"A+	c #C9A023",
"B+	c #C29117",
"C+	c #BC8310",
"D+	c #484848",
"E+	c #936D2E",
"F+	c #C19216",
"G+	c #C8A123",
"H+	c #CEAE34",
"I+	c #D5BB49",
"J+	c #DCC763",
"K+	c #E2D281",
"L+	c #E8DCA2",
"M+	c #ECE3BB",
"N+	c #E9DDA5",
"O+	c #E2D383",
"P+	c #DCC865",
"Q+	c #D6BC4A",
"R+	c #CFAF35",
"S+	c #C19317",
"T+	c #946D2E",
"U+	c #292929",
"V+	c #4E4E4E",
"W+	c #A17E2B",
"X+	c #C6A021",
"Y+	c #CDAD31",
"Z+	c #D3BA44",
"`+	c #D9C55C",
" @	c #DFCF75",
".@	c #E4D78D",
"+@	c #E6DB9A",
"@@	c #E4D78F",
"#@	c #E0D077",
"$@	c #DAC65D",
"%@	c #D4BA46",
"&@	c #CDAE32",
"*@	c #C7A122",
"=@	c #A27E2B",
"-@	c #3C3B3B",
";@	c #282828",
">@	c #3B3B3A",
",@	c #997E31",
"'@	c #CBAB2C",
")@	c #D0B63C",
"!@	c #D6C14F",
"~@	c #DBCA62",
"{@	c #DED072",
"]@	c #E0D379",
"^@	c #DED073",
"/@	c #DBCA63",
"(@	c #D6C150",
"_@	c #D0B73D",
":@	c #CBAB2D",
"<@	c #9A7E31",
"[@	c #565656",
"}@	c #6A5D35",
"|@	c #B09A37",
"1@	c #D1BB40",
"2@	c #D5C34E",
"3@	c #D8C858",
"4@	c #D9CB5C",
"5@	c #D8C959",
"6@	c #D1BB41",
"7@	c #B09A38",
"8@	c #6A5D36",
"9@	c #272727",
"0@	c #524C37",
"a@	c #84793B",
"b@	c #998E41",
"c@	c #A09643",
"d@	c #534C37",
"e@	c #232323",
"f@	c #636363",
"g@	c #5C5C5C",
"h@	c #575657",
"i@	c #585858",
"j@	c #575756",
"k@	c #4B4B4B",
"l@	c #1E1E1E",
"m@	c #1F1F1F",
"n@	c #1C1C1C",
"o@	c #1D1D1D",
"p@	c #1A1A1A",
"q@	c #151515",
"                                                          ",
". . . . . . . . . . . . . . . . . . . . . . . . . . . . . ",
"+ + + + + + + + + + + + + + + + + + + + + + + + + + + + + ",
"@ @ @ @ @ @ @ @ @ @ @ @ @ @ @ @ @ @ @ @ @ @ @ @ @ @ @ @ @ ",
"# # # # # # # # # # # # # # # # # # # # # # # # # # # # # ",
"$ $ $ $ $ $ $ $ $ $ $ # % & * & % # $ $ $ $ $ $ $ $ $ $ $ ",
"= = = = = = = = = - ;   * $ $ = > , ; - = = = = = = = = = ",
"' ' ' ' ' ' ' ) ! ~ { ] ^ / ( / _ : < [ } ) ' ' ' ' ' ' ' ",
"| | | | | | 1 2 3 4 5 6 7 8 9 8 0 6 a b c d 1 | | | | | | ",
"e e e e e 1 f . g h i j k l m l k j i h n o p 1 e e e e e ",
"% % % % q ! r s t u v w x y z A B w v u t C D E q % % % % ",
") ) ) ) F G H I J K L M N O P O N M L K J Q R # F ) ) ) ) ",
"q q q & > S T U V W X Y Z `  .` Z Y X W V U ..+.@.q - - - ",
"& & & @.#.$.%.&.*.=.-.;.>.,.'.,.>.).-.!.*.&.%.~.$ {.q q q ",
"1 1 q ].^./.(._.:.<.[.}.|.1.2.1.3.}.[.4.:._.(./.5.].q 1 1 ",
"6.6.6.6.7.8.9.0.a.b.c.d.e.f.g.f.e.d.h.b.a.0.9.8.i.j.6.6.6.",
"j.j.1 - k.l.m.n.o.p.q.r.s.t.u.t.s.r.q.p.v.n.m.l.w.q 1 j.j.",
"x.x.j.% y.z.A.B.C.                      D.B.A.z.E.) j.F.F.",
"* * 1 % G.H.I.J.K.L.M.N.O.P.Q.R.O.N.S.L.T.U.I.H.V.% 1 * * ",
"> > j.| W.X.Y.Z.`. +.+++@+#+$+%+@+&+*+=+-+Z.;+X.>+e j.> > ",
"@.@.> # ,+'+)+!+~+{+]+^+/+(+_+(+:+<+[+}+|+1+)+2+3+# * {.{.",
"].].].= | 4+5+6+7+8+9+0+a+b+c+b+d+e+f+8+g+h+i+j+| = ].].].",
"k+k+k+& #.l+m+n+o+p+q+r+s+t+u+v+w+x+y+z+A+B+C+l+#.q ~ ~ ~ ",
"[ [ [ [ D+' E+F+G+H+I+J+K+L+M+N+O+P+Q+R+G+S+T+' D+[ [ [ [ ",
"U+U+U+U+* V+) W+X+Y+Z+`+ @.@+@@@#@$@%@&@*@=@-@V+x.F F F F ",
";@;@;@;@;@) < >@,@'@)@!@~@{@]@^@/@(@_@:@<@>@< ) ;@;@;@;@;@",
"f f f f f f ) [@@ }@|@1@2@3@4@5@2@6@7@8@@ [@% 9@9@9@9@9@9@",
"p p p p p p p x.[@[@+ 0@a@b@c@b@a@d@+ [@[@x.; ; ; ; ; ; ; ",
"e@e@e@e@e@e@e@e@e@' [@f@g@h@i@j@g@f@[@' e@e@e@e@e@e@e@e@e@",
"! ! ! ! ! ! ! ! ! ! ! e@) D+k@D+) e@! ! ! ! ! ! ! ! ! ! ! ",
"l@l@l@l@l@l@l@l@l@l@l@l@l@l@l@m@m@m@m@m@m@m@m@m@m@m@m@m@m@",
"n@n@n@n@n@n@n@n@n@n@n@n@n@n@n@n@o@o@o@o@o@o@o@o@o@o@o@o@o@",
"p@p@p@p@p@p@p@p@p@p@p@p@p@p@p@p@p@p@p@p@p@p@p@p@p@p@p@p@p@",
"d d d d d d d d d d d d d d d d 2 2 2 2 2 2 2 2 2 2 2 2 2 ",
"q@q@q@q@q@q@q@q@q@q@q@q@q@q@q@q@q@q@q@q@q@q@q@q@q@q@q@q@q@"};
