/* XPM */
static char * hide_pressed_xpm[] = {
"29 35 300 2",
"  	c #131313",
". 	c #595959",
"+ 	c #444444",
"@ 	c #434343",
"# 	c #424242",
"$ 	c #414141",
"% 	c #3C3C3C",
"& 	c #383838",
"* 	c #323232",
"= 	c #404040",
"- 	c #3A3A3A",
"; 	c #252525",
"> 	c #141314",
", 	c #2E2E2E",
"' 	c #353535",
") 	c #363636",
"! 	c #2D2D2D",
"~ 	c #3F3F3F",
"{ 	c #3B3B3B",
"] 	c #212121",
"^ 	c #2A2A2A",
"/ 	c #353536",
"( 	c #252423",
"_ 	c #2B2B2B",
": 	c #2C2C2C",
"< 	c #343434",
"[ 	c #282828",
"} 	c #222222",
"| 	c #3E3E3E",
"1 	c #373737",
"2 	c #191919",
"3 	c #675A49",
"4 	c #BFAD79",
"5 	c #E6DF9C",
"6 	c #FCFBB2",
"7 	c #FFFFB8",
"8 	c #E6DE9C",
"9 	c #BEAD79",
"0 	c #181818",
"a 	c #3D3D3D",
"b 	c #2F2F2F",
"c 	c #4B4441",
"d 	c #CB9761",
"e 	c #FFCF81",
"f 	c #FFE192",
"g 	c #FFEFA1",
"h 	c #FFF9AB",
"i 	c #FFFCAE",
"j 	c #2E2D2D",
"k 	c #232323",
"l 	c #393939",
"m 	c #202020",
"n 	c #343333",
"o 	c #67554C",
"p 	c #EA9754",
"q 	c #FFB564",
"r 	c #FFC878",
"s 	c #FFD98B",
"t 	c #FFE79A",
"u 	c #FFF0A4",
"v 	c #FFF4A8",
"w 	c #FFF0A5",
"x 	c #FFE79B",
"y 	c #67544C",
"z 	c #585351",
"A 	c #DA8644",
"B 	c #FA9C4A",
"C 	c #FFAF60",
"D 	c #FFC278",
"E 	c #FFD28A",
"F 	c #FFDF98",
"G 	c #FFE7A1",
"H 	c #FFEAA4",
"I 	c #DA8643",
"J 	c #313131",
"K 	c #4D4D4D",
"L 	c #B37249",
"M 	c #E48834",
"N 	c #F0994A",
"O 	c #FCAC65",
"P 	c #FFBE7B",
"Q 	c #FFCD8C",
"R 	c #FFD99B",
"S 	c #FFE0A4",
"T 	c #FFE3A6",
"U 	c #303030",
"V 	c #464646",
"W 	c #72635E",
"X 	c #D37924",
"Y 	c #DC8635",
"Z 	c #E79854",
"` 	c #F3AA6C",
" .	c #FCBC83",
"..	c #FFCA95",
"+.	c #FFD4A1",
"@.	c #FFDAA8",
"#.	c #FFDDAB",
"$.	c #454545",
"%.	c #575757",
"&.	c #A26E51",
"*.	c #CD771E",
"=.	c #D5863D",
"-.	c #E0985C",
";.	c #EAAB76",
">.	c #F4BB8C",
",.	c #FBC99D",
"'.	c #FED2A7",
").	c #FFD8AE",
"!.	c #FFDAB0",
"~.	c #EBAB76",
"{.	c #666566",
"].	c #B5703D",
"^.	c #C77620",
"/.	c #D08746",
"(.	c #D99964",
"_.	c #E3AD7F",
":.	c #ECBD94",
"<.	c #F3CAA2",
"[.	c #F8D3AD",
"}.	c #FBD9B4",
"|.	c #FCDBB7",
"1.	c #656565",
"2.	c #494849",
"3.	c #6F6F6F",
"4.	c #BD6D1C",
"5.	c #C47624",
"6.	c #CB874A",
"7.	c #835F41",
"8.	c #6D5640",
"9.	c #715E4A",
"0.	c #746451",
"a.	c #776957",
"b.	c #786C5B",
"c.	c #796D5D",
"d.	c #876243",
"e.	c #484848",
"f.	c #333333",
"g.	c #767676",
"h.	c #BC6D0F",
"i.	c #C07625",
"j.	c #C8884B",
"k.	c #604932",
"l.	c #674E35",
"m.	c #505050",
"n.	c #797979",
"o.	c #B96F1D",
"p.	c #BD7520",
"q.	c #C58B48",
"r.	c #816442",
"s.	c #6B5941",
"t.	c #6F614B",
"u.	c #726653",
"v.	c #746B59",
"w.	c #766E5E",
"x.	c #766F61",
"y.	c #856744",
"z.	c #4C4C4C",
"A.	c #7A7A7A",
"B.	c #AF7545",
"C.	c #BA7718",
"D.	c #C58E41",
"E.	c #D0A465",
"F.	c #D9B982",
"G.	c #E1C897",
"H.	c #E7D3A7",
"I.	c #ECDBB3",
"J.	c #EFE0BD",
"K.	c #F0E2C0",
"L.	c #EFE1BD",
"M.	c #E8D3A7",
"N.	c #DAB982",
"O.	c #D0A565",
"P.	c #BB7719",
"Q.	c #787878",
"R.	c #A27E65",
"S.	c #BA7B0E",
"T.	c #C38F35",
"U.	c #CEA55A",
"V.	c #D7B979",
"W.	c #E0C890",
"X.	c #E6D3A2",
"Y.	c #EBDCB0",
"Z.	c #EEE1B8",
"`.	c #EFE2BC",
" +	c #E6D4A2",
".+	c #E0C891",
"++	c #D8B979",
"@+	c #CEA65A",
"#+	c #C48F35",
"$+	c #6B6A6B",
"%+	c #8D8682",
"&+	c #BB7F11",
"*+	c #C39023",
"=+	c #CCA348",
"-+	c #D6B76B",
";+	c #DEC786",
">+	c #E5D39B",
",+	c #EADCAC",
"'+	c #EEE3B9",
")+	c #EFE5BE",
"!+	c #EADDAC",
"~+	c #E5D49B",
"{+	c #DFC886",
"]+	c #CCA449",
"^+	c #C39123",
"/+	c #BB8011",
"(+	c #6A6A6A",
"_+	c #545454",
":+	c #868686",
"<+	c #AC8A64",
"[+	c #C19116",
"}+	c #C9A234",
"|+	c #D2B457",
"1+	c #DCC476",
"2+	c #E3D190",
"3+	c #E9DCA7",
"4+	c #EEE4BD",
"5+	c #F0E8CA",
"6+	c #EADCA8",
"7+	c #E3D291",
"8+	c #DCC477",
"9+	c #D3B557",
"0+	c #CAA235",
"a+	c #C29117",
"b+	c #AC8A65",
"c+	c #908F8E",
"d+	c #BA934A",
"e+	c #C8A123",
"f+	c #CFB041",
"g+	c #D8C060",
"h+	c #E0CD7F",
"i+	c #E6D99B",
"j+	c #ECE2B6",
"k+	c #EFE8C9",
"l+	c #EDE3B8",
"m+	c #E6DA9C",
"n+	c #E0CE80",
"o+	c #D8C061",
"p+	c #D0B142",
"q+	c #BA944A",
"r+	c #292929",
"s+	c #515151",
"t+	c #818181",
"u+	c #97938E",
"v+	c #BF9F4E",
"w+	c #CDAD31",
"x+	c #D3BB49",
"y+	c #DAC766",
"z+	c #E1D281",
"A+	c #E6DA99",
"B+	c #E8DEA5",
"C+	c #E6DA9A",
"D+	c #E2D383",
"E+	c #DBC867",
"F+	c #D4BB4B",
"G+	c #CDAE32",
"H+	c #C0A04F",
"I+	c #97948E",
"J+	c #848484",
"K+	c #989796",
"L+	c #B9A671",
"M+	c #D0B63D",
"N+	c #D6C14F",
"O+	c #DBCA64",
"P+	c #DED174",
"Q+	c #E0D47C",
"R+	c #DED175",
"S+	c #DBCA65",
"T+	c #D6C150",
"U+	c #D0B73E",
"V+	c #262626",
"W+	c #969696",
"X+	c #A19E95",
"Y+	c #BBAE7D",
"Z+	c #CBBC69",
"`+	c #D7C75C",
" @	c #D9CB5C",
".@	c #D7C85C",
"+@	c #BBAF7D",
"@@	c #272727",
"#@	c #242424",
"$@	c #565656",
"%@	c #666666",
"&@	c #7F7F7F",
"*@	c #959595",
"=@	c #9C9C9C",
"-@	c #9E9E9E",
";@	c #9F9F9F",
">@	c #7F807F",
",@	c #6C6C6C",
"'@	c #737373",
")@	c #747474",
"!@	c #4B4B4B",
"~@	c #1E1E1E",
"{@	c #1F1F1F",
"]@	c #1C1C1C",
"^@	c #1D1D1D",
"/@	c #1A1A1A",
"(@	c #171717",
"_@	c #151515",
"                                                          ",
". . . . . . . . . . . . . . . . . . . . . . . . . . . . . ",
"+ + + + + + + + + + + + + + + + + + + + + + + + + + + + + ",
"@ @ @ @ @ @ @ @ @ @ @ @ @ @ @ @ @ @ @ @ @ @ @ @ @ @ @ @ @ ",
"# # # # # # # # # # # # # # # # # # # # # # # # # # # # # ",
"$ $ $ $ $ $ $ $ $ $ $ # % & * & % # $ $ $ $ $ $ $ $ $ $ $ ",
"= = = = = = = = = - ; > , ' ) ' !   ; - = = = = = = = = = ",
"~ ~ ~ ~ ~ ~ ~ { ] ^ / ( ; _ , : ; ( < [ } { ~ ~ ~ ~ ~ ~ ~ ",
"| | | | | | 1 2 ' [ 3 4 5 6 7 6 8 9 3 [ * 0 1 | | | | | | ",
"a a a a a 1 ; b c d e f g h i h g f e d c j k 1 a a a a a ",
"% % % % l m n o p q r s t u v w x s r q p y * m l % % % % ",
"{ { { { ^ & z A B C D E F G H G F E D C B I z 1 ^ { { { { ",
"l l l & J K L M N O P Q R S T S R Q P O N M L K U l - - - ",
"& & & b V W X Y Z `  ...+.@.#.@.+... .` Z Y X W $.U l l l ",
"1 1 l b %.&.*.=.-.;.>.,.'.).!.).'.,.>.~.-.=.*.&.%.b l 1 1 ",
") ) ) | {.].^./.(._.:.<.[.}.|.}.[.<.:._.(./.^.].1.a ) ) ) ",
"' ' 1 2.3.4.5.6.7.8.9.0.a.b.c.b.a.0.9.8.d.6.5.4.3.e.1 ' ' ",
"f.f.' K g.h.i.j.k.                      l.j.i.h.g.K ' < < ",
"* * 1 m.n.o.p.q.r.s.t.u.v.w.x.w.v.u.t.s.y.q.p.o.n.m.1 * * ",
"J J ' z.A.B.C.D.E.F.G.H.I.J.K.L.I.M.G.N.O.D.P.B.A.z.' J J ",
"b b J @ Q.R.S.T.U.V.W.X.Y.Z.`.Z.Y. +.+++@+#+S.R.Q.@ * U U ",
", , , = $+%+&+*+=+-+;+>+,+'+)+'+!+~+{+-+]+^+/+%+(+= , , , ",
": : : & _+:+<+[+}+|+1+2+3+4+5+4+6+7+8+9+0+a+b+:+_+l ! ! ! ",
"_ _ _ _ e.3.c+d+e+f+g+h+i+j+k+l+m+n+o+p+e+q+c+3.e._ _ _ _ ",
"r+r+r+r+* s+t+u+v+w+x+y+z+A+B+C+D+E+F+G+H+I+t+s+f.^ ^ ^ ^ ",
"[ [ [ [ [ { . J+K+L+M+N+O+P+Q+R+S+T+U+L+K+J+. { [ [ [ [ [ ",
"V+V+V+V+V+V+{ . A.W+X+Y+Z+`+ @.@Z++@X+W+A.. % @@@@@@@@@@@@",
"#@#@#@#@#@#@#@f.$@%@&@*@=@-@;@-@=@*@>@%@$@f.; ; ; ; ; ; ; ",
"k k k k k k k k k ~ $@1.,@'@)@'@,@1.$@~ k k k k k k k k k ",
"] ] ] ] ] ] ] ] ] ] ] k { e.!@e.{ k ] ] ] ] ] ] ] ] ] ] ] ",
"~@~@~@~@~@~@~@~@~@~@~@~@~@~@~@{@{@{@{@{@{@{@{@{@{@{@{@{@{@",
"]@]@]@]@]@]@]@]@]@]@]@]@]@]@]@]@^@^@^@^@^@^@^@^@^@^@^@^@^@",
"/@/@/@/@/@/@/@/@/@/@/@/@/@/@/@/@/@/@/@/@/@/@/@/@/@/@/@/@/@",
"(@(@(@(@(@(@(@(@(@(@(@(@(@(@(@(@0 0 0 0 0 0 0 0 0 0 0 0 0 ",
"_@_@_@_@_@_@_@_@_@_@_@_@_@_@_@_@_@_@_@_@_@_@_@_@_@_@_@_@_@"};
