/* XPM */
static char * hide_active_xpm[] = {
"29 35 344 2",
"  	c #131313",
". 	c #595959",
"+ 	c #444444",
"@ 	c #434343",
"# 	c #424242",
"$ 	c #414141",
"% 	c #3C3C3C",
"& 	c #383838",
"* 	c #323232",
"= 	c #404040",
"- 	c #3A3A3A",
"; 	c #252525",
"> 	c #313131",
", 	c #131213",
"' 	c #3F3F3F",
") 	c #3B3B3B",
"! 	c #212121",
"~ 	c #2D2D2D",
"{ 	c #555555",
"] 	c #7C756D",
"^ 	c #ADA785",
"/ 	c #C0BD94",
"( 	c #C9C79D",
"_ 	c #ACA684",
": 	c #7A726A",
"< 	c #515151",
"[ 	c #2B2B2B",
"} 	c #222222",
"| 	c #3E3E3E",
"1 	c #373737",
"2 	c #181818",
"3 	c #4E4E4F",
"4 	c #937E6B",
"5 	c #DDBA81",
"6 	c #FEE59B",
"7 	c #FFF7AB",
"8 	c #FFFEB4",
"9 	c #FFFFB8",
"0 	c #FFF6AB",
"a 	c #DDB97F",
"b 	c #917A67",
"c 	c #4A4A4A",
"d 	c #171717",
"e 	c #3D3D3D",
"f 	c #262626",
"g 	c #C88D61",
"h 	c #FEBA6D",
"i 	c #FFCF81",
"j 	c #FFE192",
"k 	c #FFEFA0",
"l 	c #FFF9AA",
"m 	c #FFFCAD",
"n 	c #C78B5E",
"o 	c #545454",
"p 	c #242424",
"q 	c #393939",
"r 	c #565555",
"s 	c #CE8352",
"t 	c #FEA253",
"u 	c #FFB564",
"v 	c #FFC776",
"w 	c #FFD886",
"x 	c #FFE693",
"y 	c #FFEF9C",
"z 	c #FFF3A0",
"A 	c #FFEF9D",
"B 	c #FFE694",
"C 	c #CE824F",
"D 	c #505050",
"E 	c #202020",
"F 	c #2A2A2A",
"G 	c #474747",
"H 	c #B2724B",
"I 	c #EC8D3C",
"J 	c #FA9C4A",
"K 	c #FFAD59",
"L 	c #FFBE6A",
"M 	c #FFCE79",
"N 	c #FFDB85",
"O 	c #FFE48E",
"P 	c #FFE791",
"Q 	c #EC8D3B",
"R 	c #B17048",
"S 	c #7C5E51",
"T 	c #DA7C29",
"U 	c #E48834",
"V 	c #F09640",
"W 	c #FCA54E",
"X 	c #FFB55D",
"Y 	c #FFC36A",
"Z 	c #FFCF76",
"` 	c #FFD77E",
" .	c #FFDA80",
"..	c #D97C29",
"+.	c #795A4C",
"@.	c #2F2F2F",
"#.	c #454545",
"$.	c #B36A39",
"%.	c #D37923",
"&.	c #DC842D",
"*.	c #E69037",
"=.	c #F29D43",
"-.	c #FCAB50",
";.	c #FFB75C",
">.	c #FFC266",
",.	c #FFC96D",
"'.	c #FFCC6F",
").	c #FFB85C",
"!.	c #F29D44",
"~.	c #B26936",
"{.	c #303030",
"].	c #2E2E2E",
"^.	c #60514B",
"/.	c #C76F18",
"(.	c #CD771E",
"_.	c #D48026",
":.	c #DD8A2F",
"<.	c #E69639",
"[.	c #F1A144",
"}.	c #FAAD4D",
"|.	c #FEB655",
"1.	c #FFBD59",
"2.	c #FFBF5B",
"3.	c #FEB754",
"4.	c #E79639",
"5.	c #5E4E48",
"6.	c #363636",
"7.	c #835942",
"8.	c #C36E14",
"9.	c #C77519",
"0.	c #CD7D20",
"a.	c #D48627",
"b.	c #DC902F",
"c.	c #E59C36",
"d.	c #EDA83D",
"e.	c #F3B143",
"f.	c #F8B747",
"g.	c #F9B949",
"h.	c #E59C37",
"i.	c #815740",
"j.	c #353535",
"k.	c #905C3B",
"l.	c #BF6D11",
"m.	c #C37416",
"n.	c #C77A1B",
"o.	c #CD8320",
"p.	c #D59026",
"q.	c #DD9D2D",
"r.	c #E3A834",
"s.	c #E8B03A",
"t.	c #ECB53E",
"u.	c #EDB740",
"v.	c #E9B03A",
"w.	c #DD9E2D",
"x.	c #D59126",
"y.	c #8F5B39",
"z.	c #333333",
"A.	c #925D37",
"B.	c #BC6D0F",
"C.	c #BF7313",
"D.	c #C37A16",
"E.	c #CA871B",
"F.	c #D19422",
"G.	c #D8A02A",
"H.	c #DDAA32",
"I.	c #E1B239",
"J.	c #E4B63E",
"K.	c #E5B840",
"L.	c #E2B239",
"M.	c #D8A12A",
"N.	c #D19522",
"O.	c #CA881B",
"P.	c #925C35",
"Q.	c #343434",
"R.	c #8C5B37",
"S.	c #BA6E0E",
"T.	c #BC7310",
"U.	c #C17F13",
"V.	c #C88D19",
"W.	c #CF9A22",
"X.	c #D5A52C",
"Y.	c #DAAF36",
"Z.	c #DEB640",
"`.	c #E0BA46",
" +	c #E1BC49",
".+	c #E1BB46",
"++	c #DAAF37",
"@+	c #D5A62C",
"#+	c #C88D1A",
"$+	c #C17F14",
"%+	c #8B5A36",
"&+	c #7B553A",
"*+	c #B86F0D",
"=+	c #BA760E",
"-+	c #C18513",
";+	c #C8921B",
">+	c #CEA026",
",+	c #D4AB32",
"'+	c #D9B440",
")+	c #DDBC4D",
"!+	c #E0C156",
"~+	c #E1C359",
"{+	c #E0C256",
"]+	c #DAB541",
"^+	c #D4AB33",
"/+	c #CFA026",
"(+	c #C8931B",
"_+	c #BB760F",
":+	c #7B5439",
"<+	c #55463E",
"[+	c #B7700E",
"}+	c #BA7B0E",
"|+	c #C18A14",
"1+	c #C8981E",
"2+	c #CEA52B",
"3+	c #D5B13B",
"4+	c #DABB4C",
"5+	c #DEC45E",
"6+	c #E2CA6C",
"7+	c #E3CC71",
"8+	c #DFC45F",
"9+	c #DABC4D",
"0+	c #D5B13C",
"a+	c #CFA62B",
"b+	c #C8991E",
"c+	c #C28A14",
"d+	c #B7710E",
"e+	c #55463D",
"f+	c #9F6829",
"g+	c #BB7F0E",
"h+	c #C28E15",
"i+	c #C99C20",
"j+	c #CFAA30",
"k+	c #D5B643",
"l+	c #DBC159",
"m+	c #E1CB70",
"n+	c #E5D386",
"o+	c #E7D68F",
"p+	c #E1CC72",
"q+	c #DCC25A",
"r+	c #D6B744",
"s+	c #C99D21",
"t+	c #C28F15",
"u+	c #BB800E",
"v+	c #9F6828",
"w+	c #2C2C2C",
"x+	c #664E38",
"y+	c #BB8210",
"z+	c #C19116",
"A+	c #C89F22",
"B+	c #CFAD33",
"C+	c #D6B948",
"D+	c #DCC561",
"E+	c #E2D07F",
"F+	c #E8DA9E",
"G+	c #EBDFB2",
"H+	c #E8DA9F",
"I+	c #E3D180",
"J+	c #DCC663",
"K+	c #D6BA4A",
"L+	c #D0AE34",
"M+	c #C9A023",
"N+	c #C29117",
"O+	c #BC8310",
"P+	c #484848",
"Q+	c #936D2E",
"R+	c #C19216",
"S+	c #C8A123",
"T+	c #CEAE34",
"U+	c #D5BB49",
"V+	c #DCC763",
"W+	c #E2D281",
"X+	c #E8DCA2",
"Y+	c #ECE3BB",
"Z+	c #E9DDA5",
"`+	c #E2D383",
" @	c #DCC865",
".@	c #D6BC4A",
"+@	c #CFAF35",
"@@	c #C19317",
"#@	c #946D2E",
"$@	c #292929",
"%@	c #4E4E4E",
"&@	c #A17E2B",
"*@	c #C6A021",
"=@	c #CDAD31",
"-@	c #D3BA44",
";@	c #D9C55C",
">@	c #DFCF75",
",@	c #E4D78D",
"'@	c #E6DB9A",
")@	c #E4D78F",
"!@	c #E0D077",
"~@	c #DAC65D",
"{@	c #D4BA46",
"]@	c #CDAE32",
"^@	c #C7A122",
"/@	c #A27E2B",
"(@	c #3C3B3B",
"_@	c #282828",
":@	c #3B3B3A",
"<@	c #997E31",
"[@	c #CBAB2C",
"}@	c #D0B63C",
"|@	c #D6C14F",
"1@	c #DBCA62",
"2@	c #DED072",
"3@	c #E0D379",
"4@	c #DED073",
"5@	c #DBCA63",
"6@	c #D6C150",
"7@	c #D0B73D",
"8@	c #CBAB2D",
"9@	c #9A7E31",
"0@	c #565656",
"a@	c #6A5D35",
"b@	c #B09A37",
"c@	c #D1BB40",
"d@	c #D5C34E",
"e@	c #D8C858",
"f@	c #D9CB5C",
"g@	c #D8C959",
"h@	c #D1BB41",
"i@	c #B09A38",
"j@	c #6A5D36",
"k@	c #272727",
"l@	c #524C37",
"m@	c #84793B",
"n@	c #998E41",
"o@	c #A09643",
"p@	c #534C37",
"q@	c #232323",
"r@	c #636363",
"s@	c #5C5C5C",
"t@	c #575657",
"u@	c #585858",
"v@	c #575756",
"w@	c #4B4B4B",
"x@	c #1E1E1E",
"y@	c #1F1F1F",
"z@	c #1C1C1C",
"A@	c #1D1D1D",
"B@	c #1A1A1A",
"C@	c #151515",
"                                                          ",
". . . . . . . . . . . . . . . . . . . . . . . . . . . . . ",
"+ + + + + + + + + + + + + + + + + + + + + + + + + + + + + ",
"@ @ @ @ @ @ @ @ @ @ @ @ @ @ @ @ @ @ @ @ @ @ @ @ @ @ @ @ @ ",
"# # # # # # # # # # # # # # # # # # # # # # # # # # # # # ",
"$ $ $ $ $ $ $ $ $ $ $ # % & * & % # $ $ $ $ $ $ $ $ $ $ $ ",
"= = = = = = = = = - ;   * $ $ = > , ; - = = = = = = = = = ",
"' ' ' ' ' ' ' ) ! ~ { ] ^ / ( / _ : < [ } ) ' ' ' ' ' ' ' ",
"| | | | | | 1 2 3 4 5 6 7 8 9 8 0 6 a b c d 1 | | | | | | ",
"e e e e e 1 f . g h i j k l m l k j i h n o p 1 e e e e e ",
"% % % % q ! r s t u v w x y z A B w v u t C D E q % % % % ",
") ) ) ) F G H I J K L M N O P O N M L K J Q R # F ) ) ) ) ",
"q q q & > S T U V W X Y Z `  .` Z Y X W V U ..+.@.q - - - ",
"& & & @.#.$.%.&.*.=.-.;.>.,.'.,.>.).-.!.*.&.%.~.$ {.q q q ",
"1 1 q ].^./.(._.:.<.[.}.|.1.2.1.3.}.[.4.:._.(./.5.].q 1 1 ",
"6.6.6.6.7.8.9.0.a.b.c.d.e.f.g.f.e.d.h.b.a.0.9.8.i.j.6.6.6.",
"j.j.1 - k.l.m.n.o.p.q.r.s.t.u.t.v.r.w.x.o.n.m.l.y.q 1 j.j.",
"z.z.j.% A.B.C.D.E.F.G.H.I.J.K.J.L.H.M.N.O.D.C.B.P.) j.Q.Q.",
"* * 1 % R.S.T.U.V.W.X.Y.Z.`. +.+Z.++@+W.#+$+T.S.%+% 1 * * ",
"> > j.| &+*+=+-+;+>+,+'+)+!+~+{+)+]+^+/+(+-+_+*+:+e j.> > ",
"@.@.> # <+[+}+|+1+2+3+4+5+6+7+6+8+9+0+a+b+c+}+d+e+# * {.{.",
"].].].= | f+g+h+i+j+k+l+m+n+o+n+p+q+r+j+s+t+u+v+| = ].].].",
"w+w+w+& #.x+y+z+A+B+C+D+E+F+G+H+I+J+K+L+M+N+O+x+#.q ~ ~ ~ ",
"[ [ [ [ P+' Q+R+S+T+U+V+W+X+Y+Z+`+ @.@+@S+@@#@' P+[ [ [ [ ",
"$@$@$@$@* %@) &@*@=@-@;@>@,@'@)@!@~@{@]@^@/@(@%@z.F F F F ",
"_@_@_@_@_@) < :@<@[@}@|@1@2@3@4@5@6@7@8@9@:@< ) _@_@_@_@_@",
"f f f f f f ) 0@@ a@b@c@d@e@f@g@d@h@i@j@@ 0@% k@k@k@k@k@k@",
"p p p p p p p z.0@0@+ l@m@n@o@n@m@p@+ 0@0@z.; ; ; ; ; ; ; ",
"q@q@q@q@q@q@q@q@q@' 0@r@s@t@u@v@s@r@0@' q@q@q@q@q@q@q@q@q@",
"! ! ! ! ! ! ! ! ! ! ! q@) P+w@P+) q@! ! ! ! ! ! ! ! ! ! ! ",
"x@x@x@x@x@x@x@x@x@x@x@x@x@x@x@y@y@y@y@y@y@y@y@y@y@y@y@y@y@",
"z@z@z@z@z@z@z@z@z@z@z@z@z@z@z@z@A@A@A@A@A@A@A@A@A@A@A@A@A@",
"B@B@B@B@B@B@B@B@B@B@B@B@B@B@B@B@B@B@B@B@B@B@B@B@B@B@B@B@B@",
"d d d d d d d d d d d d d d d d 2 2 2 2 2 2 2 2 2 2 2 2 2 ",
"C@C@C@C@C@C@C@C@C@C@C@C@C@C@C@C@C@C@C@C@C@C@C@C@C@C@C@C@C@"};
