/* XPM */
static char * maximize_active_xpm[] = {
"29 35 327 2",
"  	c #131313",
". 	c #595959",
"+ 	c #444444",
"@ 	c #434343",
"# 	c #424242",
"$ 	c #414141",
"% 	c #3C3C3C",
"& 	c #383838",
"* 	c #323232",
"= 	c #404040",
"- 	c #3A3A3A",
"; 	c #252525",
"> 	c #313131",
", 	c #131213",
"' 	c #3F3F3F",
") 	c #3B3B3B",
"! 	c #212121",
"~ 	c #2D2D2D",
"{ 	c #555555",
"] 	c #6E716D",
"^ 	c #889685",
"/ 	c #98AA94",
"( 	c #A0B59C",
"_ 	c #97AA94",
": 	c #869584",
"< 	c #6B6E6A",
"[ 	c #515151",
"} 	c #2B2B2B",
"| 	c #222222",
"1 	c #3E3E3E",
"2 	c #373737",
"3 	c #181818",
"4 	c #4E4E4F",
"5 	c #6C746B",
"6 	c #849F80",
"7 	c #A0C49A",
"8 	c #B0D5AA",
"9 	c #B9DFB4",
"0 	c #BCE2B7",
"a 	c #AFD5AA",
"b 	c #839E7F",
"c 	c #687067",
"d 	c #4A4A4A",
"e 	c #171717",
"f 	c #3D3D3D",
"g 	c #262626",
"h 	c #647961",
"i 	c #729A6D",
"j 	c #85AF80",
"k 	c #96C291",
"l 	c #A4D19F",
"m 	c #ADDBA8",
"n 	c #B1DEAB",
"o 	c #729A6C",
"p 	c #61775E",
"q 	c #545454",
"r 	c #242424",
"s 	c #393939",
"t 	c #556E52",
"u 	c #578452",
"v 	c #689763",
"w 	c #79AA74",
"x 	c #89BC84",
"y 	c #97CB92",
"z 	c #9FD49B",
"A 	c #A3D89E",
"B 	c #79AB74",
"C 	c #526C4F",
"D 	c #505050",
"E 	c #202020",
"F 	c #2A2A2A",
"G 	c #474747",
"H 	c #4E614B",
"I 	c #3F713A",
"J 	c #4D8148",
"K 	c #5C9357",
"L 	c #6CA567",
"M 	c #7BB576",
"N 	c #87C383",
"O 	c #90CC8B",
"P 	c #93CF8E",
"Q 	c #3F703A",
"R 	c #4A5E48",
"S 	c #525851",
"T 	c #2D6128",
"U 	c #366F32",
"V 	c #427E3E",
"W 	c #508E4C",
"X 	c #5E9E5A",
"Y 	c #6CAD67",
"Z 	c #77B973",
"` 	c #7EC27A",
" .	c #81C57D",
"..	c #77BA73",
"+.	c #437E3E",
"@.	c #2D6127",
"#.	c #4D534C",
"$.	c #2F2F2F",
"%.	c #454545",
"&.	c #3B5838",
"*.	c #256121",
"=.	c #2E6D2A",
"-.	c #387A34",
";.	c #448940",
">.	c #50974C",
",.	c #5CA458",
"'.	c #66AF61",
").	c #6CB768",
"!.	c #6EBA6B",
"~.	c #66B062",
"{.	c #385636",
"].	c #303030",
"^.	c #2E2E2E",
"/.	c #4C4E4B",
"(.	c #1D5716",
"_.	c #1F611B",
":.	c #266C22",
"<.	c #2F772B",
"[.	c #388434",
"}.	c #42903E",
"|.	c #4B9C48",
"1.	c #53A74F",
"2.	c #57AE53",
"3.	c #59B055",
"4.	c #57AE54",
"5.	c #4C9C48",
"6.	c #42903F",
"7.	c #2F782B",
"8.	c #494B48",
"9.	c #363636",
"0.	c #445042",
"a.	c #155910",
"b.	c #196115",
"c.	c #1F6B1B",
"d.	c #267522",
"e.	c #2D8029",
"f.	c #338E30",
"g.	c #399B35",
"h.	c #3DA53A",
"i.	c #40AC3D",
"j.	c #41AE3E",
"k.	c #3DA63A",
"l.	c #399C35",
"m.	c #2D8129",
"n.	c #414E3F",
"o.	c #353535",
"p.	c #3D513B",
"q.	c #115B0D",
"r.	c #146310",
"s.	c #196B15",
"t.	c #1D751A",
"u.	c #21841E",
"v.	c #259322",
"w.	c #289F25",
"x.	c #2BA728",
"y.	c #2DAD2A",
"z.	c #2DAF2B",
"A.	c #2BA828",
"B.	c #289F26",
"C.	c #21851E",
"D.	c #1D761A",
"E.	c #3B5039",
"F.	c #333333",
"G.	c #375236",
"H.	c #0E5D0A",
"I.	c #10640D",
"J.	c #136D0F",
"K.	c #157D12",
"L.	c #188B15",
"M.	c #1A9917",
"N.	c #1BA419",
"O.	c #1DAC1B",
"P.	c #1EB11C",
"Q.	c #1EB31C",
"R.	c #1DAD1B",
"S.	c #1CA419",
"T.	c #1A9A17",
"U.	c #178C15",
"V.	c #136D10",
"W.	c #355134",
"X.	c #343434",
"Y.	c #3A5137",
"Z.	c #0B5F07",
"`.	c #0D6609",
" +	c #0E740B",
".+	c #0F850C",
"++	c #10940E",
"@+	c #11A00F",
"#+	c #12AB10",
"$+	c #13B311",
"%+	c #13B811",
"&+	c #13BA12",
"*+	c #11A10F",
"=+	c #0E750B",
"-+	c #0C6609",
";+	c #395135",
">+	c #3B4E39",
",+	c #096205",
"'+	c #096C06",
")+	c #0A7D07",
"!+	c #0B8D08",
"~+	c #0B9C09",
"{+	c #0CA90A",
"]+	c #0CB30A",
"^+	c #0CBC0A",
"/+	c #0CC10A",
"(+	c #0CC30A",
"_+	c #0CB40A",
":+	c #0BA90A",
"<+	c #0A8E08",
"[+	c #3A4D38",
"}+	c #3F433D",
"|+	c #116506",
"1+	c #077304",
"2+	c #078505",
"3+	c #079505",
"4+	c #07A306",
"5+	c #07B106",
"6+	c #07BC06",
"7+	c #07C406",
"8+	c #07CB06",
"9+	c #06CD06",
"0+	c #07C506",
"a+	c #07A406",
"b+	c #3F423D",
"c+	c #2B6027",
"d+	c #057902",
"e+	c #058B03",
"f+	c #059B03",
"g+	c #05AA03",
"h+	c #05B704",
"i+	c #04C303",
"j+	c #04CD03",
"k+	c #04D403",
"l+	c #03D703",
"m+	c #04D503",
"n+	c #04C403",
"o+	c #05B804",
"p+	c #057A02",
"q+	c #2A6026",
"r+	c #2C2C2C",
"s+	c #3B4A38",
"t+	c #0D7D02",
"u+	c #048F02",
"v+	c #049F02",
"w+	c #03AE02",
"x+	c #03BC02",
"y+	c #03C802",
"z+	c #02D302",
"A+	c #02DD01",
"B+	c #01E201",
"C+	c #02D402",
"D+	c #03C902",
"E+	c #03BD02",
"F+	c #03AF02",
"G+	c #04A002",
"H+	c #049002",
"I+	c #0D7E02",
"J+	c #3A4A37",
"K+	c #484848",
"L+	c #306A2B",
"M+	c #039201",
"N+	c #03A201",
"O+	c #02B101",
"P+	c #02BE01",
"Q+	c #02CB01",
"R+	c #01D601",
"S+	c #01DF01",
"T+	c #01E600",
"U+	c #01E001",
"V+	c #02BF01",
"W+	c #02B201",
"X+	c #02A301",
"Y+	c #306A2C",
"Z+	c #292929",
"`+	c #4E4E4E",
" @	c #3B3B3A",
".@	c #2A7D25",
"+@	c #02A300",
"@@	c #01BF01",
"#@	c #01CA01",
"$@	c #01D400",
"%@	c #01DC00",
"&@	c #01DF00",
"*@	c #01D500",
"=@	c #01CB00",
"-@	c #2A7E25",
";@	c #282828",
">@	c #3A3B3A",
",@	c #2E7E29",
"'@	c #0CAF01",
")@	c #01BD00",
"!@	c #01C800",
"~@	c #00D100",
"{@	c #00D700",
"]@	c #00D900",
"^@	c #0CB001",
"/@	c #2F7F29",
"(@	c #565656",
"_@	c #355D31",
":@	c #269E21",
"<@	c #10C202",
"[@	c #00CC00",
"}@	c #00D200",
"|@	c #00D500",
"1@	c #00D300",
"2@	c #10C302",
"3@	c #279F21",
"4@	c #365D32",
"5@	c #272727",
"6@	c #374C34",
"7@	c #327D2D",
"8@	c #31942A",
"9@	c #289F28",
"0@	c #232323",
"a@	c #636363",
"b@	c #5C5C5C",
"c@	c #575657",
"d@	c #585858",
"e@	c #575756",
"f@	c #4B4B4B",
"g@	c #1E1E1E",
"h@	c #1F1F1F",
"i@	c #1C1C1C",
"j@	c #1D1D1D",
"k@	c #1A1A1A",
"l@	c #151515",
"                                                          ",
". . . . . . . . . . . . . . . . . . . . . . . . . . . . . ",
"+ + + + + + + + + + + + + + + + + + + + + + + + + + + + + ",
"@ @ @ @ @ @ @ @ @ @ @ @ @ @ @ @ @ @ @ @ @ @ @ @ @ @ @ @ @ ",
"# # # # # # # # # # # # # # # # # # # # # # # # # # # # # ",
"$ $ $ $ $ $ $ $ $ $ $ # % & * & % # $ $ $ $ $ $ $ $ $ $ $ ",
"= = = = = = = = = - ;   * $ $ = > , ; - = = = = = = = = = ",
"' ' ' ' ' ' ' ) ! ~ { ] ^ / ( _ : < [ } | ) ' ' ' ' ' ' ' ",
"1 1 1 1 1 1 2 3 4 5 6 7 8 9 0 9 a 7 b c d e 2 1 1 1 1 1 1 ",
"f f f f f 2 g . h i j k l m n m l k j o p q r 2 f f f f f ",
"% % % % s ! { t u v w x y z A z y x B v u C D E s % % % % ",
") ) ) ) F G H I J K L M N O P O N M L K J Q R # F ) ) ) ) ",
"s s s & > S T U V W X Y Z `  .` ..Y X W +.U @.#.$.s - - - ",
"& & & $.%.&.*.=.-.;.>.,.'.).!.).~.,.>.;.-.=.*.{.$ ].s s s ",
"2 2 s ^./.(._.:.<.[.}.|.1.2.3.4.1.5.6.[.7.:._.(.8.^.s 2 2 ",
"9.9.9.9.0.a.b.c.d.e.f.g.h.i.j.i.k.l.f.m.d.c.b.a.n.o.9.9.9.",
"o.o.2 - p.q.r.s.t.u.v.w.x.y.z.y.A.B.v.C.D.s.r.q.E.s 2 o.o.",
"F.F.o.% G.H.I.J.K.L.M.N.O.P.Q.P.R.S.T.U.K.V.I.H.W.) o.X.X.",
"* * 2 % Y.Z.`. +.+++@+#+$+%+&+%+$+#+*+++.+=+-+Z.;+% 2 * * ",
"> > o.1 >+,+'+)+!+~+{+]+^+/+(+/+^+_+:+~+<+)+'+,+[+f o.> > ",
"$.$.> # }+|+1+2+3+4+5+6+7+8+9+8+0+6+5+a+3+2+1+|+b+# * ].].",
"^.^.^.= 1 c+d+e+f+g+h+i+j+k+l+m+j+n+o+g+f+e+p+q+1 = ^.^.^.",
"r+r+r+& %.s+t+u+v+w+x+y+z+A+B+A+C+D+E+F+G+H+I+J+%.s ~ ~ ~ ",
"} } } } K+' L+M+N+O+P+Q+R+S+T+U+R+Q+V+W+X+M+Y+' K+} } } } ",
"Z+Z+Z+Z+* `+ @.@+@O+@@#@$@%@&@%@*@=@@@W++@-@) `+F.F F F F ",
";@;@;@;@;@) [ >@,@'@)@!@~@{@]@{@~@!@)@^@/@>@[ ) ;@;@;@;@;@",
"g g g g g g ) (@@ _@:@<@[@}@|@1@[@2@3@4@@ (@% 5@5@5@5@5@5@",
"r r r r r r r F.(@(@+ 6@7@8@9@8@7@6@+ (@(@F.; ; ; ; ; ; ; ",
"0@0@0@0@0@0@0@0@0@' (@a@b@c@d@e@b@a@(@' 0@0@0@0@0@0@0@0@0@",
"! ! ! ! ! ! ! ! ! ! ! 0@) K+f@K+) 0@! ! ! ! ! ! ! ! ! ! ! ",
"g@g@g@g@g@g@g@g@g@g@g@g@g@g@g@h@h@h@h@h@h@h@h@h@h@h@h@h@h@",
"i@i@i@i@i@i@i@i@i@i@i@i@i@i@i@i@j@j@j@j@j@j@j@j@j@j@j@j@j@",
"k@k@k@k@k@k@k@k@k@k@k@k@k@k@k@k@k@k@k@k@k@k@k@k@k@k@k@k@k@",
"e e e e e e e e e e e e e e e e 3 3 3 3 3 3 3 3 3 3 3 3 3 ",
"l@l@l@l@l@l@l@l@l@l@l@l@l@l@l@l@l@l@l@l@l@l@l@l@l@l@l@l@l@"};
