/* XPM */
static char * maximize_pressed_xpm[] = {
"29 35 300 2",
"  	c #131313",
". 	c #595959",
"+ 	c #444444",
"@ 	c #434343",
"# 	c #424242",
"$ 	c #414141",
"% 	c #3C3C3C",
"& 	c #383838",
"* 	c #323232",
"= 	c #404040",
"- 	c #3A3A3A",
"; 	c #252525",
"> 	c #0A0A0A",
", 	c #0E0E0E",
"' 	c #141414",
") 	c #3F3F3F",
"! 	c #3B3B3B",
"~ 	c #212121",
"{ 	c #0D0D0D",
"] 	c #1C1C1C",
"^ 	c #272726",
"/ 	c #313431",
"( 	c #393D38",
"_ 	c #3C403B",
": 	c #262626",
"< 	c #222222",
"[ 	c #3E3E3E",
"} 	c #373737",
"| 	c #121212",
"1 	c #1D1D1D",
"2 	c #2F312F",
"3 	c #525F50",
"4 	c #7E9A7B",
"5 	c #A0C29B",
"6 	c #B7DCB1",
"7 	c #BCE2B7",
"8 	c #515F50",
"9 	c #2F302F",
"0 	c #3D3D3D",
"a 	c #191919",
"b 	c #272727",
"c 	c #434943",
"d 	c #658361",
"e 	c #85AF80",
"f 	c #96C291",
"g 	c #A4D19F",
"h 	c #AEDBA9",
"i 	c #B2DFAC",
"j 	c #434842",
"k 	c #393939",
"l 	c #2D2D2D",
"m 	c #4B544B",
"n 	c #577E53",
"o 	c #689763",
"p 	c #7AAB76",
"q 	c #8DBE89",
"r 	c #9CCD98",
"s 	c #A5D6A1",
"t 	c #A9DAA4",
"u 	c #A6D6A1",
"v 	c #4B544A",
"w 	c #2C2C2C",
"x 	c #2A2A2A",
"y 	c #50534F",
"z 	c #466E42",
"A 	c #4D8148",
"B 	c #61955D",
"C 	c #77A973",
"D 	c #88BB84",
"E 	c #96C892",
"F 	c #486046",
"G 	c #191D18",
"H 	c #61815F",
"I 	c #4F534F",
"J 	c #282828",
"K 	c #4D4E4D",
"L 	c #496347",
"M 	c #366F32",
"N 	c #4A8146",
"O 	c #62955F",
"P 	c #75A872",
"Q 	c #86B883",
"R 	c #94C591",
"S 	c #465C44",
"T 	c #5F7E5D",
"U 	c #4D4D4D",
"V 	c #2F2F2F",
"W 	c #5B615A",
"X 	c #266121",
"Y 	c #336F30",
"Z 	c #4F834C",
"` 	c #659662",
" .	c #79A877",
"..	c #8AB888",
"+.	c #96C394",
"@.	c #465B45",
"#.	c #5F7C5E",
"$.	c #346F30",
"%.	c #303030",
"&.	c #2E2E2E",
"*.	c #565655",
"=.	c #4F644F",
"-.	c #1F611B",
";.	c #397237",
">.	c #548552",
",.	c #6B9869",
"'.	c #7FAA7E",
").	c #8EB88D",
"!.	c #98C297",
"~.	c #475A46",
"{.	c #617B60",
"].	c #6B9969",
"^.	c #4F634E",
"/.	c #555555",
"(.	c #363636",
"_.	c #646464",
":.	c #3B603A",
"<.	c #1E621A",
"[.	c #3F753D",
"}.	c #598858",
"|.	c #729C71",
"1.	c #84AD83",
"2.	c #91BB91",
"3.	c #9BC59A",
"4.	c #485C48",
"5.	c #627D62",
"6.	c #9BC69A",
"7.	c #91BC91",
"8.	c #353535",
"9.	c #454545",
"0.	c #6D6E6D",
"a.	c #1C5C1A",
"b.	c #1F651D",
"c.	c #427741",
"d.	c #2B3F2B",
"e.	c #354835",
"f.	c #3D503D",
"g.	c #435742",
"h.	c #475B47",
"i.	c #232B23",
"j.	c #2E392E",
"k.	c #435642",
"l.	c #365335",
"m.	c #333333",
"n.	c #4B4B4B",
"o.	c #737473",
"p.	c #0E5D0A",
"q.	c #1F671D",
"r.	c #427A41",
"s.	c #141714",
"t.	c #294329",
"u.	c #343434",
"v.	c #4F4F4F",
"w.	c #777777",
"x.	c #1B6119",
"y.	c #1A6818",
"z.	c #3F7F3E",
"A.	c #395F39",
"B.	c #476C47",
"C.	c #527552",
"D.	c #5A7C5A",
"E.	c #608260",
"F.	c #2E3C2E",
"G.	c #3E523E",
"H.	c #5A7D5A",
"I.	c #406C3F",
"J.	c #3F803E",
"K.	c #1A6819",
"L.	c #313131",
"M.	c #4C4C4C",
"N.	c #787878",
"O.	c #426C41",
"P.	c #116D0F",
"Q.	c #388537",
"R.	c #579C56",
"S.	c #70B170",
"T.	c #82C082",
"U.	c #8FCB8E",
"V.	c #98D498",
"W.	c #476247",
"X.	c #618661",
"Y.	c #8FCC8E",
"Z.	c #579D56",
"`.	c #767676",
" +	c #627962",
".+	c #077304",
"++	c #2B892A",
"@+	c #4B9F4A",
"#+	c #66B366",
"$+	c #79C379",
"%+	c #86CE86",
"&+	c #8FD78F",
"*+	c #436443",
"=+	c #5B875B",
"-+	c #86CF86",
";+	c #696969",
">+	c #7E857E",
",+	c #087905",
"'+	c #168C15",
")+	c #39A139",
"!+	c #56B456",
"~+	c #6CC46B",
"{+	c #7AD07A",
"]+	c #83DA83",
"^+	c #3D653D",
"/+	c #538A53",
"(+	c #7AD17A",
"_+	c #3AA139",
":+	c #087A05",
"<+	c #565656",
"[+	c #838382",
"}+	c #618861",
"|+	c #048F02",
"1+	c #21A120",
"2+	c #3FB33E",
"3+	c #58C458",
"4+	c #68D168",
"5+	c #73DC73",
"6+	c #366636",
"7+	c #498C49",
"8+	c #68D268",
"9+	c #57C457",
"0+	c #3FB43E",
"a+	c #21A221",
"b+	c #049002",
"c+	c #618961",
"d+	c #828382",
"e+	c #2B2B2B",
"f+	c #484848",
"g+	c #707070",
"h+	c #8A8E8A",
"i+	c #449444",
"j+	c #04A203",
"k+	c #21B220",
"l+	c #3AC23A",
"m+	c #4ECF4E",
"n+	c #5CDB5C",
"o+	c #398B39",
"p+	c #2C702C",
"q+	c #44A243",
"r+	c #4ED04E",
"s+	c #21B320",
"t+	c #04A303",
"u+	c #292929",
"v+	c #525252",
"w+	c #7F7F7F",
"x+	c #8A958A",
"y+	c #46A246",
"z+	c #02B101",
"A+	c #13BF13",
"B+	c #29CC29",
"C+	c #38D637",
"D+	c #41DE41",
"E+	c #44E144",
"F+	c #38D738",
"G+	c #14C014",
"H+	c #02B201",
"I+	c #46A346",
"J+	c #5B5B5B",
"K+	c #848484",
"L+	c #929792",
"M+	c #69AA69",
"N+	c #04BC03",
"O+	c #02C801",
"P+	c #0AD10A",
"Q+	c #13D713",
"R+	c #16DA16",
"S+	c #13D813",
"T+	c #04BD03",
"U+	c #6AAA69",
"V+	c #5A5A5A",
"W+	c #7C7C7C",
"X+	c #939493",
"Y+	c #90A290",
"Z+	c #72B572",
"`+	c #4EC54E",
" @	c #1BD11B",
".@	c #00D500",
"+@	c #90A390",
"@@	c #242424",
"#@	c #6B6B6B",
"$@	c #838283",
"%@	c #929292",
"&@	c #989A98",
"*@	c #9A9D9A",
"=@	c #9B9E9B",
"-@	c #929392",
";@	c #838383",
">@	c #232323",
",@	c #676767",
"'@	c #737272",
")@	c #7A7A7A",
"!@	c #7B7B7B",
"~@	c #737373",
"{@	c #1E1E1E",
"]@	c #1F1F1F",
"^@	c #1A1A1A",
"/@	c #171717",
"(@	c #181818",
"_@	c #151515",
"                                                          ",
". . . . . . . . . . . . . . . . . . . . . . . . . . . . . ",
"+ + + + + + + + + + + + + + + + + + + + + + + + + + + + + ",
"@ @ @ @ @ @ @ @ @ @ @ @ @ @ @ @ @ @ @ @ @ @ @ @ @ @ @ @ @ ",
"# # # # # # # # # # # # # # # # # # # # # # # # # # # # # ",
"$ $ $ $ $ $ $ $ $ $ $ # % & * & % # $ $ $ $ $ $ $ $ $ $ $ ",
"= = = = = = = = = - ; > , ' ' ' , > ; - = = = = = = = = = ",
") ) ) ) ) ) ) ! ~ { ] ^ / ( _ ( / : ] { < ! ) ) ) ) ) ) ) ",
"[ [ [ [ [ [ } | 1 2 3 4 5 6 7 6 5 4 8 9 ] | } [ [ [ [ [ [ ",
"0 0 0 0 0 } a b c d e f g h i h g f e d j : a } 0 0 0 0 0 ",
"% % % % k 1 l m n o p q r s t u r q p o n v w 1 k % % % % ",
"! ! ! ! x w y z A B C D E F G H E D C B A z I w x ! ! ! ! ",
"k k k & J K L M N O P Q R S   T R Q P O N M L U J k - - - ",
"& & & V ) W X Y Z `  ...+.@.  #.+... .` Z $.X W ) %.k k k ",
"} } k &.*.=.-.;.>.,.'.).!.~.  {.!.).'.].>.;.-.^./.&.k } } ",
"(.(.(.- _.:.<.[.}.|.1.2.3.4.  5.6.7.1.|.}.[.<.:._.- (.(.(.",
"8.8.} 9.0.a.b.c.d.e.f.g.h.i.  j.h.k.f.e.l.c.b.a.0.9.} 8.8.",
"m.m.8.n.o.p.q.r.s.                      t.r.q.p.o.n.8.u.u.",
"* * } v.w.x.y.z.A.B.C.D.E.F.  G.E.H.C.B.I.J.K.x.w.v.} * * ",
"L.L.8.M.N.O.P.Q.R.S.T.U.V.W.  X.V.Y.T.S.Z.Q.P.O.N.M.8.L.L.",
"V V L.+ `. +.+++@+#+$+%+&+*+  =+&+-+$+#+@+++.+ +`.+ * %.%.",
"&.&.&.= ;+>+,+'+)+!+~+{+]+^+  /+]+(+~+!+_+'+:+>+;+= &.&.&.",
"w w w & <+[+}+|+1+2+3+4+5+6+  7+5+8+9+0+a+b+c+d+<+k l l l ",
"e+e+e+e+f+g+h+i+j+k+l+m+n+o+p+q+n+r+l+s+t+i+h+g+f+e+e+e+e+",
"u+u+u+u+* v+w+x+y+z+A+B+C+D+E+D+F+B+G+H+I+x+w+v+m.x x x x ",
"J J J J J ! J+K+L+M+N+O+P+Q+R+S+P+O+T+U+L+K+J+! J J J J J ",
": : : : : : ! V+W+X+Y+Z+`+ @.@ @`+Z++@X+W+V+% b b b b b b ",
"@@@@@@@@@@@@@@m.<+#@$@%@&@*@=@*@&@-@;@#@<+m.; ; ; ; ; ; ; ",
">@>@>@>@>@>@>@>@>@) <+,@'@)@!@)@~@,@<+) >@>@>@>@>@>@>@>@>@",
"~ ~ ~ ~ ~ ~ ~ ~ ~ ~ ~ >@! f+n.f+! >@~ ~ ~ ~ ~ ~ ~ ~ ~ ~ ~ ",
"{@{@{@{@{@{@{@{@{@{@{@{@{@{@{@]@]@]@]@]@]@]@]@]@]@]@]@]@]@",
"] ] ] ] ] ] ] ] ] ] ] ] ] ] ] ] 1 1 1 1 1 1 1 1 1 1 1 1 1 ",
"^@^@^@^@^@^@^@^@^@^@^@^@^@^@^@^@^@^@^@^@^@^@^@^@^@^@^@^@^@",
"/@/@/@/@/@/@/@/@/@/@/@/@/@/@/@/@(@(@(@(@(@(@(@(@(@(@(@(@(@",
"_@_@_@_@_@_@_@_@_@_@_@_@_@_@_@_@_@_@_@_@_@_@_@_@_@_@_@_@_@"};
