/* XPM */
static char * maximize_prelight_xpm[] = {
"29 35 318 2",
"  	c #131313",
". 	c #595959",
"+ 	c #444444",
"@ 	c #434343",
"# 	c #424242",
"$ 	c #414141",
"% 	c #3C3C3C",
"& 	c #383838",
"* 	c #323232",
"= 	c #404040",
"- 	c #3A3A3A",
"; 	c #252525",
"> 	c #313131",
", 	c #131213",
"' 	c #3F3F3F",
") 	c #3B3B3B",
"! 	c #212121",
"~ 	c #2D2D2D",
"{ 	c #555555",
"] 	c #6E716D",
"^ 	c #889685",
"/ 	c #98AA94",
"( 	c #A0B59C",
"_ 	c #97AA94",
": 	c #869584",
"< 	c #6B6E6A",
"[ 	c #515151",
"} 	c #2B2B2B",
"| 	c #222222",
"1 	c #3E3E3E",
"2 	c #373737",
"3 	c #181818",
"4 	c #4E4E4F",
"5 	c #6C746B",
"6 	c #849F80",
"7 	c #A0C49A",
"8 	c #B0D5AA",
"9 	c #B9DFB4",
"0 	c #BCE2B7",
"a 	c #AFD5AA",
"b 	c #839E7F",
"c 	c #687067",
"d 	c #4A4A4A",
"e 	c #171717",
"f 	c #3D3D3D",
"g 	c #262626",
"h 	c #647961",
"i 	c #729A6D",
"j 	c #85AF80",
"k 	c #96C291",
"l 	c #A4D19F",
"m 	c #ADDBA8",
"n 	c #B1DEAB",
"o 	c #729A6C",
"p 	c #61775E",
"q 	c #545454",
"r 	c #242424",
"s 	c #393939",
"t 	c #556E52",
"u 	c #578452",
"v 	c #689763",
"w 	c #79AA74",
"x 	c #89BC84",
"y 	c #97CB92",
"z 	c #9FD49B",
"A 	c #A3D89E",
"B 	c #79AB74",
"C 	c #526C4F",
"D 	c #505050",
"E 	c #202020",
"F 	c #2A2A2A",
"G 	c #474747",
"H 	c #4E614B",
"I 	c #3F713A",
"J 	c #4D8148",
"K 	c #5C9357",
"L 	c #6CA567",
"M 	c #7BB576",
"N 	c #87C383",
"O 	c #415D3F",
"P 	c #181C18",
"Q 	c #587E55",
"R 	c #3F703A",
"S 	c #4A5E48",
"T 	c #525851",
"U 	c #2D6128",
"V 	c #366F32",
"W 	c #427E3E",
"X 	c #508E4C",
"Y 	c #5E9E5A",
"Z 	c #6CAD67",
"` 	c #77B973",
" .	c #385736",
"..	c #4D774A",
"+.	c #77BA73",
"@.	c #437E3E",
"#.	c #2D6127",
"$.	c #4D534C",
"%.	c #2F2F2F",
"&.	c #454545",
"*.	c #3B5838",
"=.	c #256121",
"-.	c #2E6D2A",
";.	c #387A34",
">.	c #448940",
",.	c #50974C",
"'.	c #5CA458",
").	c #66AF61",
"!.	c #30522F",
"~.	c #42703F",
"{.	c #66B062",
"].	c #385636",
"^.	c #303030",
"/.	c #2E2E2E",
"(.	c #4C4E4B",
"_.	c #1D5716",
":.	c #1F611B",
"<.	c #266C22",
"[.	c #2F772B",
"}.	c #388434",
"|.	c #42903E",
"1.	c #4B9C48",
"2.	c #53A74F",
"3.	c #284E27",
"4.	c #356A33",
"5.	c #4C9C48",
"6.	c #42903F",
"7.	c #2F782B",
"8.	c #494B48",
"9.	c #363636",
"0.	c #445042",
"a.	c #155910",
"b.	c #196115",
"c.	c #1F6B1B",
"d.	c #267522",
"e.	c #2D8029",
"f.	c #338E30",
"g.	c #399B35",
"h.	c #3DA53A",
"i.	c #1F4D1E",
"j.	c #286926",
"k.	c #3DA63A",
"l.	c #399C35",
"m.	c #2D8129",
"n.	c #414E3F",
"o.	c #353535",
"p.	c #3D513B",
"q.	c #115B0D",
"r.	c #146310",
"s.	c #196B15",
"t.	c #163615",
"u.	c #173B16",
"v.	c #184118",
"w.	c #1A4719",
"x.	c #1B4B1A",
"y.	c #152514",
"z.	c #163016",
"A.	c #1B4C1A",
"B.	c #184218",
"C.	c #174716",
"D.	c #3B5039",
"E.	c #333333",
"F.	c #375236",
"G.	c #0E5D0A",
"H.	c #10640D",
"I.	c #136D0F",
"J.	c #131613",
"K.	c #133B13",
"L.	c #136D10",
"M.	c #355134",
"N.	c #343434",
"O.	c #3A5137",
"P.	c #0B5F07",
"Q.	c #0D6609",
"R.	c #0E740B",
"S.	c #115410",
"T.	c #125D11",
"U.	c #126411",
"V.	c #126B11",
"W.	c #127012",
"X.	c #133413",
"Y.	c #134613",
"Z.	c #126511",
"`.	c #125C11",
" +	c #116010",
".+	c #0E750B",
"++	c #0C6609",
"@+	c #395135",
"#+	c #3B4E39",
"$+	c #096205",
"%+	c #096C06",
"&+	c #0A7D07",
"*+	c #0B8D08",
"=+	c #0B9C09",
"-+	c #0CA90A",
";+	c #0CB30A",
">+	c #0CBC0A",
",+	c #125712",
"'+	c #117710",
")+	c #0CB40A",
"!+	c #0BA90A",
"~+	c #0A8E08",
"{+	c #3A4D38",
"]+	c #3F433D",
"^+	c #116506",
"/+	c #077304",
"(+	c #078505",
"_+	c #079505",
":+	c #07A306",
"<+	c #07B106",
"[+	c #07BC06",
"}+	c #07C406",
"|+	c #115B11",
"1+	c #107C0F",
"2+	c #07C506",
"3+	c #07A406",
"4+	c #3F423D",
"5+	c #2B6027",
"6+	c #057902",
"7+	c #058B03",
"8+	c #059B03",
"9+	c #05AA03",
"0+	c #05B704",
"a+	c #04C303",
"b+	c #04CD03",
"c+	c #116011",
"d+	c #0F820F",
"e+	c #04C403",
"f+	c #05B804",
"g+	c #057A02",
"h+	c #2A6026",
"i+	c #2C2C2C",
"j+	c #3B4A38",
"k+	c #0D7D02",
"l+	c #048F02",
"m+	c #049F02",
"n+	c #03AE02",
"o+	c #03BC02",
"p+	c #03C802",
"q+	c #02D302",
"r+	c #116311",
"s+	c #0E870E",
"t+	c #02D402",
"u+	c #03C902",
"v+	c #03BD02",
"w+	c #03AF02",
"x+	c #04A002",
"y+	c #049002",
"z+	c #0D7E02",
"A+	c #3A4A37",
"B+	c #484848",
"C+	c #306A2B",
"D+	c #039201",
"E+	c #03A201",
"F+	c #02B101",
"G+	c #02BE01",
"H+	c #02CB01",
"I+	c #01D601",
"J+	c #0E890E",
"K+	c #106F10",
"L+	c #0C9F0C",
"M+	c #02BF01",
"N+	c #02B201",
"O+	c #02A301",
"P+	c #306A2C",
"Q+	c #292929",
"R+	c #4E4E4E",
"S+	c #3B3B3A",
"T+	c #2A7D25",
"U+	c #02A300",
"V+	c #01BF01",
"W+	c #01CA01",
"X+	c #01D400",
"Y+	c #01DC00",
"Z+	c #01DF00",
"`+	c #01D500",
" @	c #01CB00",
".@	c #2A7E25",
"+@	c #282828",
"@@	c #3A3B3A",
"#@	c #2E7E29",
"$@	c #0CAF01",
"%@	c #01BD00",
"&@	c #01C800",
"*@	c #00D100",
"=@	c #00D700",
"-@	c #00D900",
";@	c #0CB001",
">@	c #2F7F29",
",@	c #565656",
"'@	c #355D31",
")@	c #269E21",
"!@	c #10C202",
"~@	c #00CC00",
"{@	c #00D200",
"]@	c #00D500",
"^@	c #00D300",
"/@	c #10C302",
"(@	c #279F21",
"_@	c #365D32",
":@	c #272727",
"<@	c #374C34",
"[@	c #327D2D",
"}@	c #31942A",
"|@	c #289F28",
"1@	c #232323",
"2@	c #636363",
"3@	c #5C5C5C",
"4@	c #575657",
"5@	c #585858",
"6@	c #575756",
"7@	c #4B4B4B",
"8@	c #1E1E1E",
"9@	c #1F1F1F",
"0@	c #1C1C1C",
"a@	c #1D1D1D",
"b@	c #1A1A1A",
"c@	c #151515",
"                                                          ",
". . . . . . . . . . . . . . . . . . . . . . . . . . . . . ",
"+ + + + + + + + + + + + + + + + + + + + + + + + + + + + + ",
"@ @ @ @ @ @ @ @ @ @ @ @ @ @ @ @ @ @ @ @ @ @ @ @ @ @ @ @ @ ",
"# # # # # # # # # # # # # # # # # # # # # # # # # # # # # ",
"$ $ $ $ $ $ $ $ $ $ $ # % & * & % # $ $ $ $ $ $ $ $ $ $ $ ",
"= = = = = = = = = - ;   * $ $ = > , ; - = = = = = = = = = ",
"' ' ' ' ' ' ' ) ! ~ { ] ^ / ( _ : < [ } | ) ' ' ' ' ' ' ' ",
"1 1 1 1 1 1 2 3 4 5 6 7 8 9 0 9 a 7 b c d e 2 1 1 1 1 1 1 ",
"f f f f f 2 g . h i j k l m n m l k j o p q r 2 f f f f f ",
"% % % % s ! { t u v w x y z A z y x B v u C D E s % % % % ",
") ) ) ) F G H I J K L M N O P Q N M L K J R S # F ) ) ) ) ",
"s s s & > T U V W X Y Z `  .  ..+.Z Y X @.V #.$.%.s - - - ",
"& & & %.&.*.=.-.;.>.,.'.).!.  ~.{.'.,.>.;.-.=.].$ ^.s s s ",
"2 2 s /.(._.:.<.[.}.|.1.2.3.  4.2.5.6.}.7.<.:._.8./.s 2 2 ",
"9.9.9.9.0.a.b.c.d.e.f.g.h.i.  j.k.l.f.m.d.c.b.a.n.o.9.9.9.",
"o.o.2 - p.q.r.s.t.u.v.w.x.y.  z.A.w.B.u.C.s.r.q.D.s 2 o.o.",
"E.E.o.% F.G.H.I.J.                      K.L.H.G.M.) o.N.N.",
"* * 2 % O.P.Q.R.S.T.U.V.W.X.  Y.W.V.Z.`. +.+++P.@+% 2 * * ",
"> > o.1 #+$+%+&+*+=+-+;+>+,+  '+>+)+!+=+~+&+%+$+{+f o.> > ",
"%.%.> # ]+^+/+(+_+:+<+[+}+|+  1+2+[+<+3+_+(+/+^+4+# * ^.^.",
"/././.= 1 5+6+7+8+9+0+a+b+c+  d+b+e+f+9+8+7+g+h+1 = /././.",
"i+i+i+& &.j+k+l+m+n+o+p+q+r+  s+t+u+v+w+x+y+z+A+&.s ~ ~ ~ ",
"} } } } B+' C+D+E+F+G+H+I+J+K+L+I+H+M+N+O+D+P+' B+} } } } ",
"Q+Q+Q+Q+* R+S+T+U+F+V+W+X+Y+Z+Y+`+ @V+N+U+.@) R+E.F F F F ",
"+@+@+@+@+@) [ @@#@$@%@&@*@=@-@=@*@&@%@;@>@@@[ ) +@+@+@+@+@",
"g g g g g g ) ,@@ '@)@!@~@{@]@^@~@/@(@_@@ ,@% :@:@:@:@:@:@",
"r r r r r r r E.,@,@+ <@[@}@|@}@[@<@+ ,@,@E.; ; ; ; ; ; ; ",
"1@1@1@1@1@1@1@1@1@' ,@2@3@4@5@6@3@2@,@' 1@1@1@1@1@1@1@1@1@",
"! ! ! ! ! ! ! ! ! ! ! 1@) B+7@B+) 1@! ! ! ! ! ! ! ! ! ! ! ",
"8@8@8@8@8@8@8@8@8@8@8@8@8@8@8@9@9@9@9@9@9@9@9@9@9@9@9@9@9@",
"0@0@0@0@0@0@0@0@0@0@0@0@0@0@0@0@a@a@a@a@a@a@a@a@a@a@a@a@a@",
"b@b@b@b@b@b@b@b@b@b@b@b@b@b@b@b@b@b@b@b@b@b@b@b@b@b@b@b@b@",
"e e e e e e e e e e e e e e e e 3 3 3 3 3 3 3 3 3 3 3 3 3 ",
"c@c@c@c@c@c@c@c@c@c@c@c@c@c@c@c@c@c@c@c@c@c@c@c@c@c@c@c@c@"};
