/* XPM */
static char * menu_active_xpm[] = {
"29 35 376 2",
"  	c #131313",
". 	c #595959",
"+ 	c #444444",
"@ 	c #434343",
"# 	c #424242",
"$ 	c #414141",
"% 	c #3C3C3C",
"& 	c #383838",
"* 	c #323232",
"= 	c #404040",
"- 	c #3A3A3A",
"; 	c #252525",
"> 	c #313131",
", 	c #131213",
"' 	c #3F3F3F",
") 	c #3B3B3B",
"! 	c #212121",
"~ 	c #2D2D2D",
"{ 	c #555555",
"] 	c #6E6B7C",
"^ 	c #877BAC",
"/ 	c #9785C0",
"( 	c #9F8BC9",
"_ 	c #9684C0",
": 	c #8679AB",
"< 	c #6B6879",
"[ 	c #515151",
"} 	c #2B2B2B",
"| 	c #222222",
"1 	c #3E3E3E",
"2 	c #373737",
"3 	c #181818",
"4 	c #4E4E4F",
"5 	c #6D6890",
"6 	c #8571DC",
"7 	c #9F82FE",
"8 	c #AE90FF",
"9 	c #B898FF",
"0 	c #BB9BFF",
"a 	c #8370DC",
"b 	c #68638E",
"c 	c #4A4A4A",
"d 	c #171717",
"e 	c #3D3D3D",
"f 	c #262626",
"g 	c #655BAE",
"h 	c #735BEC",
"i 	c #866BFE",
"j 	c #967AFF",
"k 	c #A486FF",
"l 	c #AD8EFF",
"m 	c #B091FF",
"n 	c #735BEE",
"o 	c #6258AE",
"p 	c #545354",
"q 	c #242424",
"r 	c #393939",
"s 	c #555556",
"t 	c #564CA7",
"u 	c #5944D2",
"v 	c #6953E7",
"w 	c #7A61FB",
"x 	c #8A6FFF",
"y 	c #977BFF",
"z 	c #A083FF",
"A 	c #A385FF",
"B 	c #7A61FC",
"C 	c #6953E9",
"D 	c #5944D5",
"E 	c #5349A8",
"F 	c #505050",
"G 	c #202020",
"H 	c #2A2A2A",
"I 	c #474747",
"J 	c #4E4991",
"K 	c #4130BC",
"L 	c #4F3CCE",
"M 	c #5E49E1",
"N 	c #6E56F5",
"O 	c #7D63FF",
"P 	c #896EFF",
"Q 	c #9175FF",
"R 	c #9478FF",
"S 	c #6E57F7",
"T 	c #5F49E4",
"U 	c #4F3CD1",
"V 	c #4130BF",
"W 	c #4B4592",
"X 	c #52506D",
"Y 	c #2F20AB",
"Z 	c #3929B9",
"` 	c #4533C9",
" .	c #533FDB",
"..	c #614BED",
"+.	c #6E56FC",
"@.	c #7960FF",
"#.	c #8067FF",
"$.	c #8369FF",
"%.	c #6E57FD",
"&.	c #624BEF",
"*.	c #543FDE",
"=.	c #4533CD",
"-.	c #3929BD",
";.	c #2F20AF",
">.	c #4E4C6B",
",.	c #2F2F2F",
"'.	c #454545",
").	c #3C3790",
"!.	c #281AA9",
"~.	c #3122B7",
"{.	c #3B2BC6",
"].	c #4835D5",
"^.	c #543FE5",
"/.	c #5F49F4",
"(.	c #6952FE",
"_.	c #6F57FF",
":.	c #7159FF",
"<.	c #6049F6",
"[.	c #543FE7",
"}.	c #4835D8",
"|.	c #3C2BC9",
"1.	c #3122BB",
"2.	c #281AAE",
"3.	c #393493",
"4.	c #303030",
"5.	c #2E2E2E",
"6.	c #4C4B5A",
"7.	c #2012A0",
"8.	c #2215A9",
"9.	c #291BB5",
"0.	c #3323C2",
"a.	c #3C2BCF",
"b.	c #4633DD",
"c.	c #513CEA",
"d.	c #5B44F5",
"e.	c #624AFC",
"f.	c #644CFE",
"g.	c #614AFD",
"h.	c #5B45F7",
"i.	c #523CEC",
"j.	c #4734E0",
"k.	c #3C2BD3",
"l.	c #3323C6",
"m.	c #2A1BB9",
"n.	c #2215AE",
"o.	c #2011A5",
"p.	c #494858",
"q.	c #363636",
"r.	c #444270",
"s.	c #170CA0",
"t.	c #1C10A9",
"u.	c #2315B4",
"v.	c #2A1BBF",
"w.	c #3222CB",
"x.	c #3E2DD8",
"y.	c #4B37E5",
"z.	c #553FEF",
"A.	c #5D47F7",
"B.	c #5640F0",
"C.	c #4C37E7",
"D.	c #3F2DDB",
"E.	c #3323CF",
"F.	c #2A1BC3",
"G.	c #2315B8",
"H.	c #1D10AE",
"I.	c #180CA5",
"J.	c #423F71",
"K.	c #353535",
"L.	c #3E3B7C",
"M.	c #1409A1",
"N.	c #180CAA",
"O.	c #1D10B3",
"P.	c #2416BE",
"Q.	c #3122CC",
"R.	c #3F2DD9",
"S.	c #4A37E3",
"T.	c #533EEB",
"U.	c #5843F1",
"V.	c #5A44F2",
"W.	c #533EED",
"X.	c #4A37E5",
"Y.	c #3F2DDC",
"Z.	c #3222CF",
"`.	c #2517C3",
" +	c #1D10B9",
".+	c #180CB0",
"++	c #1509A7",
"@+	c #3C397E",
"#+	c #333333",
"$+	c #37367E",
"%+	c #1107A3",
"&+	c #1509AB",
"*+	c #1A0DB5",
"=+	c #2719C2",
"-+	c #3524CF",
";+	c #4230DB",
">+	c #4D39E4",
",+	c #5540EB",
"'+	c #5B45F0",
")+	c #5D47F1",
"!+	c #5641ED",
"~+	c #4D39E6",
"{+	c #4330DE",
"]+	c #3625D3",
"^+	c #2819C7",
"/+	c #1A0DBA",
"(+	c #1509B2",
"_+	c #1207AA",
":+	c #363482",
"<+	c #343434",
"[+	c #3B367D",
"}+	c #0F05A6",
"|+	c #1207AE",
"1+	c #1D10BA",
"2+	c #2C1DC8",
"3+	c #3B29D4",
"4+	c #4734DE",
"5+	c #533EE7",
"6+	c #5B45ED",
"7+	c #614AF1",
"8+	c #634CF2",
"9+	c #5B45EE",
"0+	c #533EE9",
"a+	c #4835E1",
"b+	c #3B2AD8",
"c+	c #2D1DCC",
"d+	c #1E11C0",
"e+	c #1207B4",
"f+	c #0F05AC",
"g+	c #3A3581",
"h+	c #3C3971",
"i+	c #0D03A9",
"j+	c #1307B2",
"k+	c #2214C0",
"l+	c #3122CD",
"m+	c #402ED9",
"n+	c #4E3AE3",
"o+	c #5A44EA",
"p+	c #634DF1",
"q+	c #6952F4",
"r+	c #6B54F5",
"s+	c #6952F5",
"t+	c #5A45ED",
"u+	c #4E3AE5",
"v+	c #412FDC",
"w+	c #3322D2",
"x+	c #2415C6",
"y+	c #1408B9",
"z+	c #0D03B0",
"A+	c #3B3874",
"B+	c #403D52",
"C+	c #1705AD",
"D+	c #160AB7",
"E+	c #2718C6",
"F+	c #3726D3",
"G+	c #5440E7",
"H+	c #6C55F3",
"I+	c #745CF7",
"J+	c #775EF9",
"K+	c #6D55F4",
"L+	c #5540E9",
"M+	c #4734E1",
"N+	c #3826D7",
"O+	c #2819CB",
"P+	c #170ABE",
"Q+	c #1705B4",
"R+	c #3F3D52",
"S+	c #2D279A",
"T+	c #1A0DBD",
"U+	c #2A1BCA",
"V+	c #3A29D7",
"W+	c #4A37E2",
"X+	c #6851F0",
"Y+	c #755DF6",
"Z+	c #7F66FB",
"`+	c #846AFD",
" @	c #8066FB",
".@	c #6952F1",
"+@	c #5B45EA",
"@@	c #4B37E3",
"#@	c #3C2ADB",
"$@	c #2B1CD0",
"%@	c #1B0DC3",
"&@	c #2D26A0",
"*@	c #2C2C2C",
"=@	c #3C3866",
"-@	c #200EC0",
";@	c #2C1CCD",
">@	c #3C2AD9",
",@	c #4C38E3",
"'@	c #5D47EA",
")@	c #6C55F1",
"!@	c #7B62F8",
"~@	c #8A6FFE",
"{@	c #9276FF",
"]@	c #7C63F8",
"^@	c #6D55F1",
"/@	c #5E48EB",
"(@	c #4D39E3",
"_@	c #3D2BDC",
":@	c #2D1DD3",
"<@	c #210FC8",
"[@	c #3C3768",
"}@	c #484848",
"|@	c #362E98",
"1@	c #2C1CD0",
"2@	c #4C38E2",
"3@	c #5D47E9",
"4@	c #8B70FE",
"5@	c #9579FF",
"6@	c #8C71FE",
"7@	c #7D64F8",
"8@	c #6D56F1",
"9@	c #5E48EA",
"0@	c #3D2BDB",
"a@	c #2D1DD4",
"b@	c #362E9D",
"c@	c #292929",
"d@	c #4E4E4E",
"e@	c #392CAE",
"f@	c #3928D9",
"g@	c #4936E1",
"h@	c #5943E7",
"i@	c #6751EE",
"j@	c #755DF4",
"k@	c #8168FA",
"l@	c #876CFC",
"m@	c #8268FA",
"n@	c #765EF5",
"o@	c #6851EF",
"p@	c #5A44E8",
"q@	c #4A36E1",
"r@	c #3A29DA",
"s@	c #392CB0",
"t@	c #3B3B3C",
"u@	c #282828",
"v@	c #3B3A3B",
"w@	c #3F32A6",
"x@	c #4631DD",
"y@	c #523DE4",
"z@	c #5F49EA",
"A@	c #6A53F0",
"B@	c #735BF3",
"C@	c #6B54F0",
"D@	c #604AEA",
"E@	c #533EE4",
"F@	c #4731DE",
"G@	c #4032A6",
"H@	c #565656",
"I@	c #3F3672",
"J@	c #4A39C0",
"K@	c #5840E5",
"L@	c #5E48E9",
"M@	c #644EEC",
"N@	c #6750ED",
"O@	c #654EEC",
"P@	c #4B39C0",
"Q@	c #272727",
"R@	c #3E3657",
"S@	c #473A8F",
"T@	c #503EA7",
"U@	c #4C3FAE",
"V@	c #473A90",
"W@	c #232323",
"X@	c #636363",
"Y@	c #5C5C5C",
"Z@	c #575657",
"`@	c #585858",
" #	c #575756",
".#	c #4B4B4B",
"+#	c #1E1E1E",
"@#	c #1F1F1F",
"##	c #1C1C1C",
"$#	c #1D1D1D",
"%#	c #1A1A1A",
"&#	c #151515",
"                                                          ",
". . . . . . . . . . . . . . . . . . . . . . . . . . . . . ",
"+ + + + + + + + + + + + + + + + + + + + + + + + + + + + + ",
"@ @ @ @ @ @ @ @ @ @ @ @ @ @ @ @ @ @ @ @ @ @ @ @ @ @ @ @ @ ",
"# # # # # # # # # # # # # # # # # # # # # # # # # # # # # ",
"$ $ $ $ $ $ $ $ $ $ $ # % & * & % # $ $ $ $ $ $ $ $ $ $ $ ",
"= = = = = = = = = - ;   * $ $ = > , ; - = = = = = = = = = ",
"' ' ' ' ' ' ' ) ! ~ { ] ^ / ( _ : < [ } | ) ' ' ' ' ' ' ' ",
"1 1 1 1 1 1 2 3 4 5 6 7 8 9 0 9 8 7 a b c d 2 1 1 1 1 1 1 ",
"e e e e e 2 f . g h i j k l m l k j i n o p q 2 e e e e e ",
"% % % % r ! s t u v w x y z A z y x B C D E F G r % % % % ",
") ) ) ) H I J K L M N O P Q R Q P O S T U V W # H ) ) ) ) ",
"r r r & > X Y Z `  ...+.@.#.$.#.@.%.&.*.=.-.;.>.,.r - - - ",
"& & & ,.'.).!.~.{.].^./.(._.:._.(.<.[.}.|.1.2.3.$ 4.r r r ",
"2 2 r 5.6.7.8.9.0.a.b.c.d.e.f.g.h.i.j.k.l.m.n.o.p.5.r 2 2 ",
"q.q.q.q.r.s.t.u.v.w.x.y.z.d.A.d.B.C.D.E.F.G.H.I.J.K.q.q.q.",
"K.K.2 - L.M.N.O.P.Q.R.S.T.U.V.U.W.X.Y.Z.`. +.+++@+r 2 K.K.",
"#+#+K.% $+%+&+*+=+-+;+>+,+'+)+'+!+~+{+]+^+/+(+_+:+) K.<+<+",
"* * 2 % [+}+|+1+2+3+4+5+6+7+8+7+9+0+a+b+c+d+e+f+g+% 2 * * ",
"> > K.1 h+i+j+k+l+m+n+o+p+q+r+s+p+t+u+v+w+x+y+z+A+e K.> > ",
",.,.> # B+C+D+E+F+b.G+&.H+I+J+I+K+&.L+M+N+O+P+Q+R+# * 4.4.",
"5.5.5.= 1 S+T+U+V+W+o+X+Y+Z+`+ @Y+.@+@@@#@$@%@&@1 = 5.5.5.",
"*@*@*@& '.=@-@;@>@,@'@)@!@~@{@~@]@^@/@(@_@:@<@[@'.r ~ ~ ~ ",
"} } } } }@' |@1@#@2@3@)@]@4@5@6@7@8@9@(@0@a@b@' }@} } } } ",
"c@c@c@c@* d@) e@f@g@h@i@j@k@l@m@n@o@p@q@r@s@t@d@#+H H H H ",
"u@u@u@u@u@) [ v@w@x@y@z@A@B@n@B@C@D@E@F@G@v@[ ) u@u@u@u@u@",
"f f f f f f ) H@@ I@J@K@L@M@N@O@L@K@P@I@@ H@% Q@Q@Q@Q@Q@Q@",
"q q q q q q q #+H@H@+ R@S@T@U@T@V@R@+ H@H@#+; ; ; ; ; ; ; ",
"W@W@W@W@W@W@W@W@W@' H@X@Y@Z@`@ #Y@X@H@' W@W@W@W@W@W@W@W@W@",
"! ! ! ! ! ! ! ! ! ! ! W@) }@.#}@) W@! ! ! ! ! ! ! ! ! ! ! ",
"+#+#+#+#+#+#+#+#+#+#+#+#+#+#+#@#@#@#@#@#@#@#@#@#@#@#@#@#@#",
"################################$#$#$#$#$#$#$#$#$#$#$#$#$#",
"%#%#%#%#%#%#%#%#%#%#%#%#%#%#%#%#%#%#%#%#%#%#%#%#%#%#%#%#%#",
"d d d d d d d d d d d d d d d d 3 3 3 3 3 3 3 3 3 3 3 3 3 ",
"&#&#&#&#&#&#&#&#&#&#&#&#&#&#&#&#&#&#&#&#&#&#&#&#&#&#&#&#&#"};
