/* XPM */
static char * menu_prelight_xpm[] = {
"29 35 393 2",
"  	c #131313",
". 	c #595959",
"+ 	c #444444",
"@ 	c #434343",
"# 	c #424242",
"$ 	c #414141",
"% 	c #3C3C3C",
"& 	c #383838",
"* 	c #323232",
"= 	c #404040",
"- 	c #3A3A3A",
"; 	c #252525",
"> 	c #313131",
", 	c #131213",
"' 	c #3F3F3F",
") 	c #3B3B3B",
"! 	c #212121",
"~ 	c #2D2D2D",
"{ 	c #555555",
"] 	c #6E6B7C",
"^ 	c #877BAC",
"/ 	c #9785C0",
"( 	c #9F8BC9",
"_ 	c #9684C0",
": 	c #8679AB",
"< 	c #6B6879",
"[ 	c #515151",
"} 	c #2B2B2B",
"| 	c #222222",
"1 	c #3E3E3E",
"2 	c #373737",
"3 	c #181818",
"4 	c #4E4E4F",
"5 	c #6D6890",
"6 	c #8571DC",
"7 	c #9F82FE",
"8 	c #AE90FF",
"9 	c #B798FF",
"0 	c #BB9BFF",
"a 	c #8370DC",
"b 	c #68638E",
"c 	c #4A4A4A",
"d 	c #171717",
"e 	c #3D3D3D",
"f 	c #262626",
"g 	c #655BAE",
"h 	c #735BEC",
"i 	c #856BFE",
"j 	c #957AFF",
"k 	c #A286FF",
"l 	c #A98DFF",
"m 	c #AC90FF",
"n 	c #A285FF",
"o 	c #735BEE",
"p 	c #6258AE",
"q 	c #545354",
"r 	c #242424",
"s 	c #393939",
"t 	c #555556",
"u 	c #564CA7",
"v 	c #5944D2",
"w 	c #6853E7",
"x 	c #7862FB",
"y 	c #8670FF",
"z 	c #927BFF",
"A 	c #9982FF",
"B 	c #9C85FF",
"C 	c #7862FC",
"D 	c #6853EA",
"E 	c #5944D5",
"F 	c #5349A8",
"G 	c #505050",
"H 	c #202020",
"I 	c #2A2A2A",
"J 	c #474747",
"K 	c #4E4991",
"L 	c #4130BC",
"M 	c #4E3DCF",
"N 	c #5C4CE2",
"O 	c #6A5BF5",
"P 	c #7768FF",
"Q 	c #8273FF",
"R 	c #897AFF",
"S 	c #8C7CFF",
"T 	c #6A5BF7",
"U 	c #5C4CE5",
"V 	c #4E3DD2",
"W 	c #4130BF",
"X 	c #4B4592",
"Y 	c #52506D",
"Z 	c #2F20AB",
"` 	c #382ABA",
" .	c #4339CD",
"..	c #5148DF",
"+.	c #5E57EF",
"@.	c #6A64FC",
"#.	c #746EFE",
"$.	c #7B75FE",
"%.	c #7D78FE",
"&.	c #6A64FD",
"*.	c #5E57F1",
"=.	c #5149E1",
"-.	c #4439D0",
";.	c #382BBE",
">.	c #2F20AF",
",.	c #4E4C6B",
"'.	c #2F2F2F",
").	c #454545",
"!.	c #3C3790",
"~.	c #281BAA",
"{.	c #3029BA",
"].	c #3A39CB",
"^.	c #4748DB",
"/.	c #5456E9",
"(.	c #6063F5",
"_.	c #6B6EFD",
":.	c #7378FE",
"<.	c #777BFE",
"[.	c #7479FE",
"}.	c #6164F7",
"|.	c #5457EB",
"1.	c #4748DD",
"2.	c #3B39CE",
"3.	c #3029BE",
"4.	c #281BAE",
"5.	c #393493",
"6.	c #303030",
"7.	c #2E2E2E",
"8.	c #4C4B5A",
"9.	c #2012A0",
"0.	c #2219AB",
"a.	c #292ABB",
"b.	c #333ACA",
"c.	c #404AD7",
"d.	c #4E59E4",
"e.	c #5D69EF",
"f.	c #727BF8",
"g.	c #7F82FD",
"h.	c #8487FE",
"i.	c #8084FD",
"j.	c #757EF9",
"k.	c #5E69F1",
"l.	c #4E5AE6",
"m.	c #404ADA",
"n.	c #343BCD",
"o.	c #292BBF",
"p.	c #2219B0",
"q.	c #2011A5",
"r.	c #494858",
"s.	c #363636",
"t.	c #444270",
"u.	c #170CA0",
"v.	c #1C1AAD",
"w.	c #242CBB",
"x.	c #2E3CC9",
"y.	c #3C4DD5",
"z.	c #4E5EE1",
"A.	c #6977ED",
"B.	c #8186F4",
"C.	c #9196F9",
"D.	c #9EA3FA",
"E.	c #9A9EF9",
"F.	c #8086F4",
"G.	c #6B78EE",
"H.	c #4F5FE4",
"I.	c #3D4ED8",
"J.	c #2E3DCC",
"K.	c #242CC0",
"L.	c #1D1BB2",
"M.	c #180CA5",
"N.	c #423F71",
"O.	c #353535",
"P.	c #3E3B7C",
"Q.	c #140AA1",
"R.	c #181AAE",
"S.	c #1F2CBC",
"T.	c #2C3EC9",
"U.	c #3F51D7",
"V.	c #5568E3",
"W.	c #747CEB",
"X.	c #8B91F2",
"Y.	c #B4B8F8",
"Z.	c #CACCFA",
"`.	c #B8BCF9",
" +	c #8D94F3",
".+	c #757DED",
"++	c #5769E5",
"@+	c #3F52D9",
"#+	c #2D3FCD",
"$+	c #1F2EC1",
"%+	c #191BB4",
"&+	c #150AA7",
"*+	c #3C397E",
"=+	c #333333",
"-+	c #37367E",
";+	c #1108A3",
">+	c #151AB0",
",+	c #1D2DBE",
"'+	c #2E40CC",
")+	c #4253D9",
"!+	c #5A6AE5",
"~+	c #777FEC",
"{+	c #949BF3",
"]+	c #C6C8F9",
"^+	c #DFDFFB",
"/+	c #CBCDFA",
"(+	c #9FA5F5",
"_+	c #7A81ED",
":+	c #5D6FE8",
"<+	c #4455DD",
"[+	c #2F42D1",
"}+	c #1E2EC2",
"|+	c #151CB6",
"1+	c #1209AA",
"2+	c #363482",
"3+	c #343434",
"4+	c #3B367D",
"5+	c #0F06A6",
"6+	c #1218B2",
"7+	c #1F2DC1",
"8+	c #3241D1",
"9+	c #4554DD",
"0+	c #5A6AE7",
"a+	c #787FEE",
"b+	c #9297F4",
"c+	c #B7BBF9",
"d+	c #C8CAFA",
"e+	c #B5B9F9",
"f+	c #9196F4",
"g+	c #797FEF",
"h+	c #5C6CE9",
"i+	c #4655E0",
"j+	c #3342D5",
"k+	c #212EC7",
"l+	c #121AB8",
"m+	c #0F07AD",
"n+	c #3A3581",
"o+	c #3C3971",
"p+	c #0D03A9",
"q+	c #1315B5",
"r+	c #232BC6",
"s+	c #343FD5",
"t+	c #4652E0",
"u+	c #5864E9",
"v+	c #727CF0",
"w+	c #878AF5",
"x+	c #969AF8",
"y+	c #A0A4F9",
"z+	c #8689F5",
"A+	c #747DF2",
"B+	c #5965EB",
"C+	c #4753E3",
"D+	c #3640D9",
"E+	c #252DCC",
"F+	c #1417BC",
"G+	c #0D04B0",
"H+	c #3B3874",
"I+	c #403D52",
"J+	c #1705AD",
"K+	c #1611B9",
"L+	c #2629CA",
"M+	c #373CD8",
"N+	c #474EE3",
"O+	c #585FEC",
"P+	c #6970F2",
"Q+	c #7C82F7",
"R+	c #8A8AF9",
"S+	c #8E8EFB",
"T+	c #8A8AFA",
"U+	c #7E83F7",
"V+	c #6A72F3",
"W+	c #5960ED",
"X+	c #484FE6",
"Y+	c #383DDC",
"Z+	c #282ACF",
"`+	c #1713C0",
" @	c #1705B4",
".@	c #3F3D52",
"+@	c #2D279A",
"@@	c #1A0EBD",
"#@	c #2A24CD",
"$@	c #3938DB",
"%@	c #494AE5",
"&@	c #595AED",
"*@	c #6769F3",
"=@	c #7475F8",
"-@	c #7F81FB",
";@	c #8586FD",
">@	c #8081FC",
",@	c #7576F8",
"'@	c #6869F3",
")@	c #5A5BED",
"!@	c #4A4BE7",
"~@	c #3B39DE",
"{@	c #2B25D2",
"]@	c #1B0FC4",
"^@	c #2D26A0",
"/@	c #2C2C2C",
"(@	c #3C3866",
"_@	c #200EC0",
":@	c #2B1FCE",
"<@	c #3B33DC",
"[@	c #4A44E6",
"}@	c #5A54ED",
"|@	c #6863F3",
"1@	c #7670F9",
"2@	c #837BFD",
"3@	c #8A81FE",
"4@	c #837CFD",
"5@	c #7671F9",
"6@	c #6964F3",
"7@	c #5B55ED",
"8@	c #4B45E6",
"9@	c #3C34DE",
"0@	c #2C20D4",
"a@	c #210FC8",
"b@	c #3C3768",
"c@	c #484848",
"d@	c #362E98",
"e@	c #2C1CD0",
"f@	c #3C2DDB",
"g@	c #4A3EE4",
"h@	c #5A4EEB",
"i@	c #685DF2",
"j@	c #756AF8",
"k@	c #8376FE",
"l@	c #8C7EFF",
"m@	c #8477FE",
"n@	c #766BF9",
"o@	c #695EF3",
"p@	c #5B4FEC",
"q@	c #4B3FE5",
"r@	c #3D2EDC",
"s@	c #2D1DD4",
"t@	c #362E9D",
"u@	c #292929",
"v@	c #4E4E4E",
"w@	c #392CAE",
"x@	c #3928D9",
"y@	c #4837E1",
"z@	c #5746E8",
"A@	c #6454EF",
"B@	c #7161F5",
"C@	c #7C6BFA",
"D@	c #816FFC",
"E@	c #7161F6",
"F@	c #6555F0",
"G@	c #5847E9",
"H@	c #4938E1",
"I@	c #3A29DA",
"J@	c #392CB0",
"K@	c #3B3B3C",
"L@	c #282828",
"M@	c #3B3A3B",
"N@	c #3F32A6",
"O@	c #4631DD",
"P@	c #513DE4",
"Q@	c #5E4AEA",
"R@	c #6955F0",
"S@	c #705CF4",
"T@	c #735FF5",
"U@	c #715DF4",
"V@	c #5F4BEB",
"W@	c #523EE4",
"X@	c #4731DE",
"Y@	c #4032A6",
"Z@	c #565656",
"`@	c #3F3672",
" #	c #4A39C0",
".#	c #5840E5",
"+#	c #5E48E9",
"@#	c #644EEC",
"##	c #6650ED",
"$#	c #4B39C0",
"%#	c #272727",
"&#	c #3E3657",
"*#	c #473A8F",
"=#	c #503EA7",
"-#	c #4C3FAE",
";#	c #473A90",
">#	c #232323",
",#	c #636363",
"'#	c #5C5C5C",
")#	c #575657",
"!#	c #585858",
"~#	c #575756",
"{#	c #4B4B4B",
"]#	c #1E1E1E",
"^#	c #1F1F1F",
"/#	c #1C1C1C",
"(#	c #1D1D1D",
"_#	c #1A1A1A",
":#	c #151515",
"                                                          ",
". . . . . . . . . . . . . . . . . . . . . . . . . . . . . ",
"+ + + + + + + + + + + + + + + + + + + + + + + + + + + + + ",
"@ @ @ @ @ @ @ @ @ @ @ @ @ @ @ @ @ @ @ @ @ @ @ @ @ @ @ @ @ ",
"# # # # # # # # # # # # # # # # # # # # # # # # # # # # # ",
"$ $ $ $ $ $ $ $ $ $ $ # % & * & % # $ $ $ $ $ $ $ $ $ $ $ ",
"= = = = = = = = = - ;   * $ $ = > , ; - = = = = = = = = = ",
"' ' ' ' ' ' ' ) ! ~ { ] ^ / ( _ : < [ } | ) ' ' ' ' ' ' ' ",
"1 1 1 1 1 1 2 3 4 5 6 7 8 9 0 9 8 7 a b c d 2 1 1 1 1 1 1 ",
"e e e e e 2 f . g h i j k l m l n j i o p q r 2 e e e e e ",
"% % % % s ! t u v w x y z A B A z y C D E F G H s % % % % ",
") ) ) ) I J K L M N O P Q R S R Q P T U V W X # I ) ) ) ) ",
"s s s & > Y Z `  ...+.@.#.$.%.$.#.&.*.=.-.;.>.,.'.s - - - ",
"& & & '.).!.~.{.].^./.(._.:.<.[._.}.|.1.2.3.4.5.$ 6.s s s ",
"2 2 s 7.8.9.0.a.b.c.d.e.f.g.h.i.j.k.l.m.n.o.p.q.r.7.s 2 2 ",
"s.s.s.s.t.u.v.w.x.y.z.A.B.C.D.E.F.G.H.I.J.K.L.M.N.O.s.s.s.",
"O.O.2 - P.Q.R.S.T.U.V.W.X.Y.Z.`. +.+++@+#+$+%+&+*+s 2 O.O.",
"=+=+O.% -+;+>+,+'+)+!+~+{+]+^+/+(+_+:+<+[+}+|+1+2+) O.3+3+",
"* * 2 % 4+5+6+7+8+9+0+a+b+c+d+e+f+g+h+i+j+k+l+m+n+% 2 * * ",
"> > O.1 o+p+q+r+s+t+u+v+w+x+y+x+z+A+B+C+D+E+F+G+H+e O.> > ",
"'.'.> # I+J+K+L+M+N+O+P+Q+R+S+T+U+V+W+X+Y+Z+`+ @.@# * 6.6.",
"7.7.7.= 1 +@@@#@$@%@&@*@=@-@;@>@,@'@)@!@~@{@]@^@1 = 7.7.7.",
"/@/@/@& ).(@_@:@<@[@}@|@1@2@3@4@5@6@7@8@9@0@a@b@).s ~ ~ ~ ",
"} } } } c@' d@e@f@g@h@i@j@k@l@m@n@o@p@q@r@s@t@' c@} } } } ",
"u@u@u@u@* v@) w@x@y@z@A@B@C@D@C@E@F@G@H@I@J@K@v@=+I I I I ",
"L@L@L@L@L@) [ M@N@O@P@Q@R@S@T@U@R@V@W@X@Y@M@[ ) L@L@L@L@L@",
"f f f f f f ) Z@@ `@ #.#+#@###@#+#.#$#`@@ Z@% %#%#%#%#%#%#",
"r r r r r r r =+Z@Z@+ &#*#=#-#=#;#&#+ Z@Z@=+; ; ; ; ; ; ; ",
">#>#>#>#>#>#>#>#>#' Z@,#'#)#!#~#'#,#Z@' >#>#>#>#>#>#>#>#>#",
"! ! ! ! ! ! ! ! ! ! ! >#) c@{#c@) >#! ! ! ! ! ! ! ! ! ! ! ",
"]#]#]#]#]#]#]#]#]#]#]#]#]#]#]#^#^#^#^#^#^#^#^#^#^#^#^#^#^#",
"/#/#/#/#/#/#/#/#/#/#/#/#/#/#/#/#(#(#(#(#(#(#(#(#(#(#(#(#(#",
"_#_#_#_#_#_#_#_#_#_#_#_#_#_#_#_#_#_#_#_#_#_#_#_#_#_#_#_#_#",
"d d d d d d d d d d d d d d d d 3 3 3 3 3 3 3 3 3 3 3 3 3 ",
":#:#:#:#:#:#:#:#:#:#:#:#:#:#:#:#:#:#:#:#:#:#:#:#:#:#:#:#:#"};
