/* XPM */
static char * menu_pressed_xpm[] = {
"29 35 377 2",
"  	c #131313",
". 	c #595959",
"+ 	c #444444",
"@ 	c #434343",
"# 	c #424242",
"$ 	c #414141",
"% 	c #3C3C3C",
"& 	c #383838",
"* 	c #323232",
"= 	c #404040",
"- 	c #3A3A3A",
"; 	c #252525",
"> 	c #090909",
", 	c #0D0D0D",
"' 	c #3F3F3F",
") 	c #3B3B3B",
"! 	c #212121",
"~ 	c #141414",
"{ 	c #1C1C1C",
"] 	c #2B2B2B",
"^ 	c #2E2E2E",
"/ 	c #2C2C2C",
"( 	c #222222",
"_ 	c #3E3E3E",
": 	c #373737",
"< 	c #111111",
"[ 	c #161616",
"} 	c #282828",
"| 	c #4D4674",
"1 	c #7C68C0",
"2 	c #9E83E6",
"3 	c #B596FC",
"4 	c #BB9BFF",
"5 	c #4D4574",
"6 	c #3D3D3D",
"7 	c #181818",
"8 	c #41404E",
"9 	c #6455BD",
"0 	c #856BFD",
"a 	c #957AFF",
"b 	c #A286FF",
"c 	c #A98DFF",
"d 	c #AC90FF",
"e 	c #A285FF",
"f 	c #856BFE",
"g 	c #6455BF",
"h 	c #413F4F",
"i 	c #393939",
"j 	c #292929",
"k 	c #4B4964",
"l 	c #5948C3",
"m 	c #6853E7",
"n 	c #7862FB",
"o 	c #8670FF",
"p 	c #927BFF",
"q 	c #9982FF",
"r 	c #9C85FF",
"s 	c #7862FC",
"t 	c #6853EA",
"u 	c #5948C5",
"v 	c #4B4965",
"w 	c #2A2A2A",
"x 	c #504F57",
"y 	c #483CB0",
"z 	c #4E3DCF",
"A 	c #5C4CE2",
"B 	c #6A5BF5",
"C 	c #7768FF",
"D 	c #8273FF",
"E 	c #897AFF",
"F 	c #8C7CFF",
"G 	c #6A5BF7",
"H 	c #5C4CE5",
"I 	c #4E3DD2",
"J 	c #483CB3",
"K 	c #505058",
"L 	c #4D4D4D",
"M 	c #4B4793",
"N 	c #382ABA",
"O 	c #4339CD",
"P 	c #5148DF",
"Q 	c #5E57EF",
"R 	c #6A64FC",
"S 	c #746EFE",
"T 	c #7B75FE",
"U 	c #7D78FE",
"V 	c #6A64FD",
"W 	c #5E57F1",
"X 	c #5149E1",
"Y 	c #4439D0",
"Z 	c #382BBE",
"` 	c #4B4695",
" .	c #2F2F2F",
"..	c #5C5C6E",
"+.	c #281BAA",
"@.	c #3029BA",
"#.	c #3A39CB",
"$.	c #4748DB",
"%.	c #5456E9",
"&.	c #6063F5",
"*.	c #6B6EFD",
"=.	c #7378FE",
"-.	c #777BFE",
";.	c #7479FE",
">.	c #6164F7",
",.	c #5457EB",
"'.	c #4748DD",
").	c #3B39CE",
"!.	c #3029BE",
"~.	c #281CAE",
"{.	c #5C5C6F",
"].	c #303030",
"^.	c #565656",
"/.	c #52508A",
"(.	c #2219AB",
"_.	c #292ABB",
":.	c #333ACA",
"<.	c #404AD7",
"[.	c #4E59E4",
"}.	c #5D69EF",
"|.	c #727BF8",
"1.	c #7F82FD",
"2.	c #8487FE",
"3.	c #8084FD",
"4.	c #757EF9",
"5.	c #5E69F1",
"6.	c #4E5AE6",
"7.	c #404ADA",
"8.	c #343BCD",
"9.	c #292BBF",
"0.	c #2219B0",
"a.	c #52508E",
"b.	c #363636",
"c.	c #666566",
"d.	c #3D3B99",
"e.	c #1C1AAD",
"f.	c #242CBB",
"g.	c #2E3CC9",
"h.	c #3C4DD5",
"i.	c #4E5EE1",
"j.	c #6977ED",
"k.	c #8186F4",
"l.	c #9196F9",
"m.	c #9EA3FA",
"n.	c #9A9EF9",
"o.	c #8086F4",
"p.	c #6B78EE",
"q.	c #4F5FE4",
"r.	c #3D4ED8",
"s.	c #2E3DCC",
"t.	c #242CC0",
"u.	c #1D1BB2",
"v.	c #3D3B9D",
"w.	c #656565",
"x.	c #353535",
"y.	c #464646",
"z.	c #6F6F6F",
"A.	c #1E18A0",
"B.	c #181AAE",
"C.	c #1F2CBC",
"D.	c #2C3EC9",
"E.	c #3F51D7",
"F.	c #5568E3",
"G.	c #747CEB",
"H.	c #8B91F2",
"I.	c #B4B8F8",
"J.	c #CACCFA",
"K.	c #B8BCF9",
"L.	c #8D94F3",
"M.	c #757DED",
"N.	c #5769E5",
"O.	c #3F52D9",
"P.	c #2D3FCD",
"Q.	c #1F2EC1",
"R.	c #191BB4",
"S.	c #1F19A6",
"T.	c #333333",
"U.	c #4C4C4C",
"V.	c #767676",
"W.	c #1108A3",
"X.	c #151AB0",
"Y.	c #1D2DBE",
"Z.	c #2E40CC",
"`.	c #4253D9",
" +	c #5A6AE5",
".+	c #777FEC",
"++	c #949BF3",
"@+	c #C6C8F9",
"#+	c #DFDFFB",
"$+	c #CBCDFA",
"%+	c #9FA5F5",
"&+	c #7A81ED",
"*+	c #5D6FE8",
"=+	c #4455DD",
"-+	c #2F42D1",
";+	c #1E2EC2",
">+	c #151CB6",
",+	c #1209AA",
"'+	c #343434",
")+	c #505050",
"!+	c #797979",
"~+	c #1E19A5",
"{+	c #1218B2",
"]+	c #1F2DC1",
"^+	c #3241D1",
"/+	c #4554DD",
"(+	c #5A6AE7",
"_+	c #787FEE",
":+	c #9297F4",
"<+	c #B7BBF9",
"[+	c #C8CAFA",
"}+	c #B5B9F9",
"|+	c #9196F4",
"1+	c #797FEF",
"2+	c #5C6CE9",
"3+	c #4655E0",
"4+	c #3342D5",
"5+	c #212EC7",
"6+	c #121AB8",
"7+	c #1E1AAC",
"8+	c #313131",
"9+	c #4D4C4D",
"0+	c #7A7A7A",
"a+	c #4543A3",
"b+	c #1315B5",
"c+	c #232BC6",
"d+	c #343FD5",
"e+	c #4652E0",
"f+	c #5864E9",
"g+	c #727CF0",
"h+	c #878AF5",
"i+	c #969AF8",
"j+	c #A0A4F9",
"k+	c #8689F5",
"l+	c #747DF2",
"m+	c #5965EB",
"n+	c #4753E3",
"o+	c #3640D9",
"p+	c #252DCC",
"q+	c #1417BC",
"r+	c #4543A9",
"s+	c #787878",
"t+	c #65649D",
"u+	c #1611B9",
"v+	c #2629CA",
"w+	c #373CD8",
"x+	c #474EE3",
"y+	c #585FEC",
"z+	c #6970F2",
"A+	c #7C82F7",
"B+	c #8A8AF9",
"C+	c #8E8EFB",
"D+	c #8A8AFA",
"E+	c #7E83F7",
"F+	c #6A72F3",
"G+	c #5960ED",
"H+	c #484FE6",
"I+	c #383DDC",
"J+	c #282ACF",
"K+	c #1713C0",
"L+	c #6564A1",
"M+	c #6C6C6C",
"N+	c #818191",
"O+	c #1B11BD",
"P+	c #2A24CD",
"Q+	c #3938DB",
"R+	c #494AE5",
"S+	c #595AED",
"T+	c #6769F3",
"U+	c #7475F8",
"V+	c #7F81FB",
"W+	c #8586FD",
"X+	c #8081FC",
"Y+	c #7576F8",
"Z+	c #6869F3",
"`+	c #5A5BED",
" @	c #4A4BE7",
".@	c #3B39DE",
"+@	c #2B25D2",
"@@	c #1C11C4",
"#@	c #818192",
"$@	c #575757",
"%@	c #868686",
"&@	c #6665B0",
"*@	c #2B1FCE",
"=@	c #3B33DC",
"-@	c #4A44E6",
";@	c #5A54ED",
">@	c #6863F3",
",@	c #7670F9",
"'@	c #837BFD",
")@	c #8A81FE",
"!@	c #837CFD",
"~@	c #7671F9",
"{@	c #6964F3",
"]@	c #5B55ED",
"^@	c #4B45E6",
"/@	c #3C34DE",
"(@	c #2C20D4",
"_@	c #6765B5",
":@	c #2D2D2D",
"<@	c #484848",
"[@	c #727272",
"}@	c #8E8D93",
"|@	c #514BC8",
"1@	c #3C2DDB",
"2@	c #4A3EE4",
"3@	c #5A4EEB",
"4@	c #685DF2",
"5@	c #756AF8",
"6@	c #8376FE",
"7@	c #8C7EFF",
"8@	c #8477FE",
"9@	c #766BF9",
"0@	c #695EF3",
"a@	c #5B4FEC",
"b@	c #4B3FE5",
"c@	c #3D2EDC",
"d@	c #524CCB",
"e@	c #525252",
"f@	c #828282",
"g@	c #8E8E9F",
"h@	c #5951D0",
"i@	c #4837E1",
"j@	c #5746E8",
"k@	c #6454EF",
"l@	c #7161F5",
"m@	c #7C6BFA",
"n@	c #816FFC",
"o@	c #7161F6",
"p@	c #6555F0",
"q@	c #5847E9",
"r@	c #4938E1",
"s@	c #5952D0",
"t@	c #5C5C5C",
"u@	c #96959B",
"v@	c #7772C6",
"w@	c #523EE4",
"x@	c #5E4AEA",
"y@	c #6955F0",
"z@	c #705CF4",
"A@	c #735FF5",
"B@	c #715DF4",
"C@	c #5F4BEB",
"D@	c #533FE4",
"E@	c #7773C7",
"F@	c #262626",
"G@	c #5A5A5B",
"H@	c #7E7F7E",
"I@	c #969696",
"J@	c #9695AA",
"K@	c #837DC8",
"L@	c #7366DC",
"M@	c #6752EB",
"N@	c #6650ED",
"O@	c #6753EB",
"P@	c #7366DD",
"Q@	c #7E7F7F",
"R@	c #5A5A5A",
"S@	c #272727",
"T@	c #242424",
"U@	c #858585",
"V@	c #9C9C9C",
"W@	c #9E9E9E",
"X@	c #9F9F9F",
"Y@	c #232323",
"Z@	c #676767",
"`@	c #747474",
" #	c #7C7C7C",
".#	c #7D7D7D",
"+#	c #4B4B4B",
"@#	c #1E1E1E",
"##	c #1F1F1F",
"$#	c #1D1D1D",
"%#	c #1A1A1A",
"&#	c #171717",
"*#	c #151515",
"                                                          ",
". . . . . . . . . . . . . . . . . . . . . . . . . . . . . ",
"+ + + + + + + + + + + + + + + + + + + + + + + + + + + + + ",
"@ @ @ @ @ @ @ @ @ @ @ @ @ @ @ @ @ @ @ @ @ @ @ @ @ @ @ @ @ ",
"# # # # # # # # # # # # # # # # # # # # # # # # # # # # # ",
"$ $ $ $ $ $ $ $ $ $ $ # % & * & % # $ $ $ $ $ $ $ $ $ $ $ ",
"= = = = = = = = = - ; > > , , , > > ; - = = = = = = = = = ",
"' ' ' ' ' ' ' ) ! > ~ { ; ] ^ / ; { ~ > ( ) ' ' ' ' ' ' ' ",
"_ _ _ _ _ _ : < [ } | 1 2 3 4 3 2 1 5 } [ < : _ _ _ _ _ _ ",
"6 6 6 6 6 : 7 ! 8 9 0 a b c d c e a f g h ! 7 : 6 6 6 6 6 ",
"% % % % i { j k l m n o p q r q p o s t u v j { i % % % % ",
") ) ) ) w w x y z A B C D E F E D C G H I J K w w ) ) ) ) ",
"i i i & } L M N O P Q R S T U T S V W X Y Z ` L } i - - - ",
"& & &  .' ..+.@.#.$.%.&.*.=.-.;.*.>.,.'.).!.~.{.' ].i i i ",
": : i ^ ^./.(._.:.<.[.}.|.1.2.3.4.5.6.7.8.9.0.a.^.^ i : : ",
"b.b.b.- c.d.e.f.g.h.i.j.k.l.m.n.o.p.q.r.s.t.u.v.w.- b.b.b.",
"x.x.: y.z.A.B.C.D.E.F.G.H.I.J.K.L.M.N.O.P.Q.R.S.z.y.: x.x.",
"T.T.x.U.V.W.X.Y.Z.`. +.+++@+#+$+%+&+*+=+-+;+>+,+V.U.x.'+'+",
"* * : )+!+~+{+]+^+/+(+_+:+<+[+}+|+1+2+3+4+5+6+7+!+)+: * * ",
"8+8+x.9+0+a+b+c+d+e+f+g+h+i+j+i+k+l+m+n+o+p+q+r+0+U.x.8+8+",
" . .8++ s+t+u+v+w+x+y+z+A+B+C+D+E+F+G+H+I+J+K+L+s++ * ].].",
"^ ^ ^ = M+N+O+P+Q+R+S+T+U+V+W+X+Y+Z+`+ @.@+@@@#@M+= ^ ^ ^ ",
"/ / / & $@%@&@*@=@-@;@>@,@'@)@!@~@{@]@^@/@(@_@%@$@i :@:@:@",
"] ] ] ] <@[@}@|@1@2@3@4@5@6@7@8@9@0@a@b@c@d@}@[@<@] ] ] ] ",
"j j j j * e@f@g@h@i@j@k@l@m@n@m@o@p@q@r@s@g@f@e@T.w w w w ",
"} } } } } ) t@%@u@v@w@x@y@z@A@B@y@C@D@E@u@%@t@) } } } } } ",
"F@F@F@F@F@F@) G@H@I@J@K@L@M@N@O@P@K@J@I@Q@R@% S@S@S@S@S@S@",
"T@T@T@T@T@T@T@T.^.M+U@I@V@W@X@W@V@I@U@M+^.T.; ; ; ; ; ; ; ",
"Y@Y@Y@Y@Y@Y@Y@Y@Y@' ^.Z@`@ #.# #`@Z@^.' Y@Y@Y@Y@Y@Y@Y@Y@Y@",
"! ! ! ! ! ! ! ! ! ! ! Y@) <@+#<@) Y@! ! ! ! ! ! ! ! ! ! ! ",
"@#@#@#@#@#@#@#@#@#@#@#@#@#@#@#############################",
"{ { { { { { { { { { { { { { { { $#$#$#$#$#$#$#$#$#$#$#$#$#",
"%#%#%#%#%#%#%#%#%#%#%#%#%#%#%#%#%#%#%#%#%#%#%#%#%#%#%#%#%#",
"&#&#&#&#&#&#&#&#&#&#&#&#&#&#&#&#7 7 7 7 7 7 7 7 7 7 7 7 7 ",
"*#*#*#*#*#*#*#*#*#*#*#*#*#*#*#*#*#*#*#*#*#*#*#*#*#*#*#*#*#"};
