/* XPM */
static char * title_1_active_xpm[] = {
"1 35 35 1",
" 	c #131313",
".	c #595959",
"+	c #444444",
"@	c #434343",
"#	c #424242",
"$	c #414141",
"%	c #404040",
"&	c #3F3F3F",
"*	c #3E3E3E",
"=	c #3D3D3D",
"-	c #3C3C3C",
";	c #3B3B3B",
">	c #393939",
",	c #383838",
"'	c #373737",
")	c #363636",
"!	c #353535",
"~	c #333333",
"{	c #323232",
"]	c #313131",
"^	c #2F2F2F",
"/	c #2E2E2E",
"(	c #2C2C2C",
"_	c #2B2B2B",
":	c #292929",
"<	c #282828",
"[	c #262626",
"}	c #242424",
"|	c #232323",
"1	c #212121",
"2	c #1E1E1E",
"3	c #1C1C1C",
"4	c #1A1A1A",
"5	c #171717",
"6	c #151515",
" ",
".",
"+",
"@",
"#",
"$",
"%",
"&",
"*",
"=",
"-",
";",
">",
",",
"'",
")",
"!",
"~",
"{",
"]",
"^",
"/",
"(",
"_",
":",
"<",
"[",
"}",
"|",
"1",
"2",
"3",
"4",
"5",
"6"};
