/* XPM */
static char * top_left_active_xpm[] = {
"8 35 38 1",
" 	c None",
".	c #131313",
"+	c #595959",
"@	c #444444",
"#	c #434343",
"$	c #424242",
"%	c #454545",
"&	c #414141",
"*	c #404040",
"=	c #3F3F3F",
"-	c #3E3E3E",
";	c #3D3D3D",
">	c #3C3C3C",
",	c #3B3B3B",
"'	c #3A3A3A",
")	c #383838",
"!	c #373737",
"~	c #363636",
"{	c #353535",
"]	c #333333",
"^	c #323232",
"/	c #313131",
"(	c #2F2F2F",
"_	c #2E2E2E",
":	c #2D2D2D",
"<	c #2B2B2B",
"[	c #2A2A2A",
"}	c #282828",
"|	c #272727",
"1	c #252525",
"2	c #242424",
"3	c #232323",
"4	c #212121",
"5	c #1F1F1F",
"6	c #1D1D1D",
"7	c #1A1A1A",
"8	c #181818",
"9	c #151515",
"     ...",
"   ..+++",
"  .@@@@@",
" .######",
" .$$$$$$",
".%&&&&&&",
".%******",
".%======",
".%------",
".%;;;;;;",
".%>>>>>>",
".%,,,,,,",
".%''''''",
".%))))))",
".%!!!!!!",
".%~~~~~~",
".%{{{{{{",
".%]]]]]]",
".%^^^^^^",
".%//////",
".%((((((",
".%______",
".%::::::",
".%<<<<<<",
".%[[[[[[",
".%}}}}}}",
".%||||||",
".%111112",
".%333333",
".%444444",
".%555555",
".%666666",
".%777777",
".%888888",
".%999999"};
