/* XPM */
static char * top_right_active_xpm[] = {
"8 35 45 1",
" 	c None",
".	c #131313",
"+	c #595959",
"@	c #444444",
"#	c #434343",
"$	c #424242",
"%	c #414141",
"&	c #454545",
"*	c #404040",
"=	c #3F3F3F",
"-	c #3E3E3E",
";	c #3D3D3D",
">	c #3C3C3C",
",	c #3B3B3B",
"'	c #393939",
")	c #383838",
"!	c #373737",
"~	c #363636",
"{	c #353535",
"]	c #333333",
"^	c #323232",
"/	c #313131",
"(	c #303030",
"_	c #2F2F2F",
":	c #2E2E2E",
"<	c #2D2D2D",
"[	c #2C2C2C",
"}	c #2B2B2B",
"|	c #2A2A2A",
"1	c #292929",
"2	c #282828",
"3	c #272727",
"4	c #262626",
"5	c #252525",
"6	c #242424",
"7	c #232323",
"8	c #212121",
"9	c #1F1F1F",
"0	c #1E1E1E",
"a	c #1D1D1D",
"b	c #1C1C1C",
"c	c #1A1A1A",
"d	c #181818",
"e	c #171717",
"f	c #151515",
"...     ",
"+++..   ",
"@@@@@.  ",
"######. ",
"$$$$$$. ",
"%%%%%%&.",
"******&.",
"======&.",
"------&.",
";;;;;;&.",
">>>>>>&.",
",,,,,,&.",
"''''''&.",
"))))))&.",
"!!!!!!&.",
"~~~~~~&.",
"{{{{{{&.",
"]]]]]]&.",
"^^^^^^&.",
"//////&.",
"(_____&.",
"::::::&.",
"<[[[[[&.",
"}}}}}}&.",
"||1111&.",
"222222&.",
"334444&.",
"556666&.",
"777777&.",
"888888&.",
"999000&.",
"aaabbb&.",
"cccccc&.",
"ddddee&.",
"ffffff&."};
